<svg width="280" height="152" viewBox="0 0 280 152" fill="none" xmlns="http://www.w3.org/2000/svg">
<g clip-path="url(#clip0_8068_102333)">
<path d="M193.906 101.494C193.892 101.553 193.875 101.611 193.859 101.671C193.831 101.768 193.803 101.864 193.772 101.959C193.758 102.001 193.746 102.043 193.732 102.085C192.224 106.582 187.548 108.507 187.292 108.609C181.714 110.807 176.086 107.509 173.573 106.035C172.466 105.386 170.678 104.228 168.345 101.728C168.332 101.714 168.318 101.7 168.306 101.686C168.154 101.523 168 101.355 167.844 101.179C166.003 99.1235 163.852 96.25 161.445 92.1855C153.976 79.5702 155.574 75.9377 148.829 64.3656C147.114 61.4252 143.806 57.8706 140.743 55.6643C138.316 53.9163 136.456 53.2142 136.491 52.1431C136.491 52.1431 126.361 54.8383 132.253 50.4577C131.44 50.5274 124.649 50.668 133.094 47.0465C132.192 46.8083 125.867 45.396 131.776 44.5114C153.306 44.0977 169.666 64.7347 182.264 77.5993C182.938 78.2878 183.762 78.8121 184.67 79.1318C185.579 79.4516 186.549 79.5582 187.506 79.4435C187.517 79.4421 187.527 79.4421 187.536 79.4407C188.83 82.8853 190.759 88.0347 193.048 94.1467C194.2 97.2222 194.499 99.2418 193.906 101.494V101.494Z" fill="#F4ADA2"/>
<path d="M50.0178 110.772C37.6733 107.843 20.2948 105.628 8.48275 112.58C6.35935 113.829 -0.732696 117.587 -0.0517178 120.588C0.389592 122.534 4.27082 123.384 5.56556 123.7C16.9098 126.467 41.5166 114.936 50.0178 110.773V110.772Z" fill="#5B2448"/>
<path d="M121.419 97.5669C114.119 97.2013 105.636 98.2258 97.0967 99.9342C96.8675 99.9802 98.054 107.923 97.8247 107.969C74.086 112.82 48.7245 114.915 48.7245 114.915L48.1826 110.824L40.805 55.1154L40.7383 54.6137C40.7383 54.6137 40.7689 54.5831 40.823 54.5261C40.8591 54.4899 40.9036 54.4427 40.9578 54.3857C41.4412 53.8701 42.6219 52.5426 43.3999 51.115L67.6916 50.9481C67.7931 50.8897 67.8944 50.8313 67.9958 50.7757C68.2011 50.6614 68.4086 50.5511 68.6181 50.445C93.039 38.1376 121.419 97.5671 121.419 97.5671V97.5669Z" fill="#14A1DC"/>
<path d="M48.724 115.388C48.6094 115.388 48.4986 115.346 48.4124 115.271C48.3262 115.195 48.2704 115.091 48.2553 114.977L40.2692 54.676C40.2597 54.6038 40.2669 54.5304 40.2902 54.4615C40.3136 54.3925 40.3525 54.3298 40.404 54.2783C40.4063 54.276 40.4335 54.2486 40.48 54.1997C40.5149 54.1645 40.5458 54.132 40.5819 54.0939L40.6152 54.0589C41.0741 53.5693 42.2289 52.2747 42.9845 50.888C43.0249 50.8137 43.0845 50.7517 43.1571 50.7083C43.2296 50.6649 43.3124 50.6417 43.3969 50.6412L67.5642 50.4753C67.6322 50.4363 67.7004 50.3977 67.7684 50.3603C67.9781 50.2435 68.1902 50.1308 68.4044 50.0223C72.4639 47.9763 76.8891 47.7486 81.558 49.3448C86.3173 50.9721 91.4008 54.5202 96.6673 59.8909C100.859 64.1655 105.181 69.6028 109.514 76.0511C116.882 87.0179 121.798 97.2603 121.846 97.3623C121.918 97.5129 121.906 97.6902 121.813 97.8292C121.721 97.9681 121.562 98.0515 121.396 98.0396C114.889 97.7138 106.866 98.4834 97.546 100.327C97.5845 101.004 97.7809 102.643 97.9308 103.895C98.0487 104.879 98.1706 105.896 98.2465 106.653C98.3726 107.91 98.415 108.333 97.9179 108.433C74.4249 113.234 49.0173 115.365 48.7635 115.386C48.7502 115.387 48.7371 115.388 48.724 115.388V115.388ZM41.2378 54.7783L41.2743 55.0529L49.1344 114.404C52.6232 114.097 75.756 111.967 97.3759 107.577C97.3377 106.902 97.141 105.26 96.9909 104.008C96.873 103.024 96.7511 102.006 96.6752 101.25C96.5491 99.9926 96.5067 99.569 97.0042 99.4697C106.175 97.6351 114.122 96.8257 120.643 97.0595C119.402 94.558 114.939 85.8233 108.721 76.5697C99.0547 62.1846 89.5559 53.0803 81.2514 50.2413C76.8326 48.7304 72.6539 48.9414 68.8312 50.8681C68.6275 50.9713 68.4258 51.0785 68.2262 51.1895C68.1309 51.2418 68.0382 51.2951 67.9455 51.3485L67.9274 51.3588C67.8567 51.3995 67.7766 51.4212 67.695 51.4216L43.6779 51.5866C42.8751 52.9728 41.7626 54.2196 41.3032 54.7097L41.2683 54.7463L41.238 54.7782L41.2378 54.7783ZM97.7301 107.505L97.7266 107.505L97.7301 107.505Z" fill="white"/>
<path d="M98.8325 104.589C93.8429 89.8506 86.9553 75.9727 78.3609 63.3407C75.4848 59.1153 72.4177 55.0232 69.1693 51.0772C69.1338 51.0339 69.0901 50.998 69.0407 50.9717C68.9913 50.9454 68.9372 50.9292 68.8815 50.9239C68.8257 50.9183 68.7694 50.9239 68.7159 50.9402C68.6623 50.9566 68.6125 50.9835 68.5694 51.0193C68.5261 51.0548 68.4903 51.0986 68.464 51.148C68.4377 51.1975 68.4214 51.2517 68.4162 51.3074C68.4053 51.4208 68.4392 51.5316 68.5115 51.6196C71.7433 55.5455 74.7947 59.6168 77.6564 63.8205C86.2073 76.3889 93.0604 90.1974 98.0251 104.862C98.0629 104.968 98.1405 105.054 98.2411 105.102C98.3417 105.151 98.4574 105.158 98.5633 105.122C98.6691 105.086 98.7566 105.01 98.807 104.911C98.8573 104.811 98.8665 104.695 98.8325 104.589Z" fill="white"/>
<path d="M81.4619 41.5788H161.287V116.065H81.4619V41.5788Z" fill="#FFCF2D"/>
<path d="M110.472 42.1902H132.415V115.454H110.472V42.1902Z" fill="white"/>
<path d="M132.415 115.928H110.472C110.347 115.928 110.226 115.878 110.138 115.789C110.049 115.7 109.999 115.579 109.999 115.454V42.1903C109.999 42.0646 110.049 41.9442 110.138 41.8553C110.226 41.7665 110.347 41.7166 110.472 41.7166H132.415C132.477 41.7166 132.539 41.7288 132.596 41.7526C132.654 41.7764 132.706 41.8113 132.75 41.8552C132.794 41.8992 132.829 41.9515 132.853 42.009C132.876 42.0664 132.889 42.128 132.889 42.1903V115.454C132.889 115.579 132.839 115.7 132.75 115.789C132.661 115.878 132.541 115.928 132.415 115.928H132.415ZM110.946 114.98H131.942V42.6639H110.946V114.98Z" fill="#5B2448"/>
<path d="M101.584 56.5054C101.671 56.5051 101.755 56.4806 101.829 56.4347C101.902 56.3888 101.961 56.3233 101.999 56.2456C102.037 56.1679 102.052 56.0812 102.043 55.9952C102.035 55.9092 102.002 55.8274 101.949 55.759L99.2511 52.2767L96.3393 48.5191C96.2962 48.4633 96.2409 48.4181 96.1777 48.387C96.1145 48.3559 96.0449 48.3398 95.9745 48.3398C95.904 48.3398 95.8345 48.3559 95.7713 48.387C95.708 48.4181 95.6528 48.4633 95.6097 48.5191L92.6979 52.2767L89.9995 55.759C89.9244 55.856 89.8909 55.9788 89.9062 56.1005C89.9215 56.2223 89.9845 56.333 90.0812 56.4083C90.1622 56.4713 90.2618 56.5055 90.3643 56.5054H92.2728C92.3953 56.5056 92.5128 56.5544 92.5993 56.6412C92.6859 56.728 92.7345 56.8456 92.7345 56.9682V65.9624C92.7344 66.0231 92.7463 66.0833 92.7695 66.1394C92.7926 66.1955 92.8266 66.2465 92.8695 66.2895C92.9124 66.3324 92.9633 66.3665 93.0193 66.3898C93.0754 66.4131 93.1355 66.4251 93.1961 66.4252H98.7522C98.8747 66.425 98.9922 66.3762 99.0787 66.2894C99.1653 66.2026 99.2139 66.085 99.2139 65.9624V56.9682C99.2138 56.9074 99.2257 56.8473 99.2489 56.7912C99.272 56.7351 99.306 56.6841 99.3489 56.6411C99.3918 56.5981 99.4427 56.564 99.4987 56.5407C99.5548 56.5175 99.6148 56.5055 99.6755 56.5054H101.585H101.584Z" fill="#5B2448"/>
<path d="M132.197 114.666C131.72 115.009 131.236 115.342 130.746 115.665C124.031 120.097 114.205 124.163 101.503 128.402L101.497 128.406C100.199 128.839 98.8708 129.274 97.512 129.712C97.4289 129.738 97.344 129.765 97.2589 129.793C96.7042 129.971 96.1491 130.148 95.5937 130.324C94.9281 130.536 94.2652 130.756 93.6054 130.985C91.7488 131.63 89.8012 132.375 87.7705 133.191C85.8971 133.944 83.9554 134.758 81.9571 135.61C81.8405 135.659 81.7484 135.698 81.7243 135.709C61.3879 145.706 47.0223 149.263 39.2182 150.527C33.8253 151.4 28.2853 150.922 23.1706 149.001C19.7389 147.712 16.1806 145.681 13.206 142.326C8.53289 137.055 7.34623 130.826 6.67709 127.313C4.99878 118.503 6.72963 111.221 7.92733 107.436C14.8592 87.8029 32.3695 80.4321 41.1275 84.7785C48.2634 88.3198 52.138 100.905 48.8642 114.497C53.0719 113.025 63.9644 110.792 76.1119 109.919C80.456 109.608 84.5173 109.316 88.0528 108.955C88.9039 108.867 89.7541 108.771 90.6035 108.668C97.4333 107.824 107.238 104.895 112.233 101.838C117.668 98.5101 118.895 99.8447 116.06 103.504C109.737 111.667 119.677 106.535 128.871 103.671C136.358 101.339 133.197 105.17 132.365 105.836C134.86 104.67 138.853 103.837 134.86 108.668C137.522 107.169 138.067 110.449 132.197 114.666L132.197 114.666Z" fill="#F4ADA2"/>
<path d="M93.7854 132.57L87.7709 133.192L85.4299 133.433L82.4567 133.741C82.2554 131.79 81.9625 129.797 81.5914 127.798C81.4616 127.091 81.3213 126.387 81.1705 125.685C79.9792 120.072 78.2022 114.53 76.1108 109.92C80.4549 109.609 84.5162 109.317 88.0517 108.956C89.6811 113.165 91.0002 117.488 91.9984 121.89C92.1346 122.479 92.2638 123.07 92.3859 123.662C92.7654 125.467 93.0884 127.284 93.3544 129.109C93.413 129.509 93.4685 129.908 93.5208 130.309C93.5507 130.535 93.5789 130.762 93.6056 130.987C93.6706 131.516 93.7305 132.044 93.7854 132.57V132.57Z" fill="#5B2448"/>
<path d="M90.7344 135.542C95.8088 133.588 98.8171 129.13 97.4536 125.585C96.0901 122.04 90.8712 120.75 85.7969 122.704C80.7225 124.658 77.7143 129.116 79.0777 132.661C80.4412 136.207 85.6601 137.496 90.7344 135.542Z" fill="#5B2448"/>
<path d="M81.1634 125.646C82.3714 124.448 83.953 123.413 85.8025 122.701C87.8826 121.901 90.0343 121.608 91.9874 121.841C91.9239 121.563 91.8592 121.285 91.7932 121.007C89.7883 120.819 87.6119 121.137 85.5117 121.945C83.737 122.628 82.1944 123.597 80.9629 124.728C81.0315 125.034 81.0979 125.34 81.1633 125.646L81.1634 125.646Z" fill="white"/>
<path d="M90.7718 135.626C95.6981 133.729 98.744 129.727 97.5751 126.687C96.4063 123.647 91.4652 122.719 86.539 124.616C81.6127 126.512 78.5668 130.514 79.7356 133.555C80.9045 136.595 85.8456 137.522 90.7718 135.626Z" fill="white"/>
<path d="M88.8608 131.158C88.7765 131.158 88.6943 131.131 88.6257 131.082C88.557 131.033 88.5054 130.963 88.4781 130.884L87.293 127.418C87.2619 127.317 87.2712 127.208 87.3189 127.115C87.3666 127.021 87.449 126.949 87.5486 126.915C87.6482 126.881 87.7572 126.887 87.8524 126.932C87.9476 126.977 88.0216 127.057 88.0587 127.156L89.1109 130.23L94.0837 128.41C94.1336 128.391 94.1867 128.383 94.2399 128.386C94.293 128.388 94.3452 128.4 94.3934 128.423C94.4416 128.445 94.485 128.477 94.521 128.516C94.5569 128.556 94.5848 128.601 94.6031 128.651C94.6399 128.752 94.6352 128.864 94.5899 128.961C94.5446 129.059 94.4626 129.135 94.3617 129.172L89.001 131.134C88.9562 131.15 88.9088 131.158 88.8612 131.158H88.8608ZM71.6875 72.2514C71.6258 72.0879 71.5019 71.9556 71.3429 71.8835C71.1838 71.8113 71.0027 71.8052 70.8392 71.8665C70.6759 71.9283 70.5437 72.0524 70.4717 72.2115C70.3997 72.3707 70.3937 72.552 70.455 72.7155C70.4853 72.7967 70.5313 72.871 70.5905 72.9342C70.6496 72.9975 70.7207 73.0483 70.7996 73.0839C70.8784 73.1198 70.9634 73.1397 71.0499 73.1425C71.1363 73.1454 71.2225 73.1311 71.3034 73.1005C71.4667 73.0387 71.5989 72.9146 71.6709 72.7554C71.7429 72.5962 71.749 72.415 71.6876 72.2514H71.6875ZM68.5412 65.365C68.5109 65.2839 68.4649 65.2095 68.4058 65.1463C68.3466 65.0831 68.2755 65.0322 68.1966 64.9967C68.1179 64.9607 68.0329 64.9407 67.9464 64.9379C67.86 64.935 67.7738 64.9494 67.6929 64.9801C67.5296 65.0419 67.3975 65.166 67.3254 65.3252C67.2534 65.4844 67.2474 65.6656 67.3087 65.8292C67.3561 65.9547 67.4406 66.0628 67.5508 66.1391C67.6611 66.2154 67.7919 66.2563 67.926 66.2564C68.0323 66.256 68.137 66.2299 68.2311 66.1803C68.3251 66.1307 68.4058 66.0591 68.4662 65.9715C68.5267 65.8839 68.565 65.7831 68.5781 65.6775C68.5911 65.5719 68.5785 65.4647 68.5412 65.365Z" fill="white"/>
<path d="M74.8212 62.9785C74.6177 61.13 73.9818 59.1083 72.9313 56.9696C72.0992 55.2707 71.0003 53.4918 69.665 51.6823C69.344 51.2478 69.0156 50.819 68.6798 50.3959C68.6685 50.3817 68.6526 50.3718 68.6349 50.3679C68.6172 50.364 68.5986 50.3664 68.5824 50.3746C68.3707 50.4819 68.1604 50.5937 67.9573 50.7068C67.9473 50.7123 67.9386 50.72 67.9319 50.7293C67.9251 50.7385 67.9205 50.7491 67.9182 50.7604C67.916 50.7716 67.9163 50.7832 67.919 50.7944C67.9217 50.8055 67.9268 50.8159 67.934 50.8249C68.1047 51.0395 68.2736 51.2557 68.4406 51.4733C68.6302 51.7183 68.8166 51.9659 68.9998 52.2158L69.0032 52.221C71.9122 56.1703 73.6304 59.922 73.9725 63.071C74.0503 63.7826 74.287 65.9482 73.4892 66.408C73.0683 66.6505 72.281 66.4187 71.1475 65.7196C68.4041 64.0285 65.4251 60.711 62.5325 56.1259C62.4807 56.0441 62.4027 55.9822 62.3113 55.9504C62.2198 55.9185 62.1203 55.9186 62.0289 55.9505C61.9378 55.9832 61.8606 56.0458 61.8099 56.1282C61.7591 56.2107 61.738 56.3079 61.7498 56.4039C62.1647 59.8481 62.2411 63.1457 61.965 65.6885C61.6311 68.7642 60.7869 70.6372 59.524 71.1047C59.2559 71.203 58.9819 71.2356 58.5795 71.2166C54.0249 71.0112 49.5266 64.8672 47.8038 62.2348C47.7415 62.1407 47.6445 62.075 47.534 62.052C47.4235 62.0291 47.3084 62.0508 47.2138 62.1125C47.1198 62.1748 47.0541 62.2717 47.0312 62.3823C47.0083 62.4928 47.03 62.6079 47.0916 62.7025C48.8858 65.4443 53.5937 71.8453 58.5527 72.0698C58.6308 72.0725 58.7062 72.075 58.7789 72.075C59.1792 72.075 59.5005 72.0221 59.8206 71.9032C61.4181 71.3118 62.4233 69.289 62.8085 65.8912C63.1127 63.209 62.9686 60.2067 62.7793 58.0609C65.4335 61.9895 68.1687 64.8857 70.7009 66.446C72.1822 67.3588 73.1735 67.5752 73.9156 67.1478C75.1948 66.4091 74.9427 64.0923 74.8214 62.9785H74.8212Z" fill="white"/>
<path d="M75.503 75.8406C75.4733 75.7307 75.4025 75.639 75.3037 75.5822C75.2049 75.5253 75.0901 75.5105 74.9802 75.5402C74.5661 75.6538 74.1536 75.7731 73.7428 75.8981L73.7158 75.9063C72.5348 76.2609 71.2543 75.7214 70.67 74.6237C69.7843 72.9596 68.9337 71.2771 68.1189 69.5771C66.0791 65.3182 64.2656 60.9544 62.686 56.504C62.6579 56.4245 62.6068 56.3551 62.5392 56.3046C62.4716 56.2542 62.3906 56.2249 62.3064 56.2206C62.2222 56.2163 62.1386 56.237 62.0662 56.2802C61.9938 56.3235 61.9358 56.3872 61.8997 56.4634C61.8755 56.5139 61.8615 56.5687 61.8586 56.6247C61.8558 56.6806 61.864 56.7366 61.8829 56.7893C63.4727 61.2681 65.2976 65.6597 67.3502 69.9459C68.1703 71.6567 69.0264 73.35 69.9177 75.0247C70.2128 75.5813 70.6539 76.0469 71.1935 76.3715C71.7332 76.6961 72.351 76.8675 72.9807 76.8672C73.3127 76.8672 73.6424 76.8187 73.9605 76.7232L73.9888 76.7147C74.3917 76.5919 74.7963 76.4749 75.2026 76.3635C75.3116 76.3338 75.4044 76.2621 75.4606 76.164C75.5168 76.066 75.532 75.9496 75.5027 75.8405L75.503 75.8406Z" fill="white"/>
<path d="M49.5207 111.219C36.2658 107.964 14.1527 106.373 0.425659 119.808C1.85925 110.898 12.4259 49.3179 40.823 54.5261C55.4665 62.7715 52.4242 97.3363 49.5207 111.219Z" fill="#14A1DC"/>
<path d="M0.425661 120.281C0.357146 120.281 0.289452 120.266 0.227256 120.237C0.165059 120.209 0.109843 120.167 0.0654211 120.115C0.0209994 120.062 -0.0115688 120.001 -0.0300333 119.935C-0.0484979 119.869 -0.0524187 119.8 -0.0415248 119.732C0.878647 114.013 2.99605 102.638 6.83815 90.7019C12.2053 74.0288 18.8023 62.8357 26.4456 57.4336C30.9376 54.2589 35.8038 53.1238 40.9083 54.06C40.9599 54.0697 41.0095 54.0875 41.0551 54.1132C44.566 56.0901 47.3102 59.667 49.2113 64.7444C50.8196 69.0396 51.8333 74.4177 52.2244 80.7291C52.9258 92.0457 51.4559 104.279 49.9841 111.315C49.9711 111.378 49.9458 111.437 49.9095 111.489C49.8732 111.541 49.8269 111.585 49.7731 111.619C49.7193 111.653 49.6593 111.676 49.5966 111.686C49.5339 111.696 49.4698 111.694 49.4081 111.679C41.9066 109.837 16.2286 105.004 0.756683 120.146C0.668253 120.233 0.549406 120.281 0.425661 120.281V120.281ZM37.49 54.6911C33.8213 54.6911 30.3024 55.8678 26.9917 58.2076C19.5195 63.4886 13.042 74.5189 7.73907 90.9923C4.20338 101.976 2.13521 112.486 1.11973 118.506C7.2113 113.019 15.2721 109.75 25.1038 108.783C35.0149 107.81 44.2515 109.474 49.1558 110.643C50.5816 103.597 51.9594 91.758 51.2795 80.7877C50.8942 74.5699 49.9 69.284 48.3248 65.0767C46.5166 60.2476 43.9382 56.8504 40.6595 54.9776C39.592 54.7864 38.5347 54.6909 37.49 54.6909V54.6911Z" fill="white"/>
<path d="M44.3906 25.3347C44.3751 25.3426 44.3581 25.3495 44.3412 25.3574C44.2851 25.3817 44.2234 25.4076 44.1552 25.433C44.1135 25.4496 44.0697 25.4663 44.0246 25.4831C40.398 26.8235 23.0897 31.2845 21.1754 26.6711C19.6268 22.9394 30.6911 18.5547 36.0205 16.665C36.2619 16.5803 36.4906 16.5002 36.7064 16.4249C36.9016 16.357 37.0856 16.2943 37.2605 16.2347C38.3532 15.8633 39.0782 15.6402 39.188 15.6053H39.1914C39.1945 15.6034 39.198 15.6023 39.2015 15.6022C39.2815 15.5728 39.715 15.4238 39.901 15.3589C39.954 15.3404 39.9881 15.329 39.9881 15.329L43.9608 24.3591C43.9608 24.3601 43.9614 24.3608 43.9621 24.3615L44.3908 25.3348L44.3906 25.3347Z" fill="#14A1DC"/>
<path d="M44.2203 25.179C44.2049 25.1869 44.1878 25.1938 44.1709 25.2017C41.6682 24.826 36.9754 21.3969 35.8509 16.5084C36.0923 16.4236 36.3209 16.3436 36.5368 16.2683C36.7319 16.2004 36.9159 16.1377 37.0909 16.078C38.1835 15.7067 38.9085 15.4836 39.0183 15.4487H39.0218C39.0248 15.4468 39.0283 15.4457 39.0319 15.4456C39.6401 17.2666 41.3492 21.7215 43.791 24.2022C43.791 24.2031 43.7916 24.2039 43.7923 24.2045L44.2206 25.179H44.2203Z" fill="#5B2448"/>
<path d="M41.7865 24.5512C45.0627 24.9815 52.5802 30.3932 52.5802 30.3932C54.8624 19.4248 54.6528 10.9232 51.3754 9.56143C47.3465 7.88724 38.792 17.0488 39.9845 19.7087C40.2322 20.2613 41.0498 20.8661 41.5126 22.3497C41.7957 23.2574 41.8097 24.0571 41.7864 24.5512H41.7865Z" fill="#5B2448"/>
<path d="M64.957 39.5152C65.1281 41.0952 66.824 48.1383 67.8305 50.9481C67.3846 57.9848 62.9501 60.6448 54.8739 57.2765C52.1013 56.3665 47.9714 54.6247 43.5387 51.1136C43.5627 51.348 46.768 44.5119 47.2491 36.4501C31.8005 38.2154 33.8772 17.2204 48.5757 27.166C51.2734 28.6714 51.4512 27.2661 51.9137 24.215C52.7796 16.2841 58.7646 12.3729 65.8661 11.0751C66.7834 13.856 67.8828 16.5733 69.157 19.2095C71.3727 23.8453 75.1122 25.0185 76.8055 29.0342C79.8754 36.1178 66.6293 39.4022 64.9567 39.5152H64.957Z" fill="#F4ADA2"/>
<path d="M69.0891 27.0573C68.9652 27.3677 68.7758 27.6477 68.5337 27.8781C68.2991 28.1037 68.0308 28.2913 67.7385 28.4342C67.1498 28.7305 66.4887 28.8523 65.8331 28.7851C65.5052 28.743 65.1849 28.6546 64.8817 28.5226C64.5801 28.3877 64.3009 28.2073 64.054 27.9877C63.552 27.5551 63.2247 26.9544 63.1332 26.2979C63.1237 26.2124 63.1448 26.1263 63.1926 26.0549C63.2405 25.9834 63.3122 25.9313 63.3948 25.9077C63.4775 25.884 63.5658 25.8905 63.6442 25.9259C63.7225 25.9612 63.7858 26.0232 63.8229 26.1008L63.8314 26.1193C64.1272 26.7532 64.6588 27.2465 65.3128 27.494C65.5234 27.5772 65.7438 27.6329 65.9687 27.6596C66.4268 27.7043 66.8891 27.6436 67.3202 27.4821C67.7595 27.3326 68.1508 27.068 68.4534 26.7159L68.4673 26.6987C68.5216 26.6314 68.5981 26.5857 68.6831 26.5698C68.7681 26.5539 68.856 26.5689 68.9309 26.6121C69.0058 26.6553 69.0628 26.7239 69.0917 26.8055C69.1206 26.887 69.1195 26.9762 69.0885 27.057L69.0889 27.0573H69.0891ZM47.4068 31.8323C47.2759 31.8323 47.1531 31.7691 47.0771 31.6624C44.2279 27.6654 40.6202 29.1056 40.468 29.1689C40.3699 29.2061 40.2611 29.2037 40.1647 29.1622C40.0683 29.1208 39.9918 29.0436 39.9511 28.9468C39.9105 28.85 39.909 28.7412 39.9469 28.6433C39.9848 28.5454 40.0591 28.466 40.1543 28.4218C40.1974 28.4035 44.5007 26.654 47.736 31.1914C47.7791 31.252 47.8047 31.3233 47.8101 31.3975C47.8154 31.4716 47.8003 31.5459 47.7663 31.612C47.7323 31.6782 47.6808 31.7337 47.6174 31.7725C47.554 31.8113 47.4812 31.8319 47.4068 31.8321V31.8323ZM66.8816 23.4331C66.8213 23.4331 66.7621 23.4162 66.7109 23.3843C66.6596 23.3525 66.6183 23.307 66.5915 23.2529C66.5647 23.1988 66.5536 23.1383 66.5593 23.0782C66.565 23.0181 66.5874 22.9608 66.6239 22.9127C67.1156 22.2644 67.3231 21.8047 67.2581 21.5052C67.1855 21.1706 66.7442 20.9119 66.0261 20.5252C64.0275 19.4493 64.0122 18.201 64.0127 18.1483C64.0132 18.0627 64.0475 17.9808 64.1082 17.9204C64.1688 17.8601 64.2509 17.8262 64.3364 17.8262H64.3385C64.4235 17.8268 64.5048 17.8607 64.565 17.9208C64.6251 17.9808 64.6593 18.062 64.6602 18.147C64.6616 18.175 64.7265 19.0894 66.3328 19.954C67.0936 20.3634 67.7499 20.7167 67.8909 21.3677C68.0015 21.8775 67.7696 22.4749 67.1397 23.3049C67.1095 23.3447 67.0705 23.377 67.0257 23.3993C66.9809 23.4215 66.9316 23.433 66.8816 23.4329V23.4331ZM54.746 20.0381C54.0151 17.8807 55.2676 15.2374 57.4232 14.4788C58.3686 14.0884 60.6272 14.1736 60.146 15.6768C59.8464 16.6126 58.7198 17.1426 58.0712 17.9341C57.5921 18.462 57.0265 19.2511 56.5574 19.8509C56.1874 20.4415 55.0511 20.9284 54.746 20.0381ZM56.9587 21.9765C57.701 21.5459 59.5055 20.5544 60.9896 19.0628C61.0387 19.0133 61.0971 18.974 61.1613 18.9471C61.2256 18.9202 61.2945 18.9062 61.3642 18.906C61.4339 18.9058 61.5029 18.9193 61.5674 18.9457C61.6318 18.9722 61.6904 19.0111 61.7399 19.0602L61.744 19.0643C62.2795 19.6057 62.9896 20.6329 61.8484 21.5192C60.4462 22.6083 57.7214 22.9487 56.94 22.4389C56.9019 22.4128 56.871 22.3774 56.8503 22.336C56.8295 22.2947 56.8196 22.2488 56.8215 22.2025C56.8234 22.1563 56.8369 22.1113 56.8609 22.0718C56.8849 22.0322 56.9185 21.9994 56.9587 21.9765Z" fill="#5B2448"/>
<path d="M67.3283 16.8029C66.5535 17.1713 65.9361 17.3078 64.3993 17.6133C64.2603 17.6396 64.1374 17.72 64.0575 17.8369C63.9776 17.9537 63.9473 18.0975 63.9731 18.2367C64.1153 18.9852 64.707 19.594 65.9015 19.3406C67.2319 19.0583 67.7239 17.8434 67.7195 17.0488C67.7191 17.0027 67.7072 16.9575 67.6848 16.9173C67.6623 16.8771 67.6301 16.8432 67.5912 16.8187C67.5522 16.7942 67.5077 16.7799 67.4618 16.7771C67.4158 16.7744 67.3699 16.7833 67.3283 16.8029ZM49.9913 35.1504C49.8459 34.927 49.545 34.8647 49.3208 35.0109C48.6505 35.4521 47.9117 35.7788 47.1344 35.9776L47.0797 35.9916L47.0754 36.048C47.0537 36.3308 47.0296 36.6135 47.0031 36.896L46.993 37.0041L47.0991 36.9804C48.0758 36.7625 49.0057 36.3714 49.8448 35.8257L49.8547 35.8183C49.9072 35.7837 49.9524 35.7391 49.9877 35.687C50.023 35.635 50.0476 35.5764 50.0603 35.5148C50.0735 35.4526 50.0742 35.3884 50.0624 35.3259C50.0506 35.2634 50.0265 35.2038 49.9915 35.1507L49.9913 35.1504ZM66.9012 13.983C65.6243 13.93 64.5241 14.298 63.2172 14.2222C62.2606 14.1668 62.6255 12.8579 63.1047 12.3219C63.7426 11.4021 64.8408 11.2666 65.8663 11.0751C66.1881 12.0525 66.5331 13.0221 66.9012 13.983ZM65.9941 44.0027L65.8927 44.0068C58.597 44.2223 56.8704 38.4314 57.5468 37.6559C60.3986 39.139 64.9231 39.0389 64.9231 39.0389C64.9356 39.1098 65.3121 41.1864 65.9941 44.0027Z" fill="#5B2448"/>
<path d="M65.9439 11.263C65.9416 11.2652 65.9394 11.2663 65.9394 11.2675C65.9371 11.2675 65.937 11.2686 65.937 11.2686C65.8631 11.3399 65.7847 11.4122 65.7006 11.4855C64.2143 12.794 61.0969 14.5527 56.8725 16.2917C56.76 16.3382 56.6464 16.3846 56.5327 16.4308C56.5003 16.4452 56.4667 16.4585 56.4342 16.4717C51.4539 18.4596 46.3065 19.9996 41.0531 21.0732C40.9332 20.9338 40.8094 20.798 40.6816 20.6659C39.9919 19.7537 39.4439 18.7424 39.0564 17.6663C36.7872 11.4012 39.9429 3.37745 47.9667 0.965962C48.0732 0.935649 48.1808 0.904072 48.2882 0.873759L48.3101 0.867286C49.9827 0.384186 51.7253 0.189945 53.4631 0.292911C57.3654 0.56131 60.7901 2.64583 63.0749 5.78752C64.0071 7.10381 64.8001 8.51354 65.4409 9.99398C65.6109 10.3796 65.7672 10.7711 65.9094 11.1678C65.9204 11.1945 65.9291 11.2212 65.939 11.2477C65.94 11.253 65.9417 11.2581 65.9441 11.2629L65.9439 11.263Z" fill="#14A1DC"/>
<path d="M65.7691 11.1118C65.7669 11.1118 65.7667 11.1129 65.7667 11.1129C65.6929 11.1843 65.6145 11.2566 65.5304 11.3299C64.0441 12.6384 60.9267 14.3971 56.7023 16.1361C56.1603 14.8849 55.0833 10.6922 59.3675 8.69956C63.5786 6.74325 65.6042 10.7992 65.7691 11.1118ZM42.6625 117.495C42.5611 117.495 42.4624 117.462 42.3808 117.402C42.2993 117.342 42.2393 117.257 42.2096 117.16C42.1799 117.063 42.1821 116.959 42.216 116.863C42.2498 116.767 42.3134 116.685 42.3975 116.628C43.5608 115.843 46.4291 114.634 48.5372 113.895C48.5958 113.874 48.6579 113.866 48.72 113.869C48.7821 113.873 48.8428 113.888 48.8988 113.915C48.9549 113.942 49.005 113.98 49.0464 114.026C49.0879 114.073 49.1198 114.127 49.1403 114.185C49.1609 114.244 49.1697 114.306 49.1662 114.368C49.1628 114.43 49.1471 114.491 49.1202 114.547C49.0932 114.603 49.0555 114.654 49.0092 114.695C48.9629 114.736 48.9088 114.768 48.8502 114.789C46.4762 115.621 43.8743 116.774 42.9267 117.414C42.8486 117.466 42.7567 117.495 42.6625 117.495ZM120.826 112.52C120.713 112.521 120.605 112.481 120.519 112.408C120.433 112.335 120.376 112.235 120.358 112.124C120.34 112.013 120.362 111.899 120.42 111.803C120.477 111.706 120.568 111.634 120.674 111.598C123.374 110.684 129.458 107.276 131.898 105.312C131.946 105.272 132.002 105.242 132.062 105.223C132.122 105.205 132.185 105.199 132.247 105.205C132.31 105.211 132.37 105.23 132.426 105.26C132.481 105.29 132.53 105.33 132.569 105.379C132.608 105.428 132.638 105.485 132.655 105.545C132.672 105.605 132.678 105.668 132.67 105.731C132.663 105.793 132.644 105.854 132.613 105.908C132.582 105.963 132.541 106.011 132.491 106.05C129.941 108.103 123.807 111.537 120.978 112.495C120.929 112.512 120.877 112.52 120.826 112.52ZM122.715 116.638C122.603 116.638 122.494 116.598 122.408 116.525C122.323 116.452 122.266 116.35 122.248 116.239C122.23 116.128 122.253 116.014 122.311 115.918C122.37 115.822 122.461 115.75 122.568 115.714C125.507 114.747 131.066 111.948 134.332 108.202C134.415 108.107 134.532 108.049 134.657 108.041C134.782 108.032 134.906 108.074 135 108.156C135.095 108.239 135.153 108.356 135.161 108.481C135.17 108.607 135.128 108.73 135.046 108.825C131.654 112.715 125.902 115.614 122.863 116.614C122.816 116.63 122.766 116.638 122.715 116.638Z" fill="#5B2448"/>
<path d="M98.9303 129.109C122.982 121.621 131.378 115.267 134.1 112.771" stroke="#5B2448" stroke-width="0.907617" stroke-linecap="round"/>
<path d="M168.136 101.653C172.296 100.519 182.84 98.9303 191.734 101.653" stroke="#5B2448" stroke-width="0.907617"/>
<path d="M209.911 115.953C258.993 132.369 275.556 121.121 270.846 115.801C262.716 105.989 210.783 112.332 209.911 115.953Z" fill="#5B2448"/>
<path d="M219.141 60.0771C218.572 70.8819 218.069 81.6918 217.635 92.5047C216.013 97.6274 214.392 102.75 212.772 107.874C194.786 115.763 186.641 96.708 186.434 79.0061C197.78 79.0637 205.677 59.8898 219.141 60.0771Z" fill="#66B0F0"/>
<path d="M223.312 31.5188C222.977 31.656 222.593 31.7635 222.085 31.6204C220.898 31.2856 220.158 30.1386 219.159 28.9359C219.12 28.8894 219.08 28.8382 219.04 28.7844C220.546 30.4215 221.838 30.6705 222.764 30.6781C222.819 30.6781 222.976 31.2568 223.312 31.5188H223.312Z" fill="#5B2448"/>
<path d="M278.107 86.6713C275.205 79.9452 268.222 79.0998 266.102 70.6166C265.367 67.6754 265.612 63.7537 264.877 59.2192C264.502 56.908 264.265 54.9298 261.202 51.3757C254.013 43.0318 243.527 43.9831 241.235 35.6887C238.908 29.0706 240.868 23.6784 235.304 15.9481C229.691 8.14954 216.704 10.161 212.82 10.7928C204.532 3.29564 195.754 17.6196 206.714 21.3105C206.81 21.3443 206.91 21.3757 207.01 21.4068C209.554 22.1938 213.119 21.9191 215.024 21.4369C215.162 21.4023 215.3 21.3638 215.436 21.3214C216.378 22.899 217.89 27.231 219.04 28.7844C220.546 30.4215 221.838 30.6706 222.764 30.6781C222.819 30.6781 224.109 31.1004 224.549 31.3159C224.549 31.3159 224.705 31.2564 224.55 31.3159C226.058 32.0575 225.824 36.1347 225.759 37.2853V37.2878C224.125 51.5897 232.242 64.461 232.742 65.1623C244.582 81.7719 227.094 103.763 236.711 111.502C244.769 117.987 259.402 114.286 270.512 107.874C276.882 104.197 283.129 98.3143 278.107 86.6716V86.6713Z" fill="#5B2448"/>
<path d="M240.023 55.4278C240.07 57.2259 238.862 58.3416 238.688 58.4977C235.833 59.9771 229.047 64.5363 226.503 65.7073C224.34 66.508 221.102 67.6094 219.081 65.9624C218.1 64.9426 218.587 63.5203 218.664 61.2263C218.591 54.5088 216.059 49.9285 212.724 44.0243C200.612 46.0914 201.788 39.5583 202.986 31.0942C202.134 30.4786 201.205 28.8113 202.458 28.3712C203.041 28.1511 203.632 27.8907 204.038 27.4003C205.296 25.5624 205.712 23.2834 206.714 21.3106C209.29 22.2141 213.04 21.9385 215.024 21.4373C217.155 26.5164 218.736 30.2799 222.763 30.678C222.819 30.6776 222.975 31.2571 223.312 31.519C223.92 31.9181 225.659 30.621 227.013 30.8214C231.494 30.7703 232.63 35.8956 227.471 38.5976C227.962 46.6067 231.502 57.8564 238.711 52.5904C238.901 52.7617 239.978 53.7701 240.023 55.4276L240.023 55.4278Z" fill="#F4ADA2"/>
<path d="M227.455 38.0982L227.382 38.1261C226.578 38.4286 225.756 38.6787 224.921 38.8747C224.82 38.8987 224.733 38.9616 224.679 39.0497C224.625 39.1378 224.607 39.2438 224.631 39.3446C224.656 39.4451 224.718 39.5319 224.806 39.5864C224.894 39.6408 225 39.6584 225.101 39.6354C225.363 39.5732 225.621 39.5071 225.867 39.4392C226.474 39.2728 227.072 39.0792 227.661 38.859L227.736 38.831L227.455 38.0982Z" fill="#5B2448"/>
<path d="M213.433 11.1019C217.863 8.72851 210.823 0.00632721 208.215 0.494233C206.022 0.904618 208.086 13.9659 213.433 11.1019Z" fill="#14A1DC"/>
<path d="M219.194 29.6259C214.002 23.1164 212.183 14.0194 212.821 10.2714C212.821 10.2714 213.915 9.04321 217.776 8.89038C217.938 12.0382 218.055 22.2856 224.549 31.3154C222.451 32.3439 220.721 31.5397 219.194 29.6257L219.194 29.6259Z" fill="white"/>
<path d="M222.774 32.2385C221.377 32.2385 220.054 31.4645 218.823 29.9219C213.608 23.3834 211.688 14.1053 212.353 10.1918C212.368 10.1039 212.407 10.022 212.467 9.95556C212.592 9.81444 213.809 8.57253 217.758 8.41622C218.017 8.40878 218.237 8.6067 218.25 8.86631C218.259 9.03559 218.267 9.2256 218.277 9.43443C218.439 13.0369 218.87 22.6066 224.934 31.0385C224.974 31.0945 225.002 31.1587 225.015 31.2265C225.028 31.2943 225.026 31.3642 225.009 31.4312C224.992 31.4982 224.961 31.5607 224.918 31.6143C224.874 31.668 224.819 31.7115 224.757 31.7419C224.082 32.0732 223.42 32.2386 222.774 32.2386L222.774 32.2385ZM219.565 29.3299C220.937 31.0488 222.301 31.6235 223.82 31.1057C217.918 22.568 217.492 13.088 217.329 9.47714L217.325 9.3895C214.669 9.56574 213.562 10.2745 213.263 10.5104C212.705 14.3412 214.591 23.0933 219.565 29.3299Z" fill="white"/>
<path d="M215.064 7.01369C215.79 7.25569 216.255 8.21525 215.904 9.26738C215.553 10.3195 214.605 10.8075 213.88 10.5655C213.155 10.3235 212.69 9.36392 213.041 8.31179C213.392 7.25967 214.339 6.77169 215.064 7.01369Z" fill="#5B2448" stroke="#5B2448" stroke-width="0.907617"/>
<path d="M215.808 10.886C213.445 6.2034 224.627 3.00243 226.558 4.98442C228.182 6.6508 218.66 16.5364 215.808 10.886Z" fill="#14A1DC"/>
<path d="M214.908 48.1693C214.132 46.6103 213.28 45.09 212.357 43.6137C213.141 43.472 214.249 43.1947 215.464 42.5979C216.962 41.8629 217.73 41.0821 218.11 41.3443C218.572 41.6634 218.011 43.2184 217.831 43.7121C217.429 44.8174 216.63 46.4542 214.908 48.1693ZM212.787 25.414C214.245 26.4189 214.708 28.0742 214.136 28.7119C213.564 29.3496 211.963 28.9802 210.714 27.7236C209.431 26.432 208.822 24.9773 209.365 24.4256C209.928 23.8539 211.34 24.4166 212.787 25.414ZM205.153 36.3646C205.463 36.4917 205.801 36.5329 206.132 36.4841C206.463 36.4457 206.779 36.3323 207.059 36.1525C207.194 36.061 207.318 35.9524 207.425 35.8294C207.764 35.4549 207.942 34.9627 207.921 34.4584L207.92 34.445C207.918 34.3838 207.938 34.3238 207.976 34.2758C208.013 34.2277 208.067 34.1947 208.127 34.1827C208.187 34.1706 208.249 34.1803 208.303 34.21C208.356 34.2397 208.398 34.2875 208.419 34.3448C208.575 34.7941 208.562 35.2849 208.383 35.7255C208.297 35.9466 208.178 36.1533 208.03 36.3382C207.879 36.5219 207.704 36.6834 207.508 36.8179C207.111 37.0762 206.649 37.2158 206.176 37.2202C205.943 37.2251 205.71 37.1936 205.486 37.1267C205.256 37.0594 205.043 36.9433 204.862 36.7861C204.817 36.745 204.788 36.6892 204.78 36.6286C204.772 36.5679 204.786 36.5065 204.819 36.4551C204.852 36.4038 204.902 36.3659 204.961 36.3483C205.019 36.3307 205.082 36.3344 205.138 36.3589L205.153 36.3646ZM209.899 29.7714C209.345 29.2569 207.987 28.0554 207 26.4863C206.934 26.3812 206.83 26.3066 206.709 26.2788C206.588 26.2511 206.461 26.2724 206.356 26.3382L206.352 26.341C205.786 26.7022 204.977 27.4463 205.786 28.429C206.78 29.6366 209.055 30.4583 209.826 30.1721C209.864 30.1571 209.897 30.1327 209.923 30.1012C209.949 30.0697 209.966 30.0322 209.973 29.9922C209.981 29.9521 209.978 29.9108 209.965 29.8722C209.952 29.8336 209.929 29.7989 209.899 29.7714ZM227.969 33.958C227.322 33.7974 226.65 33.7713 225.993 33.8813C224.957 34.0376 223.439 34.5796 222.09 36.2744C222.033 36.346 222.005 36.4363 222.011 36.5276C222.018 36.6244 222.063 36.7146 222.136 36.7784C222.209 36.8422 222.304 36.8745 222.401 36.868C222.452 36.8646 222.501 36.8507 222.546 36.8271C222.591 36.8035 222.631 36.7707 222.663 36.7309C224.943 33.8673 227.649 34.6272 227.762 34.6609C227.808 34.6748 227.857 34.6795 227.905 34.6746C227.953 34.6697 227.999 34.6553 228.041 34.6323C228.084 34.6095 228.121 34.5786 228.151 34.5413C228.182 34.504 228.204 34.461 228.218 34.4149C228.232 34.3685 228.236 34.3199 228.231 34.2718C228.226 34.2237 228.211 34.1771 228.188 34.1347C228.165 34.0922 228.134 34.0548 228.096 34.0245C228.058 33.9942 228.015 33.9715 227.969 33.958Z" fill="#5B2448"/>
<path d="M270.847 115.801C259.293 106.419 215.622 131.187 201.411 121.502C210.106 111.399 217.348 80.2707 218.006 63.8397C221.073 66.9493 225.795 63.0275 228.526 59.9074V59.906C229.403 58.841 230.246 57.7484 231.054 56.6299C236.922 57.8096 242.12 58.0896 247.988 59.2694C253.417 77.516 262.032 106.53 270.847 115.801Z" fill="#66B0F0"/>
<path d="M218.006 63.8395C217.221 71.3541 216.589 79.6791 215.613 87.2812C215.424 88.7501 215.232 90.2186 215.036 91.6865C214.382 96.5937 213.691 101.496 212.962 106.393L212.952 106.46L213.017 106.48C213.219 106.542 213.415 106.605 213.606 106.666L213.777 106.721L213.791 106.629C214.744 100.225 215.634 93.8122 216.46 87.3906C217.116 82.2804 217.733 77.1652 218.309 72.0453C218.583 69.5939 218.756 66.5801 218.968 64.5671C218.616 64.3721 218.338 64.1699 218.006 63.8397L218.006 63.8395Z" fill="white"/>
<path d="M219.03 108.438C231.928 115.778 241.802 115.274 246.456 114.567C248.36 114.277 257.932 112.821 258.568 108.716C259.031 105.731 254.546 102.777 253.835 102.309C242.811 95.0497 223.345 105.93 219.03 108.438V108.438Z" fill="#5B2448"/>
<path d="M245.894 130.466C235.782 140.884 214.214 140.009 186.239 123.74C183.656 122.379 175.701 117.352 167.399 118.15C161.918 118.678 156.018 121.655 151.581 123.652C147.144 125.65 147.357 123.576 152.032 119.729C152.002 119.746 151.972 119.763 151.942 119.782C150.858 120.429 141.037 126.071 144.222 121.091C137.314 123.646 147.005 114.228 148.429 113.195C146.377 114.121 138.959 116.575 144.174 111.867C166.409 94.4115 196.733 100.863 219.03 108.438C219.444 105.114 219.8 99.4958 222.649 90.7484C247.191 89.7249 262.199 112.978 245.894 130.466L245.894 130.466Z" fill="#F4ADA2"/>
<path d="M249.226 65.9595C251.304 78.5121 253.76 93.3535 257.378 105.329C257.173 105.176 256.955 105.041 256.725 104.922C255.748 104.415 254.58 104.216 253.286 104.201C251.004 104.174 248.193 104.724 245.085 105.333C244.69 105.411 244.291 105.489 243.887 105.567C236.745 106.949 228.052 108.338 219.53 104.41C220.123 100.523 220.58 96.9914 221.013 93.6485C222.519 82.0151 223.729 72.6692 229.336 58.6017L229.336 58.6017L229.339 58.5944C229.687 57.6748 230.378 55.9636 232.008 54.4481C235.319 51.3693 238.93 50.8345 241.981 52.4211C245.065 54.0256 247.704 57.8634 248.869 63.8005C248.987 64.5118 249.106 65.2318 249.226 65.9595Z" fill="#66B0F0" stroke="white" stroke-width="0.907617"/>
<path d="M225.105 111.67C225.006 111.67 224.909 111.639 224.829 111.581C223.569 110.677 221.568 109.771 218.882 108.889C218.822 108.869 218.768 108.838 218.72 108.798C218.673 108.757 218.634 108.708 218.606 108.652C218.578 108.596 218.561 108.536 218.557 108.474C218.552 108.411 218.559 108.349 218.579 108.29C218.598 108.231 218.629 108.176 218.67 108.128C218.71 108.081 218.76 108.042 218.815 108.014C218.871 107.986 218.932 107.969 218.994 107.964C219.056 107.96 219.118 107.967 219.177 107.987C221.996 108.912 224.025 109.836 225.382 110.81C225.464 110.869 225.524 110.952 225.556 111.047C225.587 111.143 225.588 111.246 225.557 111.341C225.526 111.437 225.466 111.52 225.384 111.579C225.303 111.639 225.205 111.67 225.105 111.67ZM148.43 113.669C148.328 113.669 148.229 113.637 148.147 113.576C148.065 113.516 148.005 113.431 147.976 113.334C147.946 113.236 147.948 113.132 147.982 113.036C148.016 112.94 148.08 112.858 148.164 112.801C149.801 111.697 151.668 110.82 152.784 110.295C153.067 110.162 153.306 110.05 153.485 109.961C153.541 109.932 153.602 109.914 153.665 109.909C153.727 109.904 153.791 109.911 153.85 109.931C153.91 109.95 153.965 109.981 154.013 110.022C154.061 110.064 154.1 110.114 154.128 110.17C154.156 110.226 154.173 110.288 154.177 110.35C154.181 110.413 154.173 110.476 154.152 110.536C154.132 110.595 154.1 110.65 154.058 110.697C154.017 110.744 153.966 110.782 153.909 110.81C153.725 110.902 153.479 111.018 153.187 111.155C152.096 111.667 150.271 112.525 148.694 113.588C148.616 113.641 148.524 113.669 148.43 113.669ZM144.222 121.565C144.132 121.565 144.045 121.54 143.969 121.492C143.894 121.445 143.833 121.377 143.794 121.296C143.756 121.216 143.741 121.126 143.751 121.037C143.761 120.948 143.796 120.864 143.851 120.794C146.77 117.139 152.671 114.171 154.61 113.195C154.89 113.054 155.111 112.943 155.206 112.889C155.315 112.828 155.444 112.812 155.564 112.846C155.685 112.88 155.787 112.959 155.849 113.068C155.911 113.176 155.928 113.305 155.895 113.426C155.863 113.547 155.784 113.65 155.677 113.713C155.56 113.78 155.352 113.885 155.036 114.043C153.143 114.996 147.382 117.894 144.593 121.387C144.548 121.443 144.492 121.488 144.427 121.519C144.363 121.55 144.293 121.566 144.222 121.565ZM152.033 120.203C151.932 120.203 151.833 120.171 151.752 120.111C151.67 120.052 151.61 119.967 151.58 119.871C151.55 119.774 151.551 119.671 151.583 119.575C151.616 119.48 151.678 119.397 151.761 119.339C153.47 118.149 155.413 117.229 156.347 116.787C156.485 116.722 156.602 116.666 156.695 116.621C156.808 116.568 156.937 116.562 157.054 116.604C157.171 116.646 157.267 116.732 157.322 116.844C157.376 116.956 157.384 117.085 157.345 117.203C157.305 117.321 157.221 117.418 157.11 117.475C157.015 117.521 156.895 117.578 156.753 117.645C155.842 118.076 153.947 118.974 152.303 120.118C152.224 120.174 152.129 120.203 152.033 120.203Z" fill="#5B2448"/>
</g>
<defs>
<clipPath id="clip0_8068_102333">
<rect width="280" height="151.118" fill="white"/>
</clipPath>
</defs>
</svg>
