<svg width="282" height="169" viewBox="0 0 282 169" fill="none" xmlns="http://www.w3.org/2000/svg">
<path fill-rule="evenodd" clip-rule="evenodd" d="M78.3892 48.4887C78.3892 48.4887 81.4793 43.4946 87.3966 43.4946C92.1954 43.7487 94.1901 49.4331 96.0301 49.4331C97.87 49.4331 98.382 46.5581 100.75 46.5581C103.118 46.5581 106.044 51.9513 107.144 51.6366C108.244 51.3218 66.3405 51.9513 67.6579 51.3218C68.9752 50.6922 71.6883 48.8035 74.4576 49.1183C77.2269 49.4331 78.3892 48.4887 78.3892 48.4887Z" fill="url(#paint0_linear_10098_122037)"/>
<path fill-rule="evenodd" clip-rule="evenodd" d="M205.134 23.4793C205.134 23.4793 202.044 18.4852 196.126 18.4852C191.328 18.7393 189.333 24.4237 187.493 24.4237C185.653 24.4237 185.141 21.5487 182.773 21.5487C180.405 21.5487 177.479 26.9419 176.379 26.6272C175.278 26.3124 217.182 26.9419 215.865 26.3124C214.548 25.6828 211.835 23.7941 209.065 24.1089C206.296 24.4237 205.134 23.4793 205.134 23.4793Z" fill="url(#paint1_linear_10098_122037)"/>
<path opacity="0.5" d="M183.153 34.7508C177.052 34.7508 172.106 29.6908 172.106 23.449C172.106 17.2072 177.052 12.1473 183.153 12.1473C189.255 12.1473 194.201 17.2072 194.201 23.449C194.201 29.6908 189.255 34.7508 183.153 34.7508Z" fill="#FFFBF0"/>
<path d="M105.163 43.9803L105.378 51.3599C105.098 51.8571 100.868 47.9092 100.032 46.8505C98.7257 45.1943 98.8667 42.4286 99.1475 41.9314L102.893 43.4237C103.174 42.9263 103.164 39.5772 103.661 39.8584C104.292 39.7998 104.868 40.2203 105 40.8408C105.243 41.9779 105.352 43.6451 105.163 43.9803Z" fill="#CEA28B"/>
<path d="M105.163 43.9803L105.378 51.36C105.098 51.8571 100.868 47.9093 100.032 46.8505C98.7257 45.1943 98.8667 42.4286 99.1475 41.9314L102.893 43.4237C103.174 42.9263 105.352 43.6451 105.163 43.9803Z" fill="#E4B69D"/>
<path d="M113.961 56.8642C113.961 56.8642 106.675 46.6597 106.316 46.4245C104.308 45.1094 101.79 42.918 101.588 42.7896C99.4418 41.4235 101.111 47.612 102.771 49.1417C103.442 49.7603 104.486 50.3484 105.144 51.3678C107.536 55.0697 109.259 60.7439 109.426 60.6867C111.913 59.8338 113.961 56.8642 113.961 56.8642Z" fill="#E4B69D"/>
<path d="M109.622 49.0247C109.153 49.4644 108.777 49.7049 108.359 49.2165L97.2516 36.1308C96.7727 35.6866 97.0822 35.3506 97.6126 35.1405C97.9912 34.9904 98.8215 34.7416 99.2393 35.2301L109.707 47.4671C110.1 47.9256 110.062 48.6121 109.622 49.0247Z" fill="#FFBC00"/>
<path d="M109.08 49.3956C108.809 49.666 108.233 49.4841 107.815 48.9959L97.3474 36.7586C96.9549 36.3001 96.8468 35.739 97.1017 35.4849C97.3732 35.2145 97.9489 35.3965 98.3664 35.8849L108.834 48.1219C109.227 48.5805 109.335 49.1418 109.08 49.3956Z" fill="#57C6EE"/>
<path d="M102.596 39.1069L100.735 43.3668C100.498 43.9084 98.9109 42.4731 99.1475 41.9314L100.637 38.2486C100.874 37.707 101.504 37.4599 102.045 37.6968C102.586 37.934 102.833 38.5652 102.596 39.1069Z" fill="#E4B69D"/>
<path d="M104.047 41.8889L102.358 45.3548C102.108 45.868 101.489 46.081 100.977 45.8306C100.464 45.5802 100.251 44.9611 100.501 44.4479L102.191 40.982C102.441 40.4688 103.06 40.2558 103.572 40.5062C104.085 40.7566 104.298 41.3757 104.047 41.8889Z" fill="#E4B69D"/>
<path d="M105.32 44.3566L103.723 47.1882C103.459 47.6554 102.867 47.8205 102.4 47.5563L102.292 47.4952C101.825 47.2313 101.66 46.6383 101.924 46.1711L103.522 43.3395C103.786 42.8722 104.378 42.7071 104.845 42.9713L104.953 43.0324C105.419 43.2964 105.584 43.8893 105.32 44.3566Z" fill="#E4B69D"/>
<path d="M105.897 46.1809L104.67 48.3554C104.467 48.7142 104.012 48.841 103.654 48.6382L103.571 48.5911C103.212 48.3886 103.086 47.9332 103.288 47.5743L104.515 45.3999C104.718 45.041 105.173 44.9143 105.531 45.1171L105.614 45.1641C105.973 45.3669 106.099 45.8221 105.897 46.1809Z" fill="#E4B69D"/>
<path fill-rule="evenodd" clip-rule="evenodd" d="M110.951 67.96L110.854 68.0273L102.113 55.2636L113.245 47.6228L117.084 53.2283C117.67 52.5494 118.272 51.8512 118.875 51.1504C120.772 48.9486 122.671 46.7361 124.097 45.074C124.81 44.2428 125.404 43.5496 125.82 43.0643C126.028 42.8215 126.191 42.6311 126.302 42.501L126.472 42.3024C126.472 42.3024 126.472 42.3021 131.597 46.6984C136.721 51.0943 136.721 51.0943 136.721 51.0946L136.549 51.2952C136.437 51.4259 136.273 51.6174 136.065 51.8608C135.647 52.348 135.052 53.0432 134.337 53.8767C132.908 55.543 131.002 57.7628 129.097 59.9745C127.194 62.1838 125.284 64.3949 123.849 66.0393C123.135 66.8575 122.521 67.5564 122.079 68.0498C121.866 68.287 121.653 68.5222 121.475 68.7095C121.41 68.7779 121.241 68.9568 121.041 69.1421L121.039 69.1436C121.012 69.1692 120.617 69.5446 120.067 69.8976C119.896 70.0069 119.547 70.2212 119.072 70.424C118.76 70.5575 117.56 71.0651 115.941 70.9496C115.144 70.8445 113.438 70.2708 112.576 69.7632C112.09 69.3661 111.464 68.6523 110.951 67.96ZM111.686 59.4077C111.669 59.4252 111.671 59.4221 111.689 59.4044C111.688 59.4055 111.687 59.4066 111.686 59.4077Z" fill="#57C6EE"/>
<path d="M169.902 88.5726C169.868 88.7075 171.965 96.0841 170.071 96.9984C169.185 97.1127 169.21 93.5558 169.21 93.5558C169.21 93.5558 169.132 98.1966 168.009 98.1095C166.887 98.0222 167.112 93.4651 167.112 93.4651C167.112 93.4651 166.73 98.174 165.698 98.1092C164.666 98.0442 164.089 91.1264 164.089 91.1264C164.089 91.1264 163.29 94.3941 162.673 94.4797C162.057 94.5656 160.899 90.0164 161.345 88.6954C161.79 87.3746 169.902 88.5726 169.902 88.5726Z" fill="#E4B69D"/>
<path d="M136.742 161.551H132.677L131.992 154.823H136.742V161.551Z" fill="#E4B69D"/>
<path d="M138.321 84.0378H130.18V157.767H138.321V84.0378Z" fill="#FFBC00"/>
<path d="M150.804 84.0378H142.662V157.767H150.804V84.0378Z" fill="#FFBC00"/>
<path d="M147.573 82.3706H133.455V97.9313H147.573V82.3706Z" fill="#FFBC00"/>
<path d="M144.518 32.1681C144.927 32.1909 153.445 43.6998 153.445 43.6998L155.279 46.6381L153.445 87.1868H125.402L126.942 46.9649C126.942 46.9649 127.4 42.2281 128.243 41.298C131.485 37.7222 131.188 36.1415 136.384 32.4202L144.518 32.1681Z" fill="#FFFBF0"/>
<path d="M151.112 37.4588C151.112 37.4588 160.877 39.6947 166.751 60.0654C172.624 80.4361 172.543 90.9549 172.543 90.9549L157.949 90.0961L152.487 53.3566C152.487 53.3566 148.954 41.592 151.112 37.4588Z" fill="#57C6EE"/>
<path d="M136.384 32.4201C136.384 32.4201 129.995 39.9485 133.325 44.9503C136.656 49.9519 137.074 92.0982 137.074 92.0982L124.351 91.587C124.351 91.587 119.202 71.7303 124.375 48.3728C125.496 43.3118 122.908 38.3252 136.384 32.4201Z" fill="#57C6EE"/>
<path d="M144.202 32.1681C144.202 32.1681 149.985 39.9485 146.968 44.9504C143.951 49.9519 141.165 92.098 141.165 92.098H154.515C154.515 92.098 161.688 76.2585 159.098 53.6849C158.448 48.0186 160.293 39.9485 144.202 32.1681Z" fill="#57C6EE"/>
<path d="M149.068 161.551H145.003L144.774 154.823H149.524L149.068 161.551Z" fill="#E4B69D"/>
<path d="M138.622 157.767H129.046L129.124 153.112L138.622 154.953V157.767Z" fill="#57C6EE"/>
<path d="M151.521 157.767H141.945L142.023 153.112L151.521 154.953V157.767Z" fill="#57C6EE"/>
<path fill-rule="evenodd" clip-rule="evenodd" d="M132.38 123.859C131.69 123.995 131.102 124.332 130.803 124.914L130.623 124.821L130.803 124.914C130.41 125.678 130.506 126.847 131.258 127.474C131.672 127.82 132.242 127.968 132.776 127.93C133.314 127.893 133.771 127.671 133.994 127.335C134.125 127.138 134.201 126.864 134.199 126.607C134.197 126.343 134.116 126.146 133.994 126.049C133.864 125.947 133.617 125.901 133.285 126.001C132.961 126.098 132.589 126.327 132.255 126.715C132.177 126.806 132.041 126.816 131.951 126.738C131.861 126.66 131.851 126.524 131.929 126.434C132.309 125.991 132.749 125.711 133.161 125.588C133.566 125.466 133.979 125.488 134.26 125.711L134.129 125.877L134.26 125.711C134.528 125.922 134.627 126.275 134.63 126.603C134.632 126.937 134.536 127.297 134.353 127.574L134.173 127.455L134.353 127.574C134.031 128.058 133.426 128.317 132.806 128.361C132.181 128.404 131.496 128.235 130.982 127.805C130.046 127.024 129.953 125.624 130.42 124.716C130.799 123.978 131.528 123.588 132.297 123.436C133.066 123.284 133.906 123.363 134.568 123.592C135.253 123.83 135.953 124.302 136.457 124.912C136.961 125.523 137.282 126.292 137.162 127.115C137.004 128.199 136.16 128.858 135.376 129.244C134.585 129.633 133.799 129.774 133.653 129.798L133.618 129.585L133.653 129.798C133.424 129.836 131.055 130.192 129.345 128.391L129.501 128.242L129.345 128.391C127.962 126.934 128.021 125.128 128.037 124.804C128.043 124.685 128.144 124.594 128.263 124.6C128.382 124.605 128.473 124.707 128.467 124.825C128.452 125.123 128.402 126.771 129.657 128.093C131.206 129.725 133.371 129.408 133.583 129.372C133.714 129.35 134.451 129.218 135.185 128.857C135.925 128.493 136.608 127.925 136.736 127.053C136.833 126.384 136.577 125.734 136.125 125.187C135.672 124.638 135.038 124.212 134.427 124L134.497 123.796L134.427 124C133.834 123.794 133.071 123.722 132.38 123.859Z" fill="#57C6EE"/>
<path fill-rule="evenodd" clip-rule="evenodd" d="M148.152 123.188C148.921 123.34 149.65 123.731 150.029 124.469C150.496 125.376 150.403 126.777 149.467 127.558C148.953 127.987 148.268 128.157 147.643 128.113C147.023 128.069 146.418 127.811 146.096 127.327C145.913 127.05 145.817 126.69 145.819 126.356C145.822 126.027 145.921 125.674 146.189 125.463L146.322 125.633L146.189 125.463C146.47 125.241 146.883 125.219 147.288 125.34C147.7 125.463 148.14 125.744 148.521 126.187C148.598 126.277 148.588 126.413 148.498 126.491C148.408 126.568 148.272 126.558 148.194 126.468C147.861 126.08 147.488 125.85 147.164 125.753C146.832 125.654 146.585 125.7 146.455 125.802C146.333 125.899 146.252 126.096 146.25 126.359C146.248 126.617 146.324 126.891 146.455 127.088C146.678 127.424 147.135 127.645 147.673 127.683C148.207 127.72 148.777 127.573 149.191 127.227L149.329 127.393L149.191 127.227C149.943 126.599 150.04 125.431 149.646 124.666C149.347 124.084 148.759 123.748 148.069 123.611C147.378 123.475 146.615 123.547 146.022 123.752L145.952 123.549L146.022 123.752C145.411 123.965 144.777 124.391 144.324 124.939C143.872 125.487 143.616 126.137 143.713 126.806C143.841 127.677 144.524 128.246 145.264 128.61C145.998 128.971 146.735 129.103 146.866 129.125C147.078 129.16 149.243 129.477 150.792 127.846C152.048 126.524 151.997 124.875 151.982 124.578C151.976 124.459 152.067 124.358 152.186 124.352C152.305 124.346 152.406 124.438 152.412 124.557C152.428 124.88 152.488 126.686 151.104 128.143L150.948 127.994L151.104 128.143C149.394 129.944 147.025 129.588 146.796 129.55L146.831 129.338L146.796 129.55C146.65 129.526 145.864 129.386 145.073 128.997C144.289 128.611 143.445 127.952 143.287 126.868L143.5 126.837L143.287 126.868C143.167 126.044 143.488 125.275 143.992 124.665C144.496 124.054 145.196 123.583 145.881 123.345L145.952 123.549L145.881 123.345C146.543 123.115 147.383 123.036 148.152 123.188Z" fill="#57C6EE"/>
<path d="M132.406 158.898C132.406 158.898 124.316 162.158 119.425 163.188C118.106 163.466 118.525 166.155 118.525 166.155L137.053 165.583C137.355 165.576 137.606 165.349 137.641 165.048C137.765 163.974 137.954 161.062 137.124 160.059C136.958 159.858 136.564 160.036 136.198 160.161C135.792 160.299 135.108 162.343 132.632 160.314C132.399 160.124 132.677 159.164 132.406 158.898Z" fill="#FFBC00"/>
<path d="M145.093 158.886C145.093 158.886 137.012 162.169 132.124 163.214C130.806 163.496 131.233 166.183 131.233 166.183L149.759 165.557C150.061 165.549 150.312 165.321 150.345 165.02C150.466 163.945 150.647 161.033 149.814 160.033C149.647 159.831 149.253 160.011 148.888 160.137C148.483 160.277 147.804 162.323 145.322 160.3C145.089 160.111 145.364 159.15 145.093 158.886Z" fill="#57C6EE"/>
<path d="M143.298 28.9725H137.579V37.8298H143.298V28.9725Z" fill="#E4B69D"/>
<path fill-rule="evenodd" clip-rule="evenodd" d="M145.635 34.1721C145.934 34.1462 146.198 34.3679 146.224 34.6673L145.682 34.7143C146.224 34.6673 146.224 34.6676 146.224 34.6681V34.6693L146.224 34.6715L146.224 34.6769C146.225 34.6808 146.225 34.6853 146.226 34.6907C146.226 34.7014 146.227 34.7146 146.227 34.7307C146.228 34.7625 146.228 34.8047 146.226 34.856C146.222 34.9588 146.21 35.0988 146.176 35.2653C146.109 35.5988 145.959 36.039 145.629 36.4919C144.957 37.4121 143.626 38.2805 141.067 38.5334C138.478 38.7895 136.869 38.0704 135.902 37.2164C135.427 36.7961 135.123 36.3567 134.936 36.0184C134.843 35.8492 134.779 35.7044 134.737 35.5985C134.716 35.5455 134.7 35.5019 134.69 35.4698C134.684 35.4537 134.68 35.4405 134.677 35.4303C134.675 35.425 134.674 35.4208 134.673 35.4171L134.671 35.4123L134.671 35.4103V35.4095C134.671 35.4092 134.671 35.4089 135.194 35.2605L134.671 35.4089C134.589 35.1197 134.757 34.8188 135.046 34.7371C135.333 34.6555 135.632 34.8219 135.716 35.1089C135.716 35.1084 135.715 35.1084 135.716 35.1087L145.635 34.1721ZM135.716 35.1089C135.716 35.1089 135.716 35.1092 135.716 35.1095C135.716 35.1115 135.718 35.116 135.72 35.1236C135.725 35.1382 135.734 35.1633 135.748 35.1974C135.774 35.2653 135.82 35.3681 135.888 35.4929C136.026 35.7427 136.256 36.0773 136.622 36.4004C137.338 37.0333 138.639 37.68 140.96 37.4504C143.313 37.2178 144.315 36.4474 144.751 35.8503C144.974 35.5444 145.069 35.2563 145.111 35.0512C145.131 34.9481 145.138 34.8664 145.14 34.8143C145.141 34.7884 145.141 34.7704 145.14 34.7611C145.14 34.758 145.14 34.756 145.14 34.7549C145.14 34.7569 145.14 34.7586 145.141 34.7605V34.7597L145.14 34.7583V34.756L145.14 34.754C145.14 34.754 145.14 34.7543 145.14 34.7549C145.118 34.4583 145.338 34.198 145.635 34.1721" fill="#57C6EE"/>
<path d="M137.579 30.262L142.797 30.3155C142.797 30.3155 138.398 33.7769 137.579 33.2155V30.262Z" fill="#161F40"/>
<path d="M140.05 30.86H137.026C133.558 30.86 130.746 28.0451 130.746 24.573V16.4915C130.746 13.0194 133.558 10.2047 137.026 10.2047H141.12C144.588 10.2047 147.399 13.0194 147.399 16.4915V23.5015C147.399 27.5654 144.109 30.86 140.05 30.86Z" fill="#E4B69D"/>
<path d="M147.395 23.0794C148.57 23.0794 149.523 22.0012 149.523 20.6711C149.523 19.3411 148.57 18.2629 147.395 18.2629C146.22 18.2629 145.267 19.3411 145.267 20.6711C145.267 22.0012 146.22 23.0794 147.395 23.0794Z" fill="#E4B69D"/>
<path d="M126.599 9.47155C126.46 8.19168 126.24 6.20937 127.57 5.30347C128.829 4.44627 130.797 4.89939 131.595 5.92868C132.306 6.84692 132.016 8.13295 132.219 8.15166C132.536 8.18081 132.346 4.97237 134.162 3.63623C135.3 2.79929 137.192 2.72081 137.979 3.56674C139.287 4.97417 138.199 6.99699 138.495 7.1147C138.826 7.24646 139.176 3.78278 142.281 2.94152C144.239 2.41098 146.742 3.66842 146.86 4.88666C147.036 6.70879 141.916 8.86205 141.864 8.77687C141.819 8.70209 144.994 5.77805 147.762 6.48441C148.908 6.77684 149.953 7.6835 150.33 8.84633C150.932 10.7056 149.816 12.8274 148.387 13.4312C147.539 13.7893 147.231 13.3396 145.143 13.2342C143.379 13.1451 142.032 13.3871 140.564 13.651C138.377 14.0439 138.189 14.3608 136.591 14.6817C134.712 15.0588 130.764 15.8515 128.397 13.651C126.899 12.2585 126.685 10.2718 126.599 9.47155Z" fill="#161F40"/>
<path d="M141.778 13.1062C141.778 13.1062 145.038 17.6077 144.839 19.7285C144.639 21.8494 146.96 19.7285 146.96 19.7285C146.96 19.7285 147.046 18.2649 147.544 18.2273C148.042 18.1897 149.721 13.5259 147.399 13.0931C145.078 12.6602 141.778 13.1062 141.778 13.1062Z" fill="#161F40"/>
<path fill-rule="evenodd" clip-rule="evenodd" d="M132.774 18.1747C132.804 18.4738 132.585 18.7399 132.286 18.769L129.45 19.045C129.151 19.0741 128.886 18.8551 128.857 18.556C128.828 18.2569 129.046 17.9908 129.345 17.9618L132.181 17.6857C132.479 17.6567 132.745 17.8756 132.774 18.1747Z" fill="#161F40"/>
<path fill-rule="evenodd" clip-rule="evenodd" d="M137.428 18.4064C137.482 18.1107 137.765 17.9144 138.06 17.968L140.669 18.4412C140.964 18.4947 141.161 18.7779 141.107 19.0736C141.053 19.3694 140.771 19.5657 140.475 19.5121L137.866 19.0389C137.571 18.9853 137.375 18.7021 137.428 18.4064Z" fill="#161F40"/>
<path fill-rule="evenodd" clip-rule="evenodd" d="M134.425 19.2407C134.518 19.2776 134.563 19.3831 134.527 19.4762C133.772 21.3779 133.522 22.7353 133.428 23.5293L133.248 23.5078L133.428 23.5293C133.406 23.7132 133.388 23.9071 133.407 24.0837C133.425 24.2598 133.479 24.395 133.578 24.4848L133.457 24.6188L133.578 24.4848C133.663 24.5625 133.782 24.6048 133.93 24.6154C134.079 24.6261 134.246 24.6037 134.41 24.5639C134.739 24.4842 135.025 24.3436 135.074 24.3185C135.164 24.2733 135.273 24.3092 135.318 24.3987C135.363 24.4881 135.327 24.5972 135.238 24.6423C135.18 24.6717 134.865 24.827 134.496 24.9165C134.311 24.9612 134.104 24.9916 133.905 24.9773C133.704 24.963 133.499 24.9026 133.335 24.7538C133.143 24.5805 133.07 24.3441 133.047 24.1222C133.023 23.9009 133.046 23.6707 133.068 23.4864C133.166 22.6631 133.422 21.2749 134.19 19.3422C134.227 19.2491 134.332 19.2036 134.425 19.2407Z" fill="#161F40"/>
<path fill-rule="evenodd" clip-rule="evenodd" d="M137.154 28.1049C137.254 28.1134 137.341 28.0394 137.35 27.9396C137.412 27.2148 137.01 26.5303 136.361 26.2526C135.639 25.9437 134.773 26.2069 134.32 26.8848C134.265 26.9681 134.288 27.0807 134.371 27.1364C134.454 27.192 134.566 27.1696 134.622 27.0863C134.98 26.5487 135.662 26.3483 136.218 26.5862C136.718 26.8001 137.038 27.334 136.989 27.9088C136.98 28.0086 137.054 28.0964 137.154 28.1049Z" fill="#161F40"/>
<path d="M131.285 20.9837C131.457 20.9837 131.597 20.8438 131.597 20.6711C131.597 20.4985 131.457 20.3585 131.285 20.3585C131.112 20.3585 130.973 20.4985 130.973 20.6711C130.973 20.8438 131.112 20.9837 131.285 20.9837Z" fill="#161F40"/>
<path d="M137.973 20.9837C138.145 20.9837 138.285 20.8438 138.285 20.6711C138.285 20.4985 138.145 20.3585 137.973 20.3585C137.8 20.3585 137.661 20.4985 137.661 20.6711C137.661 20.8438 137.8 20.9837 137.973 20.9837Z" fill="#161F40"/>
<path fill-rule="evenodd" clip-rule="evenodd" d="M126.415 38.6013C126.51 38.6729 126.529 38.8081 126.458 38.9033L126.38 38.8447C126.458 38.9033 126.458 38.9033 126.458 38.9033L126.457 38.9044L126.454 38.9086L126.441 38.9255C126.43 38.9404 126.413 38.963 126.391 38.9926C126.348 39.0517 126.285 39.139 126.206 39.2511C126.047 39.475 125.824 39.7976 125.568 40.191C125.054 40.9783 124.409 42.0455 123.876 43.1705C123.342 44.2997 122.931 45.4678 122.868 46.4615C122.806 47.4473 123.085 48.2197 123.887 48.6517C124.242 48.8433 124.599 49.0286 124.953 49.212C125.484 49.4877 126.006 49.7584 126.492 50.035C127.306 50.4989 128.053 50.9972 128.646 51.6092C129.243 52.2244 129.684 52.9536 129.889 53.8747C130.093 54.7929 130.059 55.8872 129.73 57.2293C129.488 58.216 129.229 59.1489 128.988 60.0221C128.905 60.3201 128.824 60.611 128.747 60.8947C128.442 62.0135 128.188 63.0182 128.057 63.9127C127.926 64.8082 127.921 65.576 128.102 66.2247C128.281 66.8663 128.644 67.4029 129.273 67.8375C129.985 68.3293 130.549 69.1117 130.995 69.9866C131.442 70.864 131.779 71.8518 132.03 72.7748C132.281 73.6987 132.447 74.5631 132.551 75.1963C132.603 75.5129 132.639 75.7723 132.662 75.9529C132.674 76.043 132.682 76.1137 132.687 76.1619C132.69 76.1858 132.692 76.2044 132.694 76.2171L132.695 76.2314L132.696 76.2354V76.2362V76.2365C132.696 76.2368 132.696 76.2368 132.481 76.2585L132.696 76.2365C132.708 76.3551 132.622 76.461 132.503 76.4731C132.385 76.4852 132.279 76.3987 132.267 76.2804V76.2796L132.267 76.2762L132.265 76.2633C132.265 76.2573 132.264 76.25 132.263 76.2413C132.262 76.2325 132.261 76.2224 132.259 76.2109C132.254 76.1644 132.246 76.0959 132.235 76.0078C132.212 75.8315 132.177 75.5771 132.126 75.2659C132.024 74.6428 131.86 73.7936 131.614 72.888C131.368 71.9816 131.04 71.0243 130.611 70.1826C130.181 69.3382 129.658 68.6267 129.028 68.1924C128.316 67.7009 127.893 67.0798 127.687 66.3404C127.483 65.6086 127.496 64.7727 127.631 63.8505C127.766 62.9272 128.026 61.8999 128.332 60.7812C128.41 60.4941 128.491 60.2012 128.574 59.9018C128.815 59.0303 129.071 58.1062 129.312 57.1265C129.63 55.8289 129.654 54.8045 129.468 53.9685C129.283 53.1353 128.886 52.4754 128.337 51.9095C127.785 51.3408 127.08 50.8662 126.279 50.4099C125.797 50.1356 125.292 49.8736 124.768 49.6021C124.414 49.4184 124.052 49.2306 123.683 49.0317C122.68 48.4912 122.37 47.5189 122.438 46.4345C122.506 45.3582 122.946 44.1307 123.487 42.9857C124.031 41.8368 124.688 40.7518 125.207 39.9553C125.467 39.5567 125.693 39.2294 125.854 39.0016C125.935 38.8878 126 38.7985 126.044 38.7379C126.066 38.7075 126.083 38.6841 126.095 38.6684L126.109 38.6503L126.112 38.6455L126.113 38.6438C126.113 38.6438 126.113 38.6438 126.285 38.7734L126.113 38.6438C126.185 38.5489 126.32 38.5295 126.415 38.6013Z" fill="#FFBC00"/>
<path fill-rule="evenodd" clip-rule="evenodd" d="M154.592 37.2864C154.687 37.2149 154.822 37.2338 154.894 37.329L154.722 37.4588C154.894 37.329 154.894 37.329 154.894 37.329L154.895 37.3307L154.899 37.3354L154.912 37.3535C154.924 37.3692 154.941 37.3926 154.963 37.423C155.008 37.4839 155.072 37.5729 155.153 37.687C155.314 37.9145 155.541 38.2418 155.8 38.6404C156.32 39.437 156.976 40.5222 157.52 41.6711C158.062 42.8158 158.501 44.0433 158.569 45.1196C158.638 46.204 158.327 47.1763 157.325 47.7168C156.955 47.916 156.593 48.1038 156.239 48.2875C155.716 48.5587 155.21 48.8207 154.729 49.095C153.927 49.5516 153.222 50.0259 152.67 50.5949C152.122 51.1605 151.725 51.8207 151.539 52.6536C151.353 53.4896 151.377 54.5143 151.696 55.8116C151.936 56.7916 152.192 57.7157 152.433 58.5872C152.516 58.8863 152.598 59.1795 152.676 59.4666C152.981 60.5853 153.241 61.6126 153.376 62.5356C153.511 63.4581 153.524 64.294 153.32 65.0258C153.115 65.7649 152.691 66.386 151.979 66.8778C151.35 67.3121 150.826 68.0233 150.396 68.8678C149.967 69.7097 149.639 70.667 149.393 71.5734C149.147 72.4787 148.984 73.3279 148.882 73.951C148.831 74.2625 148.795 74.5169 148.773 74.6932C148.761 74.7813 148.753 74.8498 148.748 74.896C148.745 74.9191 148.743 74.9368 148.742 74.9484L148.741 74.9616L148.74 74.9656C148.728 75.0839 148.623 75.1703 148.504 75.1582C148.386 75.1464 148.3 75.0405 148.312 74.9219L148.526 74.9439C148.312 74.9219 148.312 74.9222 148.312 74.9219V74.9216V74.9205L148.312 74.9168L148.314 74.9022C148.315 74.8898 148.317 74.8712 148.32 74.847C148.325 74.7988 148.334 74.7284 148.345 74.638C148.369 74.4574 148.405 74.1983 148.457 73.8814C148.56 73.2482 148.726 72.3838 148.977 71.4599C149.228 70.5372 149.565 69.5494 150.012 68.6717C150.458 67.7969 151.022 67.0147 151.734 66.5226C152.364 66.088 152.727 65.5514 152.905 64.91C153.086 64.2611 153.081 63.4935 152.95 62.5981C152.819 61.7036 152.565 60.6986 152.26 59.5801C152.183 59.2964 152.102 59.0052 152.02 58.7072C151.778 57.8343 151.519 56.9011 151.277 55.9147C150.948 54.5723 150.914 53.478 151.119 52.5601C151.324 51.639 151.765 50.9095 152.361 50.2944C152.955 49.6823 153.701 49.1843 154.516 48.7201C155.001 48.4435 155.523 48.1731 156.055 47.8971C156.408 47.714 156.766 47.5284 157.121 47.3371C157.922 46.9051 158.201 46.1325 158.139 45.1469C158.076 44.1529 157.665 42.9848 157.131 41.8556C156.598 40.7309 155.953 39.6637 155.44 38.8762C155.183 38.4829 154.96 38.1604 154.801 37.9362C154.722 37.8244 154.659 37.7371 154.616 37.6779C154.594 37.6484 154.578 37.6258 154.566 37.6106L154.554 37.5937L154.551 37.5895L154.55 37.5887C154.55 37.5887 154.55 37.5884 154.63 37.5281L154.55 37.5884C154.478 37.4932 154.497 37.358 154.592 37.2864Z" fill="#FFBC00"/>
<path d="M124.011 43.662H122.485V43.046C122.485 42.3553 122.616 41.7626 122.877 41.268C123.139 40.764 123.461 40.2926 123.843 39.854C124.179 39.4713 124.445 39.1073 124.641 38.762C124.847 38.4073 124.949 38.0386 124.949 37.656C124.949 37.2453 124.823 36.8953 124.571 36.606C124.329 36.3073 123.96 36.158 123.465 36.158C123.241 36.158 123.036 36.1766 122.849 36.214C122.663 36.242 122.485 36.284 122.317 36.34C122.149 36.3866 121.986 36.4473 121.827 36.522C121.669 36.5873 121.505 36.6526 121.337 36.718L120.931 35.752C121.323 35.528 121.734 35.3366 122.163 35.178C122.593 35.0193 123.031 34.94 123.479 34.94C124.011 34.94 124.469 35.0146 124.851 35.164C125.234 35.3133 125.551 35.514 125.803 35.766C126.055 36.0086 126.237 36.2933 126.349 36.62C126.471 36.9466 126.531 37.292 126.531 37.656C126.531 37.9266 126.485 38.202 126.391 38.482C126.298 38.7526 126.177 39.0186 126.027 39.28C125.887 39.532 125.733 39.7746 125.565 40.008C125.397 40.232 125.239 40.428 125.089 40.596C124.753 40.9786 124.487 41.3613 124.291 41.744C124.105 42.1266 124.011 42.5746 124.011 43.088V43.662ZM122.191 45.832C122.191 45.5053 122.294 45.2486 122.499 45.062C122.705 44.8753 122.952 44.782 123.241 44.782C123.531 44.782 123.778 44.8753 123.983 45.062C124.189 45.2486 124.291 45.5053 124.291 45.832C124.291 46.1586 124.189 46.4153 123.983 46.602C123.778 46.7886 123.531 46.882 123.241 46.882C122.952 46.882 122.705 46.7886 122.499 46.602C122.294 46.4153 122.191 46.1586 122.191 45.832Z" fill="black"/>
<g clip-path="url(#clip0_10098_122037)">
<path opacity="0.4" d="M18.8004 146.558C33.0812 155.67 52.445 149.03 94.423 147.261C132.839 145.637 128.828 150.678 169.077 148.642C201.338 147.018 208.289 143.553 230.384 146.219C249.229 148.497 258.98 152.81 265.481 148.981C272.881 144.643 266.519 135.386 264.997 118.495C262.334 89.5346 277.238 75.6725 268.939 71.7223C255.834 65.4942 219.665 100.731 188.372 92.8548C175.82 89.7042 173.434 81.9735 161.193 82.1188C146.567 82.2885 144.838 93.3393 125.613 97.7016C106.802 101.967 97.8808 93.8241 84.0841 99.4221C72.0162 104.342 76.8571 111.394 64.7893 119.173C45.1144 131.896 15.2043 124.068 10.4325 132.696C7.94284 137.131 13.6482 143.262 18.8004 146.558Z" fill="#FFD04C"/>
<path opacity="0.4" fill-rule="evenodd" clip-rule="evenodd" d="M218.251 117.645H242.442V119.919H236.973V122.168H212.782V119.893H218.251V117.645Z" fill="#FFBC00"/>
<path d="M79.2925 35.5632H54.7388V33.0337H79.2925V35.5632ZM55.1372 35.3076H78.9665V33.2892H55.1372V35.3076Z" fill="#FFBC00"/>
<path d="M73.4263 33.2896H60.6421V30.7601H73.4263V33.2896ZM61.0043 33.0341H73.0641V31.0156H61.0043V33.0341Z" fill="#FFBC00"/>
<path fill-rule="evenodd" clip-rule="evenodd" d="M108.995 123.085V125.231H107.583V125.359H97.5151V127.633H144.631V125.359H128.986H133.187V123.085H108.995Z" fill="#FFBC00"/>
<path d="M224.216 63.8794H284.442V60.9667H224.216V63.8794Z" fill="#FFBC00"/>
<path d="M238.883 66.7933H269.774V63.8806H238.883V66.7933Z" fill="#FFBC00"/>
<path d="M36.9301 66.5433H28.13C28.0211 66.5433 27.9487 66.4922 27.9487 66.4156C27.9487 66.339 28.0211 66.2877 28.13 66.2877H36.8939C37.0025 66.2877 37.0749 66.339 37.0749 66.4156C37.0749 66.4922 37.0025 66.5433 36.9301 66.5433Z" fill="#FFDD80"/>
<path d="M264.836 64.0082C264.727 64.0082 264.655 63.9572 264.655 63.8803V60.9676C264.655 60.8911 264.727 60.84 264.836 60.84C264.945 60.84 265.017 60.8911 265.017 60.9676V63.8803C265.017 63.9572 264.945 64.0082 264.836 64.0082Z" fill="#FFDD80"/>
<path d="M254.333 66.921C254.225 66.921 254.152 66.8699 254.152 66.7933V63.8806C254.152 63.804 254.225 63.7527 254.333 63.7527C254.442 63.7527 254.515 63.804 254.515 63.8806V66.7933C254.515 66.8699 254.406 66.921 254.333 66.921Z" fill="#FFDD80"/>
<path d="M244.52 64.0082C244.412 64.0082 244.339 63.9572 244.339 63.8803V60.9676C244.339 60.8911 244.412 60.84 244.52 60.84C244.629 60.84 244.701 60.8911 244.701 60.9676V63.8803C244.701 63.9572 244.629 64.0082 244.52 64.0082Z" fill="#FFDD80"/>
<path d="M13.7153 66.5433H7.81228C7.70372 66.5433 7.63135 66.4922 7.63135 66.4156C7.63135 66.339 7.70372 66.2877 7.81228 66.2877H13.7153C13.8239 66.2877 13.8966 66.339 13.8966 66.4156C13.8966 66.4922 13.8239 66.5433 13.7153 66.5433Z" fill="#FFDD80"/>
<path d="M105.737 72.3682H99.8343C99.7257 72.3682 99.6533 72.3171 99.6533 72.2403C99.6533 72.1637 99.7257 72.1126 99.8343 72.1126H105.737C105.846 72.1126 105.918 72.1637 105.918 72.2403C105.918 72.3171 105.846 72.3682 105.737 72.3682Z" fill="#FFDD80"/>
<path d="M253.233 16.3367H194.927V17.9463H253.233V16.3367Z" fill="#FFBC00"/>
</g>
<defs>
<linearGradient id="paint0_linear_10098_122037" x1="60.5104" y1="49.2783" x2="63.6399" y2="62.1953" gradientUnits="userSpaceOnUse">
<stop stop-color="white"/>
<stop offset="1" stop-color="white" stop-opacity="0.01"/>
</linearGradient>
<linearGradient id="paint1_linear_10098_122037" x1="223.013" y1="24.2689" x2="219.883" y2="37.1859" gradientUnits="userSpaceOnUse">
<stop stop-color="white"/>
<stop offset="1" stop-color="white" stop-opacity="0.01"/>
</linearGradient>
<clipPath id="clip0_10098_122037">
<rect width="281.064" height="148.72" fill="white" transform="translate(0.545898 10.14)"/>
</clipPath>
</defs>
</svg>
