<svg width="341" height="255" viewBox="0 0 341 255" fill="none" xmlns="http://www.w3.org/2000/svg">
<g clip-path="url(#clip0_9398_505268)">
<path d="M245.619 125.8C269.032 125.8 288.012 107.771 288.012 85.5313C288.012 63.2914 269.032 45.2625 245.619 45.2625C222.205 45.2625 203.225 63.2914 203.225 85.5313C203.225 107.771 222.205 125.8 245.619 125.8Z" fill="#FCFCFD"/>
<path d="M245.619 117.746C264.349 117.746 279.534 103.323 279.534 85.5313C279.534 67.7395 264.349 53.3163 245.619 53.3163C226.888 53.3163 211.704 67.7395 211.704 85.5313C211.704 103.323 226.888 117.746 245.619 117.746Z" fill="#F8F8F9"/>
<path d="M245.619 109.692C259.667 109.692 271.055 98.8751 271.055 85.5313C271.055 72.1874 259.667 61.3701 245.619 61.3701C231.571 61.3701 220.182 72.1874 220.182 85.5313C220.182 98.8751 231.571 109.692 245.619 109.692Z" fill="#F3F4F6"/>
<path d="M245.676 99.7584C253.424 99.7584 259.705 93.4619 259.705 85.6947C259.705 77.9276 253.424 71.6311 245.676 71.6311C237.928 71.6311 231.647 77.9276 231.647 85.6947C231.647 93.4619 237.928 99.7584 245.676 99.7584Z" fill="white"/>
</g>
<g clip-path="url(#clip1_9398_505268)">
<path d="M276.33 73.1L277.123 75.1188L277.221 91.7186L276.33 94.0439H261.45L276.33 73.1Z" fill="#DDDEE3"/>
<path d="M276.33 73.1166H278.237V100.512H276.33V73.1166Z" fill="#D2D3DA"/>
</g>
<g clip-path="url(#clip2_9398_505268)">
<path d="M224.006 72.8875L224.82 74.9689L224.92 92.0834L224.006 94.4809H208.75L224.006 72.8875Z" fill="#DDDEE3"/>
<path d="M224.006 72.9046H225.962V101.15H224.006V72.9046Z" fill="#D2D3DA"/>
</g>
<g clip-path="url(#clip3_9398_505268)">
<path d="M310.538 99.3683V166.849H30.4625V99.493C38.3642 99.493 44.8844 96.6949 45.8882 93.075C46.892 96.6949 53.4122 99.493 61.3139 99.493C68.755 99.493 74.9714 97.0135 76.5093 93.6983C78.0473 97.0135 84.2636 99.493 91.7048 99.493C99.6064 99.493 106.127 96.6949 107.13 93.075C108.134 96.6949 114.654 99.493 122.556 99.493C130.458 99.493 136.978 96.6949 137.982 93.075C138.986 96.6949 145.506 99.493 153.407 99.493C161.309 99.493 167.829 96.6949 168.833 93.075C169.837 96.6949 176.357 99.493 184.259 99.493C192.16 99.493 198.681 96.6949 199.684 93.075C200.688 96.6949 207.209 99.493 215.11 99.493C223.012 99.493 229.532 96.6949 230.536 93.075C231.54 96.6949 238.06 99.493 245.962 99.493C253.863 99.493 260.383 96.6949 261.387 93.075C262.391 96.6949 268.911 99.493 276.813 99.493C284.714 99.493 291.235 96.6949 292.239 93.075C293.242 96.6949 299.763 99.493 307.664 99.493C308.645 99.493 309.607 99.4514 310.538 99.3683Z" fill="#F3F4F6"/>
<path d="M310.538 117.837V185.319H30.4625V117.962C38.3642 117.962 44.8844 115.164 45.8882 111.544C46.892 115.164 53.4122 117.962 61.3139 117.962C68.755 117.962 74.9714 115.483 76.5093 112.167C78.0473 115.483 84.2636 117.962 91.7048 117.962C99.6064 117.962 106.127 115.164 107.13 111.544C108.134 115.164 114.654 117.962 122.556 117.962C130.458 117.962 136.978 115.164 137.982 111.544C138.986 115.164 145.506 117.962 153.407 117.962C161.309 117.962 167.829 115.164 168.833 111.544C169.837 115.164 176.357 117.962 184.259 117.962C192.16 117.962 198.681 115.164 199.684 111.544C200.688 115.164 207.209 117.962 215.11 117.962C223.012 117.962 229.532 115.164 230.536 111.544C231.54 115.164 238.06 117.962 245.962 117.962C253.863 117.962 260.383 115.164 261.387 111.544C262.391 115.164 268.911 117.962 276.813 117.962C284.714 117.962 291.235 115.164 292.239 111.544C293.242 115.164 299.763 117.962 307.664 117.962C308.645 117.962 309.607 117.92 310.538 117.837Z" fill="#E8E9EC"/>
<path d="M310.538 136.306V203.788H30.4625V136.431C38.3642 136.431 44.8844 133.633 45.8882 130.013C46.892 133.633 53.4122 136.431 61.3139 136.431C68.755 136.431 74.9714 133.952 76.5093 130.636C78.0473 133.952 84.2636 136.431 91.7048 136.431C99.6064 136.431 106.127 133.633 107.13 130.013C108.134 133.633 114.654 136.431 122.556 136.431C130.458 136.431 136.978 133.633 137.982 130.013C138.986 133.633 145.506 136.431 153.407 136.431C161.309 136.431 167.829 133.633 168.833 130.013C169.837 133.633 176.357 136.431 184.259 136.431C192.16 136.431 198.681 133.633 199.684 130.013C200.688 133.633 207.209 136.431 215.11 136.431C223.012 136.431 229.532 133.633 230.536 130.013C231.54 133.633 238.06 136.431 245.962 136.431C253.863 136.431 260.383 133.633 261.387 130.013C262.391 133.633 268.911 136.431 276.813 136.431C284.714 136.431 291.235 133.633 292.239 130.013C293.242 133.633 299.763 136.431 307.664 136.431C308.645 136.431 309.607 136.389 310.538 136.306Z" fill="#DDDEE3"/>
</g>
<g clip-path="url(#clip4_9398_505268)">
<path d="M130.763 57.1625C130.761 57.1625 130.76 57.1651 130.758 57.1651V57.163L125.993 57.4062L126.305 63.5375L131.07 63.2944V63.2923C131.071 63.2923 131.074 63.2944 131.075 63.2944C131.448 63.2755 131.681 61.8874 131.595 60.1943C131.509 58.5006 131.136 57.1436 130.763 57.1625Z" fill="#005C94"/>
<path d="M125.993 57.4065C125.617 57.4257 125.382 58.8137 125.468 60.5068C125.554 62.1999 125.929 63.5569 126.305 63.5377C126.681 63.5185 126.916 62.1305 126.83 60.4374C126.743 58.7443 126.369 57.3873 125.993 57.4065Z" fill="#002652"/>
<path d="M126.479 60.4548C126.417 59.2469 126.242 58.2659 126.073 58.1173C126.045 58.0873 126.027 58.0873 126.027 58.0873L114.289 58.6855L114.532 63.454L126.27 62.8559C126.27 62.8559 126.288 62.8538 126.312 62.8217C126.465 62.6568 126.54 61.6627 126.479 60.4548Z" fill="#005C94"/>
<path d="M114.289 58.6856C114.019 58.6994 113.855 59.778 113.922 61.0948C113.989 62.4117 114.262 63.468 114.532 63.4542C114.801 63.4405 114.966 62.3618 114.899 61.045C114.832 59.7282 114.559 58.6719 114.289 58.6856Z" fill="#002652"/>
<path d="M114.238 59.3708L104.2 59.8823L104.373 63.2886L114.411 62.7771C114.582 62.7681 114.681 61.9988 114.633 61.0582C114.585 60.1176 114.408 59.3624 114.238 59.3708Z" fill="#005C94"/>
</g>
<g clip-path="url(#clip5_9398_505268)">
<path d="M54.5311 189.201L65.0599 187.981L72.754 185.542L102.72 181.475L113.249 185.542L128.637 186.355L121.753 204.248L84.9026 218.074L42.7875 218.481L54.5311 189.201Z" fill="#D4E7FF"/>
<path d="M121.753 199.774L123.205 202.151L119.657 229.327L118.109 232.307L112.034 233.933L110.863 231.759L112.708 200.553L114.059 198.148L121.753 199.774ZM106.77 205.468L108.236 207.445L106.11 234.848L104.34 236.78L95.0264 237.593L93.4589 236.359L94.1708 208.481L95.8363 205.874L106.77 205.468Z" fill="#A9CFFF"/>
<path d="M128.638 186.355L124.183 227.427L118.109 232.307L121.753 199.774L128.638 186.355Z" fill="#93C3FF"/>
<path d="M82.0679 238H42.7875V218.481L84.9026 213.601L86.1433 216.863L83.9461 235.775L82.0679 238Z" fill="#A9CFFF"/>
<path d="M114.059 198.148L112.034 233.933L104.34 236.78L106.77 205.468L114.059 198.148ZM95.8363 205.874L95.0264 237.593L82.0679 238L84.9025 213.601L95.8363 205.874Z" fill="#93C3FF"/>
</g>
<g clip-path="url(#clip6_9398_505268)">
<path d="M82.2506 124.704L85.6826 123.192L81.4135 101.685L75.6796 101.474C75.0937 101.474 74.6333 102.021 74.7588 102.609L76.433 110.17L82.2506 124.704Z" fill="#E3B099"/>
<path d="M81.4555 123.948L80.2417 119.915L82.5855 120.251L82.7529 120.209C83.3389 120.125 83.9248 120.209 84.5108 120.377C85.0549 120.545 85.599 120.839 86.0175 121.26L90.6214 125.418C90.747 125.502 90.747 125.67 90.7051 125.796C90.7051 125.796 90.7051 125.838 90.6632 125.838C90.4958 126.09 90.1192 126.174 89.868 126.006L87.3987 124.62C87.315 124.578 87.1894 124.536 87.0638 124.536C86.729 124.536 86.436 124.83 86.436 125.208L86.3105 129.745L84.7619 129.409L84.5108 128.779C84.3852 128.485 84.2596 128.149 84.0504 127.897L82.3762 125.292C82.2507 125.082 82.0833 124.872 81.874 124.746C81.6647 124.494 81.5392 124.242 81.4555 123.948Z" fill="#99644C"/>
<path d="M85.7663 134.282C86.1011 134.24 86.3523 133.904 86.3941 133.483L86.3104 127.098L84.3014 126.426L85.5152 134.03C85.5152 134.198 85.6407 134.282 85.7663 134.282C85.7245 134.282 85.7663 134.282 85.7663 134.282ZM84.6781 133.82C85.0129 133.694 85.2222 133.315 85.1804 132.937L83.9247 126.384L81.9158 125.838L84.427 133.694C84.4688 133.778 84.5944 133.82 84.6781 133.82Z" fill="#99644C"/>
<path d="M83.297 132.559C83.6318 132.433 83.8411 132.097 83.7993 131.677L82.8785 125.376L80.8695 124.746L83.0459 132.349C83.0459 132.517 83.1715 132.559 83.297 132.559Z" fill="#E3B099"/>
<path d="M80.7858 130.543C81.1206 130.543 81.4555 130.291 81.5392 129.871L82.6692 123.612L80.9532 122.394L80.5765 130.291C80.5765 130.459 80.6603 130.543 80.7858 130.543C80.7858 130.543 80.744 130.543 80.7858 130.543ZM80.1162 104.835L86.9801 86.7722L87.8172 81.2694L80.0324 82.4456L74.717 102.273L80.1162 104.835Z" fill="#E3B099"/>
<path d="M82.1251 99.4582L86.9801 86.7722L87.8172 81.2694L80.0324 82.4456L75.4703 99.4582H82.1251Z" fill="#005C94"/>
<path d="M88.7798 83.4117L95.4345 85.344V67.7013H88.9891C88.9891 67.7013 88.9891 70.3897 88.8635 77.1107L88.7798 83.4117Z" fill="#E3B099"/>
<path d="M73.2522 112.942H97.6947V131.341H73.2522V112.942Z" fill="#013B84"/>
<path d="M86.7708 103.827H106.023L105.061 94.3334L107.279 89.7547C107.656 88.9146 107.698 87.9484 107.321 87.1503L102.675 76.5226L82.6273 83.9578L86.7708 103.827Z" fill="#005C94"/>
<path d="M99.0759 73.8762L83.59 78.0349C81.9159 78.4969 80.6184 79.8412 80.2417 81.5214L77.3538 93.8713L104.056 91.477L103.01 76.6907C102.885 74.7164 101.001 73.3722 99.0759 73.8762ZM73.8381 193.637L78.6932 195.317L80.3673 190.444C80.6603 189.562 80.1999 188.596 79.321 188.302L77.6468 187.714C76.7679 187.42 75.8053 187.882 75.5123 188.764L73.8381 193.637Z" fill="#005C94"/>
<path d="M79.9068 193.049C79.9068 193.049 80.8276 196.409 81.2461 196.787C81.7484 197.207 83.2551 198.51 83.2551 198.51L84.3433 198.804L84.427 201.282L82.6692 201.072L76.433 197.417L79.9068 193.049Z" fill="#84D7F3"/>
<path d="M83.7156 149.446L77.019 163.182C76.433 164.358 76.0564 165.66 75.8471 166.963L71.9547 194.351C71.9547 194.351 77.4794 195.569 77.2701 195.485L87.7754 167.467L89.7006 154.109L83.7156 149.446Z" fill="#E3B099"/>
<path d="M78.8186 197.543L70.1549 196.409L70.3223 195.191C70.5316 194.015 70.9083 192.839 71.5361 191.788L72.708 189.73L79.5301 193.637L78.8186 197.543Z" fill="#84D7F3"/>
<path d="M72.5824 189.142L72.0383 192.461C72.2476 192.503 76.9352 196.199 77.0608 196.367L77.7304 197.333L80.2416 194.057L79.4046 191.074C79.279 190.57 78.8605 190.192 78.3582 190.108L72.5824 189.142Z" fill="#84D7F3"/>
<path d="M77.196 194.049C77.0491 194.918 77.2626 195.679 77.6728 195.749C78.083 195.819 78.5346 195.171 78.6815 194.301C78.8283 193.432 78.6148 192.671 78.2046 192.601C77.7944 192.531 77.3428 193.179 77.196 194.049Z" fill="#EDFBFF"/>
<path d="M78.6513 198.299L84.1759 201.366H75.7634L70.155 197.879C69.862 197.711 70.0294 197.249 70.3643 197.291L78.6513 198.299Z" fill="#005C94"/>
<path d="M69.9875 197.585L70.1968 196.241L70.2387 196.199C70.4898 196.073 70.7828 195.989 71.0757 196.031L74.4659 196.451C75.5541 196.577 76.6004 196.913 77.5212 197.459L81.8321 199.938L84.8037 200.064L84.5945 201.408L81.6229 201.282L77.1445 198.762C76.2237 198.216 75.1774 197.921 74.1311 197.795L70.9083 197.417C70.6572 197.375 70.4061 197.417 70.1968 197.543L69.9875 197.585Z" fill="#EDFBFF"/>
<path d="M98.9503 113.278L101.88 122.814L88.9891 158.939C88.9891 158.939 82.5018 155.075 82.5018 154.865L87.8591 113.74L98.9503 113.278Z" fill="#E3B099"/>
<path d="M99.1595 148.186L98.3225 164.148C98.2806 164.61 98.2388 165.072 98.1132 165.534L91.2911 194.183H84.9293L86.5616 164.19C86.6035 163.308 86.8127 162.468 87.1476 161.628L91.7933 150.286L99.1595 148.186Z" fill="#E3B099"/>
<path d="M104.433 108.7L106.693 117.563C106.819 118.025 106.819 118.529 106.693 118.991L98.9083 152.596C98.9083 152.596 91.2073 153.269 91.2073 153.058L92.5047 128.821L93.3 109.204L104.433 108.7Z" fill="#E3B099"/>
<path d="M92.0026 194.981H90.161L90.747 191.578C90.8725 190.948 91.4166 190.486 92.0444 190.486H92.7978L92.0026 194.981Z" fill="#EDFBFF"/>
<path d="M85.0548 194.015H91.3329V196.325H85.0548V194.015Z" fill="#99644C"/>
<path d="M92.463 200.232H83.6737V199.35C83.6737 198.131 83.883 196.913 84.3015 195.779L85.0967 193.553L92.463 196.283V200.232Z" fill="#84D7F3"/>
<path d="M84.9712 192.965V196.367C85.1805 196.367 90.4122 199.266 90.5796 199.392L91.4166 200.232H101.754L101.42 199.266C101.252 198.762 100.834 198.426 100.331 198.3L94.9324 196.997C93.886 196.745 93.0071 196.157 92.3793 195.275L91.1237 193.595C90.8307 193.217 90.3703 192.965 89.9099 192.965H84.9712Z" fill="#84D7F3"/>
<path d="M83.7573 200.106H101.713V201.45H83.7573V200.106Z" fill="#EDFBFF"/>
<path d="M87.1057 198.888C87.9841 198.888 88.6961 198.173 88.6961 197.291C88.6961 196.41 87.9841 195.695 87.1057 195.695C86.2273 195.695 85.5153 196.41 85.5153 197.291C85.5153 198.173 86.2273 198.888 87.1057 198.888Z" fill="#EDFBFF"/>
<path d="M83.3808 146.968H100.834L107.028 119.159H83.1296L83.3808 146.968Z" fill="#098DC9"/>
<path d="M86.7709 103.617H106.065L107.028 119.159H83.1296L86.7709 103.617Z" fill="#005C94"/>
<path d="M93.2163 146.968H93.7604C95.1416 146.968 96.2716 145.917 96.3553 144.573L97.1924 134.66V144.531C97.1924 145.875 98.2806 147.01 99.6618 147.01V149.404H93.2163V146.968Z" fill="#E3B099"/>
<path d="M99.1177 73.9602L86.0594 77.4888L81.2043 81.6894L86.4779 87.8224C87.9009 89.4606 90.4958 89.2086 91.584 87.3183L99.1177 73.9602Z" fill="#098DC9"/>
<path d="M99.1595 73.8762L86.1012 77.4048L81.2043 81.6474L99.1595 73.8762Z" fill="#087CB5"/>
<path d="M94.5557 58.1658H98.5318V63.2486H94.5557V58.1658Z" fill="#99644C"/>
<path d="M92.0863 54.5112H94.8068V64.6768H92.0863V54.5112Z" fill="black"/>
<path d="M90.9562 66.6511L94.0115 67.9953V55.0573C94.0115 54.3012 93.3837 53.6711 92.6303 53.6711H92.0025C89.0728 53.6711 86.8127 56.3175 87.2312 59.2159L87.7334 62.4504C88.0264 64.2987 89.2402 65.895 90.9562 66.6511Z" fill="black"/>
<path d="M100.457 58.4598V60.8962C100.457 60.9802 100.457 61.0642 100.415 61.1482L100.08 61.9463C99.9547 62.1984 100.038 62.5344 100.248 62.7025L100.457 62.8705V67.5752C100.457 68.3313 99.8292 68.9614 99.0758 68.9614L90.4121 68.9194L90.454 65.937L100.457 58.4598Z" fill="#E3B099"/>
<path d="M91.7096 62.5765H93.7186V65.643H91.7096V62.5765Z" fill="#99644C"/>
<path d="M91.7933 63.2486H94.9323V60.1401H91.7933C91.0818 60.1401 90.5377 60.6862 90.5377 61.4003V62.0304C90.5377 62.6605 91.0818 63.2486 91.7933 63.2486Z" fill="#99644C"/>
<path d="M97.3179 57.3676H93.2163V59.468C92.5466 59.51 91.9188 59.552 91.8351 59.51C91.7095 59.468 93.1744 61.1062 94.0952 62.1144C94.3463 62.4084 94.8067 62.1984 94.8067 61.8203V60.4761C94.8067 60.2661 94.9741 60.0561 95.2252 60.0561H97.2761C97.3179 60.0981 97.3179 57.3676 97.3179 57.3676Z" fill="black"/>
<path d="M95.7694 53.9651H95.602C94.8486 53.9651 94.2208 54.5952 94.2208 55.3513V60.1401H100.541V58.7959C100.541 56.1075 98.4062 53.9651 95.7694 53.9651Z" fill="#99644C"/>
<path d="M89.9518 55.6874H94.7649V65.0129C94.7649 66.5251 93.5512 67.7853 92.0026 67.7853H89.9518V55.6874Z" fill="black"/>
<path d="M93.1326 54.0912H98.7828V57.3257C98.7828 58.8379 97.569 60.0981 96.0205 60.0981H93.0907V54.0912H93.1326Z" fill="black"/>
<path d="M98.3644 69.0455H95.8113V62.4925H99.5362C100.248 62.4925 100.792 63.0385 100.792 63.7527V66.6511C100.792 67.9533 99.7037 69.0455 98.3644 69.0455Z" fill="#E3B099"/>
<path d="M99.5361 72.9941L86.1011 71.2718C85.3059 71.1878 84.72 70.5157 84.72 69.7176V58.3758C84.72 55.4774 87.0638 53.125 89.9517 53.125H95.3089C97.6109 53.125 99.4943 55.0153 99.4943 57.3257L99.5361 72.9941Z" fill="#002652"/>
<path d="M100.959 60.0981H91.3748V53.125H95.9368C98.9921 53.125 101.503 55.6034 101.503 58.7119V59.594C101.503 59.888 101.252 60.0981 100.959 60.0981Z" fill="#002652"/>
<path d="M106.107 57.7877C106.526 57.6617 107.195 57.5357 107.321 57.9138L108.367 61.7784L106.651 62.9965L105.94 58.1238C105.94 58.0398 105.982 57.8297 106.107 57.7877Z" fill="#E3B099"/>
<path d="M107.614 58.0398C108.033 57.9138 108.702 57.7877 108.828 58.1658L109.874 62.0304L108.158 63.2486L107.447 58.3758C107.405 58.2498 107.488 58.0818 107.614 58.0398Z" fill="#E3B099"/>
<path d="M109.079 58.0398C109.497 57.9138 110.167 57.7877 110.293 58.1658L111.339 62.0304L109.581 63.2066L108.911 58.3758C108.87 58.2498 108.953 58.0398 109.079 58.0398Z" fill="#E3B099"/>
<path d="M110.46 58.1658C110.837 58.0398 111.423 57.9138 111.59 58.2498L112.804 62.0724L111.297 63.3326L110.335 58.5439C110.293 58.4178 110.335 58.2078 110.46 58.1658Z" fill="#E3B099"/>
<path d="M110.879 61.0642L107.656 61.5263C106.903 61.6523 106.442 62.4084 106.693 63.1226L107.698 65.937C107.907 66.5251 108.284 67.0292 108.786 67.4072L109.623 68.0373L113.474 66.105L113.013 62.7025C112.846 61.6523 111.925 60.9382 110.879 61.0642Z" fill="#E3B099"/>
<path d="M111.949 62.0292C111.724 60.3975 110.335 59.2421 108.847 59.4486C107.359 59.655 106.334 61.1451 106.559 62.7768C106.784 64.4085 108.172 65.5639 109.661 65.3574C111.149 65.151 112.174 63.6609 111.949 62.0292Z" fill="#E3B099"/>
<path d="M112.385 64.0467L123.518 72.742C123.77 72.9521 123.979 73.2461 124.062 73.5402L124.941 76.6486C125.109 77.1947 124.941 77.8248 124.523 78.2029L123.686 79.001C122.598 80.0512 120.84 80.0092 119.793 78.875L108.87 67.4072L112.385 64.0467Z" fill="#E3B099"/>
<path d="M124.146 77.5308L121.928 79.8412L104.768 81.7735L99.2433 81.2274L100.917 73.8342L122.765 73.7502L124.146 77.5308Z" fill="#E3B099"/>
<path d="M115.399 73.7922L99.6618 73.8342L98.8247 82.4876L104.768 81.7734L115.399 80.5973V73.7922Z" fill="#005C94"/>
</g>
<defs>
<clipPath id="clip0_9398_505268">
<rect width="84.7875" height="80.5375" fill="white" transform="translate(203.225 45.2625)"/>
</clipPath>
<clipPath id="clip1_9398_505268">
<rect width="16.7875" height="27.4125" fill="white" transform="translate(261.45 73.1)"/>
</clipPath>
<clipPath id="clip2_9398_505268">
<rect width="17.2125" height="28.2625" fill="white" transform="translate(208.75 72.8875)"/>
</clipPath>
<clipPath id="clip3_9398_505268">
<rect width="280.075" height="110.713" fill="white" transform="translate(30.4625 93.075)"/>
</clipPath>
<clipPath id="clip4_9398_505268">
<rect width="27.4125" height="6.375" fill="white" transform="translate(104.2 57.1625)"/>
</clipPath>
<clipPath id="clip5_9398_505268">
<rect width="85.85" height="56.525" fill="white" transform="translate(42.7875 181.475)"/>
</clipPath>
<clipPath id="clip6_9398_505268">
<rect width="55.0375" height="148.325" fill="white" transform="translate(69.9875 53.125)"/>
</clipPath>
</defs>
</svg>
