<svg width="548" height="200" viewBox="0 0 548 200" fill="none" xmlns="http://www.w3.org/2000/svg">
<path opacity="0.15" d="M652.113 -3.05176e-05H-347.224V50.3967C-333.592 71.7975 -315.159 84.4037 -276.594 95.4484C-191.312 119.873 -150.231 33.9932 -52.6827 38.1793C65.5911 43.2549 48.4244 156.597 165.218 145.845C240.461 138.918 234.675 81.9054 310.986 79.4131C399.311 76.5283 414.882 155.018 503.339 156.535C585.506 157.945 616.222 133.032 652.113 95.4484V-3.05176e-05Z" fill="white"/>
<path opacity="0.1" d="M652.113 0H-347.224C-347.224 0 -274.789 117.456 -178.175 126.913C-87.3236 135.805 -62.9482 42.6845 28.2752 49.5269C116.546 56.1479 117.081 135.004 203.309 149.612C307.017 167.182 359.364 75.8637 463.615 91.8311C556.433 106.047 560.492 215.632 652.113 198.108V0Z" fill="white"/>
</svg>
