<svg width="548" height="415" viewBox="0 0 548 415" fill="none" xmlns="http://www.w3.org/2000/svg">
<path opacity="0.15" d="M-982.28 417H948.189V311.923C921.856 267.302 886.247 241.018 811.75 217.99C647.006 167.065 567.648 346.124 379.209 337.396C150.733 326.814 183.895 90.4947 -41.7209 112.913C-187.072 127.356 -175.895 246.227 -323.308 251.424C-493.931 257.439 -524.01 93.7879 -694.887 90.6238C-853.613 87.6847 -912.949 139.628 -982.28 217.99V417Z" fill="white"/>
<path opacity="0.1" d="M-982.28 417H948.189C948.189 417 808.262 172.104 621.628 152.387C446.126 133.847 399.039 328.003 222.818 313.736C52.3007 299.932 51.2679 135.517 -115.303 105.058C-315.641 68.4246 -416.762 258.824 -618.15 225.532C-797.451 195.891 -805.292 -32.5927 -982.28 3.94579V417Z" fill="white"/>
</svg>
