<svg width="14" height="14" viewBox="0 0 14 14" fill="none" xmlns="http://www.w3.org/2000/svg">
<g clip-path="url(#clip0_5660_13471)">
<path d="M13.0527 10.2278C13.0644 12.2874 11.3696 13.9882 9.30991 13.9882C7.23256 13.9882 5.5495 12.3228 5.53773 10.2572C5.52008 8.2328 7.20902 6.49677 9.20986 6.485C11.3578 6.46735 13.0409 8.10333 13.0527 10.2278ZM8.66258 11.2458C8.23887 10.8045 7.84459 10.3866 7.44442 9.98647C7.18549 9.72166 6.89713 9.704 6.68528 9.92174C6.47931 10.1395 6.50285 10.3925 6.76766 10.6573C7.26199 11.1576 7.7622 11.6578 8.26241 12.1521C8.56842 12.4581 8.77439 12.464 9.08628 12.1639C9.4276 11.8343 9.76304 11.493 10.0985 11.1576C10.6693 10.5867 11.2401 10.0159 11.811 9.44507C12.0993 9.15671 12.1287 8.88601 11.9051 8.66239C11.6933 8.45054 11.4108 8.49173 11.1224 8.78009C11.0989 8.80363 11.0812 8.82716 11.0577 8.84482C10.275 9.6275 9.49234 10.4102 8.66258 11.2458Z" fill="#2ED477"/>
<path d="M4.22522 2.56578C4.22522 2.04791 4.21934 1.57124 4.22522 1.10046C4.23111 0.45901 4.67247 0.0117633 5.3198 0.00587846C5.7847 -6.36245e-06 6.2496 -6.36245e-06 6.7145 0.00587846C7.43245 0.0117633 7.86793 0.435471 7.8797 1.16519C7.89147 1.61832 7.8797 2.07145 7.8797 2.57166C8.27987 2.57166 8.66238 2.55989 9.03901 2.57166C9.40975 2.58343 9.68046 2.81882 9.7393 3.15426C9.79227 3.45439 9.62749 3.7604 9.33325 3.88398C9.23909 3.91929 9.13317 3.93694 9.03313 3.93694C7.04994 3.94283 5.06087 3.94283 3.07768 3.93694C2.6422 3.93694 2.35973 3.67212 2.35385 3.26607C2.34796 2.87179 2.63632 2.58343 3.06591 2.57166C3.43666 2.55989 3.8074 2.56578 4.22522 2.56578ZM5.3198 1.32996C5.3198 1.73013 5.64347 2.05968 6.04363 2.05968C6.43203 2.05968 6.7557 1.74779 6.76747 1.35939C6.77924 0.95922 6.46146 0.623785 6.06129 0.6179C5.65524 0.606131 5.32569 0.929796 5.3198 1.32996Z" fill="#2ED477"/>
<path d="M5.8907 13.994C4.39596 13.994 2.93652 14.0058 1.47708 13.9881C0.664979 13.9764 0.00587846 13.3055 0.00587846 12.4816C-6.36256e-06 9.08609 -6.36256e-06 5.69643 0.00587846 2.30089C0.00587846 1.45347 0.670864 0.806139 1.53005 0.776715C1.87137 0.764946 2.21269 0.776715 2.55401 0.776715C2.77763 0.776715 2.96006 0.847333 2.95418 1.10038C2.94829 1.32989 2.77763 1.40051 2.55989 1.38874C2.248 1.38285 1.9361 1.38285 1.63009 1.38874C0.976875 1.39462 0.6179 1.7536 0.6179 2.4127C0.6179 5.54931 0.6179 8.68592 0.6179 11.8166C0.6179 12.0226 0.612015 12.2286 0.6179 12.4404C0.635555 13.0054 0.994529 13.3702 1.55947 13.3761C2.5952 13.382 3.63093 13.4173 4.66078 13.3644C5.21395 13.3349 5.57881 13.535 5.8907 13.994Z" fill="#2ED477"/>
<path d="M7.79725 5.34912C7.28527 5.64336 6.67914 5.90229 6.1907 6.30246C5.78464 6.6379 5.39625 6.74382 4.9078 6.72029C4.2899 6.69086 3.66611 6.72029 3.04232 6.70852C2.701 6.70263 2.43618 6.49666 2.37145 6.20831C2.30671 5.91406 2.36556 5.64336 2.63626 5.4727C2.74807 5.40797 2.88931 5.35501 3.01289 5.35501C4.60768 5.34912 6.20247 5.34912 7.79725 5.34912C7.82079 5.34912 7.85022 5.36678 7.79725 5.34912Z" fill="#2ED477"/>
<path d="M12.0698 6.02581C11.8873 5.92577 11.7285 5.86692 11.6108 5.76099C11.5343 5.69626 11.4931 5.55502 11.4931 5.4491C11.4872 4.4781 11.4872 3.50122 11.4931 2.53022C11.499 1.72989 11.1517 1.3768 10.3455 1.38268C10.0572 1.38268 9.76293 1.41211 9.48045 1.37091C9.35687 1.35326 9.25683 1.1826 9.14502 1.08256C9.24506 0.982513 9.33922 0.794199 9.43926 0.788314C9.92182 0.770659 10.4161 0.75889 10.8928 0.823623C11.5343 0.91778 12.058 1.49449 12.0698 2.12417C12.0874 3.41295 12.0698 4.69584 12.0698 6.02581Z" fill="#2ED477"/>
</g>
<defs>
<clipPath id="clip0_5660_13471">
<rect width="13.0525" height="14" fill="white"/>
</clipPath>
</defs>
</svg>
