<svg width="37" height="36" viewBox="0 0 37 36" fill="none" xmlns="http://www.w3.org/2000/svg">
<rect x="0.5" width="36" height="36" rx="8" fill="#F7F7F7"/>
<g clip-path="url(#clip0_5196_4424)">
<path d="M18.5085 8.00943C23.9371 7.90952 28.5249 12.5722 28.4999 18.0425C28.4749 23.4462 23.9122 28.0173 18.4502 27.9923C13.0465 27.9673 8.45045 23.3962 8.5004 17.8926C8.55036 12.5222 13.0881 7.90119 18.5085 8.00943ZM22.8048 11.8645C20.5234 9.99939 16.1938 9.73295 13.263 12.5805C10.3155 15.4364 10.4154 19.8326 12.3721 22.2972C15.8441 18.8168 19.3244 15.3365 22.8048 11.8645ZM24.6532 13.6962C21.1645 17.1849 17.6842 20.6652 14.2038 24.1373C16.6684 26.0606 20.9147 26.1605 23.7623 23.3879C26.6015 20.6069 26.6515 16.3106 24.6532 13.6962Z" fill="#ACACAC"/>
</g>
<defs>
<clipPath id="clip0_5196_4424">
<rect width="20" height="20" fill="white" transform="translate(8.5 8)"/>
</clipPath>
</defs>
</svg>
