<svg width="12" height="12" viewBox="0 0 12 12" fill="none" xmlns="http://www.w3.org/2000/svg">
<path fill-rule="evenodd" clip-rule="evenodd" d="M8.1357 11.0206C9.67605 10.6566 10.8773 9.47078 11.2287 7.96155C11.5426 6.61308 11.4663 5.20589 11.0081 3.89738L10.9401 3.70299C10.436 2.2632 9.17661 1.20039 7.64485 0.922021L7.22541 0.845796C6.52256 0.718068 5.80162 0.718068 5.09877 0.845796L4.67932 0.922024C3.14756 1.20039 1.88821 2.2632 1.3841 3.70298L1.31603 3.89738C0.857876 5.20589 0.781516 6.61308 1.09549 7.96155C1.4469 9.47078 2.64811 10.6566 4.18846 11.0206C5.48299 11.3265 6.84116 11.3265 8.1357 11.0206ZM4.77734 3.20004C4.85643 3.01615 4.76789 2.80446 4.5796 2.72723C4.3913 2.64999 4.17455 2.73645 4.09546 2.92035L3.97146 3.20869C3.74219 3.74182 3.68456 4.33049 3.80624 4.89638C3.99935 5.79444 4.7314 6.48806 5.65638 6.64937L5.72476 6.6613C6.01402 6.71174 6.31015 6.71174 6.59942 6.6613L6.6678 6.64937C7.59277 6.48806 8.32483 5.79444 8.51793 4.89638C8.63962 4.33049 8.58199 3.74182 8.35272 3.20869L8.22872 2.92035C8.14963 2.73645 7.93288 2.64999 7.74458 2.72723C7.55628 2.80446 7.46775 3.01615 7.54683 3.20004L7.67084 3.48839C7.84195 3.88627 7.88496 4.3256 7.79414 4.74794C7.66301 5.35778 7.1659 5.82878 6.53778 5.93833L6.46941 5.95025C6.26614 5.9857 6.05804 5.9857 5.85476 5.95025L5.78639 5.93833C5.15828 5.82878 4.66116 5.35777 4.53003 4.74794C4.43922 4.3256 4.48223 3.88627 4.65334 3.48839L4.77734 3.20004Z" fill="#413CB4"/>
</svg>
