<svg width="21" height="22" viewBox="0 0 21 22" fill="none" xmlns="http://www.w3.org/2000/svg">
<path fill-rule="evenodd" clip-rule="evenodd" d="M20.1575 17.9708C18.6853 17.9708 17.4808 16.7663 17.4808 15.2942V9.60625C17.4808 6.22696 15.2056 3.41646 12.1275 2.51308V2.24541C12.1275 1.14129 11.2241 0.237915 10.12 0.237915C9.01583 0.237915 8.11246 1.14129 8.11246 2.24541V2.51308C5.03429 3.41646 2.75913 6.22696 2.75913 9.60625V15.2942C2.75913 16.7663 1.55463 17.9708 0.0824585 17.9708V19.3092H7.17563C7.47675 20.6475 8.68125 21.6512 10.12 21.6512C11.5587 21.6512 12.7632 20.6475 13.0643 19.3092H20.1575V17.9708ZM9.45085 2.24545C9.45085 1.8774 9.75198 1.57628 10.12 1.57628C10.4881 1.57628 10.7892 1.8774 10.7892 2.24545V2.2789C10.555 2.24545 10.3542 2.24545 10.12 2.24545C9.88581 2.24545 9.68506 2.24545 9.45085 2.24545ZM10.12 20.3129C9.45088 20.3129 8.84863 19.9114 8.58096 19.3091H11.6591C11.3915 19.9114 10.7892 20.3129 10.12 20.3129ZM3.06033 17.9709C3.69604 17.2682 4.09754 16.3314 4.09754 15.2942V9.60627C4.09754 6.2939 6.80767 3.58377 10.12 3.58377C13.4324 3.58377 16.1425 6.2939 16.1425 9.60627V15.2942C16.1425 16.3314 16.544 17.2682 17.1798 17.9709H3.06033Z" fill="#333333"/>
</svg>
