<svg width="24" height="24" viewBox="0 0 24 24" fill="none" xmlns="http://www.w3.org/2000/svg">
<rect width="24" height="24" rx="6" fill="#E0F4FB"/>
<path d="M9.5 10.125L12 10.125" stroke="#0083BD" stroke-width="1.2" stroke-linecap="round"/>
<path d="M6.30337 13.9695L6.88569 13.8249L6.30337 13.9695ZM6.30337 10.0305L6.88569 10.1751L6.30337 10.0305ZM17.6966 10.0305L18.2789 9.88588L17.6966 10.0305ZM17.6966 13.9695L17.1143 13.8249L17.6966 13.9695ZM13.9472 17.4118L13.8174 16.8261H13.8174L13.9472 17.4118ZM10.0528 17.4118L10.1826 16.8261L10.0528 17.4118ZM10.0528 6.58816L10.1826 7.17395H10.1826L10.0528 6.58816ZM13.9472 6.58816L14.077 6.00236V6.00236L13.9472 6.58816ZM9.7691 17.349L9.63929 17.9348L9.7691 17.349ZM14.2309 17.349L14.3607 17.9348L14.2309 17.349ZM14.2309 6.65101L14.1011 7.2368V7.2368L14.2309 6.65101ZM9.7691 6.65101L9.6393 6.06522V6.06522L9.7691 6.65101ZM16.1833 13.5648L16.0757 14.155L16.0757 14.1551L16.1833 13.5648ZM16.1467 13.5581L16.2543 12.9678L16.2543 12.9678L16.1467 13.5581ZM16.1467 10.4419L16.2543 11.0322L16.2543 11.0322L16.1467 10.4419ZM16.1833 10.4352L16.0757 9.84495L16.0757 9.84495L16.1833 10.4352ZM17.5724 11.1748C17.876 11.3076 18.2298 11.1692 18.3626 10.8656C18.4954 10.562 18.3569 10.2082 18.0533 10.0754L17.5724 11.1748ZM18.0533 13.9246C18.3569 13.7918 18.4954 13.438 18.3626 13.1344C18.2298 12.8308 17.876 12.6924 17.5724 12.8252L18.0533 13.9246ZM14.8614 12.3926L14.2844 12.5574L14.8614 12.3926ZM14.8614 11.6074L15.4383 11.7722L14.8614 11.6074ZM9.8989 7.2368L10.1826 7.17395L9.92297 6.00236L9.6393 6.06522L9.8989 7.2368ZM13.8174 7.17395L14.1011 7.2368L14.3607 6.06522L14.077 6.00236L13.8174 7.17395ZM14.1011 16.7632L13.8174 16.8261L14.077 17.9976L14.3607 17.9348L14.1011 16.7632ZM10.1826 16.8261L9.8989 16.7632L9.63929 17.9348L9.92297 17.9976L10.1826 16.8261ZM6.88569 13.8249C6.5881 12.6265 6.5881 11.3735 6.88569 10.1751L5.72105 9.88587C5.37632 11.2742 5.37632 12.7258 5.72105 14.1141L6.88569 13.8249ZM17.1143 10.1751C17.4119 11.3735 17.4119 12.6265 17.1143 13.8249L18.2789 14.1141C18.6237 12.7258 18.6237 11.2742 18.2789 9.88588L17.1143 10.1751ZM13.8174 16.8261C12.6203 17.0913 11.3797 17.0913 10.1826 16.8261L9.92297 17.9976C11.2911 18.3008 12.7089 18.3008 14.077 17.9976L13.8174 16.8261ZM10.1826 7.17395C11.3797 6.90868 12.6203 6.90868 13.8174 7.17395L14.077 6.00236C12.7089 5.69921 11.2911 5.69921 9.92297 6.00236L10.1826 7.17395ZM9.8989 16.7632C8.41846 16.4352 7.25123 15.297 6.88569 13.8249L5.72105 14.1141C6.19633 16.0282 7.71405 17.5082 9.63929 17.9348L9.8989 16.7632ZM14.3607 17.9348C16.2859 17.5082 17.8037 16.0282 18.2789 14.1141L17.1143 13.8249C16.7488 15.297 15.5815 16.4352 14.1011 16.7632L14.3607 17.9348ZM14.1011 7.2368C15.5815 7.56485 16.7488 8.70296 17.1143 10.1751L18.2789 9.88588C17.8037 7.97183 16.2859 6.49183 14.3607 6.06522L14.1011 7.2368ZM9.6393 6.06522C7.71406 6.49183 6.19633 7.97183 5.72105 9.88587L6.88569 10.1751C7.25123 8.70296 8.41846 7.56485 9.8989 7.2368L9.6393 6.06522ZM16.291 12.9745L16.2543 12.9678L16.0391 14.1484L16.0757 14.155L16.291 12.9745ZM16.2543 11.0322L16.291 11.0255L16.0757 9.84495L16.0391 9.85163L16.2543 11.0322ZM16.291 11.0255C16.7235 10.9466 17.1696 10.9986 17.5724 11.1748L18.0533 10.0754C17.4317 9.80349 16.7432 9.72325 16.0757 9.84495L16.291 11.0255ZM16.0757 14.1551C16.7432 14.2767 17.4317 14.1965 18.0533 13.9246L17.5724 12.8252C17.1696 13.0014 16.7235 13.0534 16.291 12.9745L16.0757 14.1551ZM15.4383 12.2278C15.3957 12.0789 15.3957 11.9211 15.4383 11.7722L14.2844 11.4426C14.1804 11.8069 14.1804 12.1931 14.2844 12.5574L15.4383 12.2278ZM16.0391 9.85163C15.1991 10.0048 14.5189 10.6216 14.2844 11.4426L15.4383 11.7722C15.5474 11.3902 15.8638 11.1034 16.2543 11.0322L16.0391 9.85163ZM16.2543 12.9678C15.8638 12.8966 15.5474 12.6098 15.4383 12.2278L14.2844 12.5574C14.5189 13.3784 15.1991 13.9952 16.0391 14.1484L16.2543 12.9678Z" fill="#0083BD"/>
</svg>
