<svg width="15" height="14" viewBox="0 0 15 14" fill="none" xmlns="http://www.w3.org/2000/svg">
<path fill-rule="evenodd" clip-rule="evenodd" d="M14.0499 0.0683375C13.9862 0.00417086 13.8904 -0.0168291 13.8051 0.0139709L0.254845 4.91397C0.166535 4.94594 0.105793 5.02784 0.10112 5.12164C0.0964477 5.21544 0.148546 5.30294 0.233352 5.34377L5.11284 7.68294L9.52041 4.4291C9.62835 4.34954 9.76362 4.48464 9.68372 4.5922L6.42605 8.99427L8.76814 13.8677C8.80716 13.9486 8.88916 14 8.97864 14C8.98261 14 8.98635 14 8.99032 13.9997C9.08424 13.9948 9.16624 13.9344 9.19848 13.8462L14.1046 0.312871C14.1352 0.227704 14.1139 0.132271 14.0499 0.0683375Z" fill="#333333"/>
</svg>
