<svg width="64" height="64" viewBox="0 0 64 64" fill="none" xmlns="http://www.w3.org/2000/svg">
<mask id="mask0_5945_5054" style="mask-type:alpha" maskUnits="userSpaceOnUse" x="21" y="6" width="36" height="9">
<path fill-rule="evenodd" clip-rule="evenodd" d="M21.9512 6.6273H56.4998V14.7563H21.9512V6.6273Z" fill="white"/>
</mask>
<g mask="url(#mask0_5945_5054)">
<path fill-rule="evenodd" clip-rule="evenodd" d="M28.0482 12.7243V13.7403C28.0482 14.3023 28.5032 14.7563 29.0642 14.7563H55.4842C56.0452 14.7563 56.5002 14.3023 56.5002 13.7403V12.7243C56.5002 9.3573 53.7702 6.6273 50.4032 6.6273H21.9512C25.3172 6.6313 28.0452 9.3583 28.0482 12.7243" fill="#D1D1D1"/>
</g>
<mask id="mask1_5945_5054" style="mask-type:alpha" maskUnits="userSpaceOnUse" x="11" y="8" width="41" height="50">
<path fill-rule="evenodd" clip-rule="evenodd" d="M11.79 8.65954H51.42V57.4342H11.79V8.65954Z" fill="white"/>
</mask>
<g mask="url(#mask1_5945_5054)">
<path fill-rule="evenodd" clip-rule="evenodd" d="M45.323 25.9343H35.161C34.6 25.9343 34.145 25.4793 34.145 24.9183C34.145 24.3563 34.6 23.9023 35.161 23.9023H45.323C45.884 23.9023 46.339 24.3563 46.339 24.9183C46.339 25.4793 45.884 25.9343 45.323 25.9343V25.9343ZM45.323 32.0313H23.984C23.423 32.0313 22.968 31.5763 22.968 31.0153C22.968 30.4543 23.423 29.9983 23.984 29.9983H45.323C45.884 29.9983 46.339 30.4543 46.339 31.0153C46.339 31.5763 45.884 32.0313 45.323 32.0313V32.0313ZM45.323 38.1273H23.984C23.423 38.1273 22.968 37.6723 22.968 37.1113C22.968 36.5503 23.423 36.0953 23.984 36.0953H45.323C45.884 36.0953 46.339 36.5503 46.339 37.1113C46.339 37.6723 45.884 38.1273 45.323 38.1273V38.1273ZM45.323 44.2243H23.984C23.423 44.2243 22.968 43.7693 22.968 43.2083C22.968 42.6473 23.423 42.1923 23.984 42.1923H45.323C45.884 42.1923 46.339 42.6473 46.339 43.2083C46.339 43.7693 45.884 44.2243 45.323 44.2243V44.2243ZM45.323 50.3213H23.984C23.423 50.3213 22.968 49.8663 22.968 49.3053C22.968 48.7443 23.423 48.2883 23.984 48.2883H45.323C45.884 48.2883 46.339 48.7443 46.339 49.3053C46.339 49.8663 45.884 50.3213 45.323 50.3213V50.3213ZM29.065 16.7883C27.381 16.7883 26.016 15.4243 26.016 13.7403V12.9053C26.053 10.7703 24.477 8.94931 22.358 8.68031C20.125 8.45531 18.132 10.0843 17.907 12.3183C17.894 12.4533 17.887 12.5883 17.887 12.7243V51.3373C17.884 54.7033 15.156 57.4313 11.79 57.4343H45.323C48.69 57.4343 51.42 54.7053 51.42 51.3373V16.7883H29.065Z" fill="#D1D1D1"/>
</g>
<path fill-rule="evenodd" clip-rule="evenodd" d="M8.74159 47.2727H14.8386C15.3996 47.2727 15.8546 47.7277 15.8546 48.2887V51.3377C15.8546 53.5827 14.0346 55.4017 11.7896 55.4017C9.54559 55.4017 7.72559 53.5827 7.72559 51.3377V48.2887C7.72559 47.7277 8.18059 47.2727 8.74159 47.2727" fill="#D1D1D1"/>
<rect x="32" y="32" width="32" height="32" rx="16" fill="#FFBC00"/>
<path d="M41 48.3208C41 46.8224 41 45.324 41 43.8256C41 43.4 41.2915 43.1085 41.7171 43.1085C42.3643 43.1027 43.0115 43.1027 43.6586 43.1085C43.7577 43.1085 43.816 43.0852 43.8743 42.9977C44.23 42.4497 44.5973 41.9133 44.9588 41.3711C45.1162 41.1262 45.3319 41.0096 45.6293 41.0096C47.1976 41.0154 48.7602 41.0154 50.3285 41.0096C50.6608 41.0096 50.8882 41.1379 51.069 41.4119C51.4188 41.9541 51.7744 42.4847 52.1417 43.0152C52.1767 43.0677 52.2642 43.1085 52.3283 43.1085C52.9696 43.1143 53.611 43.1143 54.2523 43.1143C54.7071 43.1085 54.9928 43.3942 54.9928 43.849C54.9928 45.4523 54.9928 47.0498 54.9928 48.6531C54.9928 49.0846 54.6954 49.3994 54.299 49.3936C53.8908 49.3936 53.5935 49.0787 53.5935 48.6415C53.5935 47.318 53.5877 45.9945 53.5993 44.671C53.5993 44.5253 53.5527 44.4961 53.4186 44.4961C52.8006 44.5019 52.1825 44.4961 51.5645 44.5019C51.4654 44.5019 51.4188 44.4553 51.3663 44.3853C50.9582 43.7673 50.5384 43.1493 50.1303 42.5255C50.072 42.438 50.0078 42.403 49.9029 42.403C48.6494 42.4089 47.39 42.4089 46.1365 42.403C46.0082 42.403 45.9266 42.438 45.8508 42.5488C45.4485 43.161 45.0404 43.7673 44.6381 44.3737C44.5798 44.467 44.5157 44.5019 44.4049 44.5019C43.7869 44.4961 43.1689 44.5019 42.5509 44.4961C42.4343 44.4961 42.3993 44.5253 42.3993 44.6419C42.3993 47.0789 42.3993 49.516 42.3993 51.9589C42.3993 52.1805 42.3993 52.1805 42.615 52.1805C44.6265 52.1805 46.6321 52.1805 48.6435 52.1805C49.075 52.1805 49.3957 52.472 49.3957 52.8684C49.4015 53.2707 49.0866 53.5797 48.6494 53.5797C47.0111 53.5797 45.3669 53.5797 43.7286 53.5797C43.0698 53.5797 42.4168 53.5797 41.7579 53.5797C41.2857 53.5797 41 53.2999 41 52.8218C41 51.3234 41 49.825 41 48.3208Z" fill="white"/>
<path d="M48.0085 50.7866C46.4401 50.7866 45.1983 49.5447 45.2041 47.9822C45.2041 46.443 46.4518 45.2011 47.9968 45.207C49.5652 45.207 50.8012 46.4488 50.7954 48.0172C50.7896 49.5447 49.536 50.7866 48.0085 50.7866ZM46.5976 47.9764C46.5859 48.7518 47.2098 49.3815 47.9852 49.3873C48.7548 49.3931 49.3786 48.781 49.3961 48.0114C49.4078 47.2418 48.7839 46.6063 48.0085 46.6004C47.2447 46.5888 46.6092 47.2126 46.5976 47.9764Z" fill="white"/>
<path d="M52.1943 53.5853C51.9669 53.5853 51.7628 53.5853 51.5588 53.5853C51.1215 53.5853 50.8008 53.2938 50.795 52.8915C50.7892 52.4834 51.0982 52.1919 51.5413 52.186C51.7512 52.1802 51.9611 52.186 52.1884 52.186C52.1884 52.1336 52.1943 52.0869 52.1943 52.0403C52.1943 51.8537 52.1943 51.673 52.1943 51.4864C52.2001 51.0841 52.5091 50.7868 52.9056 50.7868C53.2787 50.7868 53.5819 51.0899 53.5936 51.4806C53.5994 51.6613 53.5994 51.842 53.5936 52.0228C53.5877 52.1452 53.6227 52.1977 53.7568 52.1919C53.9375 52.1802 54.1183 52.186 54.299 52.1919C54.6722 52.1977 54.9753 52.4834 54.9987 52.8449C55.022 53.2238 54.7538 53.5445 54.3806 53.5853C54.1708 53.6028 53.9609 53.6028 53.751 53.5911C53.6285 53.5853 53.5936 53.6319 53.5994 53.7486C53.611 53.9176 53.6052 54.0867 53.5994 54.2616C53.5936 54.6872 53.2962 54.9904 52.8881 54.9904C52.4975 54.9904 52.2001 54.6756 52.2001 54.2616C52.1943 54.0342 52.1943 53.8185 52.1943 53.5853Z" fill="white"/>
</svg>
