<svg width="52" height="40" viewBox="0 0 52 40" fill="none" xmlns="http://www.w3.org/2000/svg">
<rect y="0.000244141" width="52" height="40" rx="8" fill="#F7F7F7"/>
<path fill-rule="evenodd" clip-rule="evenodd" d="M35.7871 19.0411C32.6023 15.2887 29.2282 13.3336 26.0118 13.3336C22.7954 13.3336 19.4214 15.2887 16.2365 19.0411C15.9212 19.388 15.9212 19.9241 16.2365 20.2709C19.4214 23.9919 22.7954 25.9469 26.0118 25.9469C29.2282 25.9469 32.6023 23.9919 35.7871 20.2394C36.0709 19.8925 36.0709 19.388 35.7871 19.0411ZM26.0118 24.6856C23.2684 24.6856 20.2096 22.8882 17.3716 19.6403C20.2096 16.3923 23.2684 14.5949 26.0118 14.5949C28.7551 14.5949 31.8139 16.3923 34.6519 19.6403C31.8139 22.8882 28.7551 24.6856 26.0118 24.6856ZM26.0118 15.8563C23.9306 15.8563 22.2278 17.5591 22.2278 19.6403C22.2278 21.7215 23.9306 23.4243 26.0118 23.4243C28.093 23.4243 29.7958 21.7215 29.7958 19.6403C29.7958 17.5591 28.093 15.8563 26.0118 15.8563ZM26.0118 22.1629C24.6243 22.1629 23.4891 21.0277 23.4891 19.6402C23.4891 18.2528 24.6243 17.1176 26.0118 17.1176C27.3992 17.1176 28.5344 18.2528 28.5344 19.6402C28.5344 21.0277 27.3992 22.1629 26.0118 22.1629Z" fill="#646464"/>
</svg>
