<svg width="14" height="14" viewBox="0 0 14 14" fill="none" xmlns="http://www.w3.org/2000/svg">
<path d="M12.7935 5.13751C10.8622 5.13751 8.92368 5.13751 6.99241 5.13751C5.06837 5.13751 3.15156 5.13751 1.22752 5.13751C0.663332 5.14335 0.634399 5.16086 0.634399 5.60456C0.634399 6.5445 0.634399 7.49027 0.634399 8.43021C0.634399 8.82136 0.685032 8.85639 1.18412 8.85639C5.06837 8.85639 8.95261 8.85639 12.8369 8.85639C13.3142 8.85639 13.3649 8.80969 13.3649 8.40686C13.3649 7.46692 13.3649 6.52115 13.3649 5.58121C13.3721 5.17254 13.3215 5.13751 12.7935 5.13751ZM5.25643 8.10328H4.70671C4.63437 7.969 4.55481 7.83472 4.46801 7.69461C4.38121 7.56033 4.29441 7.42022 4.20038 7.29178C4.10635 7.1575 4.01232 7.02906 3.91105 6.90646C3.80979 6.78386 3.71575 6.66126 3.61449 6.55034V8.10911H3.12263V5.94317H3.60726C3.70129 6.03658 3.80255 6.14751 3.91105 6.26427C4.01955 6.38103 4.12081 6.50947 4.22931 6.63791C4.33781 6.76635 4.43184 6.90062 4.52588 7.0349C4.61991 7.16918 4.69947 7.30345 4.77181 7.42605V5.94317H5.26367V8.10328H5.25643ZM7.41193 8.05657C7.33237 8.06241 7.24557 8.06825 7.15877 8.07409C7.07197 8.07992 6.97794 8.08576 6.89114 8.08576C6.80434 8.0916 6.71031 8.0916 6.62351 8.0916C6.53671 8.0916 6.45715 8.0916 6.37758 8.0916C6.17505 8.0916 6.02315 8.06241 5.91466 7.99819C5.80616 7.93981 5.75552 7.83472 5.75552 7.68877V5.91982H7.36853V6.2234H6.26908V6.80721H7.31067V7.10496H6.26908V7.61871C6.26908 7.67709 6.29078 7.71796 6.32695 7.74131C6.37035 7.76467 6.42821 7.78218 6.50055 7.78218H7.41193V8.05657ZM10.8983 6.50363C10.8477 6.70213 10.7899 6.90062 10.7248 7.09912C10.6597 7.29178 10.5946 7.4786 10.5295 7.65374C10.4644 7.82888 10.392 7.98068 10.3269 8.10328H9.76997L9.33597 6.61456L8.90198 8.10328H8.33055C8.26545 7.96316 8.20036 7.79969 8.13526 7.61871C8.07016 7.43773 8.00506 7.25091 7.94719 7.05825C7.88933 6.8656 7.83146 6.67294 7.78083 6.47444C7.7302 6.27595 7.6868 6.1008 7.65063 5.9315H8.14249C8.20759 6.21756 8.27992 6.50363 8.35949 6.7897C8.43905 7.07577 8.52585 7.35016 8.61988 7.60704L9.07558 6.01907H9.6036L10.0593 7.60704C10.1099 7.49611 10.1606 7.37351 10.2112 7.23923C10.2618 7.09912 10.3052 6.95901 10.3414 6.80721C10.3776 6.65542 10.421 6.50947 10.4571 6.35768C10.4933 6.20589 10.5222 6.06577 10.5439 5.9315H11.0285C10.9924 6.11248 10.9562 6.30514 10.8983 6.50363Z" fill="#4782FC"/>
<path d="M1.5316 4.67062C1.56777 4.75235 1.69797 4.84576 1.80647 4.86328C1.87157 4.87495 2.00176 4.76403 2.0524 4.68229C2.0958 4.61224 2.0741 4.50715 2.0741 4.41958C2.0741 3.25779 2.0741 2.09601 2.0741 0.934221C2.0741 0.858326 2.0741 0.78243 2.0741 0.706535C2.0741 0.583934 2.19706 0.484686 2.34896 0.484686H8.48274C8.63463 0.484686 8.7576 0.583934 8.7576 0.706535C8.7576 1.27867 8.76483 1.83329 8.75036 2.38791C8.74313 2.67398 8.87333 2.78491 9.23499 2.77907C9.92938 2.76739 10.631 2.77323 11.376 2.77323C11.5279 2.77323 11.6509 2.87248 11.6509 2.99508C11.6509 3.52635 11.6364 4.03426 11.6654 4.53634C11.6654 4.55386 11.6726 4.57137 11.6798 4.58305C11.7594 4.7757 12.1138 4.76987 12.1934 4.58305C12.2006 4.56553 12.2078 4.54802 12.2078 4.5305C12.2295 3.94085 12.2295 3.34536 12.2151 2.75571C12.2078 2.58641 12.0849 2.35288 11.9402 2.23028C11.1084 1.54722 10.2766 0.870002 9.42305 0.210294C9.24946 0.093532 8.98906 0.00012207 8.77206 0.00012207C6.537 0.00012207 4.30193 0.0176364 2.06686 0.0293127C1.54607 0.0293127 1.51714 0.0585032 1.51714 0.490524C1.51714 1.75156 1.51714 3.01259 1.51714 4.27946C1.51714 4.41374 1.4882 4.55386 1.5316 4.67062ZM9.32902 1.40127C9.32902 1.20277 9.62558 1.10353 9.79918 1.24364C10.074 1.47133 10.3489 1.69901 10.6238 1.9267C10.7901 2.06682 10.6672 2.30034 10.4285 2.30034H9.60388C9.45199 2.30034 9.32902 2.20109 9.32902 2.07849V1.40127Z" fill="#4782FC"/>
<path d="M11.9398 9.13061C11.6288 9.10142 11.6505 9.3291 11.6505 9.50425C11.6505 10.7419 11.6505 11.9854 11.6433 13.2231C11.6433 13.3165 11.6288 13.4158 11.6216 13.5209C8.43172 13.5209 5.2708 13.5209 2.06648 13.5209C2.06648 13.3632 2.06648 13.2231 2.06648 13.0772C2.06648 11.8804 2.07371 10.6835 2.07371 9.49257C2.07371 9.31743 2.09541 9.09558 1.76992 9.10725C1.47336 9.11309 1.51675 9.32326 1.51675 9.48673C1.51675 10.8587 1.51675 12.2306 1.50952 13.6026C1.50952 13.877 1.61079 14.0054 1.97968 13.9996C5.2274 13.9821 8.48235 13.9704 11.7301 13.9704C12.0845 13.9704 12.2075 13.8536 12.2075 13.5734C12.2002 12.2131 12.2075 10.8529 12.193 9.48673C12.193 9.36997 12.0483 9.14228 11.9398 9.13061Z" fill="#4782FC"/>
</svg>
