<svg width="19" height="18" viewBox="0 0 19 18" fill="none" xmlns="http://www.w3.org/2000/svg">
<path d="M2.79395 4.77445C2.5178 4.77445 2.29395 4.9983 2.29395 5.27445C2.29395 5.55059 2.5178 5.77445 2.79395 5.77445V4.77445ZM16.6619 5.77445C16.9381 5.77445 17.1619 5.55059 17.1619 5.27445C17.1619 4.9983 16.9381 4.77445 16.6619 4.77445V5.77445ZM4.33483 5.27445V4.77445H3.83483V5.27445H4.33483ZM15.121 5.27445H15.621V4.77445H15.121V5.27445ZM14.614 12.6227L15.0933 12.7649L14.614 12.6227ZM11.0562 15.6415L11.1373 16.1349L11.0562 15.6415ZM8.3997 15.6415L8.48087 15.1481H8.48086L8.3997 15.6415ZM8.27817 15.6215L8.19701 16.1149H8.19702L8.27817 15.6215ZM4.8419 12.6227L4.36253 12.7649L4.8419 12.6227ZM11.1777 15.6215L11.0965 15.1281L11.1777 15.6215ZM6.52485 4.11704L6.97652 4.3315L6.52485 4.11704ZM7.2764 3.13584L6.94772 2.75906V2.75906L7.2764 3.13584ZM8.40118 2.48022L8.5711 2.95046L8.40118 2.48022ZM11.0547 2.48022L11.2246 2.00998V2.00998L11.0547 2.48022ZM12.931 4.11704L13.3827 3.90258V3.90258L12.931 4.11704ZM2.79395 5.77445H16.6619V4.77445H2.79395V5.77445ZM11.0965 15.1281L10.975 15.1481L11.1373 16.1349L11.2589 16.1149L11.0965 15.1281ZM8.48086 15.1481L8.35933 15.1281L8.19702 16.1149L8.31855 16.1349L8.48086 15.1481ZM14.621 5.27445V9.13187H15.621V5.27445H14.621ZM4.83483 9.13189V5.27445H3.83483V9.13189H4.83483ZM14.621 9.13187C14.621 10.265 14.4573 11.3924 14.1346 12.4806L15.0933 12.7649C15.4433 11.5846 15.621 10.3614 15.621 9.13187H14.621ZM10.975 15.1481C10.1494 15.284 9.30647 15.284 8.48087 15.1481L8.31854 16.1349C9.25164 16.2884 10.2042 16.2884 11.1373 16.1349L10.975 15.1481ZM8.35933 15.1281C6.90725 14.8893 5.72945 13.857 5.32127 12.4806L4.36253 12.7649C4.88201 14.5166 6.37499 15.8152 8.19701 16.1149L8.35933 15.1281ZM5.32127 12.4806C4.99859 11.3924 4.83483 10.265 4.83483 9.13189H3.83483C3.83483 10.3614 4.01253 11.5846 4.36253 12.7649L5.32127 12.4806ZM11.2589 16.1149C13.0809 15.8152 14.5739 14.5166 15.0933 12.7649L14.1346 12.4806C13.7264 13.857 12.5486 14.8893 11.0965 15.1281L11.2589 16.1149ZM6.76094 5.27445C6.76094 4.95318 6.83336 4.633 6.97652 4.3315L6.07318 3.90258C5.86788 4.33496 5.76094 4.80136 5.76094 5.27445H6.76094ZM6.97652 4.3315C7.11982 4.02972 7.33212 3.75075 7.60509 3.51262L6.94772 2.75906C6.57681 3.08262 6.27835 3.47048 6.07318 3.90258L6.97652 4.3315ZM7.60509 3.51262C7.87819 3.27439 8.20595 3.08241 8.5711 2.95046L8.23126 2.00998C7.75514 2.18202 7.31851 2.4356 6.94772 2.75906L7.60509 3.51262ZM8.5711 2.95046C8.93626 2.81852 9.32953 2.75 9.72794 2.75V1.75C9.21578 1.75 8.70737 1.83794 8.23126 2.00998L8.5711 2.95046ZM9.72794 2.75C10.1264 2.75 10.5196 2.81852 10.8848 2.95046L11.2246 2.00998C10.7485 1.83794 10.2401 1.75 9.72794 1.75V2.75ZM10.8848 2.95046C11.2499 3.08241 11.5777 3.27439 11.8508 3.51262L12.5082 2.75906C12.1374 2.4356 11.7007 2.18202 11.2246 2.00998L10.8848 2.95046ZM11.8508 3.51262C12.1238 3.75075 12.3361 4.02972 12.4794 4.3315L13.3827 3.90258C13.1775 3.47048 12.8791 3.08262 12.5082 2.75906L11.8508 3.51262ZM12.4794 4.3315C12.6225 4.633 12.6949 4.95318 12.6949 5.27445H13.6949C13.6949 4.80136 13.588 4.33496 13.3827 3.90258L12.4794 4.3315ZM4.33483 5.77445H15.121V4.77445H4.33483V5.77445Z" fill="#F46363"/>
<path d="M8.18652 9V12M11.2683 9V12" stroke="#F46363" stroke-linecap="round"/>
</svg>
