<svg width="56" height="44" viewBox="0 0 56 44" fill="none" xmlns="http://www.w3.org/2000/svg">
<rect y="0.000854492" width="56" height="44" rx="8" fill="#E0F4FB"/>
<path fill-rule="evenodd" clip-rule="evenodd" d="M39.8828 10.118C39.7736 10.008 39.6096 9.972 39.4636 10.0248L16.2636 18.4248C16.1124 18.4796 16.0084 18.62 16.0004 18.7808C15.9924 18.9416 16.0816 19.0916 16.2268 19.1616L24.5812 23.1716L32.1276 17.5936C32.3124 17.4572 32.544 17.6888 32.4072 17.8732L26.8296 25.4196L30.8396 33.774C30.9064 33.9128 31.0468 34.0008 31.2 34.0008C31.2068 34.0008 31.2132 34.0008 31.22 34.0004C31.3808 33.992 31.5212 33.8884 31.5764 33.7372L39.9764 10.5372C40.0288 10.3912 39.9924 10.2276 39.8828 10.118Z" fill="#01A3DE"/>
</svg>
