<svg width="19" height="18" viewBox="0 0 19 18" fill="none" xmlns="http://www.w3.org/2000/svg">
<path fill-rule="evenodd" clip-rule="evenodd" d="M18.4907 9C18.4907 7.75781 18.2499 6.58887 17.7684 5.49316C17.2868 4.39746 16.6278 3.44239 15.7911 2.62793C14.9544 1.81347 13.9733 1.17188 12.8478 0.703125C11.7222 0.234373 10.5214 0 9.24533 0C7.96928 0 6.76848 0.234373 5.6429 0.703125C4.51733 1.17188 3.53622 1.81347 2.69956 2.62793C1.86291 3.44239 1.20382 4.39746 0.722291 5.49316C0.240761 6.58887 0 7.75781 0 9C0 10.2422 0.240761 11.4111 0.722291 12.5068C1.20382 13.6025 1.86291 14.5576 2.69956 15.3721C3.53622 16.1865 4.51733 16.8281 5.6429 17.2969C6.76848 17.7656 7.96928 18 9.24533 18C10.5214 18 11.7222 17.7656 12.8478 17.2969C13.9733 16.8281 14.9544 16.1865 15.7911 15.3721C16.6278 14.5576 17.2868 13.6025 17.7684 12.5068C18.2499 11.4111 18.4907 10.2422 18.4907 9ZM1.13761 9C1.13761 7.91015 1.35128 6.8877 1.77864 5.93262C2.206 4.97753 2.78684 4.14551 3.52117 3.43652C4.2555 2.72754 5.11322 2.16504 6.09433 1.74902C7.07545 1.33301 8.12577 1.125 9.24533 1.125C10.3649 1.125 11.4152 1.33301 12.3963 1.74902C13.3774 2.16504 14.2321 2.72754 14.9605 3.43652C15.6888 4.14551 16.2666 4.97753 16.694 5.93262C17.1213 6.8877 17.335 7.91015 17.335 9C17.335 10.0898 17.1213 11.1123 16.694 12.0674C16.2666 13.0225 15.6888 13.8545 14.9605 14.5635C14.2321 15.2725 13.3774 15.835 12.3963 16.251C11.4152 16.667 10.3649 16.875 9.24533 16.875C8.12577 16.875 7.07545 16.667 6.09433 16.251C5.11322 15.835 4.2555 15.2725 3.52117 14.5635C2.78684 13.8545 2.206 13.0225 1.77864 12.0674C1.35128 11.1123 1.13761 10.0898 1.13761 9ZM9.82316 12.9375C9.82316 13.1016 9.76899 13.2363 9.66065 13.3418C9.5523 13.4473 9.41387 13.5 9.24533 13.5C9.08883 13.5 8.95341 13.4473 8.83904 13.3418C8.72468 13.2363 8.6675 13.1016 8.6675 12.9375V6.57422L6.5548 8.64844C6.43441 8.75391 6.29598 8.80664 6.13948 8.80664C5.98298 8.80664 5.84454 8.75391 5.72416 8.64844C5.67601 8.58984 5.63688 8.52539 5.60679 8.45508C5.57669 8.38477 5.56164 8.31445 5.56164 8.24414C5.56164 8.17383 5.57669 8.10352 5.60679 8.0332C5.63688 7.96289 5.67601 7.89844 5.72416 7.83984L9.22727 4.51758L12.7304 7.83984C12.8508 7.95703 12.911 8.0918 12.911 8.24414C12.911 8.39649 12.8508 8.53125 12.7304 8.64844C12.622 8.75391 12.4866 8.80664 12.3241 8.80664C12.1616 8.80664 12.0262 8.75391 11.9178 8.64844L9.82316 6.60938V12.9375Z" fill="#FF9D3B"/>
</svg>
