<svg width="94" height="69" viewBox="0 0 94 69" fill="none" xmlns="http://www.w3.org/2000/svg">
<path d="M8.83954 65.1819L8.76113 65.1211C8.49709 64.7972 8.12104 64.6559 7.64098 64.6912C7.28982 64.7273 6.95155 64.8703 6.65686 65.1073C6.65686 65.1073 6.65686 65.0975 6.65686 65.0936C6.66012 64.9282 6.67027 64.7631 6.68726 64.599C6.7038 64.4322 6.71341 64.2644 6.71606 64.0965C6.72018 63.9404 6.69896 63.785 6.65366 63.6391C6.64829 63.6217 6.63859 63.6069 6.62595 63.5967C6.61331 63.5865 6.59837 63.5814 6.58325 63.5822C6.42259 63.6009 6.26734 63.6632 6.12879 63.7647L6.09518 63.857C6.09267 64.1071 6.07016 64.3562 6.02798 64.6009L6.01037 64.6618C5.95593 65.2907 5.95593 65.925 6.01037 66.554C6.01037 66.6089 6.09998 66.6914 6.17039 66.7208C6.3177 66.7255 6.46405 66.6906 6.59925 66.6188L6.64725 66.6089C6.65718 66.6073 6.66673 66.6032 6.67535 66.5969C6.68396 66.5906 6.69147 66.5823 6.69744 66.5725C6.7034 66.5626 6.70769 66.5514 6.71007 66.5394C6.71244 66.5275 6.71285 66.5151 6.71126 66.5029V66.3479C6.80568 65.8788 7.19132 65.3213 7.63458 65.2369C7.74516 65.2074 7.86014 65.2144 7.9678 65.2571C8.07547 65.2999 8.17196 65.3769 8.24746 65.4803C8.29721 65.7403 8.26157 66.0139 8.14825 66.2419C7.98827 66.5645 7.73888 66.8056 7.44576 66.921C7.10156 67.0703 6.7364 67.1331 6.37202 67.1056L5.96237 66.7778C5.61536 66.4529 5.23961 66.177 4.84222 65.9553C4.74992 65.8935 4.66396 65.8184 4.58619 65.7315L4.54778 65.6923C4.33016 65.4783 3.9173 65.1407 3.58766 64.8698L3.40844 64.7226C3.40844 64.7069 3.40844 64.6755 3.40844 64.6755L3.62607 64.5106C3.78984 64.4118 3.94303 64.2885 4.08212 64.1436L4.12053 64.1161L4.84542 63.6136C5.53991 63.1445 6.32881 62.6125 6.74327 62.0865L6.76247 62.006L6.77207 61.9353C6.7968 61.8382 6.7968 61.7341 6.77207 61.637C6.7684 61.6205 6.7613 61.6056 6.75148 61.5935C6.74166 61.5815 6.72946 61.5728 6.71606 61.5683C6.39602 61.529 5.97517 61.7646 5.59592 62.2023C5.52648 62.2817 5.44773 62.3478 5.36229 62.3986L5.30468 62.4378C4.88703 62.7303 3.94451 63.4467 3.45164 63.8354C3.49725 63.0448 3.58114 62.2583 3.70288 61.4799L3.68847 61.3877L3.63727 61.2699L3.59886 61.1875H3.58766C3.55117 61.1652 3.51139 61.1522 3.47071 61.1491C3.43002 61.1461 3.38926 61.1531 3.35083 61.1698L3.25162 61.213L3.1204 61.2719C3.10801 61.2745 3.09644 61.2812 3.08687 61.2912C3.0773 61.3012 3.07009 61.3142 3.06599 61.3288C2.79798 62.2174 2.63628 63.149 2.58593 64.0945C2.22447 63.8163 1.8505 63.5633 1.46579 63.3368H1.44019C1.34625 63.3081 1.2577 63.2574 1.17935 63.1876L0.993728 63.0483L0.720093 62.8324L0.648083 62.8127C0.4878 62.8743 0.345509 62.9916 0.238431 63.1503C0.229627 63.1666 0.225154 63.1858 0.225629 63.2053C0.227574 63.232 0.231867 63.2583 0.238431 63.2838L0.251232 63.3525L0.264034 63.3937C0.503305 63.65 0.767151 63.8695 1.04973 64.0474L1.42578 64.2908L2.00186 64.6834L2.09947 64.7795L2.16828 64.8266L2.17948 64.8365L1.13295 65.6942L0.582475 66.1418C0.529668 66.185 0.31204 66.3047 0.262434 66.3282C0.157954 66.3719 0.0698656 66.4605 0.0144019 66.5775L0 66.6168L0.0144019 66.6423L0.0560072 66.6816L0.113615 66.7267L0.174422 66.7778L0.23043 66.7895C0.409177 66.7599 0.581792 66.6893 0.739295 66.5815C0.985727 66.448 1.65461 65.9533 1.93945 65.7433L2.06106 65.653C2.12149 65.6444 2.17783 65.6113 2.22109 65.5588C2.30152 65.4832 2.38781 65.4174 2.47872 65.3625L2.56513 65.3036C2.56513 65.3193 2.56513 65.3448 2.56513 65.3448C2.56166 66.1668 2.61519 66.9876 2.72515 67.7985V67.822C2.7949 68.0026 2.84803 68.1923 2.88357 68.3873L2.99238 68.8349C3.00178 68.85 3.01193 68.8644 3.02279 68.878C3.13732 68.9599 3.26788 69.002 3.40044 68.9997H3.43244L3.45324 68.9448C3.46251 68.88 3.46732 68.8143 3.46765 68.7485C3.46765 68.668 3.46765 68.5777 3.45644 68.4678L3.44844 68.3049C3.40844 67.557 3.36843 66.4755 3.36843 65.7531V65.6962L3.9253 66.1261C4.6966 66.7405 5.86315 67.6689 6.56884 67.9143C6.58625 67.921 6.60482 67.9218 6.62257 67.9166C6.64033 67.9115 6.6566 67.9005 6.66966 67.8848L6.77847 67.8004L6.79927 67.7906C6.82274 67.7668 6.84144 67.7368 6.85393 67.7027C6.86642 67.6687 6.87235 67.6316 6.87128 67.5943C7.46496 67.557 8.29387 67.2763 8.73712 66.5932C8.89614 66.3458 8.98391 66.0407 8.98676 65.7256C8.993 65.6276 8.98319 65.5289 8.95791 65.4355C8.93263 65.3422 8.89238 65.2559 8.83954 65.1819Z" fill="#FFBC00"/>
<path d="M58.1848 65.3018V67.1704C58.1848 67.3313 58.1576 67.3882 58.0248 67.4255C57.9477 67.4479 57.868 67.4526 57.7896 67.4393C57.6151 67.4157 57.5591 67.3215 57.5671 67.1056C57.5783 66.7503 57.5879 66.3951 57.5975 66.0378C57.6016 66.0218 57.6016 66.0047 57.5975 65.9887C57.5623 65.9259 57.5255 65.867 57.4887 65.8062C57.4378 65.8469 57.391 65.8951 57.3495 65.9495C57.3298 66.008 57.3163 66.0693 57.3095 66.132C57.2263 66.467 57.142 66.802 57.0566 67.137C57.0501 67.166 57.0415 67.1942 57.031 67.2214C56.9062 67.5119 56.6822 67.4471 56.4806 67.4471C56.4091 67.4555 56.3375 67.4321 56.2788 67.3814C56.2201 67.3306 56.1781 67.2558 56.1605 67.1704C56.0661 66.8072 55.9781 66.4422 55.8885 66.0771C55.8885 66.0496 55.8885 66.0084 55.8677 65.9927C55.8277 65.9554 55.7781 65.9043 55.7364 65.9083C55.6948 65.9122 55.6548 65.9868 55.65 66.0359C55.6445 66.1457 55.6445 66.2558 55.65 66.3656C55.65 66.6365 55.6612 66.9074 55.6612 67.1802C55.6648 67.2375 55.6502 67.2943 55.6203 67.3386C55.5905 67.3829 55.5478 67.4113 55.5012 67.4177C55.3859 67.4354 55.2693 67.4354 55.154 67.4177C55.0499 67.402 55.0067 67.3137 55.0099 67.1802C55.0099 66.8288 55.0099 66.4775 55.0099 66.1242V63.4253C55.0099 63.2741 55.0451 63.1917 55.17 63.1701C55.3339 63.1449 55.4993 63.1364 55.6644 63.1446C55.754 63.1446 55.8069 63.229 55.8357 63.3409C55.9701 63.861 56.1093 64.3792 56.2421 64.9013C56.3253 65.2272 56.4021 65.5589 56.4742 65.8828C56.4934 65.9652 56.5174 66.0378 56.599 66.0417C56.6806 66.0457 56.7094 65.9691 56.7286 65.8886C56.8353 65.4529 56.9468 65.0171 57.063 64.5814C57.1655 64.1692 57.2647 63.755 57.3639 63.3409C57.3738 63.2822 57.3999 63.2294 57.4378 63.1915C57.4757 63.1537 57.523 63.1329 57.5719 63.1328C57.6903 63.1328 57.8072 63.1328 57.9256 63.1328C58.1016 63.1328 58.1672 63.2427 58.1656 63.4586C58.1656 64.0691 58.1656 64.6795 58.1656 65.2919L58.1848 65.3018Z" fill="black"/>
<path d="M25.0576 65.3254V63.5176C25.0576 63.2369 25.1184 63.1721 25.3505 63.1741C25.7441 63.1741 26.1393 63.1878 26.533 63.1741C26.7171 63.1604 26.9006 63.2104 27.0627 63.3183C27.2248 63.4262 27.3589 63.5878 27.4499 63.7845C27.5321 63.9709 27.5692 64.1822 27.5571 64.3935C27.5449 64.6049 27.4838 64.8076 27.3811 64.978C27.2867 65.1193 27.2931 65.2135 27.4051 65.3529C27.5503 65.5283 27.6479 65.7543 27.6846 66.0002C27.7212 66.2461 27.6952 66.4999 27.6099 66.7269C27.5404 66.891 27.4427 67.0347 27.3237 67.1482C27.2047 67.2617 27.067 67.3423 26.9202 67.3845C26.493 67.5415 26.0545 67.4591 25.6209 67.4787C25.4961 67.4787 25.3729 67.4787 25.248 67.4787C25.2264 67.4817 25.2045 67.4792 25.1836 67.4714C25.1628 67.4636 25.1434 67.4507 25.1268 67.4334C25.1102 67.4162 25.0966 67.3949 25.0869 67.371C25.0772 67.347 25.0716 67.3209 25.0704 67.2942C25.0637 67.2291 25.0599 67.1635 25.0592 67.0979C25.0592 66.7995 25.0592 66.509 25.0592 66.2067V65.3254H25.0576ZM26.2194 66.7112C26.3026 66.7112 26.3794 66.7112 26.469 66.7112C26.5657 66.7157 26.6619 66.692 26.7498 66.6422C26.8377 66.5924 26.9147 66.5179 26.9747 66.4246C27.0125 66.3689 27.0359 66.3005 27.0419 66.2283C27.0492 66.0972 27.0206 65.9669 26.9606 65.8581C26.9005 65.7492 26.8125 65.6681 26.7106 65.6277C26.4434 65.5099 26.1698 65.561 25.8993 65.5708C25.7601 65.5708 25.6977 65.6944 25.6977 65.8652C25.6977 66.036 25.6977 66.2578 25.6977 66.4541C25.6977 66.6504 25.7617 66.7092 25.9073 66.7112H26.2194ZM26.2066 64.8484C26.3042 64.8484 26.4018 64.8484 26.4978 64.8484C26.5567 64.8508 26.615 64.8338 26.6667 64.7993C26.7185 64.7648 26.7618 64.714 26.7922 64.6521C26.8283 64.5783 26.848 64.4941 26.8493 64.408C26.8506 64.3218 26.8335 64.2368 26.7997 64.1613C26.7659 64.0859 26.7165 64.0226 26.6565 63.9778C26.5965 63.9331 26.528 63.9084 26.4578 63.9062C26.2853 63.8866 26.1118 63.8866 25.9393 63.9062C25.9061 63.9033 25.8728 63.9094 25.8418 63.9242C25.8108 63.939 25.7828 63.9621 25.76 63.9918C25.7372 64.0215 25.72 64.057 25.7098 64.0959C25.6996 64.1347 25.6965 64.1759 25.7009 64.2164V64.5599C25.698 64.5992 25.7022 64.6388 25.713 64.6759C25.7238 64.7131 25.7411 64.7469 25.7636 64.7751C25.7861 64.8032 25.8133 64.8251 25.8434 64.8391C25.8735 64.8531 25.9056 64.859 25.9377 64.8563L26.2066 64.8484Z" fill="black"/>
<path d="M83.2939 65.3156C83.2939 64.6914 83.2939 64.0672 83.2939 63.445C83.2939 63.233 83.3452 63.1721 83.518 63.1741C83.6246 63.182 83.7314 63.182 83.838 63.1741C83.9015 63.1605 83.9668 63.1722 84.0244 63.2075C84.082 63.2429 84.1289 63.3 84.158 63.3704C84.2813 63.6393 84.3965 63.9141 84.5117 64.1889C84.7101 64.6639 84.9053 65.1409 85.1101 65.612C85.1251 65.6396 85.145 65.6628 85.1683 65.6798C85.1915 65.6968 85.2176 65.7071 85.2446 65.7101C85.3166 65.7101 85.3278 65.6257 85.3278 65.5492C85.3278 64.8484 85.3278 64.1496 85.315 63.4489C85.315 63.2526 85.371 63.1682 85.5342 63.1682C85.603 63.1682 85.6734 63.1682 85.7422 63.1682C85.7707 63.1667 85.7991 63.1726 85.8256 63.1857C85.852 63.1987 85.8759 63.2185 85.8956 63.2438C85.9153 63.2691 85.9304 63.2992 85.9398 63.3322C85.9492 63.3652 85.9528 63.4003 85.9502 63.4352V67.2039C85.9537 67.24 85.9506 67.2765 85.941 67.3109C85.9315 67.3453 85.9157 67.3767 85.895 67.4027C85.8743 67.4286 85.8491 67.4486 85.8213 67.4611C85.7935 67.4735 85.7637 67.4782 85.7342 67.4747C85.6174 67.4747 85.499 67.4747 85.3822 67.4747C85.3332 67.4752 85.2852 67.4584 85.2438 67.4264C85.2024 67.3944 85.1694 67.3485 85.1486 67.2941C85.0605 67.1116 84.9805 66.9251 84.8973 66.7387C84.7005 66.2911 84.5037 65.8456 84.3085 65.3961C84.2589 65.2802 84.2204 65.1586 84.1756 65.0388C84.1436 64.9544 84.1052 64.87 84.0156 64.8995C83.926 64.9289 83.9372 65.0231 83.9372 65.1095C83.9372 65.8141 83.9516 66.5188 83.9564 67.2215C83.9564 67.4178 83.8876 67.4826 83.7372 67.4747C83.6556 67.4747 83.5772 67.4747 83.4892 67.4747C83.3611 67.4747 83.3068 67.4158 83.2988 67.2569C83.2988 67.1548 83.2988 67.0606 83.2988 66.9506V65.3097L83.2939 65.3156Z" fill="black"/>
<path d="M44.3294 65.3256V67.1962C44.3294 67.4298 44.2782 67.4887 44.0862 67.4828C43.9758 67.4828 43.8653 67.4828 43.7549 67.4828C43.7082 67.486 43.6618 67.4719 43.6216 67.4426C43.5814 67.4132 43.5493 67.3698 43.5293 67.3179C43.2189 66.6074 42.9052 65.9007 42.5932 65.1921C42.574 65.147 42.5676 65.0862 42.5388 65.0567C42.4973 65.0123 42.4449 64.986 42.3899 64.9821C42.3627 64.9821 42.3211 65.0763 42.3211 65.1274C42.3211 65.7889 42.3339 66.4503 42.3419 67.1118C42.346 67.1667 42.346 67.2218 42.3419 67.2767C42.3403 67.3067 42.3338 67.3359 42.3228 67.3627C42.3118 67.3895 42.2965 67.4133 42.2779 67.4327C42.2592 67.4522 42.2376 67.4668 42.2142 67.4757C42.1908 67.4846 42.1663 67.4877 42.1419 67.4848H41.9035C41.7435 67.4848 41.681 67.3984 41.6826 67.2001C41.6826 66.8076 41.697 66.415 41.697 66.0224C41.697 65.1719 41.6933 64.3213 41.6859 63.4707C41.6859 63.245 41.7419 63.1763 41.9275 63.1783C42.0347 63.1783 42.1419 63.1783 42.2475 63.1783C42.3053 63.1706 42.3636 63.1854 42.4142 63.2206C42.4647 63.2558 42.505 63.3097 42.5292 63.3745C42.6892 63.7553 42.8604 64.1381 43.0204 64.5228C43.1692 64.8761 43.3149 65.2314 43.4605 65.5867C43.4605 65.6024 43.4701 65.622 43.4813 65.6299C43.5229 65.6652 43.5661 65.6966 43.6093 65.728C43.6349 65.673 43.6797 65.62 43.6813 65.5631C43.6813 65.3668 43.6813 65.1823 43.6813 64.9919C43.6813 64.4737 43.6813 63.9575 43.6685 63.4393C43.6643 63.4054 43.6666 63.3708 43.6752 63.3381C43.6838 63.3055 43.6984 63.2757 43.7179 63.2512C43.7375 63.2266 43.7614 63.208 43.7878 63.1967C43.8142 63.1854 43.8424 63.1818 43.8701 63.1861H44.1294C44.275 63.1861 44.3374 63.2646 44.3374 63.4452V65.3413L44.3294 65.3256Z" fill="black"/>
<path d="M34.6475 65.3234C34.6475 64.6953 34.6475 64.0692 34.6475 63.4411C34.6475 63.2448 34.7019 63.1741 34.8651 63.1741C34.9787 63.1741 35.0939 63.1741 35.2075 63.1741C35.2682 63.1736 35.3276 63.1952 35.3783 63.2361C35.429 63.2769 35.4687 63.3353 35.4924 63.4038C35.63 63.7394 35.7788 64.0692 35.9196 64.4029C36.0604 64.7365 36.2205 65.1272 36.3709 65.4903C36.3813 65.5261 36.3976 65.5588 36.4189 65.5865C36.4589 65.6179 36.5165 65.6669 36.5501 65.6512C36.5727 65.6357 36.5922 65.6142 36.6074 65.5885C36.6226 65.5627 36.6331 65.5332 36.6381 65.5021C36.6444 65.4175 36.6412 65.3323 36.6285 65.2488C36.6285 65.1154 36.6061 64.9799 36.6045 64.8445C36.6045 64.4166 36.6045 63.9887 36.6045 63.5608C36.6045 63.2723 36.6781 63.1879 36.9069 63.1682C37.2382 63.1447 37.2894 63.2723 37.2862 63.6491C37.2766 64.8072 37.2862 65.9653 37.2862 67.1234C37.2862 67.4119 37.227 67.4885 36.9949 67.4786C36.9053 67.4786 36.8141 67.4786 36.7245 67.4786C36.6812 67.4839 36.6375 67.4745 36.5982 67.4513C36.559 67.4281 36.5257 67.392 36.5021 67.3471C36.4317 67.2117 36.3597 67.0763 36.2973 66.9349C36.1255 66.5424 35.957 66.1537 35.7916 65.769C35.694 65.5452 35.6044 65.3156 35.5116 65.0879C35.5036 65.0702 35.4972 65.0486 35.4876 65.031C35.446 64.9544 35.4092 64.8563 35.3131 64.8916C35.2171 64.9269 35.2411 65.031 35.2427 65.1193C35.2427 65.822 35.2523 66.5267 35.2555 67.2313C35.2555 67.3962 35.1947 67.4708 35.0587 67.4767C34.9867 67.4767 34.9131 67.4767 34.8411 67.4767C34.7131 67.4767 34.6587 67.4158 34.6555 67.2549C34.6523 67.0939 34.6555 66.9663 34.6555 66.8211C34.6555 66.3206 34.6555 65.82 34.6555 65.3195L34.6475 65.3234Z" fill="black"/>
<path d="M78.8727 65.3317C78.8727 65.9598 78.8727 66.588 78.8727 67.2161C78.8727 67.4124 78.8071 67.4889 78.6519 67.4831C78.5495 67.4831 78.4455 67.4831 78.3415 67.4831C78.2841 67.4863 78.2272 67.4681 78.1784 67.431C78.1296 67.3939 78.091 67.3395 78.0678 67.275C77.8011 66.6717 77.5344 66.0685 77.2677 65.4652C77.2149 65.3454 77.1797 65.2159 77.1237 65.1001C77.0935 65.0413 77.0478 64.9969 76.9941 64.9745C76.9189 64.9489 76.8741 65.0196 76.8741 65.1452C76.8741 65.8074 76.8768 66.4689 76.8821 67.1297C76.8821 67.169 76.8821 67.2063 76.8821 67.2455C76.8821 67.4202 76.8293 67.4831 76.6869 67.4831H76.4485C76.4206 67.4877 76.3922 67.4844 76.3656 67.4732C76.339 67.4621 76.3149 67.4435 76.2951 67.4189C76.2754 67.3943 76.2606 67.3644 76.252 67.3316C76.2433 67.2988 76.241 67.2639 76.2452 67.2298C76.2452 67.0787 76.2452 66.9256 76.2452 66.7725C76.2452 65.6654 76.2452 64.5583 76.2452 63.4512C76.2452 63.2707 76.3092 63.1843 76.4565 63.1784C76.6037 63.1725 76.7189 63.1784 76.8501 63.1784C76.9023 63.1793 76.9532 63.1982 76.9971 63.2329C77.0409 63.2676 77.0759 63.3167 77.0981 63.3747C77.2581 63.7673 77.431 64.1599 77.5958 64.5524C77.7318 64.8724 77.8662 65.1923 78.0022 65.5103C78.0167 65.5486 78.0362 65.5837 78.0598 65.6144C78.0713 65.6309 78.0865 65.643 78.1035 65.6492C78.1205 65.6553 78.1386 65.6553 78.1555 65.6491C78.1725 65.6428 78.1876 65.6306 78.199 65.614C78.2105 65.5974 78.2177 65.5771 78.2199 65.5555C78.2265 65.5135 78.2292 65.4707 78.2279 65.4279L78.2135 63.4414C78.2104 63.4084 78.2133 63.3749 78.2218 63.3433C78.2304 63.3117 78.2444 63.2827 78.263 63.2585C78.2815 63.2342 78.3042 63.2152 78.3293 63.2027C78.3545 63.1902 78.3816 63.1846 78.4087 63.1863C78.5051 63.1784 78.6019 63.1784 78.6983 63.1863C78.8119 63.1863 78.8727 63.2903 78.8727 63.4493V65.3317Z" fill="black"/>
<path d="M90.3921 65.3176V63.4411C90.3921 63.2605 90.4593 63.1801 90.6081 63.1801H92.5171C92.549 63.1748 92.5816 63.1785 92.6122 63.1909C92.6428 63.2033 92.6708 63.2241 92.6939 63.2517C92.717 63.2793 92.7347 63.313 92.7457 63.3503C92.7566 63.3875 92.7605 63.4273 92.7571 63.4667C92.7571 63.5471 92.7571 63.6276 92.7571 63.7081C92.7567 63.7411 92.7508 63.7736 92.7399 63.8038C92.7289 63.8339 92.7131 63.861 92.6933 63.8834C92.6736 63.9058 92.6503 63.923 92.625 63.9341C92.5996 63.9451 92.5727 63.9497 92.5459 63.9476H91.2386C91.1026 63.9476 91.0433 64.0143 91.0385 64.1851C91.0385 64.3205 91.0385 64.4559 91.0385 64.5933C91.0385 64.825 91.1073 64.9035 91.301 64.8937C91.461 64.8937 91.6322 64.874 91.797 64.878C92.0258 64.878 92.253 64.8995 92.4802 64.9153C92.6067 64.9153 92.6403 64.9781 92.6499 65.1292C92.6499 65.2352 92.6499 65.3412 92.6499 65.4472C92.6499 65.6081 92.5971 65.6768 92.4675 65.6768C92.101 65.6768 91.7346 65.6768 91.3682 65.6768C91.3197 65.6729 91.271 65.6729 91.2226 65.6768C91.1965 65.6781 91.171 65.6857 91.1475 65.6993C91.1239 65.7129 91.1029 65.7322 91.0855 65.756C91.0682 65.7799 91.055 65.8077 91.0466 65.838C91.0383 65.8682 91.035 65.9002 91.0369 65.932C91.0369 66.1047 91.0369 66.2794 91.0369 66.4522C91.0338 66.4865 91.0368 66.5212 91.0459 66.5539C91.055 66.5865 91.0699 66.6163 91.0894 66.6411C91.109 66.6659 91.1328 66.685 91.1592 66.6971C91.1855 66.7093 91.2137 66.7141 91.2418 66.7113C91.6866 66.7113 92.133 66.7113 92.5795 66.6975C92.7683 66.6975 92.8387 66.7662 92.8339 66.9998C92.8339 67.0842 92.8339 67.1706 92.8339 67.255C92.8353 67.2901 92.8304 67.3253 92.8195 67.3578C92.8087 67.3904 92.7922 67.4197 92.7711 67.4437C92.7501 67.4676 92.725 67.4856 92.6977 67.4964C92.6704 67.5072 92.6415 67.5106 92.6131 67.5062H90.6129C90.4529 67.5062 90.3921 67.4297 90.3921 67.2373V65.3176Z" fill="black"/>
<path d="M46.3446 63.0839C46.5874 63.0297 46.838 63.087 47.0487 63.2449C47.201 63.3707 47.3291 63.5358 47.4239 63.7288C47.5187 63.9217 47.578 64.1378 47.5975 64.3618C47.6103 64.4835 47.5495 64.5365 47.4631 64.5423C47.3528 64.5502 47.2422 64.5502 47.1319 64.5423C47.0847 64.5397 47.0397 64.5174 47.0043 64.4793C46.9688 64.4411 46.9449 64.3893 46.9366 64.3323C46.9154 64.2308 46.8745 64.1371 46.8174 64.0591C46.7603 63.9812 46.6886 63.9214 46.6086 63.8848C46.3894 63.7847 45.9957 63.7807 45.8837 64.1949C45.8655 64.2584 45.8655 64.3277 45.8837 64.3912C45.9421 64.5112 46.0205 64.6148 46.1136 64.6953C46.2068 64.7758 46.3128 64.8314 46.4246 64.8584C46.6734 64.9413 46.9167 65.0469 47.1527 65.1744C47.27 65.2461 47.374 65.3465 47.4585 65.4694C47.543 65.5923 47.606 65.7351 47.6438 65.889C47.6816 66.0429 47.6933 66.2046 47.6782 66.3643C47.663 66.524 47.6214 66.6782 47.5559 66.8174C47.462 67.0414 47.3181 67.228 47.1411 67.3555C46.964 67.4831 46.761 67.5463 46.5558 67.5377C46.4454 67.5377 46.335 67.5377 46.2245 67.5377C45.8533 67.5377 45.5924 67.2904 45.3492 66.9842C45.1865 66.7467 45.0729 66.4646 45.018 66.1617C44.9828 66.0243 45.0516 65.9203 45.178 65.9125C45.3044 65.9046 45.3924 65.9125 45.498 65.9125C45.5435 65.9092 45.5883 65.9279 45.6227 65.9646C45.6571 66.0013 45.6784 66.053 45.6821 66.1087C45.7237 66.5268 46.2021 66.8468 46.4646 66.8095C46.5816 66.79 46.6921 66.7319 46.7843 66.6413C46.8765 66.5507 46.9468 66.4311 46.9878 66.2952C46.9987 66.2343 46.9925 66.1707 46.9702 66.1146C46.8954 65.9301 46.7643 65.7891 46.6054 65.7221C46.4246 65.6416 46.2325 65.5964 46.0469 65.5258C45.7029 65.4021 45.2932 65.0841 45.1908 64.56C45.0884 64.0359 45.3908 63.3116 45.7733 63.1722C45.8669 63.1324 45.9626 63.1003 46.0597 63.0761C46.1547 63.0711 46.2498 63.0737 46.3446 63.0839Z" fill="black"/>
<path d="M81.0388 63.1466C81.0596 63.1466 81.1076 63.1466 81.1556 63.1466C81.1876 63.1353 81.2212 63.1321 81.2543 63.137C81.2874 63.1419 81.3193 63.1549 81.3483 63.1752C81.3772 63.1955 81.4025 63.2227 81.4228 63.2552C81.443 63.2877 81.4577 63.3249 81.466 63.3645C81.53 63.547 81.5876 63.7335 81.6436 63.92C81.8037 64.4441 81.9477 64.9701 82.1045 65.4903C82.2101 65.8397 82.3237 66.1832 82.4245 66.5306C82.4901 66.7446 82.5573 66.9585 82.6181 67.1744C82.6613 67.3236 82.6181 67.4198 82.4901 67.4394C82.3801 67.4551 82.2689 67.4551 82.1589 67.4394C82.1025 67.4308 82.05 67.3999 82.0093 67.3514C81.9686 67.3029 81.9419 67.2394 81.9333 67.1705C81.8932 66.9998 81.8451 66.832 81.7892 66.668C81.7756 66.6109 81.7472 66.5607 81.7081 66.5253C81.6691 66.4899 81.6218 66.471 81.5732 66.4717C81.2276 66.4717 80.882 66.4717 80.5363 66.4717C80.4978 66.4685 80.4595 66.4807 80.4272 66.5066C80.3948 66.5324 80.3702 66.5705 80.3571 66.615C80.3026 66.7707 80.255 66.9299 80.2147 67.092C80.2039 67.1758 80.1712 67.253 80.1216 67.3121C80.072 67.3712 80.0081 67.409 79.9395 67.4198C79.8339 67.4355 79.7267 67.4591 79.6195 67.463C79.5122 67.4669 79.4402 67.3747 79.4834 67.2314C79.5666 66.9487 79.6579 66.67 79.7443 66.3873C79.8003 66.2028 79.8547 66.0163 79.9043 65.8299L80.4611 63.971C80.5091 63.8081 80.5635 63.6471 80.6067 63.4803C80.6947 63.1819 80.7492 63.1309 81.0388 63.1466ZM81.0516 65.7415H81.186C81.2309 65.7422 81.2759 65.739 81.3204 65.7317C81.3482 65.7298 81.3751 65.719 81.3984 65.7004C81.4217 65.6818 81.4407 65.6561 81.4535 65.6258C81.4662 65.5955 81.4723 65.5616 81.4712 65.5275C81.47 65.4934 81.4616 65.4603 81.4468 65.4314C81.426 65.3745 81.4068 65.3156 81.3876 65.2567C81.3108 65.0172 81.2372 64.7738 81.1556 64.5363C81.1428 64.4971 81.0964 64.446 81.0676 64.448C81.047 64.4529 81.0275 64.4631 81.0104 64.478C80.9933 64.4929 80.9789 64.5121 80.9684 64.5344C80.9332 64.6168 80.9156 64.7091 80.8868 64.7954C80.8196 65.0133 80.754 65.2312 80.6787 65.4432C80.6243 65.5943 80.6595 65.7101 80.794 65.7337C80.8796 65.7432 80.9657 65.7458 81.0516 65.7415Z" fill="black"/>
<path d="M22.3547 66.6441C22.3547 66.8404 22.3547 67.0249 22.3547 67.2153C22.3587 67.2514 22.3558 67.2882 22.3463 67.3227C22.3367 67.3572 22.3208 67.3886 22.2997 67.4143C22.2786 67.44 22.2529 67.4593 22.2247 67.4707C22.1965 67.4822 22.1664 67.4854 22.137 67.4802C22.057 67.4802 21.977 67.4802 21.8986 67.4802C21.8716 67.4815 21.8446 67.4757 21.8196 67.4631C21.7946 67.4505 21.772 67.4315 21.7535 67.4073C21.735 67.3831 21.7209 67.3543 21.7123 67.3229C21.7036 67.2914 21.7006 67.2581 21.7034 67.2251C21.7034 66.0199 21.7034 64.8154 21.7034 63.6115C21.7034 63.5644 21.7034 63.5173 21.7034 63.4702C21.6922 63.2739 21.7578 63.1856 21.9162 63.1758C21.9914 63.1758 22.0762 63.1758 22.145 63.1758C22.1737 63.173 22.2025 63.178 22.2294 63.1904C22.2563 63.2028 22.2807 63.2224 22.3007 63.2477C22.3207 63.273 22.336 63.3035 22.3453 63.3368C22.3546 63.3702 22.3578 63.4057 22.3547 63.4408C22.3547 63.7705 22.3435 64.1022 22.3451 64.4222C22.3451 64.4909 22.3739 64.6008 22.4091 64.6185C22.4396 64.6229 22.4706 64.6189 22.4996 64.6066C22.5287 64.5944 22.5552 64.5743 22.5771 64.5478C22.6779 64.4281 22.7659 64.2887 22.8587 64.1552C23.0507 63.8883 23.2428 63.6233 23.4332 63.3544C23.4721 63.2919 23.523 63.2422 23.5813 63.2097C23.6397 63.1771 23.7037 63.1628 23.7676 63.1679C23.8813 63.1679 23.9965 63.1581 24.1101 63.1679C24.1533 63.1679 24.2189 63.1954 24.2317 63.2307C24.2384 63.2597 24.2396 63.2902 24.2351 63.3198C24.2307 63.3494 24.2208 63.3774 24.2061 63.4015C24.0237 63.6783 23.8364 63.9491 23.646 64.218C23.4956 64.43 23.3388 64.6322 23.1868 64.8403C23.1036 64.9561 23.102 65.0189 23.1868 65.1445C23.4172 65.5155 23.654 65.8806 23.8829 66.2535C24.0797 66.5754 24.2717 66.9032 24.4589 67.2349C24.4748 67.2633 24.4856 67.2954 24.4909 67.3291C24.4961 67.3629 24.4956 67.3977 24.4893 67.4312C24.4781 67.4665 24.3949 67.4763 24.3437 67.4802C24.2477 67.4802 24.1501 67.4802 24.0541 67.4802C23.9987 67.4886 23.9426 67.4784 23.8916 67.4507C23.8406 67.4231 23.7967 67.379 23.7644 67.3232C23.6428 67.1269 23.5196 66.9464 23.3996 66.754C23.1916 66.4203 22.9867 66.0827 22.7771 65.751C22.6635 65.5704 22.6011 65.5763 22.4715 65.751C22.4305 65.7998 22.3987 65.859 22.3782 65.9244C22.3578 65.9898 22.3492 66.0599 22.3531 66.1298C22.3531 66.2182 22.3531 66.3065 22.3531 66.3968V66.6519L22.3547 66.6441Z" fill="black"/>
<path d="M52.6034 67.4513C52.5581 67.4542 52.5127 67.4542 52.4674 67.4513C52.4176 67.4523 52.3689 67.4338 52.3284 67.3985C52.2878 67.3632 52.2574 67.3129 52.2418 67.255C52.1986 67.0901 52.1505 66.9272 52.1073 66.7623C52.0921 66.6828 52.0546 66.6124 52.0014 66.5632C51.9482 66.5141 51.8826 66.4894 51.8161 66.4934C51.496 66.4934 51.176 66.4934 50.8559 66.4934C50.8033 66.4879 50.7507 66.5042 50.7066 66.5398C50.6625 66.5755 50.6294 66.6282 50.6127 66.6897C50.5724 66.8106 50.5382 66.9345 50.5103 67.0607C50.4986 67.1637 50.4586 67.2587 50.3969 67.3301C50.3352 67.4014 50.2556 67.4449 50.171 67.4532C50.067 67.467 49.9646 67.4847 49.8606 67.4886C49.7566 67.4925 49.7118 67.4218 49.7454 67.2923C49.7934 67.1254 49.8526 66.9625 49.9054 66.7977C50.0078 66.464 50.1054 66.1303 50.2062 65.7966C50.2959 65.5041 50.3871 65.2077 50.4751 64.9172C50.5423 64.6895 50.6031 64.4599 50.6687 64.2342C50.7231 64.0516 50.7791 63.8691 50.8287 63.6865C50.8543 63.6002 50.8831 63.5158 50.9024 63.4255C50.9141 63.3405 50.9513 63.264 51.0067 63.211C51.0621 63.158 51.1316 63.1323 51.2016 63.1389C51.3056 63.1389 51.408 63.1389 51.5121 63.1389C51.5571 63.1324 51.6026 63.1448 51.6413 63.174C51.6799 63.2032 51.7093 63.2475 51.7249 63.2998C51.8481 63.6924 51.9729 64.085 52.0913 64.4775C52.301 65.1724 52.5042 65.8692 52.7138 66.5641C52.7794 66.7819 52.8595 66.9939 52.9235 67.2118C52.9297 67.2395 52.9303 67.2686 52.9253 67.2967C52.9203 67.3247 52.9098 67.3508 52.8947 67.3728C52.7995 67.4222 52.7016 67.4635 52.6018 67.4964L52.6034 67.4513ZM51.3584 65.7672C51.4448 65.7672 51.5313 65.7672 51.6161 65.7672C51.6429 65.7694 51.6698 65.7633 51.6943 65.7494C51.7187 65.7355 51.7399 65.7142 51.7559 65.6876C51.7718 65.661 51.782 65.6298 51.7856 65.5971C51.7891 65.5643 51.7859 65.531 51.7761 65.5002C51.6817 65.196 51.5857 64.8937 51.48 64.5953C51.4659 64.5678 51.4469 64.5446 51.4245 64.5273C51.4021 64.5099 51.3768 64.499 51.3504 64.4952C51.3263 64.4978 51.3029 64.5071 51.2821 64.5224C51.2613 64.5377 51.2436 64.5586 51.2304 64.5835C51.1992 64.663 51.174 64.7457 51.1552 64.8309C51.0928 65.037 51.0384 65.245 50.9616 65.4433C50.8848 65.6415 50.944 65.7593 51.1104 65.7711C51.192 65.7711 51.2752 65.7672 51.3584 65.7672Z" fill="black"/>
<path d="M39.3689 63.1407C39.4217 63.1407 39.4729 63.1407 39.5289 63.1407C39.6029 63.1265 39.6786 63.1466 39.7413 63.197C39.804 63.2474 39.8492 63.3245 39.8681 63.4135C40.0057 63.8748 40.1465 64.3341 40.2842 64.7875C40.3834 65.1212 40.4778 65.4568 40.577 65.7905C40.649 66.028 40.7274 66.2616 40.801 66.4991C40.8746 66.7366 40.9466 66.982 41.0203 67.2234C41.0264 67.2388 41.0298 67.2557 41.03 67.2729C41.0303 67.29 41.0276 67.3071 41.0219 67.3228C41.0163 67.3385 41.0079 67.3525 40.9974 67.3638C40.9869 67.3751 40.9745 67.3835 40.961 67.3883C40.8693 67.4336 40.7706 67.4536 40.6718 67.4468C40.5731 67.44 40.4768 67.4066 40.3898 67.3491C40.3434 67.3196 40.3162 67.2293 40.2954 67.1528C40.2458 66.9938 40.2074 66.8309 40.1626 66.6719C40.1485 66.6104 40.1172 66.557 40.0741 66.5211C40.0311 66.4851 39.9791 66.469 39.9273 66.4756H38.9416C38.7944 66.4756 38.7096 66.5718 38.66 66.772C38.6248 66.9192 38.5816 67.0625 38.5463 67.2077C38.5368 67.2619 38.5136 67.311 38.48 67.348C38.4463 67.385 38.4041 67.408 38.3591 67.4138C38.2423 67.4354 38.1255 67.457 38.0087 67.4668C37.8647 67.4786 37.8087 67.3863 37.8567 67.2215C37.9287 66.9781 38.0055 66.7366 38.0775 66.4952C38.1975 66.1026 38.3127 65.7002 38.4327 65.3057C38.5527 64.9112 38.6872 64.4833 38.8136 64.0711C38.876 63.865 38.9336 63.6569 38.996 63.4508C39.0824 63.1721 39.1304 63.1328 39.3689 63.1407ZM39.4393 65.765C39.5081 65.765 39.5769 65.765 39.6457 65.765C39.8217 65.765 39.8905 65.6198 39.8217 65.4195C39.8025 65.3666 39.7769 65.3136 39.7609 65.2586C39.7017 65.0525 39.6473 64.8444 39.5833 64.6403C39.5611 64.5826 39.5295 64.5312 39.4905 64.4892C39.4811 64.4733 39.4683 64.461 39.4534 64.4537C39.4386 64.4464 39.4224 64.4444 39.4067 64.4478C39.391 64.4513 39.3764 64.4602 39.3646 64.4734C39.3528 64.4866 39.3443 64.5036 39.34 64.5225C39.3048 64.6089 39.2776 64.7011 39.2488 64.7914C39.18 65.0034 39.116 65.2174 39.0408 65.4254C38.9656 65.6335 39.0408 65.7493 39.2008 65.7631C39.2856 65.7709 39.3688 65.765 39.4457 65.765H39.4393Z" fill="black"/>
<path d="M87.3999 65.312C87.4072 65.4981 87.4227 65.6835 87.4463 65.8675C87.4715 66.0526 87.5329 66.2274 87.6251 66.3771C87.7174 66.5268 87.8377 66.6469 87.9759 66.7272C88.3424 66.9412 88.6784 66.7429 88.8944 66.3347C88.92 66.2856 88.9425 66.2326 88.9665 66.1796C88.9928 66.1048 89.0383 66.0427 89.096 66.0026C89.1538 65.9626 89.2207 65.9468 89.2865 65.9578C89.3585 65.9676 89.4321 65.9578 89.5041 65.9578C89.6337 65.9578 89.6961 66.0658 89.6545 66.213C89.5474 66.6289 89.3385 66.9942 89.0561 67.2592C88.7668 67.4997 88.4143 67.5978 88.0688 67.534C87.3247 67.4653 86.8446 66.6605 86.771 65.8911C86.7406 65.6745 86.725 65.4552 86.7246 65.2355C86.7438 64.7251 86.8046 64.2167 87.0638 63.7927C87.3439 63.3334 87.7039 63.0351 88.1952 63.0645C88.2304 63.0645 88.2656 63.0645 88.2992 63.0645C88.824 63.0409 89.1793 63.3786 89.4481 63.8869C89.5225 64.0387 89.5857 64.1984 89.6369 64.3639C89.6495 64.3913 89.6558 64.4223 89.6551 64.4537C89.6544 64.4852 89.6467 64.5157 89.6329 64.5422C89.6191 64.5686 89.5996 64.59 89.5766 64.6039C89.5537 64.6178 89.528 64.6237 89.5025 64.6211C89.4023 64.628 89.3019 64.628 89.2017 64.6211C89.1443 64.6159 89.0894 64.591 89.043 64.5494C88.9966 64.5077 88.9607 64.451 88.9393 64.3855C88.8891 64.2324 88.8059 64.0991 88.6984 63.9998C88.591 63.9006 88.4635 63.8393 88.3297 63.8225C88.1959 63.8057 88.0609 63.8341 87.9394 63.9047C87.8178 63.9752 87.7142 64.0851 87.6399 64.2226C87.4564 64.5389 87.3712 64.9254 87.3999 65.312Z" fill="black"/>
<path d="M61.6632 64.8702C61.6632 65.3158 61.6504 65.7633 61.6632 66.207C61.676 66.6506 61.324 67.1884 61.0439 67.369C60.6804 67.5779 60.2683 67.6224 59.8806 67.4946C59.6472 67.4167 59.4407 67.2482 59.2918 67.0143C59.143 66.7804 59.0599 66.4938 59.0549 66.1971C59.0549 65.3983 59.0549 64.6013 59.0549 63.8044C59.0549 63.6807 59.0549 63.5571 59.0469 63.4354C59.0469 63.2823 59.0901 63.1979 59.2149 63.1822C59.3181 63.1704 59.4221 63.1704 59.5253 63.1822C59.5505 63.1846 59.5751 63.1932 59.5975 63.2074C59.62 63.2216 59.6399 63.2412 59.6561 63.2649C59.6724 63.2887 59.6846 63.3162 59.6921 63.3458C59.6996 63.3754 59.7022 63.4065 59.6998 63.4374C59.6998 64.2605 59.6955 65.0835 59.687 65.9066C59.6897 66.1451 59.7498 66.3773 59.8598 66.574C59.8856 66.6185 59.9182 66.6565 59.9558 66.6859C60.1286 66.8272 60.5463 66.8979 60.7559 66.6702C60.8504 66.5542 60.9231 66.4142 60.9687 66.26C61.0117 66.1126 61.0333 65.9571 61.0327 65.8006C61.0327 65.0155 61.0327 64.2303 61.0327 63.4452C61.0327 63.2489 61.0887 63.1841 61.2423 63.1783H61.4392C61.5992 63.1783 61.6696 63.2607 61.6696 63.4531V64.8781L61.6632 64.8702Z" fill="black"/>
<path d="M12.1823 65.3393V63.4412C12.1823 63.2587 12.2415 63.1841 12.3887 63.1841C12.7999 63.1841 13.2112 63.1841 13.6225 63.1841C13.795 63.1931 13.9635 63.251 14.1148 63.3531C14.2661 63.4553 14.396 63.599 14.4946 63.7729C14.6459 64.0369 14.7183 64.3567 14.6997 64.6786C14.681 65.0004 14.5724 65.3045 14.3922 65.5395C14.2242 65.7347 14.0163 65.8703 13.7905 65.9321C13.5523 65.983 13.3102 66.0007 13.0688 65.9851C12.864 65.9851 12.8095 66.0518 12.8143 66.3011C12.8143 66.6132 12.8143 66.9273 12.8143 67.2413C12.8178 67.2754 12.815 67.31 12.8061 67.3426C12.7972 67.3752 12.7825 67.405 12.763 67.4297C12.7435 67.4543 12.7197 67.4733 12.6934 67.4852C12.6671 67.4971 12.639 67.5017 12.6111 67.4985H12.3807C12.2335 67.4985 12.1807 67.4356 12.1807 67.2531C12.1807 67.0293 12.1807 66.8036 12.1807 66.5798V65.357L12.1823 65.3393ZM12.7887 64.5542C12.7887 64.6857 12.7887 64.8172 12.7887 64.9467C12.7856 64.9819 12.7885 65.0175 12.7973 65.0512C12.806 65.0848 12.8205 65.1159 12.8396 65.1424C12.8588 65.1688 12.8822 65.19 12.9084 65.2047C12.9347 65.2193 12.9631 65.2271 12.992 65.2274C13.2672 65.2471 13.5408 65.2686 13.7921 65.0782C13.8536 65.0326 13.9063 64.9711 13.9464 64.8978C13.9865 64.8246 14.0131 64.7414 14.0242 64.6543C14.0354 64.5671 14.0308 64.478 14.0109 64.3932C13.991 64.3085 13.9561 64.2301 13.9089 64.1635C13.8577 64.0988 13.7697 64.0791 13.7041 64.0281C13.4816 63.8475 13.224 63.8888 12.9904 63.9025C12.8303 63.9123 12.7839 64.0006 12.7823 64.1969C12.7871 64.3127 12.7887 64.4325 12.7887 64.5502V64.5542Z" fill="black"/>
<path d="M71.498 65.4217V63.4589C71.498 63.2626 71.5637 63.1703 71.7269 63.1703H73.6887C73.7119 63.1654 73.7356 63.1669 73.7583 63.1745C73.781 63.1821 73.802 63.1958 73.8199 63.2146C73.8377 63.2333 73.852 63.2566 73.8617 63.2829C73.8714 63.3092 73.8762 63.3378 73.8759 63.3666C73.8831 63.4895 73.8831 63.6128 73.8759 63.7356C73.8759 63.875 73.8071 63.9319 73.6903 63.9319H72.3525C72.2133 63.9319 72.1461 64.0085 72.1429 64.1773C72.1397 64.3461 72.1429 64.5247 72.1429 64.6974C72.1429 64.8702 72.2341 64.9467 72.3813 64.9467C72.7206 64.9467 73.0598 64.9467 73.3991 64.9369C73.6199 64.9369 73.6839 65.0036 73.6775 65.2784V65.4041C73.6775 65.6396 73.6167 65.7162 73.4231 65.7122L72.4165 65.7024C72.3856 65.7004 72.3547 65.7004 72.3237 65.7024C72.2966 65.7013 72.2695 65.7077 72.2446 65.721C72.2197 65.7344 72.1976 65.7544 72.1798 65.7796C72.162 65.8048 72.149 65.8346 72.1418 65.8667C72.1346 65.8989 72.1333 65.9326 72.1381 65.9654C72.1477 66.358 72.1573 66.7368 72.1637 67.1216C72.1631 67.1933 72.1545 67.2647 72.1381 67.3335C72.1284 67.376 72.1074 67.4132 72.0784 67.4392C72.0493 67.4652 72.014 67.4785 71.9781 67.4768H71.7397C71.5637 67.4768 71.498 67.3924 71.498 67.1765C71.498 66.5877 71.498 65.9988 71.498 65.41V65.4217Z" fill="black"/>
<path d="M29.8945 65.3334V63.4884C29.8945 63.2489 29.9585 63.1743 30.1586 63.1743H32.0468C32.1748 63.1743 32.2388 63.2293 32.2516 63.3824C32.2612 63.4959 32.2612 63.6104 32.2516 63.7239C32.242 63.875 32.1748 63.9359 32.0516 63.9379C31.5987 63.9379 31.1459 63.9379 30.693 63.9379C30.5474 63.9379 30.5058 63.9889 30.4994 64.1636C30.493 64.3383 30.4914 64.5189 30.4994 64.6975C30.5074 64.8761 30.5778 64.9468 30.7234 64.9468L31.7923 64.935C31.9332 64.935 32.0052 64.9801 32.034 65.147C32.0534 65.2672 32.0561 65.3907 32.042 65.512C32.0276 65.6455 31.9332 65.7083 31.8004 65.7083L30.7938 65.6985C30.757 65.6985 30.7186 65.6985 30.6802 65.6985C30.6547 65.6968 30.6292 65.702 30.6055 65.7138C30.5818 65.7256 30.5605 65.7437 30.5432 65.7667C30.5259 65.7898 30.513 65.8174 30.5055 65.8473C30.4979 65.8773 30.4958 65.9089 30.4994 65.9399C30.4994 66.3325 30.4994 66.7369 30.5154 67.1353C30.5154 67.4062 30.4674 67.4768 30.2466 67.4729H30.1218C29.9617 67.4729 29.8945 67.3964 29.8945 67.1981C29.8945 66.731 29.8945 66.2638 29.8945 65.7967C29.8945 65.6396 29.8945 65.4826 29.8945 65.3256V65.3334Z" fill="black"/>
<path d="M16.7833 65.7221V67.2099C16.7833 67.4219 16.7336 67.4847 16.5608 67.4828H16.3432C16.1832 67.4828 16.124 67.4298 16.1256 67.2256C16.1256 66.784 16.1256 66.3424 16.1256 65.9007C16.1256 65.355 16.1256 64.8081 16.1256 64.2598C16.1269 64.2131 16.1242 64.1664 16.1176 64.1204C16.1165 64.0928 16.1107 64.0657 16.1005 64.041C16.0903 64.0163 16.076 63.9945 16.0585 63.9771C16.0409 63.9597 16.0206 63.947 15.9988 63.9399C15.977 63.9328 15.9542 63.9314 15.932 63.9359H15.3255C15.2969 63.9405 15.2678 63.9368 15.2407 63.925C15.2135 63.9132 15.189 63.8936 15.1692 63.868C15.1493 63.8423 15.1347 63.8113 15.1266 63.7773C15.1184 63.7434 15.117 63.7076 15.1223 63.6729C15.1223 63.5924 15.1223 63.5119 15.1223 63.4314C15.1186 63.4006 15.1204 63.3692 15.1274 63.3393C15.1345 63.3094 15.1467 63.2817 15.1632 63.2581C15.1798 63.2345 15.2002 63.2155 15.2232 63.2024C15.2463 63.1893 15.2713 63.1824 15.2967 63.1821C15.3585 63.1782 15.4205 63.1782 15.4823 63.1821H17.5257C17.7146 63.1821 17.793 63.2685 17.7946 63.5001V63.614C17.7946 63.8692 17.7274 63.9477 17.5225 63.9457H16.9513C16.8377 63.9457 16.7913 63.9987 16.7913 64.142C16.7913 64.3383 16.7913 64.5228 16.7913 64.7132V65.7319L16.7833 65.7221Z" fill="black"/>
<path d="M66.7897 65.7198C66.7897 66.2164 66.7897 66.713 66.7897 67.2096C66.7897 67.396 66.7225 67.4804 66.5688 67.4824H66.372C66.3485 67.4859 66.3247 67.4836 66.3019 67.4756C66.2791 67.4676 66.2579 67.454 66.2396 67.4356C66.2212 67.4173 66.206 67.3946 66.1949 67.3689C66.1839 67.3432 66.1772 67.3151 66.1752 67.2861C66.168 67.2442 66.1647 67.2014 66.1656 67.1585L66.1752 64.2574C66.1752 64.014 66.1144 63.9355 65.9208 63.9355C65.7271 63.9355 65.5335 63.9355 65.3399 63.9355C65.1927 63.9355 65.1303 63.857 65.1319 63.6784C65.1319 63.6018 65.1319 63.5272 65.1319 63.4507C65.1319 63.2544 65.2023 63.1759 65.3639 63.1778H66.0696L67.6362 63.168C67.6622 63.165 67.6886 63.1687 67.7134 63.179C67.7382 63.1894 67.761 63.206 67.7802 63.2279C67.7994 63.2498 67.8146 63.2764 67.8248 63.306C67.835 63.3356 67.84 63.3675 67.8394 63.3996C67.8394 63.4998 67.8394 63.5959 67.8394 63.7039C67.8412 63.7359 67.8373 63.768 67.8278 63.798C67.8183 63.8279 67.8036 63.8549 67.7847 63.877C67.7657 63.8992 67.743 63.9159 67.7181 63.926C67.6933 63.9361 67.6669 63.9393 67.641 63.9355H67.0009C66.8185 63.9355 66.7609 64.0062 66.7625 64.2319L66.7721 65.6314V65.7198H66.7897Z" fill="black"/>
<path d="M62.5108 65.29C62.5108 64.8346 62.5108 64.3812 62.5108 63.9278C62.5108 63.7747 62.498 63.6235 62.4916 63.4704C62.4869 63.4322 62.4893 63.3932 62.4987 63.3563C62.508 63.3194 62.5241 63.2856 62.5457 63.2574C62.5673 63.2292 62.5938 63.2075 62.6232 63.1937C62.6526 63.1799 62.6843 63.1746 62.7156 63.178C62.7973 63.178 62.8757 63.178 62.9637 63.178C62.9898 63.1746 63.0162 63.1784 63.0409 63.1891C63.0657 63.1998 63.0882 63.2172 63.1067 63.24C63.1253 63.2628 63.1395 63.2903 63.1482 63.3207C63.157 63.3511 63.1601 63.3834 63.1573 63.4155C63.1573 64.3995 63.1541 65.381 63.1477 66.3598C63.1477 66.6032 63.2133 66.6915 63.4117 66.6896L64.5735 66.6739C64.7047 66.6739 64.7655 66.7406 64.7703 66.9016C64.7703 66.9899 64.7703 67.0782 64.7703 67.1685C64.7737 67.2014 64.7714 67.2348 64.7636 67.2666C64.7557 67.2984 64.7426 67.3278 64.725 67.3529C64.7073 67.3781 64.6856 67.3984 64.6611 67.4126C64.6367 67.4268 64.6101 67.4346 64.5831 67.4355C64.5215 67.4453 64.4595 67.4492 64.3975 67.4472H62.8421C62.8037 67.4502 62.7652 67.4502 62.7268 67.4472C62.6929 67.4457 62.6596 67.4354 62.6291 67.4172C62.5986 67.399 62.5714 67.3732 62.5495 67.3415C62.5275 67.3097 62.5112 67.2727 62.5015 67.2328C62.4918 67.1929 62.489 67.1509 62.4932 67.1096C62.4932 66.5024 62.4932 65.8966 62.4932 65.292L62.5108 65.29Z" fill="black"/>
<path d="M32.9166 65.3001V63.3156C32.9166 63.1566 32.9694 63.0879 33.0959 63.0899H33.5327C33.6639 63.0899 33.7135 63.1468 33.7151 63.3117C33.7151 63.4471 33.7151 63.5826 33.7151 63.718C33.7151 64.8957 33.7151 66.08 33.7151 67.2708C33.7151 67.4671 33.6607 67.5201 33.5071 67.5162C33.3535 67.5122 33.2383 67.5162 33.1039 67.5162C32.9694 67.5162 32.915 67.4494 32.915 67.2865C32.915 66.625 32.915 65.9616 32.915 65.3001H32.9166Z" fill="black"/>
<path d="M68.393 65.302C68.393 64.7498 68.393 64.1982 68.393 63.6473C68.393 63.5334 68.3818 63.4196 68.3818 63.3057C68.3818 63.1507 68.4234 63.0938 68.5418 63.0918C68.7018 63.0918 68.8538 63.0918 69.0091 63.0918C69.1291 63.0918 69.1835 63.1664 69.1835 63.3136L69.1739 67.0273C69.1739 67.1039 69.1739 67.1804 69.1819 67.255C69.1915 67.4513 69.1419 67.5161 68.9883 67.5161C68.8346 67.5161 68.705 67.5161 68.5642 67.5161C68.4234 67.5161 68.3754 67.4553 68.377 67.2747L68.3914 65.6474L68.393 65.302Z" fill="black"/>
<path d="M74.5635 65.302V63.3175C74.5635 63.135 74.6003 63.0918 74.7459 63.0918H75.1812C75.322 63.0918 75.3668 63.1448 75.3652 63.3215V67.0117C75.3652 67.1098 75.3652 67.2079 75.3652 67.3041C75.3652 67.4415 75.3236 67.5004 75.2148 67.5122C75.0388 67.5122 74.8611 67.5122 74.6851 67.5122C74.5811 67.5122 74.5635 67.4101 74.5635 67.3022V65.302Z" fill="black"/>
<path d="M48.3643 65.2883C48.3643 64.6307 48.3643 63.9731 48.3643 63.3156C48.3643 63.1468 48.4043 63.0918 48.5387 63.0918H48.9691C49.1292 63.0918 49.1596 63.1389 49.1596 63.3254C49.1596 64.4063 49.1596 65.4872 49.1596 66.568C49.1596 66.8056 49.1596 67.0431 49.1596 67.2806C49.1596 67.4415 49.1164 67.5102 48.9851 67.5141C48.8251 67.5141 48.6651 67.5141 48.5051 67.5141C48.3995 67.5141 48.3643 67.4494 48.3643 67.2982V65.2883Z" fill="black"/>
<path d="M18.4052 67.4374C18.4052 67.3098 18.4052 67.1842 18.4052 67.0566C18.4052 66.929 18.4484 66.8721 18.5652 66.8701C18.7716 66.8701 18.9797 66.8701 19.1861 66.8701C19.2981 66.8701 19.3461 66.9369 19.3461 67.0782C19.3461 67.3236 19.3461 67.5689 19.3461 67.8143C19.3481 67.8407 19.3453 67.8673 19.3379 67.8922C19.3306 67.9171 19.3189 67.9397 19.3036 67.9584C19.2883 67.9772 19.2699 67.9916 19.2496 68.0006C19.2293 68.0096 19.2076 68.013 19.1861 68.0106C18.9717 68.0106 18.7572 68.0106 18.546 68.0106C18.442 68.0106 18.4004 67.938 18.4004 67.8143V67.4453L18.4052 67.4374Z" fill="black"/>
<path d="M2.9842 23.6676V24.8571C2.97973 24.9702 2.99403 25.0832 3.02623 25.1893C3.05843 25.2954 3.10786 25.3924 3.17152 25.4743C3.23519 25.5563 3.31176 25.6216 3.3966 25.6662C3.48144 25.7108 3.57278 25.7338 3.66508 25.7338C3.75738 25.7338 3.84872 25.7108 3.93356 25.6662C4.0184 25.6216 4.09497 25.5563 4.15864 25.4743C4.22231 25.3924 4.27174 25.2954 4.30394 25.1893C4.33614 25.0832 4.35044 24.9702 4.34597 24.8571V23.6676C4.34629 23.2082 4.42084 22.7534 4.56531 22.3296C4.70979 21.9057 4.92131 21.5212 5.18767 21.1983V21.21C5.18699 21.2042 5.18699 21.1982 5.18767 21.1924C5.05005 20.4936 5.06925 20.0892 5.06765 19.2295C4.43467 19.6817 3.90927 20.3293 3.54374 21.1079C3.17821 21.8866 2.9853 22.7691 2.9842 23.6676Z" fill="#E31B23"/>
<path d="M9.26081 19.2257V19.2119C9.26081 20.4485 9.27041 20.5604 9.14399 21.1885C9.14445 21.1983 9.14445 21.2082 9.14399 21.218C9.14438 21.2101 9.14438 21.2023 9.14399 21.1944C9.41145 21.5162 9.62404 21.9001 9.76937 22.3237C9.9147 22.7473 9.98987 23.2022 9.9905 23.6617V31.9549C9.98927 32.4455 9.90303 32.9303 9.7375 33.3769C9.57198 33.8236 9.33094 34.2221 9.03038 34.5458C9.02772 34.556 9.02336 34.5654 9.01758 34.5733C9.06468 34.6702 9.10586 34.7713 9.14079 34.8756C9.23048 35.2413 9.27049 35.6226 9.25921 36.0043V36.3968C9.89427 35.9452 10.4216 35.2972 10.7886 34.5174C11.1556 33.7376 11.3494 32.8533 11.3507 31.9529V23.6676C11.3495 22.7677 11.1559 21.8839 10.7892 21.1044C10.4224 20.325 9.89545 19.6772 9.26081 19.2257Z" fill="#E31B23"/>
<path d="M12.709 18.1616C11.8155 16.813 10.6151 15.8209 9.26058 15.3115H9.25098V17.0781H9.26378C10.3445 17.5984 11.273 18.5045 11.9292 19.6793C12.5853 20.8541 12.939 22.2434 12.9442 23.6675V31.9606C12.9391 33.3849 12.5855 34.7745 11.9293 35.9496C11.2732 37.1248 10.3446 38.0313 9.26378 38.5519V40.3381V40.3224C10.7226 39.7745 11.9996 38.6668 12.9069 37.1624C13.8143 35.6579 14.3041 33.8359 14.3044 31.9645V23.6675C14.3019 21.6623 13.7387 19.7189 12.709 18.1616Z" fill="#E31B23"/>
<path d="M4.34597 28.7551C4.35044 28.642 4.33615 28.529 4.30395 28.4229C4.27175 28.3168 4.22231 28.2198 4.15865 28.1378C4.09498 28.0559 4.01841 27.9906 3.93357 27.946C3.84873 27.9014 3.75739 27.8784 3.66509 27.8784C3.57279 27.8784 3.48145 27.9014 3.39661 27.946C3.31177 27.9906 3.23519 28.0559 3.17152 28.1378C3.10786 28.2198 3.05843 28.3168 3.02623 28.4229C2.99403 28.529 2.97973 28.642 2.9842 28.7551V31.9605C2.98497 32.8586 3.1774 33.7408 3.54236 34.5194C3.90731 35.298 4.43208 35.9458 5.06447 36.3985H5.07887C5.0824 35.9667 5.11074 35.5358 5.16368 35.1089C5.18671 34.9148 5.23084 34.7253 5.2949 34.5456C4.9975 34.2199 4.75942 33.8211 4.59619 33.3749C4.43295 32.9288 4.34824 32.4455 4.34757 31.9565L4.34597 28.7551Z" fill="#E31B23"/>
<path d="M5.07137 38.5503H1.3909V17.0785H5.07137V16.2501V15.3099C5.07137 15.3099 1.70294 15.2432 0.03073 15.3099C0.00992735 20.5076 0.03073 26.7534 0.03073 31.9609C0.03073 32.7107 0.03073 40.3188 0.03073 40.3188C0.03073 40.3188 4.43449 40.2344 5.06657 40.3188V40.3365V38.5522L5.07137 38.5503Z" fill="#E31B23"/>
<path d="M93.3334 37.8593C92.9814 38.4698 92.7061 39.1901 92.2549 39.6573C91.874 40.0499 91.2948 40.1539 90.6723 40.4424C90.6723 40.4954 90.6563 40.7545 90.6515 41.0136C90.6275 42.5839 90.6515 44.1542 90.5603 45.7245C90.5267 46.3349 90.301 46.9591 90.0626 47.5146C89.6994 48.3606 89.1649 48.8337 88.2816 48.7964C86.2989 48.7139 84.3131 48.7709 82.3288 48.7709H81.6583V46.2957H87.3983V38.5718C86.6318 40.1755 85.478 40.307 84.2315 40.2304C83.3706 40.1794 82.5065 40.1833 81.6455 40.2304C80.4566 40.2933 79.6645 39.622 79.1476 38.3638C79.1028 38.2578 79.0548 38.1537 78.9876 37.9908C78.8004 38.3324 78.65 38.6386 78.4739 38.9193C77.9475 39.7692 77.2802 40.2579 76.3713 40.2304C75.2287 40.1951 74.0862 40.2304 72.9436 40.2187C71.5035 40.2069 70.7754 39.2117 70.9066 37.3941C71.6923 37.188 72.4252 36.8053 72.8396 35.867C73.4589 34.4636 73.5165 33.0385 72.7756 31.6822C72.3884 30.9716 71.8475 30.3847 71.4682 29.6702C70.9882 28.7595 70.5993 27.7741 70.1641 26.8064C70.0041 27.2991 69.8216 27.8742 69.644 28.4513C68.5031 32.1807 67.3589 35.8906 66.2356 39.618C66.0948 40.0832 65.9155 40.2481 65.5011 40.2344C64.1857 40.1971 62.8656 40.148 61.555 40.2344C60.1676 40.3345 59.0619 39.9046 58.4074 38.2401C58.1706 38.6091 57.9881 38.931 57.7769 39.2215C57.5588 39.5439 57.2839 39.8013 56.9729 39.9744C56.6619 40.1474 56.3229 40.2316 55.9815 40.2206C54.8789 40.199 53.7764 40.2206 52.6739 40.2206C50.8496 40.2206 49.6479 38.9801 49.5855 36.713C49.4959 33.4703 49.5359 30.2218 49.5855 26.9772C49.6015 25.825 49.9311 24.7003 50.6848 23.9681C51.1649 23.5049 51.8049 23.0633 52.3826 23.0456C55.327 22.9553 58.2746 23.0063 61.2221 23.0103C61.3003 23.0237 61.3774 23.0454 61.4526 23.075V37.4157C62.1279 37.4157 62.7455 37.455 63.3568 37.3882C63.5168 37.3725 63.6977 37.0447 63.7697 36.8151C65.0914 32.6008 66.3956 28.3748 67.7062 24.1625C67.919 23.4755 67.9974 22.5352 68.4071 22.1819C68.8167 21.8286 69.564 22.0622 70.1673 22.0485C70.6057 22.0386 71.0442 22.0485 71.5675 22.0485C70.849 24.1134 71.7899 25.3009 72.934 26.4158C74.1278 27.5778 75.2879 28.783 76.0624 30.4475C77.0322 32.5321 77.0049 34.5597 75.8944 36.0594C75.5296 36.552 75.0431 36.9073 74.5854 37.3529H78.7684V23.075H81.9016V37.3784H87.4271V23.0809H90.6467V37.4098H93.3334V37.8593ZM52.7603 25.8858V37.3823H58.217V25.8839L52.7603 25.8858Z" fill="black"/>
<path d="M19.4952 40.1774V36.3419C19.4952 32.3351 19.491 28.3282 19.4824 24.3213C19.4824 23.2378 19.6585 22.223 20.1753 21.326C20.7674 20.2975 21.5515 19.7832 22.6636 20.0207V37.3607H28.8564V18.1246H17.0037C16.8933 16.6151 17.9943 15.3177 19.3512 15.3118C21.8155 15.298 24.2814 15.3118 26.7473 15.3118H28.9668C30.6806 15.3118 31.6951 16.356 31.9768 18.4367C32.041 18.8964 32.0742 19.3619 32.076 19.8283C32.0824 25.1385 32.0824 30.4488 32.076 35.759C32.076 37.1526 31.8664 38.4933 30.9559 39.4335C30.5702 39.826 30.0085 40.1774 29.5157 40.1872C26.2897 40.2539 23.0621 40.2225 19.8361 40.2206C19.7577 40.2186 19.6601 40.197 19.4952 40.1774Z" fill="black"/>
<path d="M47.1114 32.6676H38.1503V37.3883H47.9003C47.7627 39.0999 46.7801 40.2148 45.4536 40.2187C42.9685 40.2187 40.4834 40.2187 37.9967 40.2187C36.2973 40.2187 35.2267 39.094 34.9947 37.0075C34.9293 36.3242 34.9015 35.6363 34.9115 34.9484C34.9019 32.4163 34.9019 29.8836 34.9115 27.3502C34.9115 26.0351 35.1675 24.8201 35.9516 23.8465C36.1503 23.5849 36.3912 23.377 36.659 23.2361C36.9268 23.0952 37.2156 23.0243 37.507 23.028C39.8337 23.028 42.1588 23.028 44.4839 23.028C45.6472 23.028 46.3193 23.8995 46.7545 25.0831C46.9582 25.6175 47.0746 26.1956 47.097 26.7849C47.1386 28.6987 47.1114 30.6203 47.1114 32.6676ZM43.887 25.8918H38.1631V30.3082H43.887V25.8918Z" fill="black"/>
<path d="M5.06395 9.98635L5.18236 8.01171L5.06395 7.83898C4.59729 7.20834 4.33737 6.38821 4.33425 5.53653V0.876683C4.33873 0.763597 4.32443 0.650575 4.29223 0.544469C4.26003 0.438363 4.21059 0.341383 4.14693 0.259409C4.08326 0.177435 4.00669 0.112174 3.92185 0.0675835C3.83701 0.0229925 3.74567 0 3.65337 0C3.56107 0 3.46973 0.0229925 3.38489 0.0675835C3.30005 0.112174 3.22347 0.177435 3.15981 0.259409C3.09614 0.341383 3.04671 0.438363 3.01451 0.544469C2.98231 0.650575 2.96801 0.763597 2.97248 0.876683V5.53653C2.97255 6.43803 3.16581 7.32367 3.53289 8.10466C3.89997 8.88566 4.42796 9.53457 5.06395 9.98635Z" fill="#07A2E1"/>
<path d="M9.2522 9.98635C9.8873 9.53383 10.4143 8.8846 10.7805 8.10365C11.1467 7.32271 11.3393 6.43746 11.3389 5.53653V0.876683C11.3433 0.763597 11.329 0.650575 11.2968 0.544469C11.2646 0.438363 11.2152 0.341383 11.1515 0.259409C11.0879 0.177435 11.0113 0.112174 10.9265 0.0675835C10.8416 0.0229925 10.7503 0 10.658 0C10.5657 0 10.4743 0.0229925 10.3895 0.0675835C10.3047 0.112174 10.2281 0.177435 10.1644 0.259409C10.1008 0.341383 10.0513 0.438363 10.0191 0.544469C9.98692 0.650575 9.97263 0.763597 9.9771 0.876683V5.53653C9.97292 6.38512 9.71498 7.2023 9.2522 7.83309L9.13379 8.00778L9.2522 9.98635Z" fill="#07A2E1"/>
<path d="M5.0647 13.9239V12.1318C3.98342 11.6111 3.05459 10.7039 2.39862 9.52798C1.74266 8.35201 1.38982 6.96145 1.38584 5.53656V0.876709C1.38584 0.65494 1.31402 0.442254 1.18617 0.285439C1.05833 0.128625 0.884944 0.0405273 0.704149 0.0405273C0.523355 0.0405273 0.349965 0.128625 0.222124 0.285439C0.0942833 0.442254 0.0224629 0.65494 0.0224629 0.876709V5.53656C0.021319 7.4094 0.510723 9.23314 1.41854 10.739C2.32635 12.2448 3.60454 13.353 5.0647 13.9003V13.9239Z" fill="#07A2E1"/>
<path d="M13.6043 0.0405366C13.4235 0.0405366 13.2502 0.128634 13.1223 0.285449C12.9945 0.442263 12.9227 0.654949 12.9227 0.876718V5.53657C12.9243 6.96282 12.5734 8.35618 11.9164 9.53289C11.2593 10.7096 10.3269 11.6144 9.24219 12.1279V13.918V13.8945C10.7031 13.3501 11.9824 12.2435 12.891 10.7384C13.7997 9.23326 14.2893 7.40943 14.2876 5.53657V0.876718C14.2878 0.766671 14.2703 0.65766 14.236 0.555964C14.2017 0.454268 14.1514 0.361897 14.0879 0.284173C14.0244 0.206449 13.9489 0.144907 13.866 0.103093C13.783 0.0612788 13.6941 0.0400184 13.6043 0.0405366Z" fill="#07A2E1"/>
<path d="M5.06269 9.98654V16.3659V17.1844V19.3318C5.06269 20.1993 5.04669 20.6037 5.1827 21.3064C5.33472 22.0798 6.14282 23.0318 7.16055 23.0298C7.5942 23.0254 8.01629 22.8578 8.36974 22.5495C8.72319 22.2413 8.99095 21.8074 9.1368 21.3064C9.26321 20.6783 9.24881 20.5684 9.25521 19.3318V18.0206V9.13662C9.26649 8.75498 9.22649 8.37367 9.1368 8.00797C8.78635 6.93232 7.74142 5.82722 6.32205 6.48675C6.01633 6.62176 5.74629 6.85618 5.54081 7.16493C5.33533 7.47368 5.20214 7.84515 5.1555 8.23959C5.08597 8.81785 5.05493 9.4021 5.06269 9.98654ZM7.89024 20.4545C7.89024 20.6929 7.81303 20.9216 7.67558 21.0902C7.53814 21.2588 7.35173 21.3535 7.15735 21.3535C6.96298 21.3535 6.77656 21.2588 6.63912 21.0902C6.50167 20.9216 6.42446 20.6929 6.42446 20.4545V8.85593C6.42446 8.6175 6.50167 8.38884 6.63912 8.22024C6.77656 8.05165 6.96298 7.95693 7.15735 7.95693C7.35173 7.95693 7.53814 8.05165 7.67558 8.22024C7.81303 8.38884 7.89024 8.6175 7.89024 8.85593V20.4545Z" fill="#07A2E1"/>
<path d="M5.06562 36.864V43.2433V44.0618V46.2092C5.06562 47.0768 5.04802 47.4812 5.18563 48.1839C5.33605 48.9572 6.14576 49.9092 7.16189 49.9073C7.59581 49.9033 8.01826 49.7358 8.37203 49.4276C8.72579 49.1193 8.99379 48.6851 9.13974 48.1839C9.26616 47.5557 9.25176 47.4458 9.25656 46.2092V44.8941V36.0141C9.26854 35.6318 9.22852 35.2497 9.13814 34.8835C8.7893 33.8098 7.74436 32.7047 6.32498 33.3642C6.01926 33.4992 5.74922 33.7336 5.54374 34.0424C5.33826 34.3511 5.20507 34.7226 5.15843 35.117C5.0889 35.6953 5.05786 36.2796 5.06562 36.864ZM7.89158 47.3457C7.89621 47.4672 7.88071 47.5885 7.846 47.7024C7.8113 47.8163 7.75812 47.9204 7.68969 48.0084C7.62125 48.0963 7.53898 48.1664 7.44784 48.2142C7.35671 48.262 7.25861 48.2867 7.15949 48.2867C7.06036 48.2867 6.96226 48.262 6.87113 48.2142C6.78 48.1664 6.69772 48.0963 6.62929 48.0084C6.56085 47.9204 6.50767 47.8163 6.47297 47.7024C6.43827 47.5885 6.42276 47.4672 6.42739 47.3457V35.7334C6.42276 35.6119 6.43827 35.4906 6.47297 35.3767C6.50767 35.2628 6.56085 35.1587 6.62929 35.0707C6.69772 34.9828 6.78 34.9127 6.87113 34.8649C6.96226 34.8171 7.06036 34.7924 7.15949 34.7924C7.25861 34.7924 7.35671 34.8171 7.44784 34.8649C7.53898 34.9127 7.62125 34.9828 7.68969 35.0707C7.75812 35.1587 7.8113 35.2628 7.846 35.3767C7.88071 35.4906 7.89621 35.6119 7.89158 35.7334V47.3457Z" fill="#07A2E1"/>
<path d="M9.24404 46.2168L9.12402 48.1895L9.24084 48.3622C9.70705 48.9908 9.96699 49.809 9.97054 50.6588V55.3265C9.96606 55.4396 9.98036 55.5526 10.0126 55.6587C10.0448 55.7648 10.0942 55.8618 10.1579 55.9437C10.2215 56.0257 10.2981 56.091 10.3829 56.1356C10.4678 56.1802 10.5591 56.2031 10.6514 56.2031C10.7437 56.2031 10.8351 56.1802 10.9199 56.1356C11.0047 56.091 11.0813 56.0257 11.145 55.9437C11.2087 55.8618 11.2581 55.7648 11.2903 55.6587C11.3225 55.5526 11.3368 55.4396 11.3323 55.3265V50.6588C11.3316 49.7589 11.1384 48.8751 10.7719 48.0956C10.4054 47.3161 9.8786 46.6683 9.24404 46.2168Z" fill="#07A2E1"/>
<path d="M5.05665 46.2149C4.42346 46.6679 3.89815 47.3166 3.53314 48.0964C3.16812 48.8762 2.97616 49.7597 2.97639 50.6588V55.3265C2.97192 55.4396 2.98621 55.5526 3.01841 55.6588C3.05061 55.7649 3.10005 55.8618 3.16371 55.9438C3.22738 56.0258 3.30395 56.091 3.38879 56.1356C3.47363 56.1802 3.56497 56.2032 3.65727 56.2032C3.74957 56.2032 3.84091 56.1802 3.92575 56.1356C4.01059 56.091 4.08717 56.0258 4.15084 55.9438C4.2145 55.8618 4.26393 55.7649 4.29613 55.6588C4.32833 55.5526 4.34263 55.4396 4.33816 55.3265V50.6588C4.34199 49.8108 4.6 48.994 5.06305 48.3642L5.18147 48.1895L5.19907 48.1562L5.07906 46.2051L5.05665 46.2149Z" fill="#07A2E1"/>
<path d="M9.24414 42.2793V44.0694C10.3248 44.5897 11.2534 45.4958 11.9095 46.6706C12.5657 47.8454 12.9193 49.2347 12.9246 50.6588V55.3265C12.9201 55.4396 12.9344 55.5526 12.9666 55.6587C12.9988 55.7648 13.0483 55.8618 13.1119 55.9438C13.1756 56.0257 13.2522 56.091 13.337 56.1356C13.4218 56.1802 13.5132 56.2032 13.6055 56.2032C13.6978 56.2032 13.7891 56.1802 13.874 56.1356C13.9588 56.091 14.0354 56.0257 14.099 55.9438C14.1627 55.8618 14.2121 55.7648 14.2443 55.6587C14.2765 55.5526 14.2908 55.4396 14.2864 55.3265V50.6588C14.2868 48.7874 13.7971 46.9653 12.8897 45.461C11.9822 43.9566 10.7048 42.8496 9.24574 42.3029V42.2793H9.24414Z" fill="#07A2E1"/>
<path d="M0.700616 56.1627C0.88141 56.1627 1.0548 56.0746 1.18264 55.9178C1.31048 55.7609 1.3823 55.5483 1.3823 55.3265V50.6588C1.38013 49.2321 1.73074 47.8382 2.38784 46.661C3.04494 45.4839 3.97763 44.5788 5.06277 44.0654L5.07077 42.3224V42.2949H5.04997C3.59125 42.8431 2.31487 43.952 1.40925 45.458C0.503635 46.9641 0.0167684 48.7874 0.0205294 50.6588V55.3265C0.020319 55.4362 0.0377546 55.5449 0.0718379 55.6463C0.105921 55.7478 0.155983 55.84 0.219155 55.9176C0.282328 55.9953 0.357372 56.0569 0.439988 56.099C0.522604 56.141 0.611171 56.1627 0.700616 56.1627Z" fill="#07A2E1"/>
</svg>
