<svg width="328" height="246" viewBox="0 0 328 246" fill="none" xmlns="http://www.w3.org/2000/svg">
<path d="M317.01 231.975C308.871 241.951 116.773 237.304 84.729 237.738C3.06296 182.591 -3.54932 109.006 13.3491 61.7908C20.9786 40.4756 42.6245 17.7971 68.4518 13.0262C100.157 7.13943 128.076 31.739 140.736 42.9544C179.846 77.5293 179.563 113.53 201.378 115.512C225.341 117.681 233.592 71.085 267.954 68.6684C289.204 67.1814 304.35 83.5392 306.215 85.5842C323.961 105.35 325.883 138.748 314.071 158.143C302.485 177.165 279.766 179.334 280.613 186.646C281.348 193.585 305.198 189.124 316.501 204.924C324.018 215.644 324.752 222.557 317.01 231.975Z" fill="#B5CDFB" fill-opacity="0.2"/>
<path d="M69.923 90.7858C82.8399 83.6478 96.1692 85.6225 96.1692 85.6225L98.1844 91.8612V101.757C98.1844 101.757 93.4519 102.915 90.8698 104.554C89.209 105.608 86.9973 107.775 86.9973 107.775C90.999 107.633 95.0448 106.622 97.4597 105.415C102.193 103.048 106.71 100.251 106.71 100.251L117.252 100.682L118.113 114.02C118.113 114.02 115.1 121.119 104.774 127.143C94.448 133.167 86.3429 135.46 72.7201 133.382C63.8997 132.036 61.533 126.498 60.2422 124.777C58.9513 123.055 57.8759 110.363 57.8759 110.363C55.9393 104.339 61.748 95.3037 69.923 90.7858Z" fill="#FFBC00"/>
<path d="M69.4929 91.0008C82.4094 83.8628 96.1688 85.6224 96.1688 85.6224L98.1843 91.8612V101.757C98.1843 101.757 93.4518 102.915 90.8697 104.554C89.209 105.608 86.9972 107.775 86.9972 107.775C90.9985 107.633 95.0447 106.622 97.4596 105.415C102.193 103.048 106.71 100.251 106.71 100.251L117.252 100.682C117.252 100.682 110.231 112.754 94.5268 118.107C81.9034 122.41 61.286 120.591 57.8758 110.362C55.9396 104.554 61.3175 95.5187 69.4929 91.0008Z" fill="#445ED4"/>
<path d="M82.6944 94.2275C77.9615 96.8091 75.5568 100.516 77.3161 103.909C78.8452 106.858 82.8702 107.921 86.9973 107.775C86.9973 107.775 89.2087 105.608 90.8698 104.554C93.4519 102.915 98.184 101.757 98.184 101.757V91.8612C98.184 91.8612 87.4273 91.6462 82.6944 94.2275Z" fill="#FFBC00"/>
<path d="M82.6944 94.2275C77.9615 96.8091 75.5568 100.516 77.3161 103.909C78.8452 106.858 82.8702 107.921 86.9973 107.775C86.9973 107.775 89.2087 105.608 90.8698 104.554C93.4519 102.915 98.184 101.757 98.184 101.757V91.8612C98.184 91.8612 87.4273 91.6462 82.6944 94.2275Z" fill="black" fill-opacity="0.2"/>
<path d="M160.957 239.891L63.6291 169.147C62.796 168.542 62.1547 167.794 61.7022 166.969C60.0962 164.04 60.8741 160.136 63.9503 158.164L190.577 76.9934C192.748 75.6012 195.529 75.5902 197.713 76.9648L288.166 133.703C288.932 134.185 291.425 136.364 292.163 137.03C294.376 139.026 293.75 143.903 290.794 146.173L168.921 239.786C166.583 241.582 163.342 241.624 160.957 239.891Z" fill="#FFBC00"/>
<path d="M128.008 12.2625L132.311 122.41L234.283 189.961L241.598 76.3716L128.008 12.2625Z" fill="#FFBC00"/>
<path d="M121.985 13.9835L126.288 124.131L228.26 191.682L235.574 78.0929L121.985 13.9835Z" fill="#2DB0E2"/>
<path d="M121.985 13.9835L126.288 124.131L228.26 191.682L235.574 78.0929L121.985 13.9835Z" fill="#2DB0E2"/>
<path d="M194.699 156.114V137.182L217.718 151.668L216.643 170.313L194.699 156.114Z" fill="#FFBC00"/>
<path d="M162.86 134.887V115.956L184.803 130.155V149.086L162.86 134.887Z" fill="#FFBC00"/>
<path d="M131.881 115.095V96.1638L153.824 109.932V129.294L131.881 115.095Z" fill="#FFBC00"/>
<path d="M168.105 128.71L173.698 137.12L184.715 121.351C185.009 120.931 184.463 120.468 184.084 120.804L173.656 130.771L168.61 128.121C168.231 127.911 167.853 128.332 168.105 128.71Z" fill="#445ED4"/>
<path d="M199.944 148.502L205.537 156.912L216.554 141.143C216.849 140.723 216.302 140.261 215.924 140.597L205.495 150.563L200.449 147.914C200.071 147.703 199.692 148.124 199.944 148.502Z" fill="#445ED4"/>
<path d="M137.126 108.058L142.719 116.468L153.736 100.699C154.03 100.278 153.484 99.8155 153.105 100.152L142.677 110.118L137.63 107.469C137.252 107.258 136.873 107.679 137.126 108.058Z" fill="#445ED4"/>
<path d="M160.243 60.4087C160.243 60.1107 160.09 59.8344 159.836 59.6775L139.316 46.9572C138.742 46.6015 138.002 47.014 138.002 47.6884V49.0226C138.002 49.3197 138.155 49.5956 138.407 49.753L158.928 62.5481C159.501 62.9054 160.243 62.4933 160.243 61.8177V60.4087Z" fill="#FFBC00"/>
<path d="M145.619 58.3748C145.619 58.0768 145.464 57.8 145.211 57.6431L139.413 54.0485C138.839 53.6933 138.098 54.1054 138.098 54.7798V56.3163C138.098 56.6151 138.254 56.8926 138.508 57.0492L144.307 60.6139C144.881 60.9666 145.619 60.5538 145.619 59.881V58.3748Z" fill="#FFBC00"/>
<path d="M154.374 69.694C154.374 69.396 154.22 69.1193 153.966 68.9623L139.086 59.738C138.513 59.3828 137.772 59.7953 137.772 60.4697V61.7111C137.772 62.0087 137.926 62.285 138.179 62.4423L153.059 71.6854C153.633 72.0414 154.374 71.6294 154.374 70.9546V69.694Z" fill="#FFBC00"/>
<path d="M188.935 78.1938C188.935 77.8962 188.782 77.6195 188.528 77.4626L168.007 64.7423C167.434 64.3871 166.694 64.7991 166.694 65.4735V66.9834C166.694 67.279 166.845 67.5536 167.095 67.711L187.615 80.6704C188.189 81.0322 188.935 80.6206 188.935 79.9429V78.1938Z" fill="#FFBC00"/>
<path d="M178.74 78.7506C178.74 78.453 178.586 78.1763 178.333 78.0194L172.534 74.4248C171.961 74.0692 171.22 74.4816 171.22 75.1561V76.4003C171.22 76.6991 171.376 76.9766 171.63 77.1332L177.429 80.6979C178.002 81.0507 178.74 80.6378 178.74 79.965V78.7506Z" fill="#FFBC00"/>
<path d="M180.478 86.6632C180.478 86.3652 180.324 86.0884 180.071 85.9319L165.19 76.7076C164.617 76.352 163.876 76.7645 163.876 77.4389V78.8961C163.876 79.1912 164.027 79.4659 164.277 79.6237L179.158 89.0261C179.731 89.3883 180.478 88.9767 180.478 88.299V86.6632Z" fill="#FFBC00"/>
<path d="M214.764 94.2042C214.764 93.9066 214.61 93.6299 214.357 93.4729L193.836 80.7526C193.263 80.3974 192.522 80.8095 192.522 81.4839V83.5125C192.522 83.8113 192.677 84.0884 192.931 84.2454L213.452 96.8766C214.026 97.2294 214.764 96.8169 214.764 96.1437V94.2042Z" fill="#FFBC00"/>
<path d="M211.944 99.3328C211.944 99.0348 211.79 98.7585 211.537 98.6016L205.738 95.0066C205.164 94.6514 204.424 95.0638 204.424 95.7383V97.2122C204.424 97.5061 204.574 97.7796 204.821 97.9373L210.62 101.639C211.193 102.005 211.944 101.594 211.944 100.914V99.3328Z" fill="#FFBC00"/>
<path d="M209.141 104.43C209.141 104.133 208.987 103.856 208.733 103.699L193.853 94.4747C193.279 94.1195 192.539 94.532 192.539 95.2064V97.0274C192.539 97.325 192.693 97.6013 192.946 97.7582L207.826 107.002C208.4 107.358 209.141 106.945 209.141 106.27V104.43Z" fill="#FFBC00"/>
<path d="M215.296 129.427L133.103 76.6091C131.538 75.6106 131.538 73.2991 131.538 70.2862L131.021 36.1253C131.021 33.1985 133.103 31.3248 136.502 33.3013L221.709 83.5375C223.792 84.8283 223.274 86.8831 223.274 89.8604L221.268 127.735C221.268 130.585 217.718 131.445 215.296 129.427Z" fill="#FFBC00"/>
<path d="M160.243 60.4088C160.243 60.1108 160.089 59.8341 159.836 59.6771L139.315 46.9568C138.742 46.6016 138.002 47.014 138.002 47.6885V49.0226C138.002 49.3198 138.155 49.5957 138.407 49.7526L158.928 62.5477C159.501 62.9054 160.243 62.4934 160.243 61.8177V60.4088Z" fill="#2DB0E2"/>
<path d="M145.618 58.3744C145.618 58.0764 145.464 57.8001 145.211 57.6431L139.412 54.0486C138.839 53.693 138.098 54.1054 138.098 54.7798V56.3159C138.098 56.6151 138.253 56.8927 138.508 57.0492L144.307 60.6139C144.88 60.9663 145.618 60.5538 145.618 59.8806V58.3744Z" fill="#2DB0E2"/>
<path d="M154.374 69.6936C154.374 69.3956 154.219 69.1193 153.966 68.9623L139.085 59.738C138.512 59.3824 137.772 59.7949 137.772 60.4693V61.7111C137.772 62.0087 137.925 62.285 138.178 62.4419L153.059 71.6854C153.632 72.0414 154.374 71.629 154.374 70.9541V69.6936Z" fill="#2DB0E2"/>
<path d="M188.936 78.1939C188.936 77.8959 188.781 77.6192 188.528 77.4626L168.007 64.7423C167.434 64.3867 166.693 64.7991 166.693 65.4736V66.9835C166.693 67.2786 166.845 67.5533 167.095 67.7111L187.615 80.6701C188.188 81.0322 188.936 80.6202 188.936 79.9425V78.1939Z" fill="#2DB0E2"/>
<path d="M178.74 78.7506C178.74 78.4526 178.586 78.1759 178.333 78.0189L172.534 74.4244C171.96 74.0692 171.22 74.4812 171.22 75.156V76.3999C171.22 76.6991 171.375 76.9766 171.63 77.1332L177.429 80.6979C178.002 81.0502 178.74 80.6378 178.74 79.9646V78.7506Z" fill="#2DB0E2"/>
<path d="M180.478 86.6627C180.478 86.3652 180.324 86.0884 180.071 85.9315L165.19 76.7072C164.616 76.352 163.876 76.764 163.876 77.4389V78.8961C163.876 79.1912 164.027 79.4659 164.277 79.6232L179.158 89.0261C179.731 89.3883 180.478 88.9763 180.478 88.2986V86.6627Z" fill="#2DB0E2"/>
<path d="M214.763 94.2042C214.763 93.9062 214.61 93.6295 214.356 93.4729L193.836 80.7522C193.262 80.397 192.522 80.8094 192.522 81.4839V83.5121C192.522 83.8109 192.677 84.0884 192.931 84.245L213.452 96.8762C214.025 97.2289 214.763 96.8165 214.763 96.1433V94.2042Z" fill="#2DB0E2"/>
<path d="M211.943 99.3328C211.943 99.0348 211.79 98.7581 211.536 98.6011L205.737 95.0065C205.164 94.6513 204.424 95.0634 204.424 95.7378V97.2118C204.424 97.5056 204.573 97.7791 204.821 97.9373L210.62 101.639C211.193 102.005 211.943 101.593 211.943 100.914V99.3328Z" fill="#2DB0E2"/>
<path d="M209.141 104.43C209.141 104.132 208.987 103.856 208.733 103.699L193.853 94.4747C193.279 94.1191 192.539 94.5316 192.539 95.206V97.027C192.539 97.3245 192.693 97.6013 192.945 97.7582L207.826 107.001C208.399 107.357 209.141 106.945 209.141 106.27V104.43Z" fill="#2DB0E2"/>
<path d="M245.47 84.1162L247.837 19.7921L257.088 13.9835C257.088 13.9835 281.398 27.1066 296.241 35.7118C313.237 45.5642 323.238 58.7431 317.755 80.6741C315.818 88.4191 310.44 94.0125 310.44 94.0125L298.393 102.402C292.154 107.351 278.816 104.124 262.896 94.8729C249.015 86.807 245.47 84.1162 245.47 84.1162Z" fill="#2DB0E2"/>
<path d="M307.858 84.3316C312.716 66.6908 306.353 52.9225 289.788 43.2412C273.222 33.5605 247.837 19.7921 247.837 19.7921L257.088 13.9835C257.088 13.9835 287.308 30.3432 293.875 34.2059C300.442 38.0686 321.627 50.2693 319.045 72.0691C317.78 82.7539 316.033 89.5485 309.58 94.6579C306.792 96.8647 301.748 100.153 299.929 101.324C299.851 101.378 299.778 101.424 299.712 101.464C299.419 101.652 299.253 101.757 299.253 101.757C299.204 101.692 299.37 101.668 299.712 101.464C299.778 101.421 299.851 101.374 299.929 101.324C301.245 100.417 304.314 97.2052 307.858 84.3316Z" fill="#FFBC00"/>
<path d="M273.438 50.9637C277.545 53.0688 282.043 55.7563 285.27 57.44C288.497 59.1236 295.446 62.6033 295.446 68.8421C295.446 78.5977 284.409 72.7146 284.409 72.7146L271.716 65.8304L273.438 50.9637Z" fill="#FFBC00"/>
<path d="M273.438 50.9637C277.545 53.0688 282.043 55.7563 285.27 57.44C288.497 59.1236 295.446 62.6033 295.446 68.8421C295.446 78.5977 284.409 72.7146 284.409 72.7146L271.716 65.8304L273.438 50.9637Z" fill="black" fill-opacity="0.2"/>
<path d="M280.107 80.8781C271.286 77.1605 262.25 72.6426 262.25 72.6426L271.716 65.7584L284.409 72.6426C284.409 72.6426 294.286 78.4513 295.491 68.7705C295.514 70.4779 295.192 72.4435 294.52 74.7943C291.939 83.8297 285.485 83.145 280.107 80.8781Z" fill="#FFBC00"/>
<path d="M280.107 80.8781C271.286 77.1605 262.25 72.6426 262.25 72.6426L271.716 65.7584L284.409 72.6426C284.409 72.6426 294.286 78.4513 295.491 68.7705C295.514 70.4779 295.192 72.4435 294.52 74.7943C291.939 83.8297 285.485 83.145 280.107 80.8781Z" fill="black" fill-opacity="0.12"/>
<path d="M262.25 72.7146L264.617 46.6837C264.617 46.6837 268.382 48.3731 273.438 50.9637L271.716 65.8304L262.25 72.7146Z" fill="#FFBC00"/>
<path d="M262.25 72.7146L264.617 46.6837C264.617 46.6837 268.382 48.3731 273.438 50.9637L271.716 65.8304L262.25 72.7146Z" fill="black" fill-opacity="0.08"/>
<path d="M274.634 123.167C274.634 123.167 282.089 127.532 287.064 130.461L287.68 116.079L275.176 108.355L274.634 123.167Z" fill="#FFBC00"/>
<path d="M250.952 108.394C250.952 108.394 258.408 112.76 263.382 115.688L263.999 101.306L251.924 93.7975L250.952 108.394Z" fill="#445ED4"/>
<path d="M298.281 137.222C298.281 137.222 305.736 141.587 310.711 144.516L311.328 130.134L298.795 122.84L298.281 137.222Z" fill="#2DB0E2"/>
<path d="M240.358 183.977C240.358 183.977 278.826 209.278 304.847 224.597L311.212 151.526L245.655 113.374L240.358 183.977Z" fill="#2DB0E2"/>
<path d="M42.636 27.4323C42.598 27.4323 42.56 27.4356 42.5236 27.4427C42.4001 27.4667 42.3507 27.525 42.4128 27.5727L83.6483 59.2185C83.7104 59.2663 83.8609 59.2855 83.9843 59.2614C84.1073 59.2373 84.1568 59.1793 84.0947 59.1314L42.8596 27.4855C42.8154 27.4518 42.7271 27.4323 42.636 27.4323Z" fill="#FFBC00"/>
<path d="M44.8764 83.2101C44.847 83.2101 44.8172 83.2036 44.7889 83.1893C44.6925 83.1406 44.6541 83.0233 44.7027 82.9273L76.873 19.1595C76.9216 19.0632 77.0389 19.0247 77.135 19.0732C77.231 19.1217 77.2699 19.2389 77.2212 19.3351L45.051 83.1026C45.0166 83.1709 44.948 83.2101 44.8764 83.2101Z" fill="#FFBC00"/>
<path d="M44.0967 50.2362C44.033 50.2362 43.9688 50.2342 43.9079 50.2297C43.7007 50.215 43.6173 50.1786 43.7219 50.1487L113.014 30.4772C113.119 30.4475 113.372 30.4356 113.579 30.4506C113.786 30.4655 113.869 30.5016 113.765 30.5314L44.4724 50.2031C44.3984 50.224 44.25 50.2362 44.0967 50.2362Z" fill="#FFBC00"/>
<path d="M29.048 13.9835H11.4072V182.216H29.048V13.9835Z" fill="#445ED4"/>
<path d="M34.2111 178.774H15.2795V10.1112H34.2111V178.774ZM16.2764 177.758H33.2143V11.1278H16.2764V177.758Z" fill="#FFBC00"/>
<path d="M59.8599 61.0485L52.7542 50.8968L57.9927 39.6668L70.3374 38.5886L77.4431 48.7398L72.2045 59.9702L59.8599 61.0485ZM53.203 50.8571L60.0503 60.6397L71.9462 59.6007L76.9943 48.7795L70.1465 38.9971L58.251 40.0362L53.203 50.8571ZM72.0754 59.7855H72.079H72.0754Z" fill="#FFBC00"/>
<path d="M41.7155 53.628C43.0088 53.628 44.0572 52.5795 44.0572 51.2866C44.0572 49.9933 43.0088 48.9453 41.7155 48.9453C40.4225 48.9453 39.3743 49.9933 39.3743 51.2866C39.3743 52.5795 40.4225 53.628 41.7155 53.628Z" fill="#445ED4"/>
<path d="M116.151 31.6849C117.445 31.6849 118.493 30.6364 118.493 29.3435C118.493 28.0502 117.445 27.002 116.151 27.002C114.858 27.002 113.81 28.0502 113.81 29.3435C113.81 30.6364 114.858 31.6849 116.151 31.6849Z" fill="#445ED4"/>
<path d="M79.3388 19.4768C81.925 19.4768 84.0214 17.3803 84.0214 14.794C84.0214 12.2078 81.925 10.1112 79.3388 10.1112C76.7526 10.1112 74.6558 12.2078 74.6558 14.794C74.6558 17.3803 76.7526 19.4768 79.3388 19.4768Z" fill="#FFBC00"/>
<path d="M46.5973 88.5553L50.0614 81.1287L42.6349 77.6646L39.1707 85.0911L46.5973 88.5553Z" fill="#0FDDE9"/>
<path d="M71.8092 55.7723L76.9525 44.7467L69.9755 34.7797L57.8557 35.8383L52.7124 46.864L59.6889 56.8309L71.8092 55.7723Z" fill="#FFBC00"/>
<path d="M39.8787 28.6656C41.8207 28.6656 43.3948 27.0913 43.3948 25.1494C43.3948 23.2074 41.8207 21.6332 39.8787 21.6332C37.9368 21.6332 36.3625 23.2074 36.3625 25.1494C36.3625 27.0913 37.9368 28.6656 39.8787 28.6656Z" fill="#445ED4"/>
<path d="M88.1761 69.9621C91.6035 69.9621 94.3817 67.1834 94.3817 63.7564C94.3817 60.3291 91.6035 57.5508 88.1761 57.5508C84.7487 57.5508 81.9705 60.3291 81.9705 63.7564C81.9705 67.1834 84.7487 69.9621 88.1761 69.9621Z" fill="#445ED4"/>
<path d="M113.604 61.2325H102.583C102.368 61.2325 102.193 61.0579 102.193 60.8425C102.193 60.6271 102.368 60.4521 102.583 60.4521H113.604C113.82 60.4521 113.995 60.6271 113.995 60.8425C113.995 61.0579 113.82 61.2325 113.604 61.2325Z" fill="#445ED4"/>
<path d="M113.604 63.4924H102.583C102.367 63.4924 102.193 63.3174 102.193 63.1016C102.193 62.8862 102.367 62.7117 102.583 62.7117H113.604C113.82 62.7117 113.994 62.8862 113.994 63.1016C113.994 63.3174 113.82 63.4924 113.604 63.4924Z" fill="#445ED4"/>
<path d="M113.604 65.751H102.583C102.367 65.751 102.193 65.5765 102.193 65.3611C102.193 65.1453 102.367 64.9703 102.583 64.9703H113.604C113.82 64.9703 113.994 65.1453 113.994 65.3611C113.994 65.5765 113.82 65.751 113.604 65.751Z" fill="#445ED4"/>
<path d="M119.855 50.8612H103.261C102.671 50.8612 102.193 50.383 102.193 49.7927V48.6123C102.193 48.0224 102.671 47.5442 103.261 47.5442H119.855C120.446 47.5442 120.924 48.0224 120.924 48.6123V49.7927C120.924 50.383 120.446 50.8612 119.855 50.8612Z" fill="#445ED4"/>
<path d="M104.992 30.599H88.3967C87.7002 30.599 87.1333 30.0321 87.1333 29.3357V28.1551C87.1333 27.4583 87.7002 26.8915 88.3967 26.8915H104.992C105.688 26.8915 106.255 27.4583 106.255 28.1551V29.3357C106.255 30.0321 105.688 30.599 104.992 30.599ZM88.3967 27.2819C87.9152 27.2819 87.5237 27.6738 87.5237 28.1551V29.3357C87.5237 29.817 87.9152 30.2085 88.3967 30.2085H104.992C105.473 30.2085 105.865 29.817 105.865 29.3357V28.1551C105.865 27.6738 105.473 27.2819 104.992 27.2819H88.3967Z" fill="#445ED4"/>
<path d="M104.992 35.3315H88.3967C87.7002 35.3315 87.1333 34.7646 87.1333 34.0683V32.8876C87.1333 32.1912 87.7002 31.6244 88.3967 31.6244H104.992C105.688 31.6244 106.255 32.1912 106.255 32.8876V34.0683C106.255 34.7646 105.688 35.3315 104.992 35.3315ZM88.3967 32.0145C87.9152 32.0145 87.5237 32.4064 87.5237 32.8876V34.0683C87.5237 34.5496 87.9152 34.9411 88.3967 34.9411H104.992C105.473 34.9411 105.865 34.5496 105.865 34.0683V32.8876C105.865 32.4064 105.473 32.0145 104.992 32.0145H88.3967Z" fill="#445ED4"/>
<path d="M104.992 40.0644H88.3967C87.7002 40.0644 87.1333 39.4976 87.1333 38.8012V37.6205C87.1333 36.9242 87.7002 36.3573 88.3967 36.3573H104.992C105.688 36.3573 106.255 36.9242 106.255 37.6205V38.8012C106.255 39.4976 105.688 40.0644 104.992 40.0644ZM88.3967 36.7473C87.9152 36.7473 87.5237 37.1392 87.5237 37.6205V38.8012C87.5237 39.2824 87.9152 39.674 88.3967 39.674H104.992C105.473 39.674 105.865 39.2824 105.865 38.8012V37.6205C105.865 37.1392 105.473 36.7473 104.992 36.7473H88.3967Z" fill="#445ED4"/>
<path d="M101.962 21.7882H91.0352C88.8807 21.7882 87.1333 20.0411 87.1333 17.8859C87.1333 15.7306 88.8807 13.9835 91.0352 13.9835H101.962C104.117 13.9835 105.864 15.7306 105.864 17.8859C105.864 20.0411 104.117 21.7882 101.962 21.7882Z" fill="#445ED4"/>
<path d="M102.157 22.1786H91.231C88.9719 22.1786 87.1333 20.3403 87.1333 18.0811C87.1333 15.8219 88.9719 13.9835 91.231 13.9835H102.157C104.416 13.9835 106.255 15.8219 106.255 18.0811C106.255 20.3403 104.416 22.1786 102.157 22.1786ZM91.231 14.374C89.1869 14.374 87.5237 16.037 87.5237 18.0811C87.5237 20.1252 89.1869 21.7882 91.231 21.7882H102.157C104.201 21.7882 105.865 20.1252 105.865 18.0811C105.865 16.037 104.201 14.374 102.157 14.374H91.231Z" fill="#4782FC"/>
<path d="M120.924 53.568H102.193V55.9093H120.924V53.568Z" fill="#445ED4"/>
<path d="M247.021 132.977L245.536 150.055C245.496 150.517 245.719 150.961 246.112 151.204L302.5 186.111C303.279 186.593 304.292 186.083 304.368 185.17L305.859 167.27C305.898 166.806 305.67 166.36 305.271 166.119L248.877 132.034C248.1 131.564 247.1 132.072 247.021 132.977Z" fill="#FFBC00"/>
<path d="M302.918 190.775L247.789 156.549C246.97 156.041 245.955 156.807 246.22 157.734C246.291 157.983 246.453 158.198 246.673 158.336L301.618 192.856C302.554 193.444 303.73 192.592 303.461 191.519C303.384 191.21 303.189 190.943 302.918 190.775Z" fill="#FFBC00"/>
<path d="M302.642 196.381L247.512 161.726C246.694 161.218 245.679 161.984 245.943 162.911C246.015 163.16 246.176 163.375 246.396 163.513L301.342 198.463C302.278 199.051 303.453 198.199 303.185 197.127C303.108 196.817 302.913 196.55 302.642 196.381Z" fill="#FFBC00"/>
<path d="M302.365 201.989L247.236 166.903C246.417 166.395 245.402 167.161 245.667 168.087C245.738 168.337 245.9 168.552 246.119 168.69L301.065 204.07C302.001 204.658 303.176 203.806 302.908 202.733C302.831 202.424 302.636 202.157 302.365 201.989Z" fill="#FFBC00"/>
<path d="M302.088 207.596L246.959 172.08C246.141 171.572 245.126 172.338 245.39 173.264C245.462 173.514 245.623 173.729 245.843 173.867L300.789 209.677C301.725 210.265 302.9 209.413 302.632 208.341C302.554 208.031 302.359 207.764 302.088 207.596Z" fill="#FFBC00"/>
<path d="M249.955 118.675C249.175 118.214 248.182 118.728 248.109 119.631L247.684 124.876C247.646 125.342 247.876 125.789 248.277 126.028L304.705 159.72C305.474 160.179 306.46 159.686 306.553 158.795L307.131 153.311C307.181 152.834 306.948 152.372 306.535 152.127L249.955 118.675Z" fill="#FFBC00"/>
<path d="M251.064 124.992C251.777 124.992 252.355 124.414 252.355 123.701C252.355 122.988 251.777 122.41 251.064 122.41C250.351 122.41 249.773 122.988 249.773 123.701C249.773 124.414 250.351 124.992 251.064 124.992Z" fill="#00A3FF"/>
<path d="M254.936 127.143C255.649 127.143 256.227 126.565 256.227 125.852C256.227 125.139 255.649 124.561 254.936 124.561C254.223 124.561 253.646 125.139 253.646 125.852C253.646 126.565 254.223 127.143 254.936 127.143Z" fill="#2DB0E2"/>
<path d="M258.808 129.294C259.521 129.294 260.099 128.716 260.099 128.003C260.099 127.29 259.521 126.713 258.808 126.713C258.095 126.713 257.518 127.29 257.518 128.003C257.518 128.716 258.095 129.294 258.808 129.294Z" fill="#445ED4"/>
<path d="M194.559 23.5991C199.947 23.5991 204.315 19.2312 204.315 13.8434C204.315 8.45535 199.947 4.08752 194.559 4.08752C189.171 4.08752 184.803 8.45535 184.803 13.8434C184.803 19.2312 189.171 23.5991 194.559 23.5991Z" fill="#FFBC00"/>
<path d="M53.1425 57.01H35.502V166.297H53.1425V57.01Z" fill="#445ED4"/>
</svg>
