<svg width="200" height="120" viewBox="0 0 200 120" fill="none" xmlns="http://www.w3.org/2000/svg">
<path d="M18.9419 113.36L18.7738 113.254C18.2081 112.691 17.4022 112.445 16.3735 112.507C15.621 112.57 14.8962 112.818 14.2647 113.23C14.2647 113.23 14.2647 113.213 14.2647 113.207C14.2717 112.919 14.2934 112.632 14.3298 112.346C14.3653 112.056 14.3859 111.765 14.3916 111.472C14.4004 111.201 14.3549 110.931 14.2578 110.677C14.2463 110.647 14.2256 110.621 14.1985 110.603C14.1714 110.585 14.1394 110.577 14.107 110.578C13.7627 110.611 13.43 110.719 13.1331 110.895L13.0611 111.056C13.0557 111.491 13.0075 111.924 12.9171 112.35L12.8794 112.456C12.7627 113.549 12.7627 114.653 12.8794 115.746C12.8794 115.842 13.0714 115.985 13.2223 116.037C13.5379 116.045 13.8515 115.984 14.1412 115.859L14.2441 115.842C14.2654 115.839 14.2858 115.832 14.3043 115.821C14.3228 115.81 14.3389 115.796 14.3517 115.779C14.3644 115.761 14.3736 115.742 14.3787 115.721C14.3838 115.7 14.3847 115.679 14.3813 115.658V115.388C14.5836 114.572 15.41 113.603 16.3598 113.456C16.5968 113.404 16.8432 113.417 17.0739 113.491C17.3046 113.565 17.5114 113.699 17.6731 113.879C17.7797 114.331 17.7034 114.807 17.4605 115.204C17.1177 115.765 16.5833 116.184 15.9552 116.385C15.2176 116.644 14.4351 116.753 13.6543 116.706L12.7765 116.136C12.0329 115.571 11.2277 115.091 10.3762 114.705C10.1784 114.598 9.99421 114.467 9.82755 114.316L9.74525 114.248C9.27891 113.876 8.39422 113.289 7.68785 112.817L7.3038 112.561C7.3038 112.534 7.3038 112.479 7.3038 112.479L7.77014 112.193C8.12109 112.021 8.44934 111.806 8.74741 111.554L8.82971 111.507L10.383 110.633C11.8712 109.817 13.5617 108.892 14.4499 107.977L14.491 107.837L14.5116 107.714C14.5646 107.545 14.5646 107.364 14.5116 107.195C14.5037 107.166 14.4885 107.14 14.4675 107.119C14.4464 107.099 14.4203 107.083 14.3916 107.076C13.7058 107.007 12.8039 107.417 11.9913 108.178C11.8425 108.316 11.6737 108.431 11.4906 108.52L11.3672 108.588C10.4722 109.096 8.45252 110.342 7.39638 111.018C7.4941 109.643 7.67387 108.276 7.93474 106.922L7.90387 106.761L7.79415 106.557L7.71185 106.413H7.68785C7.60964 106.375 7.52442 106.352 7.43723 106.347C7.35005 106.341 7.26269 106.354 7.18035 106.383L6.96775 106.458L6.68657 106.56C6.66003 106.565 6.63522 106.576 6.61472 106.594C6.59421 106.611 6.57877 106.634 6.56999 106.659C5.99566 108.205 5.64917 109.825 5.54128 111.469C4.76673 110.985 3.96535 110.545 3.14098 110.151H3.08611C2.88482 110.101 2.69507 110.013 2.52718 109.892L2.12942 109.649L1.54306 109.274L1.38875 109.24C1.04529 109.347 0.740376 109.551 0.510923 109.827C0.492057 109.855 0.482472 109.889 0.483491 109.923C0.48766 109.969 0.496857 110.015 0.510923 110.059L0.538355 110.179L0.565787 110.25C1.07851 110.696 1.6439 111.078 2.24943 111.387L3.05525 111.81L4.28969 112.493L4.49886 112.66L4.64631 112.742L4.67032 112.759L2.42774 114.251L1.24816 115.029C1.135 115.105 0.668657 115.313 0.562358 115.354C0.338472 115.43 0.149712 115.584 0.0308611 115.787L0 115.856L0.0308611 115.9L0.120015 115.968L0.24346 116.047L0.373762 116.136L0.493778 116.156C0.876808 116.104 1.2467 115.982 1.5842 115.794C2.11227 115.562 3.5456 114.702 4.15596 114.337L4.41657 114.179C4.54606 114.165 4.66679 114.107 4.75947 114.016C4.93183 113.884 5.11674 113.77 5.31154 113.674L5.49671 113.572C5.49671 113.599 5.49671 113.644 5.49671 113.644C5.48926 115.073 5.60398 116.501 5.83961 117.911V117.952C5.98906 118.266 6.10292 118.596 6.17908 118.935L6.41225 119.713C6.43238 119.739 6.45414 119.765 6.47741 119.788C6.72283 119.931 7.0026 120.004 7.28665 120H7.35523L7.39981 119.904C7.41966 119.792 7.42998 119.677 7.43067 119.563C7.43067 119.423 7.43067 119.266 7.40667 119.075L7.38952 118.791C7.3038 117.491 7.21807 115.61 7.21807 114.354V114.255L8.41137 115.002C10.0642 116.071 12.5639 117.685 14.0761 118.112C14.1134 118.124 14.1532 118.125 14.1912 118.116C14.2293 118.107 14.2641 118.088 14.2921 118.061L14.5253 117.914L14.5699 117.897C14.6202 117.856 14.6602 117.803 14.687 117.744C14.7137 117.685 14.7265 117.621 14.7242 117.556C15.9963 117.491 17.7726 117.003 18.7224 115.815C19.0632 115.384 19.2512 114.854 19.2573 114.306C19.2707 114.135 19.2497 113.964 19.1955 113.801C19.1414 113.639 19.0551 113.489 18.9419 113.36Z" fill="#FFBC00"/>
<path d="M124.682 113.569V116.818C124.682 117.098 124.624 117.197 124.339 117.262C124.174 117.301 124.003 117.309 123.835 117.286C123.461 117.245 123.341 117.081 123.358 116.706C123.382 116.088 123.403 115.47 123.424 114.849C123.432 114.821 123.432 114.791 123.424 114.763C123.348 114.654 123.269 114.552 123.19 114.446C123.081 114.517 122.981 114.601 122.892 114.695C122.85 114.797 122.821 114.904 122.806 115.013C122.628 115.595 122.447 116.178 122.265 116.76C122.25 116.811 122.232 116.86 122.21 116.907C121.942 117.412 121.462 117.3 121.03 117.3C120.877 117.314 120.724 117.274 120.598 117.185C120.472 117.097 120.382 116.967 120.344 116.818C120.142 116.187 119.953 115.552 119.761 114.917C119.761 114.869 119.761 114.798 119.717 114.77C119.631 114.705 119.525 114.617 119.436 114.623C119.346 114.63 119.261 114.76 119.25 114.845C119.238 115.036 119.238 115.228 119.25 115.419C119.25 115.89 119.274 116.361 119.274 116.836C119.282 116.935 119.251 117.034 119.187 117.111C119.123 117.188 119.031 117.237 118.932 117.249C118.684 117.279 118.434 117.279 118.187 117.249C117.964 117.221 117.872 117.068 117.879 116.836C117.879 116.224 117.879 115.613 117.879 114.999V110.305C117.879 110.042 117.954 109.899 118.222 109.861C118.573 109.818 118.927 109.803 119.281 109.817C119.473 109.817 119.586 109.964 119.648 110.158C119.936 111.063 120.235 111.964 120.519 112.872C120.697 113.439 120.862 114.016 121.016 114.579C121.058 114.722 121.109 114.849 121.284 114.856C121.459 114.862 121.52 114.729 121.562 114.589C121.79 113.832 122.029 113.074 122.278 112.316C122.498 111.599 122.71 110.879 122.923 110.158C122.944 110.056 123 109.965 123.081 109.899C123.163 109.833 123.264 109.797 123.369 109.797C123.623 109.797 123.873 109.797 124.127 109.797C124.504 109.797 124.644 109.988 124.641 110.363C124.641 111.425 124.641 112.487 124.641 113.552L124.682 113.569Z" fill="#333333"/>
<path d="M53.6948 113.609V110.465C53.6948 109.977 53.8251 109.865 54.3223 109.868C55.1659 109.868 56.0128 109.892 56.8564 109.868C57.2508 109.844 57.6441 109.931 57.9914 110.119C58.3387 110.307 58.6262 110.587 58.8212 110.93C58.9972 111.254 59.0769 111.621 59.0508 111.989C59.0247 112.356 58.8939 112.709 58.6737 113.005C58.4714 113.251 58.4851 113.415 58.7252 113.657C59.0363 113.962 59.2455 114.355 59.324 114.783C59.4026 115.211 59.3467 115.652 59.1641 116.047C59.015 116.332 58.8058 116.582 58.5507 116.779C58.2956 116.977 58.0007 117.117 57.6862 117.19C56.7706 117.464 55.8311 117.32 54.9018 117.354C54.6344 117.354 54.3703 117.354 54.1029 117.354C54.0565 117.359 54.0095 117.355 53.9648 117.342C53.9201 117.328 53.8787 117.306 53.8431 117.276C53.8074 117.246 53.7783 117.209 53.7575 117.167C53.7368 117.125 53.7248 117.08 53.7223 117.033C53.7078 116.92 53.6998 116.806 53.6983 116.692C53.6983 116.173 53.6983 115.668 53.6983 115.142V113.609H53.6948ZM56.1843 116.02C56.3626 116.02 56.5272 116.02 56.7192 116.02C56.9265 116.027 57.1327 115.986 57.321 115.9C57.5093 115.813 57.6743 115.683 57.8028 115.521C57.8839 115.424 57.9341 115.305 57.9468 115.18C57.9625 114.952 57.9012 114.725 57.7725 114.536C57.6439 114.346 57.4554 114.205 57.237 114.135C56.6643 113.93 56.078 114.019 55.4985 114.036C55.2002 114.036 55.0664 114.251 55.0664 114.548C55.0664 114.845 55.0664 115.231 55.0664 115.572C55.0664 115.914 55.2036 116.016 55.5156 116.02H56.1843ZM56.1568 112.78C56.366 112.78 56.5752 112.78 56.7809 112.78C56.9071 112.784 57.032 112.755 57.1429 112.695C57.2539 112.635 57.3467 112.546 57.4119 112.439C57.4892 112.31 57.5314 112.164 57.5342 112.014C57.537 111.864 57.5004 111.716 57.4278 111.585C57.3553 111.454 57.2495 111.344 57.121 111.266C56.9924 111.188 56.8456 111.145 56.6952 111.141C56.3257 111.107 55.9537 111.107 55.5842 111.141C55.5131 111.136 55.4417 111.147 55.3752 111.173C55.3087 111.198 55.2489 111.238 55.1999 111.29C55.151 111.342 55.1142 111.404 55.0923 111.471C55.0704 111.539 55.0639 111.61 55.0733 111.681V112.278C55.0672 112.346 55.076 112.415 55.0992 112.48C55.1224 112.544 55.1594 112.603 55.2076 112.652C55.2559 112.701 55.3142 112.739 55.3786 112.764C55.4431 112.788 55.512 112.798 55.5808 112.794L56.1568 112.78Z" fill="#333333"/>
<path d="M178.486 113.592C178.486 112.507 178.486 111.421 178.486 110.339C178.486 109.97 178.596 109.865 178.966 109.868C179.195 109.882 179.424 109.882 179.652 109.868C179.788 109.844 179.928 109.865 180.052 109.926C180.175 109.988 180.275 110.087 180.338 110.209C180.602 110.677 180.849 111.155 181.096 111.633C181.521 112.459 181.939 113.289 182.378 114.108C182.41 114.156 182.453 114.196 182.503 114.226C182.553 114.255 182.608 114.273 182.666 114.278C182.821 114.278 182.845 114.132 182.845 113.999C182.845 112.78 182.845 111.565 182.817 110.346C182.817 110.005 182.937 109.858 183.287 109.858C183.434 109.858 183.585 109.858 183.733 109.858C183.794 109.855 183.855 109.865 183.911 109.888C183.968 109.911 184.019 109.945 184.061 109.989C184.104 110.033 184.136 110.086 184.156 110.143C184.176 110.2 184.184 110.261 184.178 110.322V116.876C184.186 116.939 184.179 117.003 184.159 117.063C184.138 117.122 184.104 117.177 184.06 117.222C184.016 117.267 183.962 117.302 183.902 117.324C183.842 117.345 183.779 117.353 183.715 117.347C183.465 117.347 183.211 117.347 182.961 117.347C182.856 117.348 182.753 117.319 182.665 117.263C182.576 117.208 182.505 117.128 182.46 117.033C182.272 116.716 182.1 116.392 181.922 116.067C181.5 115.289 181.079 114.514 180.66 113.732C180.554 113.531 180.472 113.319 180.376 113.111C180.307 112.964 180.225 112.817 180.033 112.869C179.841 112.92 179.865 113.084 179.865 113.234C179.865 114.459 179.896 115.685 179.906 116.907C179.906 117.248 179.758 117.361 179.436 117.347C179.261 117.347 179.093 117.347 178.905 117.347C178.63 117.347 178.514 117.245 178.497 116.968C178.497 116.791 178.497 116.627 178.497 116.436V113.582L178.486 113.592Z" fill="#333333"/>
<path d="M94.9905 113.61V116.863C94.9905 117.269 94.8808 117.371 94.4693 117.361C94.2327 117.361 93.9961 117.361 93.7595 117.361C93.6594 117.367 93.5599 117.342 93.4738 117.291C93.3877 117.24 93.3188 117.165 93.276 117.074C92.6108 115.839 91.9387 114.61 91.27 113.377C91.2289 113.299 91.2152 113.193 91.1534 113.142C91.0646 113.065 90.9524 113.019 90.8345 113.012C90.7763 113.012 90.6871 113.176 90.6871 113.265C90.6871 114.415 90.7145 115.566 90.7317 116.716C90.7403 116.811 90.7403 116.907 90.7317 117.003C90.7282 117.055 90.7143 117.106 90.6908 117.152C90.6672 117.199 90.6344 117.24 90.5944 117.274C90.5544 117.308 90.508 117.333 90.458 117.349C90.4079 117.364 90.3552 117.37 90.303 117.365H89.7921C89.4492 117.365 89.3155 117.214 89.3189 116.87C89.3189 116.187 89.3498 115.504 89.3498 114.821C89.3498 113.342 89.3418 111.863 89.3258 110.384C89.3258 109.991 89.4458 109.872 89.8436 109.875C90.0733 109.875 90.303 109.875 90.5294 109.875C90.6532 109.862 90.7782 109.887 90.8865 109.949C90.9948 110.01 91.081 110.104 91.1329 110.216C91.4758 110.879 91.8427 111.544 92.1856 112.213C92.5045 112.828 92.8165 113.446 93.1286 114.064C93.1286 114.091 93.1491 114.125 93.1731 114.139C93.2623 114.2 93.3549 114.255 93.4475 114.309C93.5023 114.214 93.5983 114.122 93.6018 114.023C93.6018 113.681 93.6018 113.36 93.6018 113.029C93.6018 112.128 93.6018 111.23 93.5743 110.329C93.5654 110.27 93.5703 110.21 93.5886 110.153C93.607 110.096 93.6384 110.044 93.6803 110.002C93.7221 109.959 93.7734 109.927 93.83 109.907C93.8865 109.887 93.9469 109.881 94.0064 109.889H94.5619C94.8739 109.889 95.0077 110.025 95.0077 110.339V113.637L94.9905 113.61Z" fill="#333333"/>
<path d="M74.2446 113.606C74.2446 112.514 74.2446 111.425 74.2446 110.332C74.2446 109.991 74.3612 109.868 74.711 109.868C74.9544 109.868 75.2013 109.868 75.4448 109.868C75.5748 109.867 75.7021 109.905 75.8107 109.976C75.9193 110.047 76.0044 110.148 76.0551 110.267C76.35 110.851 76.6689 111.425 76.9707 112.005C77.2724 112.585 77.6153 113.265 77.9376 113.896C77.96 113.958 77.995 114.015 78.0405 114.063C78.1262 114.118 78.2497 114.203 78.3217 114.176C78.3701 114.149 78.412 114.112 78.4446 114.067C78.4772 114.022 78.4996 113.971 78.5103 113.917C78.5238 113.77 78.5169 113.621 78.4897 113.476C78.4897 113.244 78.4417 113.009 78.4383 112.773C78.4383 112.029 78.4383 111.285 78.4383 110.541C78.4383 110.039 78.596 109.892 79.0864 109.858C79.7962 109.817 79.9059 110.039 79.899 110.694C79.8785 112.708 79.899 114.722 79.899 116.736C79.899 117.238 79.7722 117.371 79.275 117.354C79.0829 117.354 78.8875 117.354 78.6955 117.354C78.6026 117.363 78.5089 117.347 78.4248 117.307C78.3407 117.266 78.2695 117.203 78.2188 117.125C78.0679 116.89 77.9136 116.654 77.7799 116.409C77.4119 115.726 77.0507 115.05 76.6964 114.381C76.4872 113.992 76.2952 113.592 76.0963 113.196C76.0791 113.166 76.0654 113.128 76.0448 113.097C75.9557 112.964 75.8768 112.794 75.6711 112.855C75.4653 112.916 75.5168 113.097 75.5202 113.251C75.5202 114.473 75.5408 115.699 75.5476 116.924C75.5476 117.211 75.4173 117.34 75.1259 117.351C74.9716 117.351 74.8138 117.351 74.6595 117.351C74.3852 117.351 74.2686 117.245 74.2618 116.965C74.2549 116.685 74.2618 116.463 74.2618 116.211C74.2618 115.34 74.2618 114.47 74.2618 113.599L74.2446 113.606Z" fill="#333333"/>
<path d="M169.012 113.62C169.012 114.713 169.012 115.805 169.012 116.897C169.012 117.239 168.872 117.372 168.539 117.362C168.32 117.362 168.097 117.362 167.874 117.362C167.751 117.367 167.629 117.336 167.525 117.271C167.42 117.207 167.337 117.112 167.288 117C166.716 115.951 166.145 114.901 165.573 113.852C165.46 113.644 165.385 113.419 165.265 113.217C165.2 113.115 165.102 113.038 164.987 112.999C164.826 112.954 164.73 113.077 164.73 113.296C164.73 114.447 164.735 115.598 164.747 116.747C164.747 116.815 164.747 116.88 164.747 116.949C164.747 117.252 164.634 117.362 164.329 117.362H163.818C163.758 117.37 163.697 117.364 163.64 117.345C163.583 117.325 163.531 117.293 163.489 117.25C163.447 117.207 163.415 117.155 163.397 117.098C163.378 117.041 163.373 116.981 163.382 116.921C163.382 116.658 163.382 116.392 163.382 116.126C163.382 114.201 163.382 112.275 163.382 110.35C163.382 110.036 163.519 109.886 163.835 109.875C164.15 109.865 164.397 109.875 164.678 109.875C164.79 109.877 164.899 109.91 164.993 109.97C165.087 110.03 165.162 110.116 165.21 110.217C165.553 110.899 165.923 111.582 166.276 112.265C166.568 112.821 166.856 113.378 167.147 113.931C167.178 113.997 167.22 114.058 167.271 114.112C167.295 114.141 167.328 114.162 167.364 114.172C167.4 114.183 167.439 114.183 167.476 114.172C167.512 114.161 167.544 114.14 167.569 114.111C167.593 114.082 167.609 114.047 167.613 114.009C167.628 113.936 167.634 113.862 167.631 113.787L167.6 110.333C167.593 110.275 167.599 110.217 167.618 110.162C167.636 110.107 167.666 110.057 167.706 110.015C167.746 109.972 167.794 109.939 167.848 109.918C167.902 109.896 167.96 109.886 168.018 109.889C168.225 109.875 168.432 109.875 168.639 109.889C168.882 109.889 169.012 110.07 169.012 110.346V113.62Z" fill="#333333"/>
<path d="M193.698 113.596V110.332C193.698 110.018 193.842 109.878 194.161 109.878H198.251C198.32 109.869 198.389 109.876 198.455 109.897C198.521 109.919 198.581 109.955 198.63 110.003C198.68 110.051 198.718 110.11 198.741 110.174C198.765 110.239 198.773 110.308 198.766 110.377C198.766 110.517 198.766 110.657 198.766 110.797C198.765 110.854 198.752 110.911 198.729 110.963C198.705 111.016 198.671 111.063 198.629 111.102C198.587 111.141 198.537 111.171 198.482 111.19C198.428 111.209 198.37 111.217 198.313 111.213H195.512C195.22 111.213 195.093 111.329 195.083 111.626C195.083 111.862 195.083 112.097 195.083 112.336C195.083 112.739 195.23 112.876 195.645 112.859C195.988 112.859 196.355 112.824 196.708 112.831C197.199 112.831 197.685 112.869 198.172 112.896C198.443 112.896 198.515 113.005 198.536 113.268C198.536 113.453 198.536 113.637 198.536 113.821C198.536 114.101 198.423 114.221 198.145 114.221C197.36 114.221 196.575 114.221 195.789 114.221C195.685 114.214 195.581 114.214 195.477 114.221C195.422 114.223 195.367 114.236 195.316 114.26C195.266 114.283 195.221 114.317 195.184 114.358C195.147 114.4 195.118 114.448 195.1 114.501C195.082 114.553 195.075 114.609 195.08 114.664C195.08 114.965 195.08 115.269 195.08 115.569C195.073 115.629 195.079 115.689 195.099 115.746C195.118 115.803 195.15 115.854 195.192 115.898C195.234 115.941 195.285 115.974 195.342 115.995C195.398 116.016 195.458 116.025 195.518 116.02C196.472 116.02 197.428 116.02 198.385 115.996C198.79 115.996 198.94 116.115 198.93 116.521C198.93 116.668 198.93 116.818 198.93 116.965C198.933 117.026 198.923 117.087 198.899 117.144C198.876 117.201 198.841 117.252 198.796 117.293C198.751 117.335 198.697 117.366 198.638 117.385C198.58 117.404 198.518 117.41 198.457 117.402H194.171C193.828 117.402 193.698 117.269 193.698 116.934V113.596Z" fill="#333333"/>
<path d="M99.3101 109.711C99.8305 109.617 100.368 109.716 100.819 109.991C101.145 110.21 101.42 110.497 101.623 110.833C101.826 111.168 101.953 111.544 101.995 111.933C102.022 112.145 101.892 112.237 101.707 112.247C101.471 112.261 101.234 112.261 100.997 112.247C100.896 112.243 100.8 112.204 100.724 112.138C100.648 112.071 100.597 111.981 100.579 111.882C100.533 111.706 100.446 111.543 100.323 111.407C100.201 111.272 100.047 111.167 99.8759 111.104C99.4061 110.93 98.5626 110.923 98.3225 111.643C98.2836 111.754 98.2836 111.874 98.3225 111.985C98.4477 112.193 98.6156 112.373 98.8153 112.513C99.015 112.653 99.242 112.75 99.4816 112.797C100.015 112.941 100.536 113.125 101.042 113.347C101.293 113.471 101.516 113.646 101.697 113.86C101.878 114.073 102.013 114.322 102.094 114.589C102.175 114.857 102.2 115.138 102.168 115.416C102.135 115.694 102.046 115.962 101.906 116.204C101.705 116.594 101.396 116.918 101.017 117.14C100.637 117.362 100.203 117.472 99.7628 117.457C99.5261 117.457 99.2895 117.457 99.0529 117.457C98.2574 117.457 97.6985 117.027 97.1772 116.494C96.8286 116.081 96.5851 115.59 96.4674 115.064C96.392 114.825 96.5394 114.644 96.8103 114.63C97.0812 114.617 97.2698 114.63 97.4961 114.63C97.5936 114.625 97.6895 114.657 97.7632 114.721C97.8369 114.785 97.8826 114.875 97.8905 114.972C97.9796 115.699 99.0049 116.255 99.5673 116.19C99.8181 116.156 100.055 116.055 100.252 115.898C100.45 115.74 100.601 115.532 100.689 115.296C100.712 115.19 100.699 115.079 100.651 114.982C100.49 114.661 100.21 114.416 99.8691 114.299C99.4816 114.159 99.0701 114.081 98.6723 113.958C97.9351 113.743 97.0572 113.19 96.8378 112.278C96.6183 111.367 97.2664 110.107 98.0859 109.865C98.2866 109.795 98.4916 109.739 98.6997 109.697C98.9033 109.689 99.1072 109.693 99.3101 109.711Z" fill="#333333"/>
<path d="M173.655 109.82C173.699 109.82 173.802 109.82 173.905 109.82C173.974 109.801 174.046 109.795 174.117 109.804C174.188 109.812 174.256 109.835 174.318 109.87C174.38 109.906 174.434 109.953 174.478 110.009C174.521 110.066 174.552 110.131 174.57 110.199C174.707 110.517 174.831 110.841 174.951 111.165C175.294 112.077 175.602 112.992 175.938 113.896C176.165 114.504 176.408 115.101 176.624 115.706C176.765 116.078 176.909 116.45 177.039 116.825C177.132 117.085 177.039 117.252 176.765 117.286C176.529 117.313 176.291 117.313 176.055 117.286C175.934 117.271 175.822 117.218 175.735 117.133C175.647 117.049 175.59 116.938 175.572 116.819C175.486 116.522 175.383 116.23 175.263 115.945C175.234 115.845 175.173 115.758 175.089 115.696C175.006 115.635 174.904 115.602 174.8 115.603C174.059 115.603 173.319 115.603 172.578 115.603C172.496 115.598 172.414 115.619 172.344 115.664C172.275 115.709 172.222 115.775 172.194 115.852C172.077 116.123 171.975 116.4 171.889 116.682C171.866 116.828 171.796 116.962 171.689 117.065C171.583 117.168 171.446 117.233 171.299 117.252C171.073 117.279 170.843 117.32 170.613 117.327C170.384 117.334 170.229 117.174 170.322 116.924C170.5 116.433 170.696 115.948 170.881 115.457C171.001 115.136 171.117 114.811 171.224 114.487L172.417 111.254C172.52 110.971 172.636 110.691 172.729 110.401C172.918 109.882 173.034 109.793 173.655 109.82ZM173.682 114.333H173.97C174.067 114.335 174.163 114.329 174.258 114.316C174.318 114.313 174.375 114.294 174.425 114.262C174.475 114.23 174.516 114.185 174.543 114.132C174.571 114.079 174.584 114.02 174.581 113.961C174.579 113.902 174.561 113.844 174.529 113.794C174.485 113.695 174.443 113.593 174.402 113.49C174.238 113.074 174.08 112.65 173.905 112.237C173.878 112.169 173.778 112.08 173.717 112.084C173.672 112.092 173.631 112.11 173.594 112.136C173.557 112.162 173.527 112.195 173.504 112.234C173.429 112.377 173.391 112.538 173.329 112.688C173.185 113.067 173.044 113.446 172.883 113.815C172.767 114.077 172.842 114.279 173.13 114.32C173.314 114.336 173.498 114.341 173.682 114.333Z" fill="#333333"/>
<path d="M47.9024 115.903C47.9024 116.244 47.9024 116.565 47.9024 116.896C47.911 116.959 47.9048 117.023 47.8844 117.083C47.8639 117.143 47.8298 117.198 47.7846 117.243C47.7393 117.287 47.6843 117.321 47.6239 117.341C47.5634 117.361 47.4991 117.366 47.436 117.357C47.2646 117.357 47.0931 117.357 46.9251 117.357C46.8672 117.36 46.8094 117.349 46.7558 117.328C46.7022 117.306 46.6539 117.273 46.6142 117.23C46.5745 117.188 46.5444 117.138 46.5259 117.084C46.5073 117.029 46.5008 116.971 46.5068 116.914C46.5068 114.818 46.5068 112.723 46.5068 110.629C46.5068 110.547 46.5068 110.465 46.5068 110.383C46.4828 110.042 46.6233 109.888 46.9628 109.871C47.124 109.871 47.3057 109.871 47.4532 109.871C47.5146 109.866 47.5764 109.875 47.634 109.897C47.6917 109.918 47.7439 109.952 47.7868 109.996C47.8297 110.04 47.8623 110.093 47.8823 110.151C47.9023 110.209 47.9091 110.271 47.9024 110.332C47.9024 110.906 47.8784 111.482 47.8818 112.039C47.8818 112.158 47.9435 112.35 48.019 112.38C48.0844 112.388 48.1507 112.381 48.2131 112.36C48.2754 112.338 48.3321 112.303 48.379 112.257C48.595 112.049 48.7836 111.807 48.9825 111.575C49.394 111.11 49.8055 110.65 50.2135 110.182C50.2969 110.073 50.4059 109.987 50.531 109.93C50.656 109.874 50.7931 109.849 50.9302 109.858C51.1737 109.858 51.4205 109.841 51.664 109.858C51.7566 109.858 51.8972 109.905 51.9246 109.967C51.939 110.017 51.9415 110.07 51.932 110.122C51.9224 110.173 51.9012 110.222 51.8697 110.264C51.4788 110.745 51.0776 111.216 50.6696 111.684C50.3473 112.053 50.0112 112.404 49.6855 112.766C49.5072 112.967 49.5037 113.077 49.6855 113.295C50.1792 113.94 50.6867 114.575 51.1771 115.224C51.5989 115.784 52.0103 116.354 52.4115 116.931C52.4455 116.98 52.4688 117.036 52.48 117.094C52.4912 117.153 52.4901 117.214 52.4767 117.272C52.4527 117.333 52.2744 117.35 52.1646 117.357C51.9589 117.357 51.7497 117.357 51.544 117.357C51.4254 117.372 51.3051 117.354 51.1958 117.306C51.0866 117.258 50.9924 117.181 50.9233 117.084C50.6627 116.743 50.3987 116.429 50.1415 116.094C49.6958 115.514 49.2568 114.927 48.8076 114.35C48.5642 114.036 48.4304 114.046 48.1527 114.35C48.0649 114.435 47.9968 114.538 47.9529 114.652C47.9091 114.765 47.8907 114.887 47.8989 115.009C47.8989 115.162 47.8989 115.316 47.8989 115.473V115.917L47.9024 115.903Z" fill="#333333"/>
<path d="M112.722 117.307C112.625 117.312 112.528 117.312 112.431 117.307C112.324 117.309 112.22 117.277 112.133 117.215C112.046 117.154 111.981 117.066 111.947 116.966C111.855 116.679 111.752 116.395 111.659 116.109C111.626 115.97 111.546 115.848 111.432 115.763C111.318 115.677 111.178 115.634 111.035 115.641C110.349 115.641 109.663 115.641 108.978 115.641C108.865 115.631 108.752 115.66 108.658 115.722C108.563 115.784 108.492 115.876 108.456 115.982C108.37 116.193 108.297 116.408 108.237 116.628C108.212 116.807 108.126 116.972 107.994 117.096C107.862 117.22 107.691 117.296 107.51 117.31C107.287 117.334 107.068 117.365 106.845 117.372C106.622 117.379 106.526 117.256 106.598 117.03C106.701 116.74 106.828 116.457 106.941 116.17C107.16 115.59 107.369 115.01 107.585 114.429C107.777 113.921 107.973 113.405 108.161 112.9C108.305 112.504 108.436 112.105 108.576 111.712C108.693 111.394 108.813 111.077 108.919 110.76C108.974 110.609 109.036 110.463 109.077 110.306C109.102 110.158 109.182 110.025 109.301 109.933C109.419 109.84 109.568 109.796 109.718 109.807C109.941 109.807 110.161 109.807 110.384 109.807C110.48 109.796 110.578 109.817 110.66 109.868C110.743 109.919 110.806 109.996 110.84 110.087C111.104 110.77 111.371 111.452 111.625 112.135C112.074 113.344 112.51 114.556 112.959 115.764C113.099 116.143 113.271 116.512 113.408 116.89C113.421 116.939 113.423 116.989 113.412 117.038C113.401 117.087 113.379 117.132 113.346 117.17C113.142 117.256 112.933 117.328 112.719 117.385L112.722 117.307ZM110.054 114.378C110.239 114.378 110.425 114.378 110.606 114.378C110.664 114.382 110.722 114.371 110.774 114.347C110.826 114.323 110.872 114.286 110.906 114.24C110.94 114.193 110.962 114.139 110.97 114.082C110.977 114.025 110.97 113.967 110.949 113.914C110.747 113.385 110.541 112.859 110.315 112.34C110.285 112.292 110.244 112.252 110.196 112.222C110.148 112.192 110.094 112.173 110.037 112.166C109.985 112.17 109.935 112.187 109.891 112.213C109.846 112.24 109.808 112.276 109.78 112.32C109.713 112.458 109.659 112.602 109.619 112.75C109.485 113.108 109.369 113.47 109.204 113.815C109.039 114.16 109.166 114.364 109.523 114.385C109.698 114.385 109.876 114.378 110.054 114.378Z" fill="#333333"/>
<path d="M84.3609 109.81C84.4741 109.81 84.5838 109.81 84.7038 109.81C84.8625 109.786 85.0247 109.82 85.1591 109.908C85.2934 109.996 85.3902 110.13 85.4308 110.285C85.7257 111.087 86.0274 111.886 86.3223 112.674C86.5349 113.255 86.7372 113.838 86.9498 114.419C87.1041 114.832 87.2721 115.238 87.4299 115.651C87.5876 116.064 87.7419 116.491 87.8996 116.911C87.9128 116.937 87.92 116.967 87.9206 116.997C87.9212 117.026 87.9153 117.056 87.9032 117.083C87.8911 117.111 87.8732 117.135 87.8507 117.155C87.8281 117.174 87.8015 117.189 87.7728 117.197C87.5762 117.276 87.3646 117.311 87.1531 117.299C86.9415 117.287 86.7351 117.229 86.5486 117.129C86.4492 117.078 86.3909 116.921 86.3463 116.788C86.24 116.511 86.1577 116.228 86.0617 115.951C86.0316 115.844 85.9645 115.752 85.8722 115.689C85.78 115.627 85.6686 115.599 85.5576 115.61H83.4454C83.1299 115.61 82.9482 115.777 82.8419 116.125C82.7664 116.382 82.6739 116.631 82.5984 116.883C82.578 116.978 82.5282 117.063 82.4562 117.127C82.3841 117.192 82.2935 117.232 82.1972 117.242C81.9469 117.279 81.6966 117.317 81.4463 117.334C81.1377 117.354 81.0176 117.194 81.1205 116.907C81.2748 116.484 81.4394 116.064 81.5937 115.644C81.8509 114.961 82.0978 114.262 82.355 113.575C82.6121 112.889 82.9002 112.145 83.1711 111.428C83.3048 111.07 83.4282 110.708 83.562 110.35C83.7471 109.865 83.85 109.797 84.3609 109.81ZM84.5118 114.374C84.6592 114.374 84.8067 114.374 84.9541 114.374C85.3313 114.374 85.4788 114.122 85.3313 113.773C85.2902 113.681 85.2353 113.589 85.201 113.494C85.0741 113.135 84.9576 112.773 84.8204 112.418C84.7729 112.318 84.7052 112.228 84.6215 112.155C84.6014 112.128 84.5739 112.106 84.5422 112.094C84.5104 112.081 84.4757 112.077 84.442 112.084C84.4084 112.09 84.3771 112.105 84.3518 112.128C84.3265 112.151 84.3083 112.181 84.2992 112.213C84.2238 112.364 84.1655 112.524 84.1037 112.681C83.9563 113.05 83.8191 113.422 83.658 113.784C83.4968 114.146 83.658 114.347 84.0009 114.371C84.1826 114.384 84.3609 114.374 84.5255 114.374H84.5118Z" fill="#333333"/>
<path d="M187.286 113.586C187.302 113.909 187.335 114.232 187.385 114.552C187.439 114.874 187.571 115.178 187.769 115.438C187.966 115.698 188.224 115.907 188.52 116.047C189.306 116.419 190.026 116.074 190.489 115.364C190.543 115.279 190.591 115.187 190.643 115.095C190.699 114.965 190.797 114.857 190.921 114.787C191.044 114.717 191.188 114.69 191.329 114.709C191.483 114.726 191.641 114.709 191.795 114.709C192.073 114.709 192.206 114.897 192.117 115.153C191.888 115.876 191.44 116.511 190.835 116.972C190.215 117.39 189.46 117.561 188.719 117.45C187.125 117.331 186.096 115.931 185.938 114.593C185.873 114.216 185.84 113.835 185.839 113.453C185.88 112.565 186.01 111.681 186.566 110.944C187.166 110.145 187.937 109.626 188.99 109.677C189.066 109.677 189.141 109.677 189.213 109.677C190.338 109.636 191.099 110.223 191.675 111.107C191.834 111.371 191.97 111.649 192.08 111.937C192.107 111.985 192.12 112.039 192.118 112.093C192.117 112.148 192.101 112.201 192.071 112.247C192.041 112.293 192 112.33 191.95 112.354C191.901 112.378 191.846 112.389 191.792 112.384C191.577 112.396 191.362 112.396 191.147 112.384C191.024 112.375 190.906 112.332 190.807 112.259C190.707 112.187 190.63 112.088 190.585 111.974C190.477 111.708 190.299 111.476 190.068 111.304C189.838 111.131 189.565 111.024 189.278 110.995C188.992 110.966 188.702 111.016 188.442 111.138C188.181 111.261 187.959 111.452 187.8 111.691C187.407 112.241 187.225 112.913 187.286 113.586Z" fill="#333333"/>
<path d="M132.136 112.818C132.136 113.593 132.109 114.371 132.136 115.143C132.164 115.914 131.409 116.849 130.809 117.164C130.03 117.527 129.147 117.604 128.317 117.382C127.816 117.246 127.374 116.953 127.055 116.547C126.736 116.14 126.558 115.641 126.547 115.126C126.547 113.736 126.547 112.35 126.547 110.964C126.547 110.749 126.547 110.534 126.53 110.322C126.53 110.056 126.623 109.909 126.89 109.882C127.111 109.862 127.334 109.862 127.555 109.882C127.609 109.886 127.662 109.901 127.71 109.926C127.758 109.951 127.801 109.985 127.836 110.026C127.87 110.067 127.897 110.115 127.913 110.167C127.929 110.218 127.934 110.272 127.929 110.326C127.929 111.757 127.92 113.189 127.902 114.62C127.908 115.035 128.036 115.439 128.272 115.781C128.327 115.858 128.397 115.924 128.478 115.976C128.848 116.221 129.743 116.344 130.192 115.948C130.395 115.747 130.551 115.503 130.648 115.235C130.74 114.978 130.787 114.708 130.785 114.436C130.785 113.07 130.785 111.705 130.785 110.34C130.785 109.998 130.905 109.886 131.235 109.875H131.656C131.999 109.875 132.15 110.019 132.15 110.353V112.832L132.136 112.818Z" fill="#333333"/>
<path d="M26.1052 113.634V110.333C26.1052 110.015 26.2321 109.885 26.5476 109.885C27.4288 109.885 28.3101 109.885 29.1914 109.885C29.5611 109.901 29.9221 110.002 30.2463 110.179C30.5705 110.357 30.849 110.607 31.0602 110.91C31.3844 111.369 31.5397 111.925 31.4997 112.485C31.4597 113.044 31.2269 113.573 30.8407 113.982C30.4808 114.321 30.0352 114.557 29.5514 114.665C29.041 114.753 28.5222 114.784 28.0049 114.757C27.566 114.757 27.4494 114.873 27.4597 115.306C27.4597 115.849 27.4597 116.395 27.4597 116.942C27.4671 117.001 27.4611 117.061 27.4421 117.118C27.423 117.174 27.3914 117.226 27.3497 117.269C27.3079 117.312 27.2569 117.345 27.2006 117.366C27.1443 117.386 27.084 117.394 27.0242 117.389H26.5304C26.215 117.389 26.1018 117.279 26.1018 116.962C26.1018 116.573 26.1018 116.18 26.1018 115.791V113.664L26.1052 113.634ZM27.4048 112.268C27.4048 112.497 27.4048 112.726 27.4048 112.951C27.3981 113.012 27.4044 113.074 27.4231 113.133C27.4419 113.191 27.4728 113.245 27.5138 113.291C27.5548 113.337 27.6051 113.374 27.6613 113.4C27.7176 113.425 27.7785 113.438 27.8403 113.439C28.4301 113.473 29.0165 113.511 29.5548 113.18C29.6868 113.1 29.7997 112.993 29.8856 112.866C29.9716 112.738 30.0284 112.594 30.0523 112.442C30.0762 112.291 30.0664 112.136 30.0237 111.988C29.981 111.841 29.9064 111.705 29.8051 111.589C29.6954 111.476 29.5068 111.442 29.3662 111.353C28.8896 111.039 28.3375 111.111 27.8369 111.135C27.494 111.152 27.3945 111.306 27.3911 111.647C27.4014 111.848 27.4048 112.057 27.4048 112.261V112.268Z" fill="#333333"/>
<path d="M153.21 113.777V110.363C153.21 110.022 153.351 109.861 153.701 109.861H157.905C157.954 109.853 158.005 109.855 158.054 109.869C158.102 109.882 158.147 109.906 158.186 109.938C158.224 109.971 158.255 110.011 158.275 110.057C158.296 110.103 158.307 110.153 158.306 110.203C158.321 110.416 158.321 110.631 158.306 110.844C158.306 111.087 158.158 111.186 157.908 111.186H155.041C154.743 111.186 154.599 111.319 154.592 111.613C154.585 111.906 154.592 112.217 154.592 112.517C154.592 112.818 154.788 112.951 155.103 112.951C155.83 112.951 156.557 112.951 157.284 112.934C157.757 112.934 157.894 113.05 157.881 113.528V113.746C157.881 114.156 157.75 114.289 157.335 114.282L155.179 114.265C155.112 114.261 155.046 114.261 154.98 114.265C154.922 114.263 154.864 114.274 154.81 114.297C154.757 114.321 154.709 114.355 154.671 114.399C154.633 114.443 154.605 114.495 154.59 114.551C154.574 114.607 154.572 114.665 154.582 114.722C154.603 115.405 154.623 116.064 154.637 116.733C154.636 116.858 154.617 116.982 154.582 117.102C154.561 117.176 154.516 117.24 154.454 117.285C154.392 117.331 154.316 117.354 154.239 117.351H153.728C153.351 117.351 153.21 117.204 153.21 116.829C153.21 115.804 153.21 114.78 153.21 113.756V113.777Z" fill="#333333"/>
<path d="M64.0603 113.623V110.414C64.0603 109.998 64.1975 109.868 64.6261 109.868H68.6722C68.9466 109.868 69.0837 109.964 69.1111 110.23C69.1318 110.427 69.1318 110.626 69.1111 110.824C69.0906 111.087 68.9466 111.192 68.6825 111.196C67.7121 111.196 66.7417 111.196 65.7713 111.196C65.4593 111.196 65.3702 111.285 65.3564 111.588C65.3427 111.892 65.3393 112.206 65.3564 112.517C65.3736 112.828 65.5245 112.951 65.8365 112.951L68.127 112.93C68.4288 112.93 68.5831 113.009 68.6448 113.299C68.6865 113.508 68.6923 113.723 68.662 113.934C68.6311 114.166 68.4288 114.275 68.1442 114.275L65.9874 114.258C65.9085 114.258 65.8262 114.258 65.7439 114.258C65.6892 114.255 65.6345 114.264 65.5838 114.284C65.533 114.305 65.4875 114.336 65.4504 114.377C65.4133 114.417 65.3857 114.465 65.3694 114.517C65.3532 114.569 65.3488 114.624 65.3564 114.678C65.3564 115.361 65.3564 116.064 65.3907 116.757C65.3907 117.228 65.2879 117.351 64.8147 117.344H64.5472C64.2043 117.344 64.0603 117.211 64.0603 116.866C64.0603 116.053 64.0603 115.241 64.0603 114.429C64.0603 114.156 64.0603 113.882 64.0603 113.609V113.623Z" fill="#333333"/>
<path d="M35.9634 114.299V116.887C35.9634 117.255 35.8571 117.365 35.4868 117.361H35.0205C34.6776 117.361 34.5507 117.269 34.5541 116.914C34.5541 116.146 34.5541 115.378 34.5541 114.61C34.5541 113.661 34.5541 112.71 34.5541 111.756C34.5569 111.675 34.5512 111.594 34.537 111.514C34.5347 111.466 34.5222 111.419 34.5004 111.376C34.4786 111.333 34.4479 111.295 34.4103 111.264C34.3728 111.234 34.3292 111.212 34.2825 111.2C34.2357 111.187 34.1869 111.185 34.1392 111.193H32.8396C32.7784 111.201 32.7161 111.194 32.6579 111.174C32.5996 111.153 32.5471 111.119 32.5046 111.075C32.4621 111.03 32.4309 110.976 32.4134 110.917C32.396 110.858 32.3928 110.796 32.4041 110.735C32.4041 110.595 32.4041 110.455 32.4041 110.315C32.3963 110.262 32.4001 110.207 32.4152 110.155C32.4304 110.103 32.4565 110.055 32.492 110.014C32.5274 109.973 32.5712 109.94 32.6205 109.917C32.6699 109.894 32.7235 109.882 32.7779 109.882C32.9104 109.875 33.0432 109.875 33.1757 109.882H37.5545C37.9591 109.882 38.1271 110.032 38.1305 110.435V110.633C38.1305 111.077 37.9865 111.213 37.5476 111.21H36.3235C36.08 111.21 35.9806 111.302 35.9806 111.551C35.9806 111.893 35.9806 112.213 35.9806 112.545V114.316L35.9634 114.299Z" fill="#333333"/>
<path d="M143.12 114.295C143.12 115.159 143.12 116.023 143.12 116.886C143.12 117.211 142.976 117.358 142.647 117.361H142.225C142.175 117.367 142.124 117.363 142.075 117.349C142.026 117.335 141.981 117.311 141.941 117.28C141.902 117.248 141.869 117.208 141.846 117.164C141.822 117.119 141.808 117.07 141.803 117.02C141.788 116.947 141.781 116.872 141.783 116.798L141.803 111.752C141.803 111.329 141.673 111.192 141.258 111.192C140.843 111.192 140.428 111.192 140.013 111.192C139.698 111.192 139.564 111.056 139.568 110.745C139.568 110.612 139.568 110.482 139.568 110.349C139.568 110.008 139.719 109.871 140.065 109.875H141.577L144.934 109.858C144.99 109.852 145.046 109.859 145.1 109.877C145.153 109.895 145.201 109.924 145.243 109.962C145.284 110 145.316 110.046 145.338 110.098C145.36 110.149 145.371 110.205 145.37 110.26C145.37 110.435 145.37 110.602 145.37 110.79C145.373 110.845 145.365 110.901 145.345 110.953C145.324 111.005 145.293 111.052 145.252 111.091C145.212 111.129 145.163 111.158 145.11 111.176C145.056 111.193 145 111.199 144.944 111.192H143.573C143.182 111.192 143.058 111.315 143.062 111.708L143.082 114.142V114.295H143.12Z" fill="#333333"/>
<path d="M133.951 113.548C133.951 112.756 133.951 111.968 133.951 111.179C133.951 110.913 133.924 110.65 133.91 110.384C133.9 110.317 133.905 110.249 133.925 110.185C133.945 110.121 133.979 110.062 134.026 110.013C134.072 109.964 134.129 109.926 134.192 109.902C134.255 109.878 134.323 109.869 134.39 109.875C134.565 109.875 134.733 109.875 134.921 109.875C134.977 109.869 135.034 109.876 135.087 109.894C135.14 109.913 135.188 109.943 135.228 109.983C135.268 110.022 135.298 110.07 135.317 110.123C135.336 110.176 135.342 110.232 135.336 110.288C135.336 111.999 135.329 113.706 135.316 115.409C135.316 115.832 135.456 115.985 135.882 115.982L138.371 115.955C138.652 115.955 138.782 116.071 138.793 116.351C138.793 116.504 138.793 116.658 138.793 116.815C138.8 116.872 138.795 116.93 138.778 116.986C138.762 117.041 138.733 117.092 138.696 117.136C138.658 117.179 138.611 117.215 138.559 117.24C138.506 117.264 138.449 117.278 138.392 117.279C138.26 117.296 138.127 117.303 137.994 117.3H134.661C134.579 117.305 134.496 117.305 134.414 117.3C134.341 117.297 134.27 117.279 134.204 117.248C134.139 117.216 134.081 117.171 134.034 117.116C133.987 117.061 133.952 116.996 133.931 116.927C133.91 116.857 133.904 116.784 133.913 116.713C133.913 115.657 133.913 114.603 133.913 113.551L133.951 113.548Z" fill="#333333"/>
<path d="M70.5352 113.566V110.114C70.5352 109.838 70.6483 109.718 70.9192 109.722H71.8553C72.1365 109.722 72.2428 109.821 72.2462 110.107C72.2462 110.343 72.2462 110.579 72.2462 110.814C72.2462 112.862 72.2462 114.922 72.2462 116.993C72.2462 117.334 72.1296 117.426 71.8005 117.42C71.4713 117.413 71.2244 117.42 70.9364 117.42C70.6483 117.42 70.5317 117.304 70.5317 117.02C70.5317 115.87 70.5317 114.716 70.5317 113.566H70.5352Z" fill="#333333"/>
<path d="M146.556 113.568C146.556 112.608 146.556 111.649 146.556 110.691C146.556 110.493 146.532 110.295 146.532 110.097C146.532 109.827 146.621 109.728 146.875 109.725C147.217 109.725 147.543 109.725 147.876 109.725C148.133 109.725 148.25 109.854 148.25 110.11L148.229 116.569C148.229 116.702 148.229 116.835 148.246 116.965C148.267 117.306 148.16 117.419 147.831 117.419C147.502 117.419 147.224 117.419 146.923 117.419C146.621 117.419 146.518 117.313 146.521 116.999L146.552 114.169L146.556 113.568Z" fill="#333333"/>
<path d="M159.779 113.568V110.117C159.779 109.8 159.857 109.725 160.169 109.725H161.102C161.404 109.725 161.5 109.817 161.497 110.124V116.542C161.497 116.712 161.497 116.883 161.497 117.05C161.497 117.289 161.407 117.392 161.174 117.412C160.797 117.412 160.416 117.412 160.039 117.412C159.816 117.412 159.779 117.235 159.779 117.047V113.568Z" fill="#333333"/>
<path d="M103.638 113.545C103.638 112.401 103.638 111.257 103.638 110.114C103.638 109.82 103.724 109.725 104.012 109.725H104.935C105.277 109.725 105.343 109.807 105.343 110.131C105.343 112.011 105.343 113.89 105.343 115.77C105.343 116.183 105.343 116.596 105.343 117.009C105.343 117.289 105.25 117.409 104.969 117.416C104.626 117.416 104.283 117.416 103.94 117.416C103.714 117.416 103.638 117.303 103.638 117.04V113.545Z" fill="#333333"/>
<path d="M39.4407 117.283C39.4407 117.061 39.4407 116.842 39.4407 116.621C39.4407 116.399 39.5333 116.3 39.7836 116.296C40.2259 116.296 40.6717 116.296 41.114 116.296C41.3541 116.296 41.4569 116.412 41.4569 116.658C41.4569 117.085 41.4569 117.512 41.4569 117.938C41.4612 117.984 41.4552 118.03 41.4395 118.074C41.4237 118.117 41.3986 118.156 41.3659 118.189C41.3331 118.222 41.2936 118.247 41.2501 118.262C41.2066 118.278 41.1601 118.284 41.114 118.28C40.6546 118.28 40.1951 118.28 39.7425 118.28C39.5196 118.28 39.4304 118.153 39.4304 117.938V117.296L39.4407 117.283Z" fill="#333333"/>
<path d="M6.39503 41.1607V43.2294C6.38545 43.426 6.41608 43.6226 6.48508 43.8071C6.55409 43.9917 6.66001 44.1603 6.79644 44.3029C6.93286 44.4455 7.09695 44.559 7.27875 44.6365C7.46055 44.7141 7.65628 44.754 7.85406 44.754C8.05185 44.754 8.24757 44.7141 8.42937 44.6365C8.61117 44.559 8.77526 44.4455 8.91169 44.3029C9.04811 44.1603 9.15404 43.9917 9.22304 43.8071C9.29204 43.6226 9.32268 43.426 9.3131 43.2294V41.1607C9.31379 40.3617 9.47355 39.5708 9.78313 38.8337C10.0927 38.0966 10.546 37.4279 11.1167 36.8662V36.8867C11.1153 36.8765 11.1153 36.8662 11.1167 36.856C10.8219 35.6407 10.863 34.9375 10.8596 33.4423C9.50319 34.2287 8.37733 35.355 7.59405 36.7091C6.81076 38.0633 6.39738 39.598 6.39503 41.1607Z" fill="#E31B23"/>
<path d="M19.8442 33.4358V33.4119C19.8442 35.5625 19.8648 35.7571 19.5939 36.8495C19.5949 36.8665 19.5949 36.8836 19.5939 36.9007C19.5947 36.887 19.5947 36.8734 19.5939 36.8597C20.167 37.4194 20.6226 38.0871 20.934 38.8238C21.2454 39.5605 21.4065 40.3515 21.4078 41.1507V55.5735C21.4052 56.4269 21.2204 57.2699 20.8657 58.0467C20.511 58.8236 19.9945 59.5165 19.3504 60.0796C19.3447 60.0973 19.3354 60.1135 19.323 60.1274C19.4239 60.2959 19.5122 60.4716 19.587 60.6531C19.7792 61.2891 19.8649 61.9523 19.8408 62.616V63.2987C21.2016 62.5133 22.3317 61.3863 23.1181 60.0301C23.9046 58.6739 24.3199 57.1361 24.3225 55.5701V41.161C24.3199 39.5959 23.905 38.0588 23.1192 36.7032C22.3334 35.3477 21.2042 34.221 19.8442 33.4358Z" fill="#E31B23"/>
<path d="M27.2326 31.5854C25.3179 29.2399 22.7457 27.5145 19.8431 26.6287H19.8225V29.7011H19.8499C22.1657 30.6058 24.1554 32.1818 25.5615 34.2249C26.9676 36.268 27.7253 38.6842 27.7367 41.1608V55.5836C27.7256 58.0607 26.9679 60.4774 25.5619 62.5211C24.1558 64.5648 22.166 66.1414 19.8499 67.0468V70.1532V70.1259C22.976 69.173 25.7124 67.2467 27.6567 64.6302C29.601 62.0137 30.6507 58.8451 30.6513 55.5904V41.1608C30.6458 37.6736 29.4391 34.2938 27.2326 31.5854Z" fill="#E31B23"/>
<path d="M9.31311 50.0092C9.32269 49.8125 9.29206 49.616 9.22306 49.4314C9.15405 49.2469 9.04813 49.0782 8.9117 48.9357C8.77527 48.7931 8.61119 48.6796 8.42939 48.6021C8.24758 48.5245 8.05186 48.4845 7.85407 48.4845C7.65628 48.4845 7.46056 48.5245 7.27875 48.6021C7.09695 48.6796 6.93287 48.7931 6.79644 48.9357C6.66001 49.0782 6.55409 49.2469 6.48509 49.4314C6.41608 49.616 6.38545 49.8125 6.39503 50.0092V55.5837C6.39668 57.1457 6.80903 58.68 7.59108 60.0341C8.37313 61.3882 9.49763 62.5148 10.8527 63.3021H10.8836C10.8912 62.5512 10.9519 61.8017 11.0653 61.0593C11.1147 60.7217 11.2093 60.3922 11.3465 60.0796C10.7092 59.5133 10.1991 58.8196 9.84928 58.0437C9.4995 57.2679 9.31797 56.4273 9.31654 55.5769L9.31311 50.0092Z" fill="#E31B23"/>
<path d="M10.8668 67.0436H2.98012V29.7013H10.8668V28.2608V26.6256C10.8668 26.6256 3.64878 26.5096 0.0654663 26.6256C0.0208893 35.665 0.0654663 46.5274 0.0654663 55.5839C0.0654663 56.8879 0.0654663 70.1193 0.0654663 70.1193C0.0654663 70.1193 9.50209 69.9725 10.8566 70.1193V70.15V67.047L10.8668 67.0436Z" fill="#E31B23"/>
<path d="M200.001 65.8422C199.246 66.9038 198.656 68.1567 197.689 68.9691C196.873 69.6518 195.632 69.8328 194.298 70.3346C194.298 70.4267 194.264 70.8773 194.254 71.328C194.202 74.0589 194.254 76.7898 194.058 79.5208C193.986 80.5824 193.503 81.668 192.992 82.634C192.213 84.1053 191.068 84.928 189.175 84.8632C184.927 84.7198 180.671 84.8188 176.419 84.8188H174.983V80.5141H187.282V67.0813C185.64 69.8703 183.168 70.099 180.496 69.9659C178.652 69.8771 176.8 69.884 174.955 69.9659C172.407 70.0751 170.71 68.9077 169.602 66.7195C169.506 66.5352 169.404 66.3542 169.26 66.0709C168.858 66.6649 168.536 67.1974 168.159 67.6856C167.031 69.1637 165.601 70.0137 163.653 69.9659C161.205 69.9045 158.756 69.9659 156.308 69.9454C153.222 69.9249 151.662 68.1942 151.943 65.0331C153.627 64.6747 155.197 64.009 156.085 62.3773C157.412 59.9365 157.536 57.4582 155.948 55.0993C155.118 53.8636 153.959 52.8429 153.147 51.6003C152.118 50.0164 151.285 48.3027 150.352 46.6198C150.009 47.4766 149.618 48.4768 149.238 49.4804C146.793 55.9664 144.341 62.4183 141.934 68.9008C141.632 69.7099 141.248 69.9966 140.36 69.9727C137.541 69.9079 134.712 69.8225 131.904 69.9727C128.931 70.1468 126.562 69.3992 125.159 66.5044C124.652 67.1462 124.261 67.706 123.808 68.2113C123.341 68.7719 122.752 69.2195 122.085 69.5205C121.419 69.8215 120.692 69.968 119.961 69.9488C117.598 69.9113 115.236 69.9488 112.873 69.9488C108.964 69.9488 106.389 67.7914 106.255 63.8486C106.063 58.2092 106.149 52.5596 106.255 46.9168C106.289 44.9129 106.996 42.9569 108.611 41.6836C109.639 40.878 111.011 40.1099 112.249 40.0792C118.558 39.9222 124.874 40.0109 131.191 40.0177C131.358 40.0412 131.523 40.0789 131.684 40.1304V65.0707C133.132 65.0707 134.455 65.139 135.765 65.0229C136.108 64.9956 136.495 64.4255 136.65 64.0261C139.482 56.697 142.277 49.3473 145.085 42.0216C145.541 40.8268 145.709 39.1916 146.587 38.5772C147.465 37.9627 149.066 38.3689 150.359 38.345C151.298 38.328 152.238 38.345 153.359 38.345C151.82 41.9362 153.836 44.0015 156.288 45.9405C158.846 47.9614 161.332 50.0574 162.991 52.9522C165.069 56.5775 165.011 60.1038 162.631 62.7118C161.849 63.5687 160.807 64.1865 159.826 64.9615H168.79V40.1304H175.504V65.0058H187.344V40.1406H194.243V65.0605H200.001V65.8422ZM113.058 45.0188V65.0127H124.751V45.0154L113.058 45.0188Z" fill="#333333"/>
<path d="M41.7748 69.8735V63.2032C41.7748 56.2347 41.7656 49.2662 41.7473 42.2978C41.7473 40.4134 42.1245 38.6485 43.2321 37.0885C44.5008 35.2997 46.181 34.4053 48.5642 34.8184V64.9749H61.8344V31.5208H36.4358C36.1992 28.8956 38.5584 26.6392 41.4661 26.629C46.7468 26.6051 52.0309 26.629 57.315 26.629H62.071C65.7434 26.629 67.9174 28.445 68.5209 32.0635C68.6586 32.8631 68.7297 33.6726 68.7335 34.4839C68.7472 43.719 68.7472 52.9542 68.7335 62.1893C68.7335 64.613 68.2843 66.9446 66.3332 68.5797C65.5068 69.2625 64.3032 69.8735 63.2471 69.8906C56.3343 70.0067 49.418 69.952 42.5051 69.9486C42.3371 69.9452 42.1279 69.9077 41.7748 69.8735Z" fill="#333333"/>
<path d="M100.953 56.813H81.7506V65.0229H102.643C102.349 67.9996 100.243 69.9386 97.4005 69.9454C92.0753 69.9454 86.7501 69.9454 81.4214 69.9454C77.7799 69.9454 75.4859 67.9894 74.9887 64.3606C74.8486 63.1723 74.789 61.976 74.8104 60.7797C74.7898 56.3761 74.7898 51.9713 74.8104 47.5654C74.8104 45.2782 75.359 43.1651 77.0392 41.4719C77.4648 41.0171 77.9811 40.6555 78.555 40.4104C79.1288 40.1653 79.7477 40.042 80.3722 40.0484C85.3579 40.0484 90.3402 40.0484 95.3226 40.0484C97.8154 40.0484 99.2556 41.5641 100.188 43.6226C100.625 44.5519 100.874 45.5574 100.922 46.5822C101.011 49.9106 100.953 53.2525 100.953 56.813ZM94.0436 45.029H81.7781V52.7098H94.0436V45.029Z" fill="#333333"/>
<path d="M10.8523 17.3676L11.1061 13.9334L10.8523 13.633C9.85235 12.5362 9.29538 11.1099 9.2887 9.62875V1.52467C9.29828 1.32799 9.26764 1.13143 9.19864 0.946902C9.12964 0.76237 9.02372 0.59371 8.88729 0.451146C8.75086 0.308583 8.58677 0.195086 8.40497 0.117536C8.22317 0.0399869 8.02744 0 7.82966 0C7.63187 0 7.43614 0.0399869 7.25434 0.117536C7.07254 0.195086 6.90845 0.308583 6.77202 0.451146C6.6356 0.59371 6.52967 0.76237 6.46067 0.946902C6.39167 1.13143 6.36103 1.32799 6.37061 1.52467V9.62875C6.37076 11.1966 6.78489 12.7368 7.57149 14.0951C8.35808 15.4533 9.4895 16.5819 10.8523 17.3676Z" fill="#07A2E1"/>
<path d="M19.826 17.3676C21.1869 16.5806 22.3163 15.4515 23.101 14.0933C23.8858 12.7351 24.2983 11.1956 24.2974 9.62875V1.52467C24.307 1.32799 24.2764 1.13143 24.2074 0.946902C24.1384 0.76237 24.0325 0.59371 23.896 0.451146C23.7596 0.308583 23.5955 0.195086 23.4137 0.117536C23.2319 0.0399869 23.0362 0 22.8384 0C22.6406 0 22.4449 0.0399869 22.2631 0.117536C22.0813 0.195086 21.9172 0.308583 21.7808 0.451146C21.6443 0.59371 21.5384 0.76237 21.4694 0.946902C21.4004 1.13143 21.3698 1.32799 21.3794 1.52467V9.62875C21.3704 11.1045 20.8177 12.5257 19.826 13.6228L19.5723 13.9266L19.826 17.3676Z" fill="#07A2E1"/>
<path d="M10.8527 24.2157V21.099C8.53562 20.1934 6.54526 18.6158 5.13963 16.5706C3.734 14.5254 2.9779 12.1071 2.96937 9.62901V1.52492C2.96937 1.13924 2.81547 0.769349 2.54152 0.496628C2.26758 0.223907 1.89603 0.070694 1.50861 0.070694C1.1212 0.070694 0.749647 0.223907 0.475702 0.496628C0.201757 0.769349 0.0478559 1.13924 0.0478558 1.52492V9.62901C0.0454046 12.8861 1.09413 16.0579 3.03944 18.6767C4.98476 21.2955 7.72374 23.2229 10.8527 24.1747V24.2157Z" fill="#07A2E1"/>
<path d="M29.1539 0.0707101C28.7665 0.0707101 28.3949 0.223923 28.121 0.496644C27.847 0.769365 27.6931 1.13925 27.6931 1.52494V9.62902C27.6966 12.1095 26.9448 14.5327 25.5368 16.5791C24.1289 18.6256 22.1309 20.1991 19.8064 21.0922V24.2055V24.1645C22.9369 23.2178 25.6784 21.2933 27.6254 18.6757C29.5724 16.0581 30.6217 12.8862 30.6181 9.62902V1.52494C30.6185 1.33355 30.5809 1.14397 30.5075 0.967105C30.434 0.790243 30.3261 0.629598 30.19 0.494426C30.0539 0.359254 29.8923 0.252224 29.7145 0.179504C29.5366 0.106783 29.3461 0.0698089 29.1539 0.0707101Z" fill="#07A2E1"/>
<path d="M10.8502 17.3677V28.4622V29.8857V33.6203C10.8502 35.1291 10.8159 35.8323 11.1073 37.0544C11.4331 38.3994 13.1647 40.0551 15.3456 40.0516C16.2748 40.044 17.1793 39.7524 17.9367 39.2164C18.6941 38.6803 19.2679 37.9257 19.5804 37.0544C19.8513 35.962 19.8204 35.7709 19.8341 33.6203V31.3399V15.8896C19.8583 15.2259 19.7726 14.5627 19.5804 13.9267C18.8294 12.056 16.5903 10.1341 13.5488 11.2811C12.8937 11.5159 12.315 11.9236 11.8747 12.4606C11.4344 12.9975 11.149 13.6435 11.049 14.3295C10.9 15.3352 10.8335 16.3513 10.8502 17.3677ZM16.9092 35.5729C16.9092 35.9875 16.7437 36.3852 16.4492 36.6784C16.1547 36.9716 15.7552 37.1364 15.3387 37.1364C14.9222 37.1364 14.5227 36.9716 14.2282 36.6784C13.9337 36.3852 13.7682 35.9875 13.7682 35.5729V15.4014C13.7682 14.9868 13.9337 14.5891 14.2282 14.2959C14.5227 14.0027 14.9222 13.838 15.3387 13.838C15.7552 13.838 16.1547 14.0027 16.4492 14.2959C16.7437 14.5891 16.9092 14.9868 16.9092 15.4014V35.5729Z" fill="#07A2E1"/>
<path d="M10.8563 64.1112V75.2057V76.6292V80.3638C10.8563 81.8726 10.8185 82.5758 11.1134 83.7979C11.4358 85.1429 13.1708 86.7986 15.3483 86.7952C16.2781 86.7882 17.1833 86.497 17.9414 85.9609C18.6995 85.4248 19.2738 84.6697 19.5865 83.7979C19.8574 82.7056 19.8266 82.5144 19.8368 80.3638V78.0766V62.6331C19.8625 61.9682 19.7768 61.3037 19.5831 60.6668C18.8356 58.7995 16.5964 56.8776 13.5549 58.0246C12.8998 58.2594 12.3211 58.6671 11.8808 59.2041C11.4405 59.741 11.1551 60.3871 11.0551 61.073C10.9061 62.0787 10.8396 63.0948 10.8563 64.1112ZM16.9119 82.3403C16.9218 82.5515 16.8886 82.7626 16.8142 82.9607C16.7399 83.1588 16.6259 83.3398 16.4793 83.4927C16.3326 83.6457 16.1563 83.7675 15.961 83.8507C15.7657 83.9339 15.5555 83.9768 15.3431 83.9768C15.1307 83.9768 14.9205 83.9339 14.7252 83.8507C14.5299 83.7675 14.3536 83.6457 14.207 83.4927C14.0603 83.3398 13.9464 83.1588 13.872 82.9607C13.7976 82.7626 13.7644 82.5515 13.7743 82.3403V62.1449C13.7644 61.9337 13.7976 61.7227 13.872 61.5246C13.9464 61.3265 14.0603 61.1455 14.207 60.9925C14.3536 60.8395 14.5299 60.7177 14.7252 60.6345C14.9205 60.5513 15.1307 60.5084 15.3431 60.5084C15.5555 60.5084 15.7657 60.5513 15.961 60.6345C16.1563 60.7177 16.3326 60.8395 16.4793 60.9925C16.6259 61.1455 16.7399 61.3265 16.8142 61.5246C16.8886 61.7227 16.9218 61.9337 16.9119 62.1449V82.3403Z" fill="#07A2E1"/>
<path d="M19.8092 80.3772L19.552 83.8079L19.8023 84.1083C20.8013 85.2016 21.3584 86.6244 21.366 88.1023V96.2201C21.3564 96.4167 21.387 96.6133 21.456 96.7978C21.525 96.9824 21.6309 97.151 21.7674 97.2936C21.9038 97.4361 22.0679 97.5496 22.2497 97.6272C22.4315 97.7047 22.6272 97.7447 22.825 97.7447C23.0228 97.7447 23.2185 97.7047 23.4003 97.6272C23.5821 97.5496 23.7462 97.4361 23.8826 97.2936C24.0191 97.151 24.125 96.9824 24.194 96.7978C24.263 96.6133 24.2936 96.4167 24.2841 96.2201V88.1023C24.2825 86.5374 23.8685 85.0003 23.0832 83.6447C22.2979 82.289 21.169 81.1623 19.8092 80.3772Z" fill="#07A2E1"/>
<path d="M10.8364 80.3737C9.47953 81.1615 8.35388 82.2898 7.57171 83.6459C6.78953 85.002 6.37818 86.5385 6.37867 88.1023V96.22C6.36909 96.4167 6.39973 96.6133 6.46873 96.7978C6.53773 96.9823 6.64365 97.151 6.78008 97.2935C6.91651 97.4361 7.0806 97.5496 7.2624 97.6272C7.4442 97.7047 7.63993 97.7447 7.83771 97.7447C8.0355 97.7447 8.23123 97.7047 8.41303 97.6272C8.59483 97.5496 8.75892 97.4361 8.89534 97.2935C9.03177 97.151 9.1377 96.9823 9.2067 96.7978C9.2757 96.6133 9.30634 96.4167 9.29676 96.22V88.1023C9.30495 86.6274 9.85784 85.207 10.8501 84.1117L11.1038 83.8079L11.1416 83.7498L10.8844 80.3566L10.8364 80.3737Z" fill="#07A2E1"/>
<path d="M19.8093 73.5295V76.6428C22.1251 77.5476 24.1148 79.1235 25.5209 81.1666C26.927 83.2097 27.6847 85.6259 27.696 88.1025V96.2203C27.6864 96.4169 27.7171 96.6135 27.7861 96.798C27.8551 96.9826 27.961 97.1512 28.0974 97.2938C28.2339 97.4363 28.3979 97.5498 28.5797 97.6274C28.7615 97.7049 28.9573 97.7449 29.1551 97.7449C29.3528 97.7449 29.5486 97.7049 29.7304 97.6274C29.9122 97.5498 30.0763 97.4363 30.2127 97.2938C30.3491 97.1512 30.455 96.9826 30.524 96.798C30.593 96.6135 30.6237 96.4169 30.6141 96.2203V88.1025C30.6149 84.8479 29.5658 81.6791 27.6212 79.0628C25.6766 76.4466 22.9394 74.5212 19.8128 73.5704V73.5295H19.8093Z" fill="#07A2E1"/>
<path d="M1.50205 97.6743C1.88947 97.6743 2.26102 97.5211 2.53496 97.2484C2.80891 96.9757 2.96281 96.6058 2.96281 96.2201V88.1023C2.95815 85.6212 3.70945 83.197 5.11753 81.1497C6.5256 79.1025 8.52422 77.5286 10.8495 76.6357L10.8667 73.6043V73.5565H10.8221C7.69628 74.5098 4.96118 76.4384 3.02056 79.0576C1.07995 81.6768 0.0366646 84.8477 0.0447241 88.1023V96.2201C0.0442731 96.4109 0.0816352 96.5999 0.154671 96.7764C0.227706 96.9528 0.334981 97.1131 0.470351 97.2482C0.605722 97.3833 0.766529 97.4905 0.943564 97.5636C1.1206 97.6367 1.31038 97.6743 1.50205 97.6743Z" fill="#07A2E1"/>
</svg>
