<svg width="51" height="50" viewBox="0 0 51 50" fill="none" xmlns="http://www.w3.org/2000/svg">
<path fill-rule="evenodd" clip-rule="evenodd" d="M49.5 25C49.5 38.2548 38.7548 49 25.5 49C12.2452 49 1.5 38.2548 1.5 25C1.5 11.7452 12.2452 1 25.5 1C38.7548 1 49.5 11.7452 49.5 25ZM25.3364 39.7715C23.2285 39.7715 21.5566 38.1884 21.5566 36.2267C21.5566 34.265 23.2285 32.6818 25.3364 32.6818C27.4444 32.6818 29.1163 34.265 29.1163 36.2267C29.1163 38.1884 27.4444 39.7715 25.3364 39.7715ZM22.5925 26.5717C22.7263 27.987 23.9146 29.0684 25.3363 29.0684C26.7579 29.0684 27.9462 27.987 28.08 26.5717L29.1554 15.1972C29.3682 12.946 27.5975 11 25.3363 11C23.075 11 21.3043 12.946 21.5171 15.1972L22.5925 26.5717Z" fill="#D8D8D8" fill-opacity="0.01"/>
<path d="M22.5925 26.5717L23.588 26.4776L22.5925 26.5717ZM28.08 26.5717L29.0756 26.6659L28.08 26.5717ZM29.1554 15.1972L30.151 15.2914V15.2914L29.1554 15.1972ZM21.5171 15.1972L22.5127 15.1031L21.5171 15.1972ZM25.5 50C39.3071 50 50.5 38.8071 50.5 25H48.5C48.5 37.7025 38.2025 48 25.5 48V50ZM0.5 25C0.5 38.8071 11.6929 50 25.5 50V48C12.7975 48 2.5 37.7025 2.5 25H0.5ZM25.5 0C11.6929 0 0.5 11.1929 0.5 25H2.5C2.5 12.2975 12.7975 2 25.5 2V0ZM50.5 25C50.5 11.1929 39.3071 0 25.5 0V2C38.2025 2 48.5 12.2975 48.5 25H50.5ZM20.5566 36.2267C20.5566 38.7975 22.7347 40.7715 25.3364 40.7715V38.7715C23.7222 38.7715 22.5566 37.5793 22.5566 36.2267H20.5566ZM25.3364 31.6818C22.7347 31.6818 20.5566 33.6559 20.5566 36.2267H22.5566C22.5566 34.874 23.7222 33.6818 25.3364 33.6818V31.6818ZM30.1163 36.2267C30.1163 33.6559 27.9382 31.6818 25.3364 31.6818V33.6818C26.9507 33.6818 28.1163 34.874 28.1163 36.2267H30.1163ZM25.3364 40.7715C27.9382 40.7715 30.1163 38.7975 30.1163 36.2267H28.1163C28.1163 37.5793 26.9507 38.7715 25.3364 38.7715V40.7715ZM25.3363 28.0684C24.4305 28.0684 23.6733 27.3794 23.588 26.4776L21.5969 26.6659C21.7792 28.5947 23.3988 30.0684 25.3363 30.0684V28.0684ZM27.0845 26.4776C26.9992 27.3794 26.2421 28.0684 25.3363 28.0684V30.0684C27.2737 30.0684 28.8933 28.5947 29.0756 26.6659L27.0845 26.4776ZM28.1598 15.1031L27.0845 26.4776L29.0756 26.6659L30.151 15.2914L28.1598 15.1031ZM25.3363 12C27.0081 12 28.3172 13.4387 28.1598 15.1031L30.151 15.2914C30.4193 12.4533 28.187 10 25.3363 10V12ZM22.5127 15.1031C22.3553 13.4387 23.6644 12 25.3363 12V10C22.4855 10 20.2532 12.4533 20.5215 15.2914L22.5127 15.1031ZM23.588 26.4776L22.5127 15.1031L20.5215 15.2914L21.5969 26.6659L23.588 26.4776Z" fill="#FF9238"/>
</svg>
