<svg width="480" height="290" viewBox="0 0 480 290" fill="none" xmlns="http://www.w3.org/2000/svg">
<path opacity="0.43" d="M375.411 114.465C388.333 125.628 399.941 146.834 394.632 160.318C391.62 167.966 384.05 170.881 357.569 175.581C308.69 184.256 270.972 185.597 267.501 185.707C232.653 186.812 237.901 184.951 213.98 186.385C186.925 188.006 174.802 190.71 153.426 187.433C136.249 184.8 126.33 183.279 115.673 174.941C91.9746 156.399 88.5766 122.884 88.0156 117.349C87.2453 109.753 85.4931 83.5031 99.9695 60.4382C121.776 25.6939 169.101 16.1875 196.945 34.6201C229.552 56.2045 216.85 103.788 245.507 116.881C270.809 128.441 290.526 95.8326 344.459 101.912C352.479 102.816 364.37 104.927 375.411 114.465Z" fill="#B1E3F4"/>
<path d="M166.709 187.425H157.252V242.686H166.709V187.425Z" fill="#E6E7E8"/>
<path d="M324.778 187.425H316.672V242.686H324.778V187.425Z" fill="#E6E7E8"/>
<path fill-rule="evenodd" clip-rule="evenodd" d="M149.146 196.86H161.306V252.121H149.146V196.86ZM149.98 197.617V251.364H160.472V197.617H149.98Z" fill="#01A3DE"/>
<path fill-rule="evenodd" clip-rule="evenodd" d="M327.48 196.86H338.289V252.121H327.48V196.86ZM328.221 197.617V251.364H337.548V197.617H328.221Z" fill="#01A3DE"/>
<path d="M192.379 91.7295L204.046 167.208L213.995 167.061C213.995 167.061 200.561 93.1951 192.379 91.7295Z" fill="#005388"/>
<path d="M204.43 167.455C204.43 167.455 200.204 97.4341 192.379 92.6347C192.379 92.6347 219.563 90.5318 223.669 92.7365C227.775 94.9412 238.314 167.353 238.314 167.353C238.314 167.353 212.373 169.99 204.43 167.455Z" fill="#01A3DE"/>
<path d="M239.665 191.468H231.559V237.294H239.665V191.468Z" fill="#01A3DE"/>
<path fill-rule="evenodd" clip-rule="evenodd" d="M239.665 191.468H231.559V211.686H239.665V191.468Z" fill="black" fill-opacity="0.29"/>
<path d="M213.996 244.033C213.996 236.59 223.372 230.555 234.937 230.555C246.502 230.555 255.878 236.59 255.878 244.033" fill="#01A3DE"/>
<path d="M305.864 237.294H292.555L278.127 183.453C278.127 183.453 241.42 185.556 236.963 184.061C232.507 182.566 240.495 177.425 240.495 177.425L274.65 165.328C278.334 164.087 283.521 164.245 287.031 165.911L287.487 166.393C288.75 167.727 289.497 169.466 289.595 171.298L305.864 237.294Z" fill="#01A3DE"/>
<path d="M297.126 245.381L303.163 245.334L301.494 234.599L295.057 236.584L297.126 245.381Z" fill="#77562F"/>
<path d="M302.394 241.338C302.394 241.338 313.8 245.518 320.664 246.767C322.515 247.104 322.016 250.773 322.016 250.773L296.117 250.571C295.695 250.571 295.337 250.27 295.279 249.862C295.072 248.405 294.714 244.452 295.842 243.063C296.068 242.784 296.624 243.014 297.139 243.172C297.71 243.348 298.731 246.106 302.125 243.269C302.443 243.004 302.025 241.707 302.394 241.338Z" fill="#005388"/>
<path d="M291.751 241.338L308.567 238.864L307.167 231.903L291.004 236.538L291.751 241.338Z" fill="#01A3DE"/>
<path d="M284.249 238.642H271.284L257.229 184.396L266.347 167.208C267.577 168.552 268.305 170.303 268.401 172.15L284.249 238.642Z" fill="#01A3DE"/>
<path d="M275.509 246.729L281.546 246.683L279.877 235.947L273.439 237.933L275.509 246.729Z" fill="#77562F"/>
<path d="M280.777 242.686C280.777 242.686 292.183 246.865 299.048 248.115C300.898 248.452 300.399 252.121 300.399 252.121L274.5 251.919C274.077 251.919 273.72 251.618 273.661 251.21C273.454 249.753 273.097 245.8 274.224 244.411C274.451 244.131 275.007 244.362 275.522 244.52C276.092 244.696 277.114 247.454 280.508 244.618C280.826 244.352 280.408 243.055 280.777 242.686Z" fill="#005388"/>
<path d="M270.134 242.686L286.95 240.211L285.55 233.251L269.387 237.886L270.134 242.686Z" fill="#01A3DE"/>
<path d="M253.598 102.912C251.857 101.564 241.508 96.5813 233.887 97.1685C227.092 97.6919 218.69 101.38 213.96 107.417C210.595 111.712 214.648 110.859 215.493 116.444L218.437 152.875L256.847 153.729L258.579 120.935C257.258 112.661 259.374 107.383 253.598 102.912Z" fill="#005388"/>
<path d="M325.434 151.034L342.343 165.86H145.094L162.003 151.034H325.434Z" fill="#F4F1EC"/>
<path d="M342.343 165.86H145.094V207.642H342.343V165.86Z" fill="#D9D7D4"/>
<path d="M285.697 155.077C285.498 155.077 285.297 155.066 285.095 155.045C284.928 155.028 280.963 154.607 276.872 153.993C269.805 152.932 263.536 150.358 261.417 147.935L252.022 119.216C250.624 116.311 257.103 106.555 257.103 106.555C257.103 106.555 260.766 112.844 262.164 115.749L273.646 141.541C276.32 142.142 281.778 142.92 286.285 143.397C289.45 143.731 288.611 155.077 285.697 155.077Z" fill="#005388"/>
<path d="M288.218 147.023C288.218 147.023 288.547 152.252 286.949 153.692C286.949 153.692 288.491 154.371 290.229 154.836C291.967 155.3 305.845 156.425 305.845 156.425C305.845 156.425 306.378 151.901 301.737 151.01C297.095 150.118 291.944 146.615 288.218 147.023Z" fill="#77562F"/>
<path d="M172.114 142.397C169.612 139.918 165.95 139.803 164.606 140.958C163.329 142.054 164.438 144.558 164.803 145.356C166.266 148.548 169.535 150.284 171.225 151.034" fill="#01A3DE"/>
<path d="M176.167 159.121C183.628 159.121 189.677 157.914 189.677 156.425C189.677 154.937 183.628 153.729 176.167 153.729C168.705 153.729 162.656 154.937 162.656 156.425C162.656 157.914 168.705 159.121 176.167 159.121Z" fill="#161F40"/>
<path d="M176.167 157.773C183.628 157.773 189.677 156.868 189.677 155.751C189.677 154.635 183.628 153.729 176.167 153.729C168.705 153.729 162.656 154.635 162.656 155.751C162.656 156.868 168.705 157.773 176.167 157.773Z" fill="#005388"/>
<path d="M168.816 155.042C168.849 155.103 168.916 155.15 168.923 155.218C169.089 156.937 181.698 156.715 182.087 155.212C183.678 149.061 182.692 136.549 181.631 136.208C180.083 136.502 177.606 136.692 174.816 136.692C172.718 136.692 170.797 136.583 169.315 136.404L168.883 138.211C167.84 143.977 167.758 149.596 168.816 155.042Z" fill="#01A3DE"/>
<path d="M319.374 161.816H288.433L288.301 157.773H314.547L319.374 161.816Z" fill="#01A3DE"/>
<path d="M219.398 69.3234C219.398 69.3234 223.77 75.8164 223.453 78.9333C223.137 82.0502 226.34 80.6187 226.34 80.6187C226.231 79.4207 227.533 77.5986 228.57 77.7995C229.345 77.9495 231.976 69.6768 228.297 69.0407C224.62 68.4046 219.398 69.3234 219.398 69.3234Z" fill="#231F20"/>
<path d="M237.69 103.86H236.237C234.4 103.86 232.91 102.451 232.91 100.713V93.1685C232.91 92.3736 233.592 91.7295 234.432 91.7295H239.494C240.335 91.7295 241.016 92.3736 241.016 93.1685V100.714C241.016 102.451 239.527 103.86 237.69 103.86Z" fill="#77562F"/>
<path d="M232.91 93.0771L241.016 93.149C241.016 93.149 234.183 97.7905 232.91 97.0381V93.0771Z" fill="#231F20"/>
<path d="M237.078 94.4251H232.68C227.635 94.4251 224.803 90.3841 224.803 85.3998V73.7982C224.803 68.8137 227.635 64.7729 232.68 64.7729H238.635C243.68 64.7729 247.77 68.8137 247.77 73.7982V83.8614C247.77 89.6956 242.983 94.4251 237.078 94.4251Z" fill="#77562F"/>
<path d="M249.122 83.6425C250.614 83.6425 251.824 82.1338 251.824 80.2729C251.824 78.4119 250.614 76.9033 249.122 76.9033C247.63 76.9033 246.42 78.4119 246.42 80.2729C246.42 82.1338 247.63 83.6425 249.122 83.6425Z" fill="#77562F"/>
<path d="M224.804 82.2943C226.296 82.2943 227.506 80.7857 227.506 78.9248C227.506 77.0638 226.296 75.5552 224.804 75.5552C223.311 75.5552 222.102 77.0638 222.102 78.9248C222.102 80.7857 223.311 82.2943 224.804 82.2943Z" fill="#77562F"/>
<path d="M218.197 63.4562C218.003 61.6356 217.692 58.816 219.564 57.5274C221.335 56.3082 224.104 56.9527 225.227 58.4167C226.228 59.7229 225.82 61.5521 226.106 61.5787C226.551 61.6202 226.284 57.0565 228.84 55.156C230.441 53.9655 233.104 53.8539 234.21 55.0571C236.051 57.059 234.52 59.1422 234.937 59.3096C235.402 59.497 235.895 55.3644 240.264 54.1678C243.019 53.4132 246.542 55.2017 246.708 56.9346C246.956 59.5264 239.751 62.5892 239.677 62.468C239.613 62.3616 244.082 58.2025 247.977 59.2072C249.589 59.6232 251.06 60.9128 251.59 62.5669C252.437 65.2114 250.867 68.2296 248.856 69.0885C247.663 69.5978 247.229 68.9581 244.291 68.8082C241.809 68.6815 239.914 69.0257 237.847 69.4011C234.771 69.9598 234.506 70.4107 232.257 70.8671C229.614 71.4035 224.059 72.531 220.728 69.4011C218.62 67.4203 218.319 64.5944 218.197 63.4562Z" fill="#231F20"/>
<path d="M241.016 69.3234C241.016 69.3234 244.841 75.8164 244.564 78.9333C244.287 82.0502 247.09 80.6187 247.09 80.6187C246.994 79.4207 248.133 77.5986 249.041 77.7995C249.719 77.9495 252.021 69.6768 248.803 69.0407C245.584 68.4046 241.016 69.3234 241.016 69.3234Z" fill="#231F20"/>
<path fill-rule="evenodd" clip-rule="evenodd" d="M230.026 77.3595C229.63 77.2656 228.961 77.1754 227.942 77.2395C227.196 77.2866 226.708 77.5039 226.422 77.6837C226.277 77.7746 226.181 77.8585 226.126 77.9116C226.099 77.9381 226.082 77.9571 226.075 77.9654C226.073 77.9667 226.073 77.9677 226.072 77.9685C225.812 78.3075 225.362 78.3473 225.06 78.055C224.754 77.7591 224.715 77.2346 224.973 76.8835L225.522 77.4138C224.973 76.8835 224.974 76.8831 224.974 76.8828L224.975 76.882L224.976 76.8803L224.978 76.8768L224.985 76.8688C224.989 76.8631 224.994 76.8565 225 76.849C225.012 76.8342 225.026 76.8162 225.044 76.7955C225.08 76.7541 225.128 76.7017 225.19 76.642C225.313 76.5226 225.489 76.3741 225.725 76.226C226.198 75.9278 226.897 75.6401 227.863 75.5793C228.99 75.5083 229.786 75.6047 230.319 75.7312C230.586 75.7945 230.786 75.8652 230.929 75.9258C231 75.9562 231.057 75.9839 231.1 76.0069C231.122 76.0183 231.14 76.0286 231.155 76.0374C231.162 76.0418 231.169 76.0458 231.175 76.0494L231.183 76.0545L231.186 76.0567L231.188 76.0578L231.189 76.0584C231.189 76.0586 231.19 76.0589 230.833 76.7826L231.19 76.0589C231.538 76.2848 231.661 76.792 231.464 77.1918C231.27 77.5856 230.838 77.7281 230.492 77.5162C230.491 77.5159 230.491 77.5156 230.49 77.5152C230.482 77.5109 230.46 77.5 230.425 77.4848C230.353 77.4544 230.223 77.4064 230.026 77.3595ZM230.477 77.5069V77.5069V77.5069Z" fill="#231F20"/>
<path fill-rule="evenodd" clip-rule="evenodd" d="M237.098 75.7312C237.737 75.6047 238.692 75.5083 240.045 75.5793C241.204 75.6401 242.043 75.9278 242.611 76.226C242.894 76.3742 243.105 76.5226 243.253 76.6421C243.327 76.7017 243.385 76.7541 243.428 76.7956C243.449 76.8163 243.467 76.8343 243.481 76.8491C243.488 76.8566 243.494 76.8632 243.499 76.8689L243.507 76.8769L243.51 76.8805L243.511 76.8821L243.512 76.8829C243.512 76.8833 243.513 76.8836 242.848 77.4194L243.513 76.8836C243.822 77.2347 243.776 77.7592 243.408 78.0551C243.045 78.3473 242.506 78.3074 242.194 77.9684C242.193 77.9676 242.193 77.9666 242.191 77.9653C242.183 77.957 242.162 77.9381 242.129 77.9115C242.064 77.8584 241.948 77.7746 241.775 77.6837C241.432 77.5039 240.846 77.2866 239.95 77.2395C238.728 77.1754 237.925 77.2656 237.45 77.3595C237.213 77.4064 237.057 77.4544 236.971 77.4848C236.928 77.5 236.903 77.5109 236.893 77.5152C236.892 77.5156 236.891 77.5159 236.891 77.5162C236.476 77.7281 235.957 77.5856 235.724 77.1918C235.488 76.7921 235.635 76.2848 236.053 76.0589L236.481 76.7826C236.053 76.0589 236.054 76.0586 236.054 76.0584L236.055 76.0578L236.057 76.0567L236.061 76.0545L236.071 76.0494C236.078 76.0458 236.086 76.0418 236.095 76.0374C236.113 76.0286 236.135 76.0183 236.161 76.0069C236.213 75.9839 236.281 75.9562 236.366 75.9258C236.537 75.8652 236.777 75.7945 237.098 75.7312ZM242.184 77.9568C242.184 77.9566 242.183 77.9565 242.183 77.9563C242.183 77.9562 242.183 77.9561 242.183 77.956L242.183 77.9563L242.184 77.9567V77.9568Z" fill="#231F20"/>
<path fill-rule="evenodd" clip-rule="evenodd" d="M233.189 76.9214C233.298 76.9734 233.352 77.1217 233.309 77.2525C232.422 79.9257 232.129 81.8337 232.018 82.9498C231.992 83.2083 231.971 83.481 231.993 83.7292C232.016 83.9767 232.078 84.1668 232.194 84.293L232.051 84.4821L232.194 84.293C232.295 84.4022 232.434 84.4617 232.608 84.4766C232.783 84.4916 232.979 84.4601 233.172 84.4041C233.558 84.2922 233.893 84.0945 233.952 84.0591C234.057 83.9957 234.185 84.0461 234.238 84.1719C234.291 84.2976 234.249 84.4509 234.144 84.5144C234.075 84.5557 233.706 84.774 233.272 84.8998C233.056 84.9626 232.813 85.0053 232.578 84.9853C232.343 84.9651 232.102 84.8803 231.909 84.6711C231.684 84.4275 231.598 84.0952 231.57 83.7833C231.543 83.4722 231.57 83.1486 231.595 82.8895C231.71 81.7322 232.012 79.7809 232.913 77.0642C232.956 76.9333 233.08 76.8694 233.189 76.9214Z" fill="#231F20"/>
<path d="M232.91 88.5203C232.988 88.61 233.517 90.5841 235.448 90.3647C236.407 90.2555 237.173 89.3545 236.911 87.686L232.91 88.5203Z" fill="white"/>
<path d="M228.182 79.5988C228.555 79.5988 228.857 79.2971 228.857 78.9249C228.857 78.5527 228.555 78.251 228.182 78.251C227.808 78.251 227.506 78.5527 227.506 78.9249C227.506 79.2971 227.808 79.5988 228.182 79.5988Z" fill="#231F20"/>
<path d="M238.988 79.5988C239.361 79.5988 239.664 79.2971 239.664 78.9249C239.664 78.5527 239.361 78.251 238.988 78.251C238.615 78.251 238.312 78.5527 238.312 78.9249C238.312 79.2971 238.615 79.5988 238.988 79.5988Z" fill="#231F20"/>
<path fill-rule="evenodd" clip-rule="evenodd" d="M244.551 101.2C244.956 101.315 245.167 101.668 245.023 101.99L244.289 101.782C245.023 101.99 245.023 101.99 245.023 101.991L245.022 101.991L245.021 101.994L245.019 101.999C245.017 102.003 245.014 102.008 245.012 102.013C245.006 102.025 244.999 102.04 244.99 102.057C244.971 102.093 244.945 102.141 244.91 102.199C244.84 102.317 244.734 102.476 244.585 102.66C244.286 103.03 243.81 103.505 243.091 103.945C241.629 104.84 239.26 105.533 235.585 105.048C233.184 104.73 231.573 104.15 230.5 103.47C230.164 103.257 230.109 102.868 230.377 102.602C230.645 102.335 231.135 102.291 231.471 102.504C232.284 103.019 233.626 103.536 235.84 103.828C239.136 104.264 241.057 103.629 242.14 102.966C242.693 102.627 243.054 102.266 243.275 101.993C243.385 101.857 243.459 101.744 243.504 101.669C243.526 101.631 243.541 101.603 243.55 101.587C243.554 101.579 243.557 101.574 243.558 101.572L243.557 101.572L243.557 101.573L244.551 101.2ZM244.551 101.2C244.148 101.086 243.704 101.252 243.558 101.571L244.551 101.2ZM243.558 101.571C243.558 101.571 243.558 101.571 243.558 101.572L243.558 101.571C243.558 101.57 243.558 101.57 243.558 101.571Z" fill="#01A3DE"/>
<path d="M332.774 145.643H255.877L266.796 95.7729H343.693L332.774 145.643Z" fill="#413CB4"/>
<path d="M307.216 157.773H298.468L295.057 129.468H303.805L307.216 157.773Z" fill="#01A3DE"/>
<path d="M294.776 129.468L292.355 145.642L296.409 145.599L294.776 129.468Z" fill="#161F40"/>
<path d="M282.898 156.425H223.453V157.773H282.898V156.425Z" fill="#161F40"/>
<path d="M277.802 152.381L282.898 156.425H223.453L228.549 152.381H277.802Z" fill="#01A3DE"/>
<path d="M219.694 149.76L226.114 150.555L234.678 148.338L239.041 149.36C239.041 149.36 240.131 151.54 239.426 152.514L238.762 152.491C238.762 152.491 239.401 154.417 238.571 154.674C237.741 154.931 237.92 155.452 237.92 155.452C237.92 155.452 238.338 156.514 236.158 157.247C236.158 157.247 236.619 159.297 235.295 159.108C233.971 158.919 227.768 159.084 224.954 157.749L219.398 157.079C219.398 157.079 219.471 151.466 219.694 149.76Z" fill="#77562F"/>
<path d="M225.274 159.12C224.323 159.12 195.605 156.519 196.45 152.906C198.779 142.948 213.408 108.519 213.408 108.519C214.937 105.617 217.728 106.386 220.63 107.918C223.53 109.449 224.641 113.042 223.111 115.945L211.293 146.602L226.154 150.166C226.154 150.166 225.573 156.266 225.274 159.12Z" fill="#005388"/>
<path fill-rule="evenodd" clip-rule="evenodd" d="M138.338 165.185C138.338 164.814 138.509 164.512 138.72 164.512H328.449C328.661 164.512 328.832 164.814 328.832 165.185C328.832 165.558 328.661 165.86 328.449 165.86H138.72C138.509 165.86 138.338 165.558 138.338 165.185Z" fill="#01A3DE"/>
<path fill-rule="evenodd" clip-rule="evenodd" d="M145.094 208.316C145.094 207.944 145.265 207.642 145.476 207.642H343.312C343.523 207.642 343.694 207.944 343.694 208.316C343.694 208.688 343.523 208.99 343.312 208.99H145.476C145.265 208.99 145.094 208.688 145.094 208.316Z" fill="#01A3DE"/>
<path opacity="0.7" d="M137.977 53.099C137.977 67.6145 126.115 79.3816 111.483 79.3816C96.8503 79.3816 84.9883 67.6145 84.9883 53.099C84.9883 38.5835 96.8503 26.8164 111.483 26.8164C126.115 26.8164 137.977 38.5835 137.977 53.099Z" fill="#01A3DE"/>
<path opacity="0.56" d="M133.901 53.099C133.901 65.3814 123.864 75.3381 111.483 75.3381C99.1015 75.3381 89.0645 65.3814 89.0645 53.099C89.0645 40.8166 99.1015 30.8599 111.483 30.8599C123.864 30.8599 133.901 40.8166 133.901 53.099Z" fill="#B1E3F4"/>
<path opacity="0.9" d="M111.95 54.6176L152.475 17.3813L152.923 20.1169L112.548 68.5987L97.2168 48.159L111.95 54.6176Z" fill="#005388"/>
<path d="M98.5747 88.8163C98.5747 90.305 97.054 91.5119 95.1779 91.5119C93.302 91.5119 91.7812 90.305 91.7812 88.8163C91.7812 87.3275 93.302 86.1206 95.1779 86.1206C97.054 86.1206 98.5747 87.3275 98.5747 88.8163Z" fill="#01A3DE"/>
<path d="M117.597 88.8162C117.597 90.305 116.38 91.5119 114.879 91.5119C113.379 91.5119 112.162 90.305 112.162 88.8162C112.162 87.3275 113.379 86.1206 114.879 86.1206C116.38 86.1206 117.597 87.3275 117.597 88.8162Z" fill="#01A3DE"/>
<path d="M128.467 88.8162C128.467 90.305 126.947 91.5119 125.071 91.5119C123.195 91.5119 121.674 90.305 121.674 88.8162C121.674 87.3275 123.195 86.1206 125.071 86.1206C126.947 86.1206 128.467 87.3275 128.467 88.8162Z" fill="#413CB4"/>
<path d="M95.8594 86.1206H114.881V91.5119H95.8594V86.1206Z" fill="#01A3DE"/>
</svg>
