<svg width="37" height="36" viewBox="0 0 37 36" fill="none" xmlns="http://www.w3.org/2000/svg">
<rect x="0.5" width="36" height="36" rx="8" fill="#EBFFF2"/>
<path d="M27.8247 22.613C27.8415 25.5561 25.4197 27.9863 22.4765 27.9863C19.5082 27.9863 17.1032 25.6066 17.0864 22.655C17.0612 19.7623 19.4745 17.2817 22.3336 17.2649C25.4029 17.2396 27.8079 19.5773 27.8247 22.613ZM21.5516 24.0677C20.9461 23.4371 20.3827 22.84 19.8109 22.2682C19.4409 21.8898 19.0289 21.8646 18.7261 22.1757C18.4318 22.4868 18.4655 22.8484 18.8439 23.2268C19.5502 23.9416 20.265 24.6564 20.9797 25.3627C21.417 25.8 21.7113 25.8084 22.157 25.3795C22.6447 24.9086 23.124 24.4209 23.6034 23.9416C24.419 23.1259 25.2347 22.3103 26.0504 21.4946C26.4624 21.0825 26.5045 20.6957 26.1849 20.3762C25.8822 20.0735 25.4786 20.1323 25.0665 20.5444C25.0329 20.578 25.0077 20.6116 24.974 20.6369C23.8556 21.7553 22.7372 22.8737 21.5516 24.0677Z" fill="#2ED477"/>
<path d="M15.2108 11.6642C15.2108 10.9242 15.2024 10.2431 15.2108 9.57038C15.2192 8.6538 15.8499 8.01472 16.7749 8.00631C17.4392 7.9979 18.1035 7.9979 18.7678 8.00631C19.7937 8.01472 20.416 8.62016 20.4328 9.66288C20.4496 10.3104 20.4328 10.9579 20.4328 11.6726C21.0046 11.6726 21.5512 11.6558 22.0894 11.6726C22.6191 11.6895 23.006 12.0258 23.09 12.5051C23.1657 12.934 22.9303 13.3713 22.5098 13.5478C22.3753 13.5983 22.2239 13.6235 22.081 13.6235C19.2471 13.6319 16.4049 13.6319 13.5711 13.6235C12.9488 13.6235 12.5452 13.2451 12.5367 12.6649C12.5283 12.1015 12.9404 11.6895 13.5542 11.6726C14.084 11.6558 14.6138 11.6642 15.2108 11.6642ZM16.7749 9.89833C16.7749 10.4701 17.2374 10.941 17.8092 10.941C18.3642 10.941 18.8267 10.4954 18.8435 9.94038C18.8603 9.36857 18.4062 8.88925 17.8344 8.88084C17.2542 8.86403 16.7833 9.32652 16.7749 9.89833Z" fill="#2ED477"/>
<path d="M17.5908 27.9944C15.455 27.9944 13.3695 28.0113 11.2841 27.986C10.1237 27.9692 9.18184 27.0106 9.18184 25.8333C9.17343 20.9813 9.17343 16.1377 9.18184 11.2857C9.18184 10.0749 10.1321 9.14986 11.3598 9.10782C11.8475 9.091 12.3352 9.10782 12.8229 9.10782C13.1425 9.10782 13.4032 9.20872 13.3948 9.57031C13.3863 9.89826 13.1425 9.99917 12.8314 9.98235C12.3857 9.97394 11.94 9.97394 11.5027 9.98235C10.5693 9.99076 10.0564 10.5037 10.0564 11.4455C10.0564 15.9275 10.0564 20.4095 10.0564 24.8831C10.0564 25.1774 10.048 25.4717 10.0564 25.7745C10.0816 26.5817 10.5946 27.1031 11.4018 27.1115C12.8818 27.1199 14.3618 27.1704 15.8334 27.0947C16.6238 27.0526 17.1452 27.3385 17.5908 27.9944Z" fill="#2ED477"/>
<path d="M20.315 15.642C19.5834 16.0624 18.7173 16.4324 18.0194 17.0042C17.4392 17.4835 16.8842 17.6349 16.1862 17.6013C15.3033 17.5592 14.4119 17.6013 13.5206 17.5844C13.0328 17.576 12.6544 17.2817 12.5619 16.8697C12.4694 16.4492 12.5535 16.0624 12.9403 15.8186C13.1001 15.7261 13.3019 15.6504 13.4785 15.6504C15.7574 15.642 18.0362 15.642 20.315 15.642C20.3907 15.6672 20.3487 15.642 20.315 15.642Z" fill="#2ED477"/>
<path d="M26.42 16.6092C26.1593 16.4663 25.9323 16.3822 25.7641 16.2308C25.6548 16.1383 25.5959 15.9365 25.5959 15.7851C25.5875 14.3977 25.5875 13.0018 25.5959 11.6143C25.6043 10.4706 25.1082 9.96611 23.9562 9.97452C23.5441 9.97452 23.1237 10.0166 22.72 9.9577C22.5434 9.93247 22.4005 9.68861 22.2407 9.54566C22.3837 9.40271 22.5182 9.13362 22.6612 9.12521C23.3507 9.09998 24.0571 9.08316 24.7382 9.17566C25.6548 9.31021 26.4032 10.1343 26.42 11.0341C26.4452 12.8756 26.42 14.7088 26.42 16.6092Z" fill="#2ED477"/>
</svg>
