<svg width="14" height="14" viewBox="0 0 14 14" fill="none" xmlns="http://www.w3.org/2000/svg">
<path d="M7.00593 0.00661486C10.806 -0.0633251 14.0174 3.20054 13.9999 7.02975C13.9824 10.8123 10.7885 14.0121 6.96514 13.9946C3.18255 13.9771 -0.0346875 10.7774 0.000282435 6.92484C0.0352524 3.16557 3.21169 -0.0691534 7.00593 0.00661486ZM10.0134 2.70513C8.41639 1.39959 5.38566 1.21308 3.33409 3.20637C1.27086 5.20548 1.3408 8.28284 2.71046 10.008C5.14087 7.57179 7.57711 5.13554 10.0134 2.70513ZM11.3072 3.98736C8.86517 6.42943 6.42893 8.86568 3.99269 11.2961C5.71787 12.6424 8.69032 12.7124 10.6836 10.7715C12.6711 8.82488 12.706 5.81746 11.3072 3.98736Z" fill="#ACACAC"/>
</svg>
