<svg width="64" height="64" viewBox="0 0 64 64" fill="none" xmlns="http://www.w3.org/2000/svg">
<mask id="mask0_1_14789" style="mask-type:luminance" maskUnits="userSpaceOnUse" x="21" y="6" width="36" height="9">
<path fill-rule="evenodd" clip-rule="evenodd" d="M21.9515 6.62744H56.5001V14.7564H21.9515V6.62744Z" fill="white"/>
</mask>
<g mask="url(#mask0_1_14789)">
<path fill-rule="evenodd" clip-rule="evenodd" d="M28.0485 12.7244V13.7404C28.0485 14.3024 28.5035 14.7564 29.0645 14.7564H55.4845C56.0455 14.7564 56.5005 14.3024 56.5005 13.7404V12.7244C56.5005 9.35744 53.7705 6.62744 50.4035 6.62744H21.9515C25.3175 6.63144 28.0455 9.35844 28.0485 12.7244Z" fill="#D1D1D1"/>
</g>
<mask id="mask1_1_14789" style="mask-type:luminance" maskUnits="userSpaceOnUse" x="11" y="8" width="41" height="50">
<path fill-rule="evenodd" clip-rule="evenodd" d="M11.7899 8.65967H51.4199V57.4343H11.7899V8.65967Z" fill="white"/>
</mask>
<g mask="url(#mask1_1_14789)">
<path fill-rule="evenodd" clip-rule="evenodd" d="M45.3229 25.9344H35.1609C34.5999 25.9344 34.1449 25.4794 34.1449 24.9184C34.1449 24.3564 34.5999 23.9024 35.1609 23.9024H45.3229C45.8839 23.9024 46.3389 24.3564 46.3389 24.9184C46.3389 25.4794 45.8839 25.9344 45.3229 25.9344ZM45.3229 32.0314H23.9839C23.4229 32.0314 22.9679 31.5764 22.9679 31.0154C22.9679 30.4544 23.4229 29.9984 23.9839 29.9984H45.3229C45.8839 29.9984 46.3389 30.4544 46.3389 31.0154C46.3389 31.5764 45.8839 32.0314 45.3229 32.0314ZM45.3229 38.1274H23.9839C23.4229 38.1274 22.9679 37.6724 22.9679 37.1114C22.9679 36.5504 23.4229 36.0954 23.9839 36.0954H45.3229C45.8839 36.0954 46.3389 36.5504 46.3389 37.1114C46.3389 37.6724 45.8839 38.1274 45.3229 38.1274ZM45.3229 44.2244H23.9839C23.4229 44.2244 22.9679 43.7694 22.9679 43.2084C22.9679 42.6474 23.4229 42.1924 23.9839 42.1924H45.3229C45.8839 42.1924 46.3389 42.6474 46.3389 43.2084C46.3389 43.7694 45.8839 44.2244 45.3229 44.2244ZM45.3229 50.3214H23.9839C23.4229 50.3214 22.9679 49.8664 22.9679 49.3054C22.9679 48.7444 23.4229 48.2884 23.9839 48.2884H45.3229C45.8839 48.2884 46.3389 48.7444 46.3389 49.3054C46.3389 49.8664 45.8839 50.3214 45.3229 50.3214ZM29.0649 16.7884C27.3809 16.7884 26.0159 15.4244 26.0159 13.7404V12.9054C26.0529 10.7704 24.4769 8.94944 22.3579 8.68044C20.1249 8.45544 18.1319 10.0844 17.9069 12.3184C17.8939 12.4534 17.8869 12.5884 17.8869 12.7244V51.3374C17.8839 54.7034 15.1559 57.4314 11.7899 57.4344H45.3229C48.6899 57.4344 51.4199 54.7054 51.4199 51.3374V16.7884H29.0649Z" fill="#D1D1D1"/>
</g>
<path fill-rule="evenodd" clip-rule="evenodd" d="M8.74177 47.2729H14.8388C15.3998 47.2729 15.8548 47.7279 15.8548 48.2889V51.3379C15.8548 53.5829 14.0348 55.4019 11.7898 55.4019C9.54577 55.4019 7.72577 53.5829 7.72577 51.3379V48.2889C7.72577 47.7279 8.18077 47.2729 8.74177 47.2729Z" fill="#D1D1D1"/>
<rect x="32.0001" y="32" width="32" height="32" rx="16" fill="#FFBC00"/>
<g clip-path="url(#clip0_1_14789)">
<path d="M41.0001 48.321C41.0001 46.8226 41.0001 45.3242 41.0001 43.8258C41.0001 43.4002 41.2916 43.1087 41.7173 43.1087C42.3644 43.1028 43.0116 43.1028 43.6587 43.1087C43.7579 43.1087 43.8162 43.0854 43.8745 42.9979C44.2301 42.4499 44.5974 41.9135 44.9589 41.3712C45.1163 41.1264 45.332 41.0098 45.6294 41.0098C47.1977 41.0156 48.7603 41.0156 50.3286 41.0098C50.661 41.0098 50.8883 41.138 51.0691 41.4121C51.4189 41.9543 51.7745 42.4848 52.1419 43.0154C52.1768 43.0679 52.2643 43.1087 52.3284 43.1087C52.9698 43.1145 53.6111 43.1145 54.2524 43.1145C54.7072 43.1087 54.9929 43.3944 54.9929 43.8491C54.9929 45.4525 54.9929 47.05 54.9929 48.6533C54.9929 49.0848 54.6955 49.3996 54.2991 49.3938C53.891 49.3938 53.5936 49.0789 53.5936 48.6416C53.5936 47.3182 53.5878 45.9947 53.5994 44.6712C53.5994 44.5254 53.5528 44.4963 53.4187 44.4963C52.8007 44.5021 52.1827 44.4963 51.5647 44.5021C51.4655 44.5021 51.4189 44.4555 51.3664 44.3855C50.9583 43.7675 50.5385 43.1495 50.1304 42.5256C50.0721 42.4382 50.008 42.4032 49.903 42.4032C48.6495 42.409 47.3901 42.409 46.1366 42.4032C46.0084 42.4032 45.9267 42.4382 45.8509 42.549C45.4487 43.1612 45.0405 43.7675 44.6382 44.3739C44.5799 44.4671 44.5158 44.5021 44.405 44.5021C43.787 44.4963 43.169 44.5021 42.551 44.4963C42.4344 44.4963 42.3994 44.5254 42.3994 44.6421C42.3994 47.0791 42.3994 49.5162 42.3994 51.9591C42.3994 52.1807 42.3994 52.1807 42.6151 52.1807C44.6266 52.1807 46.6322 52.1807 48.6437 52.1807C49.0751 52.1807 49.3958 52.4722 49.3958 52.8686C49.4016 53.2709 49.0868 53.5799 48.6495 53.5799C47.0112 53.5799 45.367 53.5799 43.7287 53.5799C43.0699 53.5799 42.4169 53.5799 41.7581 53.5799C41.2858 53.5799 41.0001 53.3001 41.0001 52.822C41.0001 51.3236 41.0001 49.8252 41.0001 48.321Z" fill="white"/>
<path d="M48.0082 50.7867C46.4398 50.7867 45.198 49.5448 45.2038 47.9823C45.2038 46.4431 46.4515 45.2012 47.9965 45.2071C49.5649 45.2071 50.8009 46.4489 50.7951 48.0173C50.7892 49.5448 49.5357 50.7867 48.0082 50.7867ZM46.5972 47.9765C46.5856 48.7519 47.2094 49.3816 47.9848 49.3874C48.7544 49.3932 49.3783 48.781 49.3958 48.0114C49.4074 47.2418 48.7836 46.6063 48.0082 46.6005C47.2444 46.5888 46.6089 47.2127 46.5972 47.9765Z" fill="white"/>
<path d="M52.1943 53.5857C51.9669 53.5857 51.7629 53.5857 51.5588 53.5857C51.1215 53.5857 50.8009 53.2941 50.795 52.8919C50.7892 52.4837 51.0982 52.1922 51.5413 52.1864C51.7512 52.1806 51.9611 52.1864 52.1885 52.1864C52.1885 52.1339 52.1943 52.0873 52.1943 52.0406C52.1943 51.8541 52.1943 51.6733 52.1943 51.4867C52.2001 51.0845 52.5091 50.7871 52.9056 50.7871C53.2787 50.7871 53.5819 51.0903 53.5936 51.4809C53.5994 51.6617 53.5994 51.8424 53.5936 52.0231C53.5878 52.1456 53.6227 52.198 53.7568 52.1922C53.9376 52.1806 54.1183 52.1864 54.2991 52.1922C54.6722 52.198 54.9754 52.4837 54.9987 52.8452C55.022 53.2242 54.7538 53.5448 54.3807 53.5857C54.1708 53.6032 53.9609 53.6032 53.751 53.5915C53.6286 53.5857 53.5936 53.6323 53.5994 53.7489C53.6111 53.918 53.6052 54.0871 53.5994 54.262C53.5936 54.6876 53.2962 54.9908 52.8881 54.9908C52.4975 54.9908 52.2001 54.6759 52.2001 54.262C52.1943 54.0346 52.1943 53.8189 52.1943 53.5857Z" fill="white"/>
</g>
<defs>
<clipPath id="clip0_1_14789">
<rect width="14" height="14" fill="white" transform="translate(41.0001 41)"/>
</clipPath>
</defs>
</svg>
