<svg width="24" height="24" viewBox="0 0 24 24" fill="none" xmlns="http://www.w3.org/2000/svg">
<rect width="24" height="24" rx="6" fill="#FFF7E0"/>
<g clip-path="url(#clip0)">
<path d="M10.6775 7.24667C9.2198 7.46 8.08144 8.06667 7.15826 9.04667C4.40953 11.98 5.55483 16.58 9.37945 18.0467C9.58769 18.1267 9.93475 18.3267 9.92087 18.4333C9.87228 18.84 9.71263 19.2333 9.55298 19.62C9.53216 19.6733 9.26145 19.6733 9.12263 19.64C6.32531 18.84 4.13882 16.12 4.00694 13.2933C3.83341 9.41333 6.38084 6.36 10.3582 5.65333C10.4831 5.63333 10.6497 5.44667 10.6636 5.32667C10.7052 5.01333 10.6636 4.69333 10.6844 4.38C10.6983 4.24667 10.7955 4.12667 10.851 4C10.9829 4.06 11.1495 4.09333 11.2397 4.18667C11.8436 4.82 12.4336 5.46 13.0028 6.12C13.093 6.22667 13.1069 6.51333 13.0236 6.61333C12.4336 7.29333 11.8158 7.95333 11.1911 8.61333C11.1148 8.69333 10.9273 8.77333 10.8441 8.73333C10.7538 8.7 10.6983 8.52 10.6913 8.4C10.6705 8.04667 10.6775 7.68667 10.6775 7.24667Z" fill="#FF9A00"/>
<path d="M18.1462 12.7929C17.4243 12.7996 17.4243 12.7996 17.3271 12.1063C17.3202 12.0796 17.3133 12.0463 17.3063 12.0196C17.105 10.9329 16.9037 11.0929 18.174 10.6929C18.521 10.5863 18.7223 10.6663 18.7917 11.0129C18.8611 11.3929 18.9514 11.7796 18.9861 12.1663C19.0416 12.7263 18.9653 12.7929 18.3891 12.7996C18.3058 12.7929 18.2295 12.7929 18.1462 12.7929Z" fill="#FF9A00"/>
<path d="M15.814 16.6338C16.1888 16.9805 16.5498 17.2471 16.7927 17.5938C16.8621 17.6938 16.6331 18.0805 16.4526 18.2271C15.3212 19.1071 15.5155 19.0471 14.7728 17.9071C14.7173 17.8271 14.6687 17.6605 14.7104 17.6205C15.0435 17.2938 15.3975 16.9938 15.814 16.6338Z" fill="#FF9A00"/>
<path d="M11.441 19.1535C11.5174 18.9268 11.5452 18.5402 11.684 18.5002C12.1005 18.3735 12.5586 18.3602 13.0098 18.3535C13.0792 18.3535 13.1763 18.5868 13.218 18.7202C13.5512 19.8402 13.5442 19.8535 12.3434 19.9735C11.5313 20.0535 11.5035 20.0202 11.441 19.1535Z" fill="#FF9A00"/>
<path d="M17.4382 14.4399C18.1185 14.4799 18.6599 14.7666 18.6391 15.0666C18.6044 15.5333 18.0976 16.2999 17.8478 16.2799C17.5285 16.2466 16.7025 15.6466 16.7094 15.4533C16.7302 15.0133 17.1606 14.4199 17.4382 14.4399Z" fill="#FF9A00"/>
<path d="M17.5007 8.36024C17.4174 8.64024 16.5011 9.44691 16.3415 9.34024C15.9875 9.11357 15.7098 8.77357 15.4044 8.48024C15.7307 8.12691 16.0569 7.76691 16.3831 7.41357C16.751 7.72691 17.1258 8.04691 17.5007 8.36024Z" fill="#FF9A00"/>
</g>
<defs>
<clipPath id="clip0">
<rect width="15" height="16" fill="white" transform="translate(4 4)"/>
</clipPath>
</defs>
</svg>
