<svg width="20" height="21" viewBox="0 0 20 21" fill="none" xmlns="http://www.w3.org/2000/svg">
<g clip-path="url(#clip0_7726_103065)">
<path d="M7.7551 5.58594V8.52471H4.81633V5.58594H7.7551ZM9.22449 4.11655H3.34694V9.9941H9.22449V4.11655ZM7.7551 13.4227V16.3614H4.81633V13.4227H7.7551ZM9.22449 11.9533H3.34694V17.8308H9.22449V11.9533ZM15.5918 5.58594V8.52471H12.6531V5.58594H15.5918ZM17.0612 4.11655H11.1837V9.9941H17.0612V4.11655ZM11.1837 11.9533H12.6531V13.4227H11.1837V11.9533ZM12.6531 13.4227H14.1225V14.8921H12.6531V13.4227ZM14.1225 11.9533H15.5918V13.4227H14.1225V11.9533ZM11.1837 14.8921H12.6531V16.3614H11.1837V14.8921ZM12.6531 16.3614H14.1225V17.8308H12.6531V16.3614ZM14.1225 14.8921H15.5918V16.3614H14.1225V14.8921ZM15.5918 13.4227H17.0612V14.8921H15.5918V13.4227ZM15.5918 16.3614H17.0612V17.8308H15.5918V16.3614ZM20 6.07573H18.0408V3.13696H15.102V1.17777H20V6.07573ZM20 20.7696V15.8717H18.0408V18.8104H15.102V20.7696H20ZM0.408165 20.7696H5.30612V18.8104H2.36735V15.8717H0.408165V20.7696ZM0.408165 1.17777V6.07573H2.36735V3.13696H5.30612V1.17777H0.408165Z" fill="#FFBC00"/>
</g>
<defs>
<clipPath id="clip0_7726_103065">
<rect width="20" height="20" fill="white" transform="translate(0 0.973694)"/>
</clipPath>
</defs>
</svg>
