<svg width="24" height="24" viewBox="0 0 24 24" fill="none" xmlns="http://www.w3.org/2000/svg">
<rect width="24" height="24" rx="6" fill="#FFF1F1"/>
<g clip-path="url(#clip0)">
<path d="M12.7152 11.4108C13.2227 11.5567 13.3686 11.4167 13.3628 10.9733C13.3453 9.54417 13.3569 8.10917 13.3628 6.68C13.3628 6.26 13.5728 5.90417 13.9812 5.88667C14.2437 5.875 14.5471 6.09083 14.763 6.2775C14.8738 6.37083 14.8622 6.63917 14.868 6.82583C14.8797 8.3075 14.8913 9.795 14.8738 11.2767C14.868 11.72 14.9847 11.9242 15.5389 11.7433C15.5389 11.3292 15.5389 10.88 15.5389 10.425C15.5389 9.91167 15.5389 9.39833 15.5448 8.885C15.5564 8.34833 15.8715 7.96333 16.2857 7.9575C16.6999 7.95167 17.0267 8.33083 17.0383 8.87333C17.0558 9.865 17.0442 10.8508 17.0442 11.8425C17.0442 13.1492 17.0442 14.4558 17.0325 15.7683C17.0208 17.6175 15.6615 18.9767 13.8178 18.9883C13.1644 19 12.511 18.9883 11.8575 19C10.5448 19.0292 9.50052 18.4342 8.77124 17.425C7.8436 16.1358 7.03848 14.7592 6.18085 13.4233C6.09917 13.2892 5.98249 13.1258 5.99999 12.9917C6.04667 12.6417 6.0525 12.1867 6.26837 12C6.44339 11.8425 6.98597 11.895 7.21934 12.0583C7.65107 12.3675 7.97196 12.8342 8.35701 13.2192C8.53204 13.3942 8.74207 13.5925 8.96961 13.6508C9.87391 13.8842 10.6324 14.3042 11.1924 15.08C11.2683 15.185 11.5717 15.1208 11.77 15.1383C11.7759 14.975 11.8517 14.7708 11.7817 14.66C11.245 13.7908 10.4165 13.2892 9.45385 13.0208C9.03378 12.9042 8.9521 12.7117 8.95794 12.3208C8.97544 10.5533 8.96377 8.78583 8.96961 7.01833C8.96961 6.44667 9.33133 5.9975 9.76306 6.015C10.189 6.0325 10.504 6.44083 10.504 7.00667C10.5098 8.33083 10.5098 9.655 10.504 10.985C10.504 11.2358 10.469 11.4983 10.8541 11.4867C11.2216 11.475 11.1574 11.2183 11.1574 10.9967C11.1574 9.33417 11.1574 7.67167 11.1574 6.015C11.1633 5.385 11.4667 5 11.9276 5C12.3826 5 12.7093 5.40833 12.7093 6.00333C12.7152 7.61333 12.7093 9.2175 12.7093 10.8275C12.7152 11.02 12.7152 11.2125 12.7152 11.4108Z" fill="#F46363"/>
</g>
<defs>
<clipPath id="clip0">
<rect width="11.05" height="14" fill="white" transform="translate(6 5)"/>
</clipPath>
</defs>
</svg>
