<svg width="48" height="48" viewBox="0 0 48 48" fill="none" xmlns="http://www.w3.org/2000/svg">
<path fill-rule="evenodd" clip-rule="evenodd" d="M48 24C48 20.6875 47.375 17.5703 46.125 14.6484C44.875 11.7265 43.1641 9.1797 40.9922 7.00781C38.8203 4.83593 36.2735 3.12501 33.3516 1.875C30.4297 0.624994 27.3125 0 24 0C20.6875 0 17.5703 0.624994 14.6484 1.875C11.7265 3.12501 9.1797 4.83593 7.00781 7.00781C4.83593 9.1797 3.12501 11.7265 1.875 14.6484C0.624994 17.5703 0 20.6875 0 24C0 27.3125 0.624994 30.4297 1.875 33.3516C3.12501 36.2735 4.83593 38.8203 7.00781 40.9922C9.1797 43.1641 11.7265 44.875 14.6484 46.125C17.5703 47.375 20.6875 48 24 48C27.3125 48 30.4297 47.375 33.3516 46.125C36.2735 44.875 38.8203 43.1641 40.9922 40.9922C43.1641 38.8203 44.875 36.2735 46.125 33.3516C47.375 30.4297 48 27.3125 48 24ZM2.95312 24C2.95312 21.0937 3.50781 18.3672 4.61719 15.8203C5.72657 13.2734 7.23437 11.0547 9.14062 9.16406C11.0469 7.27343 13.2734 5.77344 15.8203 4.66406C18.3672 3.55468 21.0937 3 24 3C26.9063 3 29.6328 3.55468 32.1797 4.66406C34.7266 5.77344 36.9453 7.27343 38.8359 9.16406C40.7266 11.0547 42.2266 13.2734 43.3359 15.8203C44.4453 18.3672 45 21.0937 45 24C45 26.9063 44.4453 29.6328 43.3359 32.1797C42.2266 34.7266 40.7266 36.9453 38.8359 38.8359C36.9453 40.7266 34.7266 42.2266 32.1797 43.3359C29.6328 44.4453 26.9063 45 24 45C21.0937 45 18.3672 44.4453 15.8203 43.3359C13.2734 42.2266 11.0469 40.7266 9.14062 38.8359C7.23437 36.9453 5.72657 34.7266 4.61719 32.1797C3.50781 29.6328 2.95312 26.9063 2.95312 24ZM25.5 34.5C25.5 34.9375 25.3594 35.2969 25.0781 35.5781C24.7969 35.8594 24.4375 36 24 36C23.5937 36 23.2422 35.8594 22.9453 35.5781C22.6484 35.2969 22.5 34.9375 22.5 34.5V17.5312L17.0156 23.0625C16.7031 23.3438 16.3438 23.4844 15.9375 23.4844C15.5312 23.4844 15.1719 23.3438 14.8594 23.0625C14.7344 22.9062 14.6328 22.7344 14.5547 22.5469C14.4766 22.3594 14.4375 22.1719 14.4375 21.9844C14.4375 21.7969 14.4766 21.6094 14.5547 21.4219C14.6328 21.2344 14.7344 21.0625 14.8594 20.9062L23.9531 12.0469L33.0469 20.9062C33.3594 21.2188 33.5156 21.5781 33.5156 21.9844C33.5156 22.3906 33.3594 22.75 33.0469 23.0625C32.7656 23.3438 32.4141 23.4844 31.9922 23.4844C31.5703 23.4844 31.2188 23.3438 30.9375 23.0625L25.5 17.625V34.5Z" fill="#01A3DE"/>
</svg>
