<svg width="20" height="20" viewBox="0 0 20 20" fill="none" xmlns="http://www.w3.org/2000/svg">
<path fill-rule="evenodd" clip-rule="evenodd" d="M2.28516 10.625L4.58984 12.9102C4.70703 13.0404 4.76562 13.1901 4.76562 13.3594C4.76562 13.5286 4.70703 13.6784 4.58984 13.8086C4.52474 13.8607 4.45313 13.903 4.375 13.9355C4.29687 13.9681 4.21875 13.9844 4.14062 13.9844C4.0625 13.9844 3.98438 13.9681 3.90625 13.9355C3.82812 13.903 3.75651 13.8607 3.69141 13.8086L0 10.0195L3.69141 6.23047C3.82162 6.10026 3.97135 6.03516 4.14062 6.03516C4.3099 6.03516 4.45963 6.10026 4.58984 6.23047C4.70703 6.34766 4.76562 6.49414 4.76562 6.66992C4.76562 6.8457 4.70703 6.99219 4.58984 7.10938L2.32422 9.375H13.1055C13.2878 9.375 13.4375 9.43359 13.5547 9.55078C13.6719 9.66797 13.7305 9.81771 13.7305 10C13.7305 10.1693 13.6719 10.3158 13.5547 10.4395C13.4375 10.5632 13.2878 10.625 13.1055 10.625H2.28516ZM18.75 0C19.0885 0 19.3815 0.120442 19.6289 0.361328C19.8763 0.602215 20 0.898436 20 1.25V18.75C20 19.1016 19.8763 19.3978 19.6289 19.6387C19.3815 19.8796 19.0885 20 18.75 20H8.125C7.77344 20 7.47721 19.8796 7.23633 19.6387C6.99544 19.3978 6.875 19.1016 6.875 18.75V13.1055H8.125V17.9883C8.125 18.1966 8.19987 18.3757 8.34961 18.5254C8.49935 18.6751 8.67838 18.75 8.88672 18.75H17.9883C18.1966 18.75 18.3724 18.6751 18.5156 18.5254C18.6589 18.3757 18.7305 18.1966 18.7305 17.9883L18.7109 2.01172C18.7109 1.80338 18.6393 1.62435 18.4961 1.47461C18.3529 1.32487 18.1771 1.25 17.9688 1.25H8.88672C8.67838 1.25 8.49935 1.32487 8.34961 1.47461C8.19987 1.62435 8.125 1.80338 8.125 2.01172V6.875H6.875V1.25C6.875 0.898436 6.99544 0.602215 7.23633 0.361328C7.47721 0.120442 7.77344 0 8.125 0H18.75Z" fill="#FFBC00"/>
</svg>
