<svg width="151" height="56" viewBox="0 0 151 56" fill="none" xmlns="http://www.w3.org/2000/svg">
    <path d="M23.3941 39.1292V35.3938C23.3941 31.4914 23.389 27.5891 23.3788 23.6867C23.3788 22.6315 23.59 21.6432 24.2102 20.7695C24.9207 19.7678 25.8616 19.267 27.1962 19.4983V36.3859H34.6275V17.6516H20.4043C20.2718 16.1815 21.5929 14.9179 23.2213 14.9122C26.1785 14.8988 29.1375 14.9122 32.0966 14.9122H34.76C36.8166 14.9122 38.034 15.9292 38.372 17.9556C38.4491 18.4033 38.4889 18.8567 38.491 19.3109C38.4987 24.4826 38.4987 29.6543 38.491 34.826C38.491 36.1833 38.2395 37.4889 37.1469 38.4046C36.6841 38.787 36.0101 39.1292 35.4186 39.1387C31.5474 39.2037 27.6743 39.1731 23.8031 39.1712C23.709 39.1693 23.5919 39.1483 23.3941 39.1292Z" fill="white"/>
    <path d="M56.534 31.8153H45.7807V36.4128H57.4807C57.3155 38.0798 56.1365 39.1656 54.5446 39.1694C51.5625 39.1694 48.5804 39.1694 45.5963 39.1694C43.5571 39.1694 42.2724 38.0741 41.994 36.042C41.9155 35.3765 41.8822 34.7066 41.8941 34.0366C41.8826 31.5706 41.8826 29.1039 41.8941 26.6366C41.8941 25.3558 42.2014 24.1725 43.1423 23.2243C43.3807 22.9696 43.6698 22.7671 43.9911 22.6299C44.3125 22.4926 44.6591 22.4236 45.0088 22.4271C47.8008 22.4271 50.5909 22.4271 53.381 22.4271C54.777 22.4271 55.5835 23.2759 56.1058 24.4286C56.3502 24.9491 56.4898 25.5122 56.5167 26.086C56.5666 27.9499 56.534 29.8214 56.534 31.8153ZM52.6647 25.2162H45.7961V29.5175H52.6647V25.2162Z" fill="white"/>
    <path d="M112.001 36.8716C111.578 37.4661 111.248 38.1677 110.706 38.6227C110.249 39.005 109.554 39.1063 108.807 39.3873C108.807 39.439 108.788 39.6913 108.782 39.9436C108.753 41.473 108.782 43.0023 108.673 44.5316C108.632 45.1261 108.362 45.734 108.076 46.275C107.64 47.099 106.998 47.5597 105.938 47.5234C103.559 47.4431 101.176 47.4985 98.795 47.4985H97.9904V45.0879H104.878V37.5655C103.959 39.1274 102.574 39.2554 101.078 39.1809C100.045 39.1312 99.0081 39.135 97.9751 39.1809C96.5483 39.2421 95.5978 38.5883 94.9776 37.3629C94.9238 37.2597 94.8662 37.1583 94.7855 36.9997C94.5609 37.3323 94.3804 37.6305 94.1691 37.9039C93.5374 38.7316 92.7366 39.2076 91.6459 39.1809C90.2749 39.1465 88.9038 39.1809 87.5328 39.1694C85.8046 39.1579 84.9308 38.1887 85.0883 36.4185C86.0311 36.2178 86.9106 35.845 87.408 34.9313C88.1511 33.5644 88.2202 32.1766 87.3311 30.8556C86.8664 30.1636 86.2174 29.592 85.7623 28.8962C85.1862 28.0092 84.7196 27.0495 84.1973 26.1071C84.0053 26.5869 83.7864 27.147 83.5732 27.709C82.2041 31.3412 80.8311 34.9542 79.4831 38.5844C79.3141 39.0375 79.0991 39.1981 78.6017 39.1847C77.0233 39.1484 75.4391 39.1006 73.8664 39.1847C72.2015 39.2822 70.8747 38.8635 70.0893 37.2425C69.8051 37.6019 69.5862 37.9154 69.3327 38.1983C69.071 38.5122 68.7411 38.7629 68.3679 38.9315C67.9946 39.1 67.5879 39.182 67.1782 39.1713C65.8551 39.1503 64.5321 39.1713 63.209 39.1713C61.02 39.1713 59.5779 37.9632 59.503 35.7552C59.3954 32.5971 59.4435 29.4333 59.503 26.2734C59.5222 25.1512 59.9178 24.0558 60.8222 23.3428C61.3983 22.8916 62.1664 22.4615 62.8596 22.4443C66.3928 22.3564 69.9299 22.4061 73.467 22.4099C73.5608 22.423 73.6533 22.4441 73.7435 22.473V36.4396C74.5538 36.4396 75.2951 36.4778 76.0286 36.4128C76.2206 36.3975 76.4376 36.0783 76.524 35.8546C78.1101 31.7503 79.6751 27.6345 81.2478 23.5321C81.5032 22.863 81.5973 21.9473 82.0889 21.6032C82.5805 21.2591 83.4772 21.4866 84.2011 21.4732C84.7273 21.4636 85.2534 21.4732 85.8814 21.4732C85.0192 23.4843 86.1483 24.6408 87.5212 25.7266C88.9538 26.8583 90.3459 28.0321 91.2753 29.6532C92.439 31.6834 92.4063 33.6581 91.0737 35.1186C90.6359 35.5984 90.0521 35.9444 89.5029 36.3784H94.5225V22.473H98.2823V36.4032H104.913V22.4787H108.776V36.4338H112.001V36.8716ZM63.3127 25.2105V36.4071H69.8608V25.2086L63.3127 25.2105Z" fill="white"/>
    <path d="M3.58153 23.05V24.2084C3.57616 24.3186 3.59332 24.4286 3.63196 24.532C3.6706 24.6353 3.72992 24.7298 3.80632 24.8096C3.88272 24.8894 3.9746 24.953 4.07641 24.9964C4.17822 25.0399 4.28783 25.0622 4.39859 25.0622C4.50935 25.0622 4.61895 25.0399 4.72076 24.9964C4.82257 24.953 4.91446 24.8894 4.99086 24.8096C5.06726 24.7298 5.12657 24.6353 5.16521 24.532C5.20385 24.4286 5.22101 24.3186 5.21565 24.2084V23.05C5.21604 22.6025 5.3055 22.1596 5.47887 21.7469C5.65223 21.3341 5.90607 20.9596 6.22569 20.6451V20.6565C6.22488 20.6508 6.22488 20.645 6.22569 20.6393C6.06055 19.9588 6.08359 19.565 6.08167 18.7277C5.3221 19.168 4.69162 19.7988 4.25298 20.5571C3.81434 21.3154 3.58284 22.1749 3.58153 23.05Z" fill="white"/>
    <path d="M11.113 18.724V18.7106C11.113 19.915 11.1246 20.0239 10.9729 20.6357C10.9734 20.6452 10.9734 20.6548 10.9729 20.6644C10.9733 20.6567 10.9733 20.6491 10.9729 20.6414C11.2938 20.9548 11.5489 21.3287 11.7233 21.7413C11.8977 22.1538 11.9879 22.5968 11.9887 23.0444V31.1211C11.9872 31.599 11.8837 32.0711 11.6851 32.5061C11.4864 32.9412 11.1972 33.3292 10.8365 33.6445C10.8333 33.6544 10.8281 33.6635 10.8212 33.6713C10.8777 33.7657 10.9271 33.8641 10.969 33.9657C11.0767 34.3219 11.1247 34.6932 11.1111 35.0649V35.4472C11.8732 35.0074 12.506 34.3763 12.9464 33.6168C13.3868 32.8574 13.6194 31.9962 13.6209 31.1192V23.0501C13.6195 22.1736 13.3871 21.3129 12.9471 20.5538C12.507 19.7947 11.8746 19.1637 11.113 18.724Z" fill="white"/>
    <path d="M15.2506 17.6878C14.1784 16.3744 12.7379 15.4082 11.1125 14.9121H11.101V16.6326H11.1163C12.4132 17.1393 13.5274 18.0218 14.3148 19.1659C15.1022 20.3101 15.5265 21.6632 15.5329 23.0501V31.1268C15.5267 32.514 15.1024 33.8674 14.315 35.0118C13.5276 36.1563 12.4133 37.0392 11.1163 37.5462V39.2858V39.2705C12.8669 38.7369 14.3993 37.6582 15.4881 36.1929C16.5769 34.7277 17.1647 32.9533 17.1651 31.1307V23.0501C17.162 21.0972 16.4863 19.2045 15.2506 17.6878Z" fill="white"/>
    <path d="M5.21566 28.0051C5.22102 27.895 5.20386 27.7849 5.16522 27.6816C5.12658 27.5782 5.06727 27.4838 4.99087 27.4039C4.91447 27.3241 4.82258 27.2606 4.72077 27.2171C4.61896 27.1737 4.50935 27.1513 4.39859 27.1513C4.28783 27.1513 4.17822 27.1737 4.07642 27.2171C3.97461 27.2606 3.88272 27.3241 3.80632 27.4039C3.72992 27.4838 3.6706 27.5782 3.63196 27.6816C3.59332 27.7849 3.57616 27.895 3.58153 28.0051V31.1269C3.58245 32.0016 3.81337 32.8608 4.25132 33.6191C4.68927 34.3773 5.31898 35.0083 6.07785 35.4491H6.09513C6.09937 35.0286 6.13338 34.6089 6.1969 34.1932C6.22454 34.0041 6.2775 33.8196 6.35436 33.6445C5.99749 33.3274 5.71179 32.9389 5.51591 32.5044C5.32003 32.07 5.21838 31.5993 5.21758 31.123L5.21566 28.0051Z" fill="white"/>
    <path d="M6.08574 37.5444H1.66918V16.6328H6.08574V15.826V14.9104C6.08574 14.9104 2.04363 14.8454 0.0369736 14.9104C0.0120105 19.9724 0.0369736 26.0553 0.0369736 31.127C0.0369736 31.8572 0.0369736 39.2668 0.0369736 39.2668C0.0369736 39.2668 5.32148 39.1846 6.07998 39.2668V39.284V37.5463L6.08574 37.5444Z" fill="white"/>
    <path d="M6.07762 9.72584L6.21972 7.80271L6.07762 7.63448C5.51763 7.0203 5.20573 6.22156 5.20199 5.3921V0.853813C5.20735 0.743677 5.19019 0.633603 5.15155 0.530265C5.11291 0.426927 5.05359 0.332477 4.97719 0.252642C4.90079 0.172806 4.80891 0.109248 4.7071 0.0658204C4.60529 0.0223926 4.49568 0 4.38492 0C4.27416 0 4.16455 0.0223926 4.06274 0.0658204C3.96093 0.109248 3.86905 0.172806 3.79265 0.252642C3.71625 0.332477 3.65693 0.426927 3.61829 0.530265C3.57965 0.633603 3.56249 0.743677 3.56785 0.853813V5.3921C3.56794 6.27008 3.79985 7.13262 4.24035 7.89324C4.68084 8.65386 5.31443 9.28585 6.07762 9.72584Z" fill="white"/>
    <path d="M11.1029 9.72584C11.865 9.28512 12.4975 8.65282 12.9369 7.89225C13.3764 7.13168 13.6074 6.26952 13.6069 5.3921V0.853813C13.6123 0.743677 13.5951 0.633603 13.5565 0.530265C13.5178 0.426927 13.4585 0.332477 13.3821 0.252642C13.3057 0.172806 13.2138 0.109248 13.112 0.0658204C13.0102 0.0223926 12.9006 0 12.7898 0C12.6791 0 12.5695 0.0223926 12.4677 0.0658204C12.3659 0.109248 12.274 0.172806 12.1976 0.252642C12.1212 0.332477 12.0619 0.426927 12.0232 0.530265C11.9846 0.633603 11.9674 0.743677 11.9728 0.853813V5.3921C11.9678 6.21855 11.6582 7.01442 11.1029 7.62875L10.9608 7.79889L11.1029 9.72584Z" fill="white"/>
    <path d="M6.07779 13.5608V11.8155C4.78025 11.3083 3.66565 10.4249 2.8785 9.27956C2.09134 8.13427 1.66793 6.77998 1.66315 5.39227V0.85398C1.66315 0.637996 1.57697 0.430859 1.42356 0.278135C1.27015 0.125411 1.06208 0.0396118 0.845126 0.0396118C0.628172 0.0396118 0.420105 0.125411 0.266696 0.278135C0.113286 0.430859 0.027102 0.637996 0.027102 0.85398V5.39227C0.0257293 7.21625 0.613014 8.99242 1.70239 10.459C2.79177 11.9255 4.32559 13.0048 6.07779 13.5379V13.5608Z" fill="white"/>
    <path d="M16.3265 0.0396208C16.1095 0.0396208 15.9015 0.12542 15.7481 0.278144C15.5947 0.430868 15.5085 0.638005 15.5085 0.853989V5.39228C15.5104 6.78132 15.0894 8.13834 14.301 9.28435C13.5125 10.4304 12.3936 11.3115 11.0919 11.8116V13.5551V13.5321C12.845 13.002 14.3802 11.9243 15.4705 10.4584C16.5609 8.99253 17.1485 7.21629 17.1464 5.39228V0.853989C17.1467 0.746813 17.1256 0.640645 17.0845 0.541602C17.0434 0.442559 16.983 0.352598 16.9067 0.276902C16.8305 0.201205 16.74 0.141269 16.6404 0.100545C16.5408 0.0598219 16.4342 0.0391162 16.3265 0.0396208Z" fill="white"/>
    <path d="M6.07647 9.72593V15.9388V16.736V18.8274C6.07647 19.6723 6.05727 20.0661 6.22049 20.7505C6.40291 21.5037 7.37263 22.4309 8.59391 22.4289C9.11429 22.4247 9.6208 22.2614 10.0449 21.9612C10.4691 21.661 10.7904 21.2384 10.9654 20.7505C11.1171 20.1388 11.0998 20.0317 11.1075 18.8274V17.5504V8.89819C11.121 8.5265 11.073 8.15514 10.9654 7.79898C10.5449 6.75139 9.29095 5.67512 7.5877 6.31744C7.22084 6.44893 6.89679 6.67724 6.65022 6.97793C6.40364 7.27863 6.24382 7.64041 6.18784 8.02455C6.10441 8.58773 6.06716 9.15674 6.07647 9.72593ZM9.46954 19.9208C9.46954 20.153 9.37688 20.3757 9.21194 20.5399C9.04701 20.7041 8.82332 20.7964 8.59007 20.7964C8.35682 20.7964 8.13312 20.7041 7.96819 20.5399C7.80325 20.3757 7.7106 20.153 7.7106 19.9208V8.62482C7.7106 8.39261 7.80325 8.16991 7.96819 8.00572C8.13312 7.84152 8.35682 7.74928 8.59007 7.74928C8.82332 7.74928 9.04701 7.84152 9.21194 8.00572C9.37688 8.16991 9.46954 8.39261 9.46954 8.62482V19.9208Z" fill="white"/>
    <path d="M6.07989 35.9023V42.1152V42.9123V45.0037C6.07989 45.8487 6.05877 46.2425 6.22391 46.9268C6.40441 47.68 7.37606 48.6072 8.59541 48.6053C9.11613 48.6014 9.62306 48.4383 10.0476 48.1381C10.4721 47.8379 10.7937 47.415 10.9688 46.9268C11.1205 46.3151 11.1033 46.2081 11.109 45.0037V43.7229V35.0745C11.1234 34.7022 11.0754 34.33 10.9669 33.9734C10.5483 32.9277 9.29438 31.8515 7.59112 32.4938C7.22426 32.6253 6.90021 32.8536 6.65364 33.1543C6.40706 33.455 6.24724 33.8168 6.19126 34.2009C6.10782 34.7641 6.07058 35.3331 6.07989 35.9023ZM9.47105 46.1106C9.4766 46.2289 9.458 46.347 9.41635 46.458C9.37471 46.5689 9.3109 46.6703 9.22877 46.7559C9.14665 46.8416 9.04792 46.9098 8.93856 46.9564C8.8292 47.003 8.71149 47.027 8.59253 47.027C8.47358 47.027 8.35586 47.003 8.2465 46.9564C8.13714 46.9098 8.03842 46.8416 7.95629 46.7559C7.87417 46.6703 7.81035 46.5689 7.76871 46.458C7.72707 46.347 7.70846 46.2289 7.71402 46.1106V34.8012C7.70846 34.6829 7.72707 34.5647 7.76871 34.4538C7.81035 34.3428 7.87417 34.2415 7.95629 34.1558C8.03842 34.0701 8.13714 34.0019 8.2465 33.9553C8.35586 33.9087 8.47358 33.8847 8.59253 33.8847C8.71149 33.8847 8.8292 33.9087 8.93856 33.9553C9.04792 34.0019 9.14665 34.0701 9.22877 34.1558C9.3109 34.2415 9.37471 34.3428 9.41635 34.4538C9.458 34.5647 9.4766 34.6829 9.47105 34.8012V46.1106Z" fill="white"/>
    <path d="M11.0935 45.0112L10.9495 46.9325L11.0896 47.1007C11.6491 47.7129 11.961 48.5097 11.9653 49.3373V53.8833C11.9599 53.9934 11.9771 54.1035 12.0157 54.2068C12.0544 54.3101 12.1137 54.4046 12.1901 54.4844C12.2665 54.5643 12.3584 54.6278 12.4602 54.6712C12.562 54.7147 12.6716 54.7371 12.7823 54.7371C12.8931 54.7371 13.0027 54.7147 13.1045 54.6712C13.2063 54.6278 13.2982 54.5643 13.3746 54.4844C13.451 54.4046 13.5103 54.3101 13.549 54.2068C13.5876 54.1035 13.6048 53.9934 13.5994 53.8833V49.3373C13.5986 48.461 13.3667 47.6002 12.9269 46.841C12.4872 46.0819 11.855 45.4509 11.0935 45.0112Z" fill="white"/>
    <path d="M6.06869 45.0093C5.30885 45.4504 4.67849 46.0823 4.24047 46.8417C3.80246 47.6011 3.5721 48.4616 3.57237 49.3373V53.8832C3.56701 53.9933 3.58416 54.1034 3.6228 54.2068C3.66144 54.3101 3.72076 54.4045 3.79716 54.4844C3.87356 54.5642 3.96545 54.6278 4.06726 54.6712C4.16907 54.7146 4.27868 54.737 4.38944 54.737C4.5002 54.737 4.6098 54.7146 4.71161 54.6712C4.81342 54.6278 4.90531 54.5642 4.98171 54.4844C5.05811 54.4045 5.11743 54.3101 5.15607 54.2068C5.19471 54.1034 5.21187 53.9933 5.2065 53.8832V49.3373C5.21109 48.5113 5.52071 47.7159 6.07637 47.1025L6.21847 46.9324L6.23959 46.8999L6.09557 44.9997L6.06869 45.0093Z" fill="white"/>
    <path d="M11.0936 41.1765V42.92C12.3905 43.4266 13.5047 44.3092 14.2921 45.4533C15.0795 46.5974 15.5038 47.9505 15.5102 49.3374V53.8834C15.5048 53.9935 15.522 54.1036 15.5606 54.2069C15.5992 54.3102 15.6586 54.4047 15.735 54.4845C15.8114 54.5644 15.9033 54.6279 16.0051 54.6713C16.1069 54.7148 16.2165 54.7372 16.3272 54.7372C16.438 54.7372 16.5476 54.7148 16.6494 54.6713C16.7512 54.6279 16.8431 54.5644 16.9195 54.4845C16.9959 54.4047 17.0552 54.3102 17.0939 54.2069C17.1325 54.1036 17.1497 53.9935 17.1443 53.8834V49.3374C17.1448 47.5148 16.5572 45.7403 15.4683 44.2752C14.3793 42.8101 12.8464 41.7319 11.0955 41.1995V41.1765H11.0936Z" fill="white"/>
    <path d="M0.84152 54.6976C1.05847 54.6976 1.26654 54.6118 1.41995 54.4591C1.57336 54.3064 1.65954 54.0992 1.65954 53.8833V49.3373C1.65694 47.9479 2.07767 46.5903 2.86619 45.4438C3.65471 44.2974 4.77394 43.416 6.07611 42.916L6.08571 41.2184V41.1917H6.06074C4.31029 41.7255 2.77863 42.8055 1.69189 44.2723C0.605143 45.739 0.0209033 47.5147 0.0254166 49.3373V53.8833C0.025164 53.9901 0.0460868 54.096 0.0869868 54.1948C0.127887 54.2936 0.18796 54.3833 0.263768 54.459C0.339575 54.5346 0.429627 54.5946 0.528767 54.6356C0.627906 54.6765 0.734186 54.6976 0.84152 54.6976Z" fill="white"/>
</svg>
