<svg width="240" height="155" viewBox="0 0 240 155" fill="none" xmlns="http://www.w3.org/2000/svg">
<g clip-path="url(#clip0_13602_765104)">
<path d="M138.181 142.862H141.234C141.589 142.862 141.877 143.15 141.877 143.508V146.574C141.877 146.931 141.589 147.22 141.234 147.22H138.181C137.827 147.22 137.539 146.931 137.539 146.574V143.508C137.539 143.15 137.827 142.862 138.181 142.862Z" fill="#FFBC00"/>
<path d="M147.506 141.881H150.558C150.913 141.881 151.201 142.169 151.201 142.527V145.593C151.201 145.95 150.913 146.239 150.558 146.239H147.506C147.151 146.239 146.863 145.95 146.863 145.593V142.527C146.863 142.169 147.151 141.881 147.506 141.881Z" fill="#FFBC00"/>
<path d="M128.855 141.881H131.907C132.262 141.881 132.55 142.169 132.55 142.527V145.593C132.55 145.95 132.262 146.239 131.907 146.239H128.855C128.5 146.239 128.212 145.95 128.212 145.593V142.527C128.212 142.169 128.5 141.881 128.855 141.881Z" fill="#FFBC00"/>
<path d="M156.83 141.881H159.882C160.237 141.881 160.525 142.169 160.525 142.527V145.593C160.525 145.95 160.237 146.239 159.882 146.239H156.83C156.475 146.239 156.187 145.95 156.187 145.593V142.527C156.187 142.169 156.475 141.881 156.83 141.881Z" fill="#FFBC00"/>
<path d="M167.465 146.06L193.485 87.9565L238.233 87.6898L212.016 146.605L167.465 146.06Z" fill="#14A1DC"/>
<path d="M211.721 148.186C210.907 148.186 210.249 147.522 210.249 146.705C210.249 146.503 210.29 146.303 210.371 146.117L235.938 89.4946C236.064 89.2018 235.931 88.8589 235.638 88.7327C235.564 88.7018 235.483 88.6851 235.405 88.6851L195.471 89.1327C194.913 89.1375 194.411 89.4661 194.178 89.9756L168.525 146.741C168.206 147.493 167.339 147.841 166.591 147.52C165.844 147.198 165.496 146.329 165.818 145.577L192.23 87.0803C192.461 86.5351 192.994 86.1827 193.585 86.1827L238.529 85.7184C239.343 85.7184 240.002 86.3803 240 87.1994C240 87.4018 239.96 87.6018 239.879 87.7851L213.073 147.293C212.84 147.836 212.309 148.186 211.721 148.186Z" fill="#FFBC00"/>
<path d="M114.976 148.655C113.657 148.339 112.845 147.005 113.162 145.682C113.426 144.572 114.414 143.789 115.552 143.791L211.695 143.882C213.05 143.882 214.15 144.984 214.15 146.348C214.15 147.713 213.052 148.815 211.695 148.815L115.552 148.724C115.36 148.724 115.164 148.701 114.976 148.655Z" fill="#333333"/>
<path d="M208.645 147.312C209.133 147.312 209.528 146.915 209.528 146.424C209.528 145.934 209.133 145.536 208.645 145.536C208.157 145.536 207.761 145.934 207.761 146.424C207.761 146.915 208.157 147.312 208.645 147.312Z" fill="#FFBC00"/>
<path d="M204.526 147.132H204.521L198.471 147.091C198.037 147.089 197.687 146.732 197.69 146.296C197.692 145.86 198.047 145.508 198.48 145.512L204.528 145.553C204.961 145.553 205.311 145.908 205.311 146.346C205.311 146.784 204.957 147.134 204.523 147.132H204.526Z" fill="#FFBC00"/>
<path d="M74.7158 110.186C74.7158 110.186 91.6828 99.971 98.7162 88.8256C98.7162 88.8256 97.7305 82.7064 98.521 78.223C99.1377 74.7467 101.695 72.3967 106.095 74.3348C108.24 72.6991 114.383 72.3967 115.607 75.1586C117.145 75.061 119.086 76.2849 119.086 78.3325C120.819 78.7444 121.945 80.4778 121.436 82.2207C125.217 84.5707 117.155 101.078 115.909 103.385C108.543 117.086 99.602 131.405 83.3493 144.22C67.9632 156.351 44.6675 154.51 36.5412 149.42C0.00712776 126.531 46.7509 60.0607 66.2323 54.1035C82.1588 49.2296 78.1515 77.6063 63.8489 115.083C69.7109 113.112 74.7158 110.188 74.7158 110.188V110.186Z" fill="#F0A99E"/>
<path d="M84.2946 118.245C84.2946 118.429 84.435 118.569 84.6208 118.569H84.6541C84.7636 118.557 94.5686 117.693 107.766 117.248C107.907 117.031 108.047 116.802 108.188 116.588C94.7424 117.033 84.6969 117.921 84.5993 117.921C84.4255 117.943 84.2969 118.083 84.2969 118.245H84.2946ZM107.438 77.0325C107.569 77.4992 107.459 77.9969 107.157 78.3659C105.845 80.0874 101.988 78.1492 101.945 78.1278C101.783 78.0516 101.588 78.1064 101.512 78.2683C101.426 78.4302 101.49 78.6254 101.652 78.7016C101.771 78.7659 103.666 79.7088 105.412 79.7088C105.888 79.7088 106.343 79.6326 106.755 79.4588C105.79 82.135 105.705 84.116 106.505 85.3184C106.883 85.9137 107.524 86.3161 108.228 86.4018H108.25C108.293 86.4018 108.336 86.3899 108.369 86.3804C108.424 87.0399 108.597 87.6042 108.9 88.0709C109.095 88.3852 109.355 88.6447 109.647 88.8518C107.838 89.0899 106.645 90.1852 106.593 90.2376C106.528 90.3019 106.495 90.39 106.495 90.4757C106.495 90.659 106.635 90.7995 106.821 90.7995C106.907 90.7995 106.983 90.7661 107.038 90.7138C107.05 90.7019 108.555 89.328 110.678 89.4685C110.69 90.128 110.809 90.7042 111.047 91.1685C111.417 91.9043 111.969 92.1543 112.109 92.209C112.314 92.3067 112.531 92.3495 112.759 92.3495C112.964 92.3495 113.171 92.3162 113.367 92.2424C114.298 91.9281 115.121 90.9328 115.826 89.2757C115.826 89.2637 115.838 89.2637 115.838 89.2542C115.871 89.1471 116.781 86.6018 119.012 87.3161C119.186 87.3708 119.369 87.2732 119.424 87.1113C119.479 86.9375 119.381 86.7542 119.219 86.6994C116.964 85.9732 115.633 87.9113 115.231 89.0399C114.462 90.8495 113.702 91.4447 113.193 91.6281C112.738 91.79 112.433 91.64 112.424 91.64C112.402 91.6281 112.381 91.6186 112.359 91.6186C112.338 91.6066 111.926 91.4662 111.633 90.8709C111.307 90.2114 111.102 88.8899 111.959 86.4185C112.783 84.0351 114.083 82.4874 115.805 81.816C118.145 80.916 120.66 81.8707 121.514 82.2612C121.493 82.2493 121.481 82.2398 121.471 82.2279C121.536 82.0112 121.569 81.7945 121.591 81.5779C120.507 81.1112 118.005 80.2779 115.576 81.2088C113.659 81.9446 112.238 83.6351 111.35 86.2137C111.036 87.1137 110.84 87.9256 110.755 88.6518C110.224 88.5447 109.757 88.2066 109.464 87.7423C108.878 86.8113 108.89 85.2946 109.507 83.3446C110.255 80.9945 111.521 79.3921 113.278 78.5778C115.726 77.4397 118.5 78.1326 119.562 78.4802C119.421 78.4254 119.269 78.373 119.117 78.3397C119.117 78.1016 119.083 77.8635 119.04 77.6468C117.631 77.2897 115.238 76.954 113.017 77.9826C111.088 78.8826 109.69 80.6136 108.888 83.1493C108.574 84.147 108.412 85.0351 108.39 85.8018C108.357 85.7899 108.336 85.7803 108.305 85.7803C107.795 85.7161 107.34 85.4113 107.069 84.9779C106.602 84.2636 106.288 82.7469 107.416 79.6374C108.814 75.792 113.452 75.1849 116.15 75.1754C115.976 75.1539 115.802 75.1539 115.64 75.1635C115.543 74.9349 115.402 74.7301 115.24 74.5468C114.624 74.5801 114.005 74.6444 113.388 74.742C111.124 75.1206 109.347 75.9659 108.155 77.223C108.143 77.1159 108.121 76.9945 108.09 76.8873C107.852 75.9992 107.071 75.123 106.119 74.342C105.393 74.0277 104.733 73.823 104.104 73.7253C105.588 74.6349 107.128 75.8492 107.443 77.0397L107.438 77.0325ZM100.145 91.7424C100.209 91.7971 100.285 91.8281 100.373 91.8281C100.462 91.8281 100.547 91.7947 100.612 91.7305C100.731 91.5995 100.731 91.3947 100.6 91.2757C99.6139 90.3328 99.0496 89.4447 98.7139 88.7304C98.7258 88.7947 98.7258 88.828 98.7258 88.828C98.5948 89.0328 98.4663 89.228 98.3353 89.4352C98.7044 90.1185 99.2782 90.909 100.145 91.7424Z" fill="#333333"/>
<path d="M69.0919 18.9885C69.0919 18.9885 55.4392 31.9745 44.0842 34.5412C34.0293 36.8055 11.0812 37.4437 9.43353 60.5584C8.52399 73.2634 13.236 76.7825 2.75959 100.535C-8.30254 125.641 15.5456 143.967 44.9628 134.555C53.0558 132.205 30.2268 137.827 49.2653 126.324C74.3801 111.15 77.0349 45.0271 76.5801 31.7697L69.0919 18.9885Z" fill="#333333"/>
<path d="M104.447 44.5724C102.54 45.6653 96.571 44.7129 93.7209 43.9343C92.6375 44.1081 91.7923 45.2986 90.6446 47.8558C90.4613 48.2677 90.3089 48.6891 90.1899 49.1225C87.4374 59.5751 86.7446 71.2515 86.4731 73.492C86.4731 73.492 64.7703 81.616 54.3796 69.4086C54.3796 69.4086 64.7703 66.43 62.4298 56.6274C62.4298 56.6274 74.8681 45.57 78.0444 27.4697C77.9134 27.503 77.773 27.5125 77.6325 27.503C76.9491 27.6006 76.3325 27.6435 75.7801 27.7078L75.5515 27.7411L75.3991 27.7625C75.3134 27.784 75.2158 27.7959 75.1277 27.7959C74.9229 27.8173 74.7372 27.8173 74.5419 27.8506C74.4658 27.8625 74.3896 27.8721 74.3134 27.8721C73.5872 27.9268 73.0133 27.9578 72.5252 27.9911C72.449 27.9911 72.3729 27.9911 72.2967 28.0125C72.2109 28.0125 72.1776 28.034 72.0919 28.034C72.0371 28.034 71.9728 28.0554 71.9181 28.0554C71.8633 28.0554 71.799 28.0768 71.7443 28.0768C71.6586 28.0768 71.5705 28.0983 71.4847 28.0983C71.4419 28.0983 71.399 28.0983 71.3657 28.1197C71.2133 28.1316 71.0633 28.1411 70.899 28.1411C64.1703 19.2386 68.949 7.38832 82.1016 4.20492C82.1016 4.20492 83.5636 3.3811 83.5755 3.40253C85.8398 2.87156 98.7448 4.69065 101.573 9.07883C102.721 10.9193 103.685 12.8599 104.433 14.8956C104.671 15.5123 104.866 16.1313 105.05 16.7695L105.071 16.7909C105.331 17.6361 105.538 18.5028 105.754 19.3576C105.907 19.9743 106.102 20.5695 106.264 21.1886C106.502 21.9791 106.783 22.9315 107.228 23.6363C107.674 24.3196 108.431 24.753 109.145 25.1315C110.726 25.8887 109.285 27.9054 108.083 28.5983C108.193 31.7507 109.112 41.8557 104.443 44.5748L104.447 44.5724Z" fill="#F0A99E"/>
<path opacity="0.52" d="M92.0423 36.165C94.3527 36.165 96.2257 34.2931 96.2257 31.984C96.2257 29.6749 94.3527 27.803 92.0423 27.803C89.7319 27.803 87.8589 29.6749 87.8589 31.984C87.8589 34.2931 89.7319 36.165 92.0423 36.165Z" fill="#E17280"/>
<path d="M97.4043 18.729C95.8233 20.429 95.7043 22.6386 96.6019 23.31C97.4995 23.9815 99.452 23.0505 100.688 21.1005C101.954 19.0957 102.357 17.0718 101.49 16.5194C100.59 15.9789 98.9662 17.0718 97.4043 18.729Z" fill="#333333"/>
<path d="M104.816 35.7127C104.566 35.896 104.264 36.027 103.959 36.0913C103.657 36.1675 103.342 36.177 103.038 36.1246C102.421 36.0603 101.835 35.8103 101.359 35.4103C101.121 35.2055 100.914 34.9651 100.742 34.7055C100.581 34.4341 100.45 34.1531 100.364 33.8508C100.202 33.2436 100.254 32.6055 100.516 32.0317C100.602 31.8579 100.809 31.7936 100.983 31.8793C100.995 31.8793 101.004 31.8912 101.016 31.8912C101.147 31.9555 101.221 32.1079 101.2 32.2483V32.2698C101.145 32.6912 101.2 33.1246 101.352 33.5269C101.438 33.7222 101.547 33.9055 101.678 34.0793C101.797 34.2412 101.938 34.3936 102.09 34.5246C102.426 34.7841 102.816 34.9794 103.238 35.077C103.65 35.1841 104.095 35.196 104.504 35.0984L104.526 35.077C104.7 35.0127 104.895 35.1103 104.959 35.2817C104.971 35.2936 104.971 35.3151 104.971 35.3365C104.993 35.4675 104.938 35.6175 104.819 35.7151L104.816 35.7127Z" fill="#333333"/>
<path d="M98.8567 25.6934C99.6591 25.1077 101.619 23.7767 103.126 21.891C103.331 21.6314 103.712 21.5886 103.971 21.7933L103.983 21.8052H104.004C104.676 22.3576 105.619 23.4505 104.416 24.6005C102.942 25.9863 99.8662 26.7125 98.9114 26.2244C98.759 26.1601 98.6947 25.9863 98.759 25.8339C98.759 25.822 98.7709 25.822 98.7709 25.8125V25.791C98.7924 25.8029 98.8257 25.7482 98.8567 25.6934Z" fill="#333333"/>
<path d="M81.8779 26.9816C81.8779 26.9816 77.8683 23.6672 73.642 25.4863C69.6657 27.1982 70.6729 33.446 78.1707 36.4246C79.6993 36.9984 81.3136 37.3127 82.9374 37.3675L81.8755 26.9816H81.8779Z" fill="#F0A99E"/>
<path d="M103.093 11.7217C103.093 11.7217 98.4757 21.8909 82.3326 27.3291C78.973 23.3314 71.8871 22.9862 71.3562 28.6625C70.63 36.3626 65.2441 37.8365 65.2441 37.8365L44.9271 34.284C51.7534 32.7578 58.6011 29.1077 65.4608 15.0813C74.9634 -5.33579 98.1496 -1.09047 103.093 11.7241V11.7217Z" fill="#333333"/>
<path d="M82.3541 27.3291C82.3541 27.3291 80.4135 25.7148 79.623 25.2172C81.4207 21.0695 87.5327 9.23115 85.2684 1.17146C85.7446 -0.302376 91.8352 -0.940484 93.5995 2.66673C95.1067 5.68822 88.5494 21.2528 82.3517 27.3291H82.3541Z" fill="#F54F46"/>
<path d="M88.228 41.3318C87.2851 40.7365 85.7803 39.5341 84.8684 40.2055C83.916 40.8889 86.7636 46.7914 90.0589 49.6819C90.1137 49.4772 90.1685 49.2819 90.2209 49.0748C90.3304 48.6748 90.4709 48.2843 90.6328 47.9057C91.7066 45.5128 92.5185 44.3104 93.4923 43.9961C93.5685 43.9747 93.6447 43.9532 93.7209 43.9413C91.6185 43.2913 90.1137 42.5127 88.228 41.3318Z" fill="#333333"/>
<path d="M78.7683 37.2722C78.9087 37.2722 79.0278 37.1864 79.0706 37.0674C79.1349 36.8936 79.0492 36.7102 78.8754 36.646C78.854 36.634 77.4897 36.1269 75.9611 35.3793C75.8849 35.584 75.8087 35.7912 75.7444 35.9959C77.2516 36.7317 78.5611 37.2198 78.6587 37.2531C78.6921 37.265 78.7349 37.2745 78.7683 37.2745V37.2722ZM81.9112 33.1554C81.7921 33.1554 81.6945 33.0911 81.6302 32.9935C79.1921 28.8672 75.3468 29.5601 75.1825 29.5934C75.0087 29.6268 74.8348 29.5077 74.8039 29.3339C74.7729 29.1601 74.8801 28.9863 75.0539 28.9553C75.9111 28.8244 76.7777 28.8696 77.623 29.0863C78.9349 29.4101 80.7969 30.2982 82.185 32.6602C82.2707 32.8125 82.2278 33.0173 82.0659 33.1054C82.0326 33.1483 81.9802 33.1602 81.9136 33.1602L81.9112 33.1554Z" fill="#333333"/>
<path d="M76.7967 58.7917C79.9397 68.0514 84.0683 72.0491 86.6993 71.3777C86.6993 71.3777 82.5706 114.04 89.8422 145.972C80.2325 149.915 76.6563 155.179 48.1819 153.208C35.9388 152.979 22.4147 150.208 14.9074 145.584C14.9074 145.584 26.8481 129.5 37.7698 93.9734C37.7698 93.9853 76.6682 58.4036 76.7991 58.7941L76.7967 58.7917Z" fill="#14A1DC"/>
<path d="M18.0266 89.4875C18.0266 89.4875 13.3241 89.2161 11.8288 89.8114C8.9145 91.3495 8.56687 98.0425 23.9529 109.947C25.8696 111.388 36.6508 118.557 37.7246 118.526C43.6938 118.429 25.491 92.6185 25.491 92.6185L18.0266 89.4875Z" fill="#005C94"/>
<path d="M11.936 90.3971C6.73585 93.8948 21.4266 112.331 42.2627 116.824C42.2627 116.802 22.9647 89.9852 13.5074 90.0066C12.9645 90.0185 12.4026 90.0828 11.936 90.3971Z" fill="#333333"/>
<path d="M127.895 118.798C120.105 116.295 103.483 116.533 62.387 120.531C62.1917 120.564 61.325 120.564 61.325 120.564C70.4705 102.888 78.7921 80.3802 76.8944 66.8538C73.6753 43.5128 36.1436 65.2085 22.2314 108.597C20.2171 114.771 19.5433 120.457 19.8695 125.462C20.5195 141.07 32.5792 158.615 74.2944 153.689C87.0041 152.184 120.724 139.262 124.072 136.262C124.831 140.27 127.972 141.353 129.488 137.129C130.465 143.736 134.441 140.498 135.015 136.912C143.791 156.072 144.767 124.229 127.895 118.802V118.798Z" fill="#F0A99E"/>
<path d="M124.017 133.831C124.029 133.648 123.886 133.496 123.714 133.484C123.531 133.472 123.379 133.615 123.367 133.786C123.367 133.85 123.312 134.869 123.421 136.722C123.681 136.548 123.898 136.398 124.05 136.267C123.964 134.708 124.007 133.853 124.017 133.829V133.831ZM128.405 126.519C126.433 124.267 123.355 124.148 120.886 124.298H120.874C120.69 124.31 120.559 124.472 120.571 124.645C120.583 124.829 120.745 124.96 120.919 124.948C123.238 124.807 126.119 124.893 127.907 126.941C129.564 128.848 130.095 132.281 129.488 137.165C129.598 137.858 129.726 138.431 129.888 138.92C130.895 132.886 130.398 128.815 128.405 126.517V126.519ZM135.362 125.426C134.657 123.607 133.519 122.079 131.926 120.812C130.712 119.967 129.369 119.286 127.895 118.807C126.757 118.438 125.436 118.136 123.864 117.886C123.907 117.95 123.974 118.005 124.06 118.026C135.21 120.669 136.705 126.972 135.015 136.915C135.176 137.272 135.341 137.608 135.491 137.934C136.303 133.6 136.791 129.129 135.36 125.424L135.362 125.426ZM51.2605 125.026C51.2605 125.21 51.401 125.35 51.5867 125.35C51.6629 125.35 51.7391 125.329 51.7915 125.274C51.8343 125.241 56.0725 121.755 62.2583 120.552C62.2798 120.552 62.3012 120.541 62.3226 120.531C61.3155 120.531 60.3821 120.552 59.5154 120.574C54.6391 122.091 51.52 124.645 51.3676 124.776C51.3034 124.841 51.2581 124.938 51.2581 125.026H51.2605Z" fill="#333333"/>
<path d="M28.1458 93.3662L23.9623 103.45C23.9623 103.45 27.6457 108.562 34.2221 113.588C42.4889 119.914 52.9558 121.386 61.8726 120.564L50.9295 98.4473L28.1434 93.3686L28.1458 93.3662Z" fill="#8B8B8B"/>
<path d="M76.4063 57.5892C79.3849 64.4775 77.3158 95.1828 61.8774 120.562C61.8774 120.562 46.6962 122.176 34.2578 107.045C22.4147 92.6399 17.4956 89.1422 11.7955 89.8446C13.3765 88.9565 27.9077 83.3683 48.5367 65.1179C53.0011 61.175 59.7845 55.2392 65.1799 53.2915C69.4704 51.7653 74.1086 52.2725 76.4063 57.5916V57.5892Z" fill="#14A1DC"/>
<path d="M77.9658 61.8894C77.6516 61.1322 77.3373 60.3179 77.0349 59.4631C77.3706 60.9584 77.6206 63.0156 77.523 65.9609C77.3182 72.4372 75.4753 81.3183 72.0729 92.3662C67.3275 107.757 62.0512 119.779 61.7036 120.56C61.9084 120.548 62.1036 120.538 62.3108 120.526C63.1679 118.567 68.118 107.031 72.5943 92.5281C77.773 75.7396 78.4444 66.8704 77.9682 61.887L77.9658 61.8894Z" fill="#EDFBFF"/>
<path d="M158.906 77.5706L153.422 78.623L175.794 90.4875L158.906 77.5706Z" fill="#333333"/>
<path d="M175.796 90.4875L153.784 86.9017L158.908 77.5706L160.66 69.499L175.799 90.4852L175.796 90.4875Z" fill="#14A1DC"/>
<path d="M175.796 90.4876L175.568 90.1733L158.972 77.2659L158.908 77.5706L158.837 77.6968L175.146 90.3828L175.799 90.4852L175.796 90.4876Z" fill="#EDFBFF"/>
<path d="M125.886 17.8242C125.926 17.8171 125.969 17.8195 126.007 17.8337C126.119 17.8766 126.174 18.0028 126.131 18.1123C121.555 29.9006 121.686 41.8556 126.51 52.6868C131.865 64.7132 142.058 73.1467 149.26 75.8968C149.372 75.9397 149.427 76.0658 149.384 76.1754C149.341 76.2873 149.215 76.342 149.103 76.2992C145.191 74.8063 140.869 71.9134 136.936 68.149C132.355 63.7656 128.612 58.4798 126.11 52.863C123.829 47.7391 122.569 42.3604 122.364 36.8698C122.133 30.6578 123.264 24.2934 125.724 17.9575C125.75 17.8885 125.812 17.8385 125.883 17.8242H125.886Z" fill="#84D7F3"/>
<path d="M140.093 35.8912C140.127 35.8841 140.162 35.8865 140.196 35.896C140.31 35.9293 140.377 36.0484 140.346 36.1627C137.308 46.751 140.574 56.3845 143.848 62.6013C147.403 69.3514 151.736 73.6467 151.779 73.6896C151.865 73.7729 151.865 73.911 151.779 73.9944C151.696 74.0801 151.558 74.0801 151.472 73.9944C151.429 73.9515 147.053 69.6157 143.467 62.8108C141.36 58.8107 139.929 54.7511 139.22 50.7415C138.329 45.7271 138.567 40.7794 139.927 36.0412C139.948 35.9627 140.012 35.9055 140.093 35.8889V35.8912Z" fill="#84D7F3"/>
<path d="M197.561 130.467L188.892 112.162C188.749 111.966 188.794 111.693 188.99 111.55C189.063 111.495 189.154 111.466 189.247 111.466H196.147C196.625 111.466 197.078 111.695 197.359 112.083L199.678 117.043C199.875 117.317 200.259 117.376 200.533 117.178C200.573 117.15 200.609 117.114 200.642 117.076L211.042 106.573C211.376 106.178 211.866 105.95 212.383 105.952L221.145 105.995C221.435 105.995 221.669 106.233 221.669 106.523C221.669 106.647 221.624 106.764 221.545 106.859L198.525 130.498C198.309 130.755 197.923 130.788 197.664 130.572C197.625 130.541 197.592 130.503 197.561 130.462V130.467Z" fill="#EDFBFF"/>
</g>
<defs>
<clipPath id="clip0_13602_765104">
<rect width="240" height="154.529" fill="white"/>
</clipPath>
</defs>
</svg>
