<svg width="548" height="599" viewBox="0 0 548 599" fill="none" xmlns="http://www.w3.org/2000/svg">
<path opacity="0.15" d="M1774.88 600H-825.543V448.81C-790.071 384.607 -742.105 346.789 -641.754 313.655C-419.837 240.382 -312.939 498.02 -59.1036 485.462C248.662 470.235 203.992 130.208 507.905 162.465C703.699 183.245 688.642 354.284 887.214 361.761C1117.05 370.415 1157.57 134.947 1387.75 130.394C1601.56 126.165 1681.48 200.904 1774.88 313.655V600Z" fill="white"/>
<path opacity="0.1" d="M1774.88 600H-825.543C-825.543 600 -637.056 247.631 -385.652 219.262C-149.244 192.585 -85.8158 471.947 151.561 451.419C381.254 431.556 382.645 194.988 607.023 151.163C876.887 98.4527 1013.1 372.409 1284.38 324.507C1525.9 281.858 1536.47 -46.896 1774.88 5.6774V600Z" fill="white"/>
</svg>
