<svg width="24" height="24" viewBox="0 0 24 24" fill="none" xmlns="http://www.w3.org/2000/svg">
<path d="M9.2002 7L8.999 7.47905C8.67418 8.25243 8.59254 9.10637 8.76493 9.92729C9.02797 11.1799 10.0252 12.1473 11.2851 12.3723L11.3961 12.3921C11.7957 12.4635 12.2047 12.4635 12.6043 12.3921L12.7153 12.3723C13.9752 12.1473 14.9724 11.1799 15.2355 9.92729C15.4079 9.10637 15.3262 8.25243 15.0014 7.47905L14.8002 7" stroke="white" stroke-width="1.5" stroke-linecap="round"/>
<path d="M20.2204 15.1432C19.6503 17.6506 17.7013 19.6206 15.202 20.2254C13.1015 20.7336 10.8978 20.7336 8.79741 20.2254C6.29813 19.6206 4.34912 17.6506 3.77895 15.1432C3.26951 12.9029 3.3934 10.565 4.13678 8.39108L4.24722 8.06811C5.06517 5.6761 7.10851 3.91037 9.59385 3.44791L10.2744 3.32126C11.4148 3.10906 12.5846 3.10906 13.725 3.32126L14.4056 3.4479C16.8909 3.91037 18.9342 5.6761 19.7522 8.06813L19.8626 8.39109C20.606 10.565 20.7299 12.9029 20.2204 15.1432Z" stroke="white" stroke-width="1.5"/>
</svg>
