<svg width="24" height="24" viewBox="0 0 24 24" fill="none" xmlns="http://www.w3.org/2000/svg">
<circle cx="12" cy="12" r="11.5" fill="white" stroke="#E3E3E3"/>
<path fill-rule="evenodd" clip-rule="evenodd" d="M10.0198 6.22913C11.3223 5.92362 12.6777 5.92362 13.9802 6.22913C15.8611 6.67033 17.3297 8.13894 17.7709 10.0198C18.0764 11.3223 18.0764 12.6777 17.7709 13.9802C17.3297 15.8611 15.8611 17.3297 13.9802 17.7709C12.6777 18.0764 11.3223 18.0764 10.0198 17.7709C8.13895 17.3297 6.67033 15.8611 6.22913 13.9802C5.92362 12.6777 5.92362 11.3223 6.22913 10.0198C6.67033 8.13894 8.13894 6.67033 10.0198 6.22913ZM11.1426 10.6011C10.993 10.4515 10.7506 10.4515 10.6011 10.6011C10.4515 10.7506 10.4515 10.993 10.6011 11.1426L11.4585 12L10.6011 12.8574C10.4515 13.0069 10.4515 13.2494 10.6011 13.3989C10.7506 13.5485 10.993 13.5485 11.1426 13.3989L12 12.5415L12.8574 13.3989C13.0069 13.5485 13.2494 13.5485 13.3989 13.3989C13.5485 13.2494 13.5485 13.0069 13.3989 12.8574L12.5415 12L13.3989 11.1426C13.5485 10.993 13.5485 10.7506 13.3989 10.6011C13.2494 10.4515 13.0069 10.4515 12.8574 10.6011L12 11.4585L11.1426 10.6011Z" fill="#E3E3E3"/>
</svg>
