<svg width="25" height="24" viewBox="0 0 25 24" fill="none" xmlns="http://www.w3.org/2000/svg">
    <g clip-path="url(#clip0_11992_758732)">
        <path
            d="M12.625 4C8.2138 4 4.625 7.58885 4.625 12C4.625 16.4112 8.2138 20 12.625 20C17.0362 20 20.625 16.4112 20.625 12C20.625 7.58885 17.0362 4 12.625 4ZM12.625 18.5455C9.01579 18.5455 6.07955 15.6092 6.07955 12C6.07955 8.39088 9.01579 5.45455 12.625 5.45455C16.2342 5.45455 19.1705 8.39088 19.1705 12C19.1705 15.6092 16.2342 18.5455 12.625 18.5455Z"
            fill="#14A1DC" />
        <path
            d="M12.625 7.39355C12.0904 7.39355 11.6555 7.82875 11.6555 8.36369C11.6555 8.89814 12.0904 9.33295 12.625 9.33295C13.1596 9.33295 13.5945 8.89814 13.5945 8.36369C13.5945 7.82875 13.1596 7.39355 12.625 7.39355Z"
            fill="#14A1DC" />
        <path
            d="M12.625 10.7881C12.2233 10.7881 11.8977 11.1137 11.8977 11.5154V15.879C11.8977 16.2806 12.2233 16.6063 12.625 16.6063C13.0266 16.6063 13.3523 16.2806 13.3523 15.879V11.5154C13.3523 11.1137 13.0266 10.7881 12.625 10.7881Z"
            fill="#14A1DC" />
    </g>
    <defs>
        <clipPath id="clip0_11992_758732">
            <rect width="16" height="16" fill="white" transform="translate(4.625 4)" />
        </clipPath>
    </defs>
</svg>
