<svg width="20" height="18" viewBox="0 0 20 18" fill="none" xmlns="http://www.w3.org/2000/svg">
<g clip-path="url(#clip0)">
<path d="M6.97998 6.24982H10.7466M6.97998 11.7498H9.80494M6.97998 8.99982H12.6299" stroke="#2ED477" stroke-linecap="round"/>
<path d="M1.66237 6.20456C2.27585 3.65859 4.31795 1.67067 6.93333 1.07347C8.82212 0.642176 10.7878 0.642177 12.6766 1.07347C15.292 1.67067 17.3341 3.65859 17.9476 6.20457C18.3906 8.04323 18.3906 9.95677 17.9476 11.7954C17.3341 14.3414 15.292 16.3293 12.6766 16.9265C10.7878 17.3578 8.82212 17.3578 6.93333 16.9265C4.31796 16.3293 2.27585 14.3414 1.66237 11.7954C1.21932 9.95677 1.21932 8.04323 1.66237 6.20456Z" stroke="#2ED477"/>
</g>
<defs>
<clipPath id="clip0">
<rect width="18.4907" height="18" fill="white" transform="translate(0.55957)"/>
</clipPath>
</defs>
</svg>
