<svg width="25" height="24" viewBox="0 0 25 24" fill="none" xmlns="http://www.w3.org/2000/svg">
<path fill-rule="evenodd" clip-rule="evenodd" d="M19.4999 6.87501V15.2083C19.4999 15.6504 19.3243 16.0743 19.0117 16.3869C18.6992 16.6994 18.2753 16.875 17.8332 16.875C17.373 16.875 16.9999 16.5019 16.9999 16.0417V10.5083C17.0004 10.2543 16.8982 10.0109 16.7166 9.83335L13.8249 7.00001C13.3057 6.47252 12.5983 6.17277 11.8582 6.16668H8.6666C8.20636 6.16668 7.83327 5.79359 7.83327 5.33335V4.40001C7.83104 3.76282 8.08319 3.15107 8.53376 2.7005C8.98433 2.24993 9.59607 1.99779 10.2333 2.00001H14.6582C15.284 2.00632 15.8823 2.25763 16.3249 2.70001L18.8249 5.20001C19.2594 5.64917 19.5015 6.2501 19.4999 6.87501Z" fill="#E3E3E3"/>
<path fill-rule="evenodd" clip-rule="evenodd" d="M15.4667 10.2088L12.9667 7.70879C12.5251 7.26489 11.9261 7.01331 11.3 7.00879H6.9C5.57776 7.00878 4.50459 8.07823 4.5 9.40046V19.5004C4.5 20.8259 5.57452 21.9004 6.9 21.9004H13.8083C15.1175 21.8777 16.1669 20.8098 16.1667 19.5004V11.8754C16.1731 11.2463 15.934 10.6394 15.5 10.1838L15.4667 10.2088Z" fill="#E3E3E3"/>
</svg>
