<svg width="32" height="32" viewBox="0 0 32 32" fill="none" xmlns="http://www.w3.org/2000/svg">
<rect width="32" height="32" rx="16" fill="#ACACAC"/>
<mask id="mask0_1228:1480" style="mask-type:alpha" maskUnits="userSpaceOnUse" x="11" y="8" width="10" height="12">
<path fill-rule="evenodd" clip-rule="evenodd" d="M11.5548 8.88867H20.445V19.2591H11.5548V8.88867Z" fill="white"/>
</mask>
<g mask="url(#mask0_1228:1480)">
<path fill-rule="evenodd" clip-rule="evenodd" d="M15.9999 19.2591C15.8479 19.2591 15.703 19.1978 15.5981 19.0875L11.7092 15.0138C11.3723 14.6609 11.623 14.0742 12.111 14.0742H14.1483V9.81465C14.1483 9.30443 14.5634 8.88843 15.0737 8.88843H16.9261C17.4363 8.88843 17.8514 9.30443 17.8514 9.81465V14.0742H19.8888C20.3768 14.0742 20.6274 14.6609 20.2906 15.0138L16.4017 19.0875C16.2968 19.1978 16.1519 19.2591 15.9999 19.2591Z" fill="white"/>
</g>
<path fill-rule="evenodd" clip-rule="evenodd" d="M23.5929 23.7034H8.40797C7.69242 23.7034 7.11108 23.1221 7.11108 22.4074V22.0367C7.11108 21.3221 7.69242 20.7407 8.40797 20.7407H23.5929C24.3075 20.7407 24.8889 21.3221 24.8889 22.0367V22.4074C24.8889 23.1221 24.3075 23.7034 23.5929 23.7034Z" fill="white"/>
</svg>
