<svg width="48" height="48" viewBox="0 0 48 48" fill="none" xmlns="http://www.w3.org/2000/svg">
<path fill-rule="evenodd" clip-rule="evenodd" d="M0 24C0 37.2 10.8 48 24 48C37.2 48 48 37.2 48 24C48 10.8 37.2 0 24 0C10.8 0 0 10.8 0 24ZM3 24C3 12.45 12.45 3 24 3C35.55 3 45 12.45 45 24C45 35.55 35.55 45 24 45C12.45 45 3 35.55 3 24ZM26.7119 24.0258L34 31.3139L31.2881 34.0258L24 26.7377L16.7119 34.0258L14 31.3139L21.2881 24.0258L14 16.7377L16.7119 14.0258L24 21.3139L31.2881 14.0258L34 16.7377L26.7119 24.0258Z" fill="#F46363"/>
</svg>
