<svg width="57" height="56" viewBox="0 0 57 56" fill="none" xmlns="http://www.w3.org/2000/svg">
<path fill-rule="evenodd" clip-rule="evenodd" d="M0.5 28C0.5 43.4 13.1 56 28.5 56C43.9 56 56.5 43.4 56.5 28C56.5 12.6 43.9 0 28.5 0C13.1 0 0.5 12.6 0.5 28ZM4 28C4 14.525 15.025 3.5 28.5 3.5C41.975 3.5 53 14.525 53 28C53 41.475 41.975 52.5 28.5 52.5C15.025 52.5 4 41.475 4 28ZM31.6638 28.0306L40.1667 36.5334L37.0028 39.6973L28.5 31.1944L19.9972 39.6973L16.8333 36.5334L25.3362 28.0306L16.8333 19.5278L19.9972 16.3639L28.5 24.8667L37.0028 16.3639L40.1667 19.5278L31.6638 28.0306Z" fill="#F46363"/>
</svg>
