<svg width="20" height="20" viewBox="0 0 20 20" fill="none" xmlns="http://www.w3.org/2000/svg">
<path d="M1.35288 13.0496L0.622697 13.2209L1.35288 13.0496ZM1.35288 6.95043L0.622697 6.77915L1.35288 6.95043ZM18.6471 6.95044L17.9169 7.12171L18.6471 6.95044ZM18.6471 13.0496L17.9169 12.8783L18.6471 13.0496ZM13.0496 18.6471L12.8783 17.9169L13.0496 18.6471ZM6.95044 18.6471L7.12171 17.9169L6.95044 18.6471ZM6.95043 1.35288L7.12171 2.08306L6.95043 1.35288ZM13.0496 1.35288L12.8783 2.08306L13.0496 1.35288ZM6.12918 13.1208C6.12918 13.535 6.46497 13.8708 6.87918 13.8708C7.29339 13.8708 7.62918 13.535 7.62918 13.1208H6.12918ZM7.62918 8.95973C7.62918 8.54551 7.29339 8.20973 6.87918 8.20973C6.46497 8.20973 6.12918 8.54551 6.12918 8.95973H7.62918ZM12.3708 13.1208C12.3708 13.535 12.7066 13.8708 13.1208 13.8708C13.535 13.8708 13.8708 13.535 13.8708 13.1208H12.3708ZM13.8708 10C13.8708 9.58579 13.535 9.25 13.1208 9.25C12.7066 9.25 12.3708 9.58579 12.3708 10H13.8708ZM9.25 12.0805C9.25 12.4948 9.58579 12.8305 10 12.8305C10.4142 12.8305 10.75 12.4948 10.75 12.0805H9.25ZM10.75 6.87918C10.75 6.46497 10.4142 6.12918 10 6.12918C9.58579 6.12918 9.25 6.46497 9.25 6.87918H10.75ZM2.08306 12.8783C1.63898 10.9851 1.63898 9.01488 2.08306 7.12171L0.622697 6.77915C0.125768 8.89763 0.125768 11.1024 0.622697 13.2209L2.08306 12.8783ZM17.9169 7.12171C18.361 9.01488 18.361 10.9851 17.9169 12.8783L19.3773 13.2208C19.8742 11.1024 19.8742 8.89764 19.3773 6.77916L17.9169 7.12171ZM12.8783 17.9169C10.9851 18.361 9.01488 18.361 7.12171 17.9169L6.77916 19.3773C8.89764 19.8742 11.1024 19.8742 13.2208 19.3773L12.8783 17.9169ZM7.12171 2.08306C9.01488 1.63898 10.9851 1.63898 12.8783 2.08306L13.2208 0.622696C11.1024 0.125768 8.89763 0.125768 6.77916 0.622696L7.12171 2.08306ZM7.12171 17.9169C4.62161 17.3305 2.6695 15.3784 2.08306 12.8783L0.622697 13.2209C1.33924 16.2756 3.72441 18.6608 6.77916 19.3773L7.12171 17.9169ZM13.2208 19.3773C16.2756 18.6608 18.6608 16.2756 19.3773 13.2208L17.9169 12.8783C17.3305 15.3784 15.3784 17.3305 12.8783 17.9169L13.2208 19.3773ZM12.8783 2.08306C15.3784 2.6695 17.3305 4.62161 17.9169 7.12171L19.3773 6.77916C18.6608 3.72441 16.2756 1.33924 13.2208 0.622696L12.8783 2.08306ZM6.77916 0.622696C3.72441 1.33924 1.33924 3.72441 0.622697 6.77915L2.08306 7.12171C2.6695 4.6216 4.62161 2.6695 7.12171 2.08306L6.77916 0.622696ZM7.62918 13.1208V8.95973H6.12918V13.1208H7.62918ZM13.8708 13.1208V10H12.3708V13.1208H13.8708ZM10.75 12.0805V6.87918H9.25V12.0805H10.75Z" fill="white"/>
</svg>
