<svg width="22" height="22" viewBox="0 0 22 22" fill="none" xmlns="http://www.w3.org/2000/svg">
<path fill-rule="evenodd" clip-rule="evenodd" d="M17.8765 5.68882V5.86129C20.1786 6.03375 22 7.95963 22 10.3297C22 12.8044 20.0062 14.7982 17.5315 14.7982H14.4376V13.4237H17.5315C19.251 13.4237 20.6255 12.0492 20.6255 10.3297C20.6255 8.6103 19.251 7.2358 17.5315 7.2358H16.2929L16.4314 6.44402C16.4352 6.4134 16.439 6.38321 16.4427 6.35339C16.4725 6.11599 16.4993 5.9024 16.4993 5.68882C16.4993 3.3187 14.5761 1.39282 12.2034 1.39282C10.5179 1.39282 9.00487 2.38843 8.28364 3.90143L8.04324 4.48678L7.45789 4.28034C7.21748 4.20978 6.97708 4.14184 6.7027 4.14184C5.46407 4.14184 4.46846 5.13745 4.46846 6.37607V6.54854L4.50244 7.16785L3.88312 7.26977C2.44067 7.54415 1.37451 8.85071 1.37451 10.3297C1.37451 12.0492 2.74902 13.4237 4.46846 13.4237H7.56242V14.8008H4.46846C1.99382 14.8008 0 12.807 0 10.3324C0 8.37251 1.2726 6.65568 3.09395 6.07034C3.26642 4.2124 4.8134 2.76994 6.7027 2.76994C6.90913 2.76994 7.11557 2.80391 7.32201 2.83789C8.32023 1.11844 10.2095 0.0183105 12.206 0.0183105C15.3339 0.0183105 17.8765 2.56089 17.8765 5.68882ZM11.6889 11.0166V19.3368L13.9571 17.0686L14.9188 18.0302L10.9677 21.9839L7.04802 17.6513L8.0802 16.7576L10.3144 19.2009V11.0166H11.6889Z" fill="white"/>
</svg>
