<svg width="59" height="58" viewBox="0 0 59 58" fill="none" xmlns="http://www.w3.org/2000/svg">
<path fill-rule="evenodd" clip-rule="evenodd" d="M57.5 29C57.5 44.464 44.964 57 29.5 57C14.036 57 1.5 44.464 1.5 29C1.5 13.536 14.036 1 29.5 1C44.964 1 57.5 13.536 57.5 29ZM29.3092 46.2334C26.8499 46.2334 24.8994 44.3864 24.8994 42.0978C24.8994 39.8091 26.8499 37.9621 29.3092 37.9621C31.7685 37.9621 33.719 39.8091 33.719 42.0978C33.719 44.3864 31.7685 46.2334 29.3092 46.2334ZM26.1269 31.0288C26.2726 32.5694 27.5661 33.7464 29.1136 33.7464H29.5056C31.053 33.7464 32.3466 32.5694 32.4922 31.0288L33.8144 17.0431C34.0364 14.6958 32.1901 12.6667 29.8322 12.6667H28.787C26.4291 12.6667 24.5828 14.6958 24.8047 17.0431L26.1269 31.0288Z" fill="#D8D8D8" fill-opacity="0.01"/>
<path d="M26.1269 31.0288L25.1314 31.1229L26.1269 31.0288ZM32.4922 31.0288L33.4878 31.1229L32.4922 31.0288ZM33.8144 17.0431L32.8189 16.949V16.949L33.8144 17.0431ZM24.8047 17.0431L25.8003 16.949V16.949L24.8047 17.0431ZM29.5 58C45.5163 58 58.5 45.0163 58.5 29H56.5C56.5 43.9117 44.4117 56 29.5 56V58ZM0.5 29C0.5 45.0163 13.4837 58 29.5 58V56C14.5883 56 2.5 43.9117 2.5 29H0.5ZM29.5 0C13.4837 0 0.5 12.9837 0.5 29H2.5C2.5 14.0883 14.5883 2 29.5 2V0ZM58.5 29C58.5 12.9837 45.5163 0 29.5 0V2C44.4117 2 56.5 14.0883 56.5 29H58.5ZM23.8994 42.0978C23.8994 44.9955 26.3561 47.2334 29.3092 47.2334V45.2334C27.3436 45.2334 25.8994 43.7774 25.8994 42.0978H23.8994ZM29.3092 36.9621C26.3561 36.9621 23.8994 39.2 23.8994 42.0978H25.8994C25.8994 40.4182 27.3436 38.9621 29.3092 38.9621V36.9621ZM34.719 42.0978C34.719 39.2 32.2622 36.9621 29.3092 36.9621V38.9621C31.2748 38.9621 32.719 40.4182 32.719 42.0978H34.719ZM29.3092 47.2334C32.2622 47.2334 34.719 44.9955 34.719 42.0978H32.719C32.719 43.7774 31.2748 45.2334 29.3092 45.2334V47.2334ZM29.1136 32.7464C28.082 32.7464 27.2196 31.9617 27.1225 30.9347L25.1314 31.1229C25.3256 33.177 27.0503 34.7464 29.1136 34.7464V32.7464ZM29.5056 32.7464H29.1136V34.7464H29.5056V32.7464ZM31.4967 30.9347C31.3996 31.9617 30.5372 32.7464 29.5056 32.7464V34.7464C31.5688 34.7464 33.2936 33.177 33.4878 31.1229L31.4967 30.9347ZM32.8189 16.949L31.4967 30.9347L33.4878 31.1229L34.81 17.1373L32.8189 16.949ZM29.8322 13.6667C31.6006 13.6667 32.9853 15.1885 32.8189 16.949L34.81 17.1373C35.0874 14.203 32.7795 11.6667 29.8322 11.6667V13.6667ZM28.787 13.6667H29.8322V11.6667H28.787V13.6667ZM25.8003 16.949C25.6338 15.1885 27.0186 13.6667 28.787 13.6667V11.6667C25.8396 11.6667 23.5318 14.203 23.8092 17.1373L25.8003 16.949ZM27.1225 30.9347L25.8003 16.949L23.8092 17.1373L25.1314 31.1229L27.1225 30.9347Z" fill="#FF9D3B"/>
</svg>
