<svg width="24" height="24" viewBox="0 0 24 24" fill="none" xmlns="http://www.w3.org/2000/svg">
<rect width="24" height="24" rx="6" fill="#FFF4EC"/>
<path d="M5.92362 9.89916C6.37205 8.09322 7.80403 6.69689 9.62039 6.29441L9.92297 6.22737C11.2911 5.92421 12.709 5.92421 14.0771 6.22737L14.3796 6.29441C16.196 6.69689 17.628 8.09323 18.0764 9.89917C18.419 11.2788 18.419 12.7212 18.0764 14.1008C17.628 15.9068 16.196 17.3031 14.3796 17.7056L14.0771 17.7726C12.709 18.0758 11.2911 18.0758 9.92297 17.7726L9.62039 17.7056C7.80403 17.3031 6.37205 15.9068 5.92362 14.1008C5.58104 12.7212 5.58104 11.2788 5.92362 9.89916Z" stroke="#FF9138" stroke-width="1.2"/>
<path fill-rule="evenodd" clip-rule="evenodd" d="M12.0002 8.6665C12.2551 8.6665 12.4617 8.86116 12.4617 9.10129V9.45699H12.5128C13.3711 9.45699 14 10.1599 14 10.9458C14 11.1859 13.7934 11.3806 13.5385 11.3806C13.2836 11.3806 13.0769 11.1859 13.0769 10.9458C13.0769 10.5674 12.7874 10.3266 12.5128 10.3266H12.4617V11.6953L13.0849 11.9088C13.6511 12.1028 14 12.6303 14 13.1891C14 13.9002 13.4301 14.5426 12.6444 14.5426H12.4617V14.8984C12.4617 15.1385 12.2551 15.3332 12.0002 15.3332C11.7453 15.3332 11.5386 15.1385 11.5386 14.8984V14.5426H11.4872C10.6289 14.5426 10 13.8397 10 13.0538C10 12.8137 10.2066 12.619 10.4615 12.619C10.7164 12.619 10.9231 12.8137 10.9231 13.0538C10.9231 13.4322 11.2126 13.6731 11.4872 13.6731H11.5386V12.3044L10.9151 12.0908C10.3489 11.8968 10 11.3693 10 10.8106C10 10.0994 10.5699 9.45699 11.3556 9.45699H11.5386V9.10129C11.5386 8.86116 11.7453 8.6665 12.0002 8.6665ZM11.5386 10.3266H11.3556C11.1537 10.3266 10.9231 10.5069 10.9231 10.8106C10.9231 11.0428 11.0667 11.2175 11.2306 11.2736L11.5386 11.3791V10.3266ZM12.4617 12.6206V13.6731H12.6444C12.8463 13.6731 13.0769 13.4928 13.0769 13.1891C13.0769 12.9568 12.9333 12.7822 12.7694 12.726L12.4617 12.6206Z" fill="#FF9138"/>
</svg>
