<svg width="18" height="22" viewBox="0 0 18 22" fill="none" xmlns="http://www.w3.org/2000/svg">
<path fill-rule="evenodd" clip-rule="evenodd" d="M11.9186 10.385C13.4243 9.3465 14.3945 7.638 14.3945 5.695C14.3945 2.546 11.8517 0 8.70662 0C5.56154 0 3.01871 2.546 3.01871 5.695C3.01871 7.638 3.989 9.3465 5.49462 10.385C2.51683 11.323 0.342041 14.137 0.342041 17.42V21.44H17.0712V17.42C17.0712 14.137 14.8964 11.323 11.9186 10.385ZM4.35704 5.695C4.35704 3.283 6.29762 1.34 8.70662 1.34C11.1156 1.34 13.0562 3.283 13.0562 5.695C13.0562 8.107 11.1156 10.05 8.70662 10.05C6.29762 10.05 4.35704 8.107 4.35704 5.695ZM15.7329 20.1H1.68042V17.42C1.68042 14.1035 4.39054 11.39 7.70292 11.39H9.71042C13.0228 11.39 15.7329 14.1035 15.7329 17.42V20.1Z" fill="#333333"/>
</svg>
