<svg width="14" height="14" viewBox="0 0 14 14" fill="none" xmlns="http://www.w3.org/2000/svg">
<g clip-path="url(#clip0_5660_13461)">
<path d="M6.23239 2.84083C4.87191 3.0275 3.80944 3.55833 2.9478 4.41583C0.382318 6.9825 1.45127 11.0075 5.02091 12.2908C5.21527 12.3608 5.53919 12.5358 5.52623 12.6292C5.48088 12.985 5.33188 13.3292 5.18287 13.6675C5.16344 13.7142 4.91078 13.7142 4.78121 13.685C2.17038 12.985 0.129657 10.605 0.00656573 8.13167C-0.155396 4.73667 2.22221 2.065 5.93438 1.44667C6.05099 1.42917 6.20647 1.26583 6.21943 1.16083C6.2583 0.886667 6.21943 0.606667 6.23887 0.3325C6.25182 0.215833 6.34252 0.110833 6.39435 0C6.51744 0.0525 6.67292 0.0816667 6.75714 0.163333C7.32077 0.7175 7.87144 1.2775 8.40268 1.855C8.4869 1.94833 8.49986 2.19917 8.42211 2.28667C7.87144 2.88167 7.29486 3.45917 6.71179 4.03667C6.64053 4.10667 6.46561 4.17667 6.38787 4.14167C6.30365 4.1125 6.25182 3.955 6.24534 3.85C6.22591 3.54083 6.23239 3.22583 6.23239 2.84083Z" fill="#FF9A00"/>
<path d="M13.2031 7.69387C12.5294 7.69971 12.5294 7.69971 12.4387 7.09304C12.4322 7.06971 12.4257 7.04054 12.4192 7.01721C12.2314 6.06637 12.0435 6.20637 13.2291 5.85637C13.553 5.76304 13.7409 5.83304 13.8056 6.13637C13.8704 6.46887 13.9546 6.80721 13.987 7.14554C14.0389 7.63554 13.9676 7.69387 13.4299 7.69971C13.3521 7.69387 13.2809 7.69387 13.2031 7.69387Z" fill="#FF9A00"/>
<path d="M11.0264 11.0547C11.3762 11.358 11.7131 11.5914 11.9398 11.8947C12.0046 11.9822 11.7908 12.3205 11.6224 12.4489C10.5664 13.2189 10.7478 13.1664 10.0546 12.1689C10.0028 12.0989 9.95743 11.953 9.9963 11.918C10.3073 11.6322 10.6377 11.3697 11.0264 11.0547Z" fill="#FF9A00"/>
<path d="M6.94507 13.2596C7.01633 13.0612 7.04225 12.7229 7.17181 12.6879C7.56052 12.5771 7.9881 12.5654 8.40921 12.5596C8.47399 12.5596 8.56469 12.7637 8.60356 12.8804C8.91453 13.8604 8.90805 13.8721 7.78727 13.9771C7.02929 14.0471 7.00337 14.0179 6.94507 13.2596Z" fill="#FF9A00"/>
<path d="M12.5423 9.13471C13.1772 9.16971 13.6826 9.42054 13.6631 9.68304C13.6307 10.0914 13.1578 10.7622 12.9246 10.7447C12.6266 10.7155 11.8556 10.1905 11.8621 10.0214C11.8815 9.63637 12.2832 9.11721 12.5423 9.13471Z" fill="#FF9A00"/>
<path d="M12.6008 3.81515C12.523 4.06015 11.6679 4.76598 11.5189 4.67265C11.1885 4.47432 10.9293 4.17682 10.6443 3.92015C10.9488 3.61098 11.2533 3.29598 11.5578 2.98682C11.9011 3.26098 12.251 3.54098 12.6008 3.81515Z" fill="#FF9A00"/>
</g>
<defs>
<clipPath id="clip0_5660_13461">
<rect width="14" height="14" fill="white"/>
</clipPath>
</defs>
</svg>
