<svg width="24" height="24" viewBox="0 0 24 24" fill="none" xmlns="http://www.w3.org/2000/svg">
<path d="M18.348 18.3529V24H21.168V18.3529H24L19.764 14.1176L15.528 18.3529H18.348ZM11.2941 0C8.18823 0 5.64706 2.54118 5.64706 5.64706C5.64706 8.75294 8.18823 11.2941 11.2941 11.2941C14.4 11.2941 16.9412 8.75294 16.9412 5.64706C16.9412 2.54118 14.4 0 11.2941 0ZM11.2941 2.82353C12.8471 2.82353 14.1176 4.09412 14.1176 5.64706C14.1176 7.2 12.8471 8.47059 11.2941 8.47059C9.74118 8.47059 8.47059 7.2 8.47059 5.64706C8.47059 4.09412 9.74118 2.82353 11.2941 2.82353ZM11.2941 12.7059C7.48235 12.7059 0 14.5412 0 18.3529V22.5882H13.4118C12.9882 21.7412 12.8471 20.8941 12.7059 19.9059H7.69412H2.68235V18.3529C2.68235 17.5059 7.05882 15.3882 11.2941 15.3882C12 15.3882 12.7059 15.5294 13.4118 15.5294C13.8353 14.6824 14.2588 13.8353 14.9647 13.1294C13.5529 12.8471 12.2824 12.7059 11.2941 12.7059Z" fill="white"/>
</svg>
