<svg width="32" height="32" viewBox="0 0 32 32" fill="none" xmlns="http://www.w3.org/2000/svg">
<rect width="32" height="32" rx="16" fill="#2ED477"/>
<mask id="mask0_962:1580" style="mask-type:alpha" maskUnits="userSpaceOnUse" x="11" y="8" width="10" height="12">
<path fill-rule="evenodd" clip-rule="evenodd" d="M11.5548 8.88855H20.445V19.2589H11.5548V8.88855Z" fill="white"/>
</mask>
<g mask="url(#mask0_962:1580)">
<path fill-rule="evenodd" clip-rule="evenodd" d="M15.9999 19.259C15.8479 19.259 15.703 19.1976 15.5981 19.0874L11.7092 15.0136C11.3723 14.6607 11.623 14.0741 12.111 14.0741H14.1483V9.81453C14.1483 9.30431 14.5634 8.88831 15.0737 8.88831H16.9261C17.4363 8.88831 17.8514 9.30431 17.8514 9.81453V14.0741H19.8888C20.3768 14.0741 20.6274 14.6607 20.2906 15.0136L16.4017 19.0874C16.2968 19.1976 16.1519 19.259 15.9999 19.259Z" fill="white"/>
</g>
<path fill-rule="evenodd" clip-rule="evenodd" d="M23.5929 23.7034H8.40797C7.69242 23.7034 7.11108 23.1221 7.11108 22.4074V22.0367C7.11108 21.3221 7.69242 20.7407 8.40797 20.7407H23.5929C24.3075 20.7407 24.8889 21.3221 24.8889 22.0367V22.4074C24.8889 23.1221 24.3075 23.7034 23.5929 23.7034Z" fill="white"/>
</svg>
