<svg width="17" height="18" viewBox="0 0 17 18" fill="none" xmlns="http://www.w3.org/2000/svg">
<g clip-path="url(#clip0)">
<path d="M15.6203 6.60004C13.1392 6.60004 10.6489 6.60004 8.16788 6.60004C5.69614 6.60004 3.2337 6.60004 0.761964 6.60004C0.037169 6.60754 0 6.63004 0 7.20004C0 8.40754 0 9.62254 0 10.83C0 11.3325 0.0650457 11.3775 0.70621 11.3775C5.69614 11.3775 10.6861 11.3775 15.676 11.3775C16.2893 11.3775 16.3543 11.3175 16.3543 10.8C16.3543 9.59254 16.3543 8.37754 16.3543 7.17004C16.3636 6.64504 16.2986 6.60004 15.6203 6.60004ZM5.93774 10.41H5.23153C5.13861 10.2375 5.03639 10.065 4.92489 9.88504C4.81338 9.71254 4.70187 9.53254 4.58107 9.36754C4.46028 9.19504 4.33948 9.03004 4.20938 8.87254C4.07929 8.71504 3.95849 8.55754 3.8284 8.41504V10.4175H3.19653V7.63504H3.81911C3.93991 7.75504 4.07 7.89754 4.20938 8.04754C4.34877 8.19754 4.47886 8.36254 4.61824 8.52754C4.75763 8.69254 4.87843 8.86504 4.99923 9.03754C5.12002 9.21004 5.22224 9.38254 5.31516 9.54004V7.63504H5.94703V10.41H5.93774ZM8.70683 10.35C8.60461 10.3575 8.49311 10.365 8.3816 10.3725C8.27009 10.38 8.14929 10.3875 8.03779 10.3875C7.92628 10.395 7.80548 10.395 7.69397 10.395C7.58247 10.395 7.48025 10.395 7.37804 10.395C7.11786 10.395 6.92272 10.3575 6.78334 10.275C6.64395 10.2 6.57891 10.065 6.57891 9.87754V7.60504H8.65108V7.99504H7.23866V8.74504H8.57674V9.12754H7.23866V9.78754C7.23866 9.86254 7.26653 9.91504 7.31299 9.94504C7.36875 9.97504 7.44308 9.99754 7.53601 9.99754H8.70683V10.35ZM13.1857 8.35504C13.1206 8.61004 13.0463 8.86504 12.9627 9.12004C12.879 9.36754 12.7954 9.60754 12.7118 9.83254C12.6282 10.0575 12.5352 10.2525 12.4516 10.41H11.7361L11.1786 8.49754L10.621 10.41H9.88694C9.80331 10.23 9.71968 10.02 9.63605 9.78754C9.55242 9.55504 9.46879 9.31504 9.39445 9.06754C9.32012 8.82004 9.24578 8.57254 9.18073 8.31754C9.11569 8.06254 9.05993 7.83754 9.01347 7.62004H9.64535C9.72898 7.98754 9.8219 8.35504 9.92411 8.72254C10.0263 9.09004 10.1378 9.44254 10.2586 9.77254L10.844 7.73254H11.5224L12.1078 9.77254C12.1728 9.63004 12.2379 9.47254 12.3029 9.30004C12.368 9.12004 12.4237 8.94004 12.4702 8.74504C12.5166 8.55004 12.5724 8.36254 12.6189 8.16754C12.6653 7.97254 12.7025 7.79254 12.7304 7.62004H13.3529C13.3065 7.85254 13.26 8.10004 13.1857 8.35504Z" fill="#4782FC"/>
<path d="M1.1523 6C1.19876 6.105 1.36602 6.225 1.50541 6.2475C1.58904 6.2625 1.7563 6.12 1.82134 6.015C1.8771 5.925 1.84922 5.79 1.84922 5.6775C1.84922 4.185 1.84922 2.6925 1.84922 1.2C1.84922 1.1025 1.84922 1.005 1.84922 0.9075C1.84922 0.75 2.00719 0.6225 2.20233 0.6225H10.0821C10.2773 0.6225 10.4353 0.75 10.4353 0.9075C10.4353 1.6425 10.4445 2.355 10.426 3.0675C10.4167 3.435 10.5839 3.5775 11.0485 3.57C11.9406 3.555 12.8419 3.5625 13.799 3.5625C13.9942 3.5625 14.1521 3.69 14.1521 3.8475C14.1521 4.53 14.1336 5.1825 14.1707 5.8275C14.1707 5.85 14.18 5.8725 14.1893 5.8875C14.2915 6.135 14.7469 6.1275 14.8491 5.8875C14.8584 5.865 14.8677 5.8425 14.8677 5.82C14.8955 5.0625 14.8955 4.2975 14.8769 3.54C14.8677 3.3225 14.7097 3.0225 14.5238 2.865C13.4552 1.9875 12.3866 1.1175 11.2901 0.27C11.0671 0.12 10.7326 0 10.4538 0C7.58253 0 4.71123 0.0225 1.83993 0.0375C1.17089 0.0375 1.13372 0.075 1.13372 0.63C1.13372 2.25 1.13372 3.87 1.13372 5.4975C1.13372 5.67 1.09655 5.85 1.1523 6ZM11.1693 1.8C11.1693 1.545 11.5503 1.4175 11.7733 1.5975C12.1264 1.89 12.4795 2.1825 12.8327 2.475C13.0464 2.655 12.8884 2.955 12.5818 2.955H11.5224C11.3273 2.955 11.1693 2.8275 11.1693 2.67V1.8Z" fill="#4782FC"/>
<path d="M14.5239 11.73C14.1244 11.6925 14.1522 11.985 14.1522 12.21C14.1522 13.8 14.1522 15.3975 14.1429 16.9875C14.1429 17.1075 14.1244 17.235 14.1151 17.37C10.0172 17.37 5.95648 17.37 1.84001 17.37C1.84001 17.1675 1.84001 16.9875 1.84001 16.8C1.84001 15.2625 1.84931 13.725 1.84931 12.195C1.84931 11.97 1.87718 11.685 1.45903 11.7C1.07805 11.7075 1.1338 11.9775 1.1338 12.1875C1.1338 13.95 1.1338 15.7125 1.12451 17.475C1.12451 17.8275 1.2546 17.9925 1.72851 17.985C5.90072 17.9625 10.0822 17.9475 14.2544 17.9475C14.7098 17.9475 14.8677 17.7975 14.8677 17.4375C14.8584 15.69 14.8677 13.9425 14.8492 12.1875C14.8492 12.0375 14.6633 11.745 14.5239 11.73Z" fill="#4782FC"/>
</g>
<defs>
<clipPath id="clip0">
<rect width="16.3636" height="18" fill="white"/>
</clipPath>
</defs>
</svg>
